<svg xmlns="http://www.w3.org/2000/svg" width="303" height="72" fill="none" viewBox="0 0 303 72">
  <g filter="url(#filter0_d)">
    <path fill="#FFFF38" d="M30.177 29.11h-9.81v-9.707c0-.797-.49-1.196-1.47-1.196-1.025 0-1.538.399-1.538 1.196v34.01c0 .797.513 1.195 1.538 1.195.98 0 1.47-.398 1.47-1.196v-12.1h9.81v12.442c0 2.324-1.14 4.193-3.418 5.605-2.279 1.39-4.854 2.085-7.725 2.085-8.294 0-12.441-2.94-12.441-8.818V21.078c0-6.357 4.147-9.536 12.441-9.536 7.429 0 11.143 2.894 11.143 8.682v8.886zm2.256 23.516V21.078c0-6.357 4.124-9.536 12.373-9.536 8.134 0 12.202 3.156 12.202 9.468v31.548c0 2.848-1.14 5.047-3.418 6.596-2.256 1.527-5.207 2.29-8.853 2.29-8.203 0-12.304-2.94-12.304-8.818zm14.047.513V19.745c0-.98-.58-1.47-1.743-1.47-1.207 0-1.811.49-1.811 1.47V53.14c0 .98.604 1.47 1.811 1.47 1.162 0 1.743-.49 1.743-1.47zM59.127 61V11.986h13.398c2.917 0 5.515.798 7.793 2.393 2.279 1.572 3.418 3.999 3.418 7.28v29.668c0 3.053-1.07 5.435-3.213 7.144C78.404 60.157 75.761 61 72.593 61H59.128zm13.774-8.887v-31.24c0-1.709-1.002-2.563-3.007-2.563v36.4c2.005 0 3.007-.865 3.007-2.597zm12.886-11.587H96.28v12.476c0 1.07.604 1.606 1.812 1.606 1.185 0 1.777-.535 1.777-1.606v-14.56c-.775.82-2.222 1.23-4.34 1.23-2.872 0-5.219-.684-7.042-2.05-1.8-1.39-2.7-3.316-2.7-5.777V20.429c0-2.849 1.128-5.036 3.384-6.563 2.256-1.55 5.207-2.324 8.852-2.324 3.692 0 6.665.763 8.921 2.29 2.279 1.527 3.418 3.703 3.418 6.528v31.582c0 6.335-4.135 9.502-12.407 9.502-8.112 0-12.168-3.144-12.168-9.433V40.526zm14.082-8.955V19.813c0-1.07-.592-1.606-1.777-1.606-1.208 0-1.812.535-1.812 1.607V31.57c0 1.071.604 1.607 1.812 1.607 1.185 0 1.777-.536 1.777-1.607zm36.88-5.605h-10.493l.205-3.965c0-2.53-.661-3.794-1.982-3.794-1.208 0-1.812.535-1.812 1.607v9.57c.798-1.071 2.507-1.607 5.127-1.607 2.598 0 4.74.65 6.426 1.949 1.686 1.298 2.529 3.076 2.529 5.332v17.5c0 2.848-1.139 5.047-3.418 6.596-2.256 1.527-5.207 2.29-8.852 2.29-8.204 0-12.305-2.94-12.305-8.818V21.078c0-6.357 4.124-9.536 12.373-9.536 8.135 0 12.202 3.156 12.202 9.468v4.956zm-10.493 27.036v-16.03c0-1.094-.593-1.64-1.777-1.64-1.208 0-1.812.546-1.812 1.64v16.03c0 1.07.604 1.606 1.812 1.606 1.184 0 1.777-.535 1.777-1.606z"/>
    <path fill="#000" d="M30.177 29.11v2h2v-2h-2zm-9.81 0h-2v2h2v-2zm0 12.203v-2h-2v2h2zm9.81 0h2v-2h-2v2zm-3.418 18.046l1.041 1.708.006-.004.007-.004-1.054-1.7zm3.418-32.249h-9.81v4h9.81v-4zm-7.81 2v-9.707h-4v9.707h4zm0-9.707c0-.828-.274-1.772-1.105-2.448-.751-.612-1.655-.748-2.364-.748v4c.27 0 .1.063-.16-.15a1.074 1.074 0 01-.314-.42c-.057-.14-.057-.232-.057-.234h4zm-3.47-3.196c-.716 0-1.622.13-2.381.72-.855.665-1.157 1.616-1.157 2.476h4a.72.72 0 01-.065.265 1.07 1.07 0 01-.322.417c-.13.1-.231.13-.245.133-.012.003.037-.011.17-.011v-4zm-3.538 3.196v34.01h4v-34.01h-4zm0 34.01c0 .86.302 1.81 1.157 2.475.76.59 1.665.72 2.382.72v-4c-.134 0-.183-.013-.171-.01a.733.733 0 01.245.133c.14.108.253.256.322.417a.72.72 0 01.065.264h-4zm3.539 3.195c.71 0 1.613-.136 2.364-.747.83-.676 1.105-1.62 1.105-2.449h-4c0-.002 0-.094.057-.234.063-.153.17-.303.313-.42.262-.213.43-.15.16-.15v4zm3.47-3.196v-12.1h-4v12.1h4zm-2-10.1h9.809v-4h-9.81v4zm7.809-2v12.442h4V41.313h-4zm0 12.442c0 1.515-.675 2.791-2.472 3.906l2.108 3.4c2.76-1.712 4.364-4.173 4.364-7.306h-4zm-2.46 3.898c-1.94 1.184-4.15 1.792-6.683 1.792v4c3.21 0 6.15-.781 8.766-2.377l-2.083-3.415zm-6.683 1.792c-3.971 0-6.592-.714-8.174-1.836-1.456-1.032-2.267-2.574-2.267-4.982h-4c0 3.471 1.262 6.338 3.954 8.245 2.564 1.818 6.165 2.573 10.487 2.573v-4zM8.593 52.626V21.078h-4v31.548h4zm0-31.548c0-2.707.855-4.437 2.327-5.565 1.572-1.205 4.166-1.971 8.114-1.971v-4c-4.346 0-7.973.823-10.548 2.797-2.675 2.05-3.893 5.088-3.893 8.74h4zm10.441-7.536c3.51 0 5.774.693 7.128 1.748 1.26.981 2.015 2.5 2.015 4.934h4c0-3.354-1.102-6.177-3.557-8.09-2.36-1.838-5.667-2.592-9.586-2.592v4zm9.143 6.682v8.886h4v-8.886h-4zm25.413 38.93l1.12 1.657.005-.003-1.125-1.654zm-19.157-6.528V21.078h-4v31.548h4zm0-31.548c0-2.71.852-4.441 2.314-5.568 1.56-1.202 4.135-1.968 8.059-1.968v-4c-4.326 0-7.937.824-10.501 2.8-2.663 2.052-3.872 5.09-3.872 8.736h4zm10.373-7.536c3.864 0 6.394.759 7.925 1.947 1.435 1.113 2.277 2.828 2.277 5.52h4c0-3.618-1.192-6.638-3.825-8.68-2.536-1.968-6.107-2.787-10.377-2.787v4zm10.202 7.468v31.548h4V21.01h-4zm0 31.548c0 2.212-.833 3.78-2.543 4.942l2.25 3.308c2.847-1.936 4.293-4.767 4.293-8.25h-4zm-2.54 4.94c-1.83 1.238-4.352 1.946-7.73 1.946v4c3.912 0 7.291-.818 9.973-2.633l-2.242-3.313zm-7.73 1.946c-3.924 0-6.506-.713-8.064-1.83-1.435-1.028-2.241-2.572-2.241-4.988h-4c0 3.463 1.244 6.328 3.91 8.24 2.544 1.822 6.114 2.578 10.394 2.578v-4zm3.742-6.305V19.745h-4V53.14h4zm0-33.394c0-.896-.281-1.902-1.146-2.631-.8-.674-1.783-.839-2.597-.839v4c.076 0 .132.004.17.009.038.005.054.01.052.009a.61.61 0 01-.204-.121.866.866 0 01-.243-.335c-.04-.099-.032-.143-.032-.092h4zm-3.743-3.47c-.822 0-1.81.159-2.618.815-.889.72-1.193 1.733-1.193 2.655h4c0-.043.007.01-.037.117a.862.862 0 01-.25.334c-.106.086-.184.105-.172.102a1.16 1.16 0 01.27-.023v-4zm-3.811 3.47V53.14h4V19.745h-4zm0 33.394c0 .921.304 1.934 1.193 2.655.808.656 1.796.814 2.618.814v-4a1.16 1.16 0 01-.27-.022c-.011-.003.066.016.172.102a.863.863 0 01.25.334c.044.106.037.16.037.117h-4zm3.811 3.47c.814 0 1.797-.165 2.597-.839.865-.73 1.146-1.735 1.146-2.631h-4c0 .051-.008.006.032-.093a.866.866 0 01.243-.334.61.61 0 01.204-.12l-.052.008a1.434 1.434 0 01-.17.008v4zM59.127 61h-2v2h2v-2zm0-49.014v-2h-2v2h2zm21.191 2.393l-1.147 1.638.011.008 1.136-1.646zm.205 44.092l1.246 1.565.002-.002-1.248-1.563zM69.893 18.31v-2h-2v2h2zm0 36.4h-2v2h2v-2zM61.128 61V11.986h-4V61h4zm-2-47.014h13.398v-4H59.127v4zm13.398 0c2.528 0 4.72.683 6.646 2.031l2.294-3.277c-2.632-1.842-5.634-2.754-8.94-2.754v4zm6.657 2.04c1.632 1.125 2.554 2.87 2.554 5.633h4c0-3.799-1.357-6.908-4.282-8.926l-2.271 3.292zm2.554 5.633v29.668h4V21.66h-4zm0 29.668c0 2.524-.852 4.298-2.46 5.58l2.495 3.127c2.676-2.135 3.965-5.124 3.965-8.707h-4zm-2.458 5.579C77.571 58.264 75.388 59 72.594 59v4c3.54 0 6.644-.95 9.175-2.964l-2.49-3.13zM72.594 59H59.127v4h13.467v-4zm2.307-6.887v-31.24h-4v31.24h4zm0-31.24c0-1.254-.382-2.531-1.454-3.445-1.01-.861-2.314-1.118-3.553-1.118v4c.365 0 .613.04.769.084a.855.855 0 01.182.073l.005.004.002.002-.001-.001-.003-.003a.054.054 0 01-.005-.007c-.003-.004 0 0 .008.018.015.04.05.157.05.393h4zm-7.007-2.563v36.4h4v-36.4h-4zm2 38.4c1.244 0 2.551-.262 3.563-1.135 1.067-.922 1.444-2.205 1.444-3.462h-4c0 .245-.035.37-.053.417-.009.022-.014.028-.012.025a.05.05 0 01.006-.007l-.007.005a.83.83 0 01-.178.073 2.822 2.822 0 01-.763.085v4zm15.893-16.184v-2h-2v2h2zm10.493 0h2v-2h-2v2zm3.59-2.085h1.999v-5.03l-3.454 3.657 1.454 1.373zm-11.383-.82l-1.222 1.583.011.009.011.008 1.2-1.6zm.684-23.755l1.12 1.657.012-.008-1.132-1.649zm17.773-.034l-1.121 1.656.008.006 1.113-1.662zM85.787 42.526H96.28v-4H85.787v4zm8.493-2v12.476h4V40.526h-4zm0 12.476c0 .91.268 1.94 1.126 2.701.813.72 1.829.905 2.686.905v-4c-.16 0-.226-.018-.226-.018.007.002.091.03.194.12a.761.761 0 01.206.291c.027.072.014.086.014.001h-4zm3.812 3.606c.853 0 1.867-.188 2.674-.917.845-.765 1.103-1.79 1.103-2.689h-4c0 .088-.013.08.013.01a.761.761 0 01.41-.419c.009-.003-.048.015-.2.015v4zm3.777-3.606v-14.56h-4v14.56h4zm-3.454-15.934c-.176.187-.882.604-2.887.604v4c2.234 0 4.422-.403 5.795-1.857l-2.908-2.747zm-2.887.604c-2.552 0-4.445-.604-5.84-1.65l-2.4 3.2c2.25 1.687 5.05 2.45 8.24 2.45v-4zm-5.818-1.634c-1.265-.977-1.923-2.293-1.923-4.193h-4c0 3.022 1.143 5.556 3.478 7.36l2.445-3.167zm-1.923-4.193V20.429h-4v11.416h4zm0-11.416c0-2.221.828-3.772 2.505-4.906L88.05 12.21c-2.835 1.918-4.263 4.743-4.263 8.219h4zm2.516-4.914c1.829-1.256 4.347-1.973 7.72-1.973v-4c-3.918 0-7.3.832-9.984 2.676l2.264 3.297zm7.72-1.973c3.431 0 5.974.71 7.8 1.946l2.242-3.312c-2.685-1.818-6.089-2.634-10.042-2.634v4zm7.808 1.952c1.705 1.142 2.531 2.684 2.531 4.866h4c0-3.468-1.452-6.278-4.304-8.19l-2.227 3.324zm2.531 4.866v31.582h4V20.36h-4zm0 31.582c0 2.695-.852 4.416-2.318 5.539-1.566 1.2-4.152 1.963-8.089 1.963v4c4.335 0 7.952-.82 10.522-2.787 2.67-2.045 3.885-5.075 3.885-8.715h-4zm-10.407 7.502c-3.853 0-6.375-.756-7.9-1.939-1.43-1.108-2.268-2.813-2.268-5.494h-4c0 3.608 1.19 6.619 3.817 8.656 2.53 1.961 6.092 2.777 10.351 2.777v-4zm-10.168-7.433V40.526h-4v11.485h4zm14.082-20.44V19.813h-4v11.758h4zm0-11.758c0-.898-.258-1.924-1.103-2.688-.807-.73-1.82-.918-2.674-.918v4c.152 0 .209.018.2.015a.76.76 0 01-.41-.42c-.026-.068-.013-.077-.013.012h4zm-3.777-3.606c-.857 0-1.873.185-2.686.905-.858.761-1.126 1.791-1.126 2.702h4c0-.085.013-.072-.014 0a.761.761 0 01-.206.291.573.573 0 01-.194.12s.065-.018.226-.018v-4zm-3.812 3.607V31.57h4V19.813h-4zm0 11.757c0 .91.268 1.94 1.126 2.701.813.721 1.829.906 2.686.906v-4c-.16 0-.226-.019-.226-.019.007.003.091.03.194.12a.761.761 0 01.206.291c.027.073.014.086.014.001h-4zm3.812 3.607c.853 0 1.867-.189 2.674-.918.845-.764 1.103-1.79 1.103-2.689h-4c0 .089-.013.08.013.011a.76.76 0 01.41-.42c.009-.002-.048.016-.2.016v4zm38.657-9.212v2h2v-2h-2zm-10.493 0l-1.997-.104-.109 2.104h2.106v-2zm.205-3.965l1.997.103.003-.051V22h-2zm-3.794 7.383h-2v6.034l3.604-4.84-1.604-1.194zm10.664 29.77l1.121 1.657.004-.003-1.125-1.654zm3.418-35.188h-10.493v4h10.493v-4zm-8.496 2.103l.205-3.965-3.994-.206-.205 3.965 3.994.206zm.208-4.068c0-1.374-.169-2.71-.723-3.772-.293-.56-.717-1.088-1.317-1.471a3.572 3.572 0 00-1.942-.551v4c.005 0-.019 0-.063-.012a.536.536 0 01-.146-.065c-.104-.066-.115-.12-.077-.048.106.203.268.763.268 1.919h4zm-3.982-5.794c-.857 0-1.874.185-2.686.905-.858.761-1.126 1.791-1.126 2.702h4c0-.085.012-.072-.015 0a.752.752 0 01-.399.411c-.001 0 .065-.018.226-.018v-4zm-3.812 3.607v9.57h4v-9.57h-4zm3.604 10.764c.18-.24.976-.8 3.523-.8v-4c-2.694 0-5.316.51-6.731 2.411l3.208 2.39zm3.523-.8c2.256 0 3.941.558 5.205 1.532l2.441-3.169c-2.107-1.623-4.707-2.364-7.646-2.364v4zm5.205 1.532c1.162.895 1.75 2.07 1.75 3.748h4c0-2.834-1.098-5.214-3.309-6.917l-2.441 3.169zm1.75 3.748v17.5h4v-17.5h-4zm0 17.5c0 2.212-.833 3.78-2.543 4.942l2.25 3.308c2.848-1.936 4.293-4.767 4.293-8.25h-4zm-2.539 4.94c-1.83 1.238-4.353 1.946-7.731 1.946v4c3.912 0 7.291-.818 9.973-2.633l-2.242-3.313zm-7.731 1.946c-3.923 0-6.506-.713-8.064-1.83-1.435-1.028-2.241-2.572-2.241-4.988h-4c0 3.463 1.244 6.328 3.911 8.24 2.544 1.822 6.113 2.578 10.394 2.578v-4zm-10.305-6.818V21.078h-4v31.548h4zm0-31.548c0-2.71.852-4.441 2.314-5.568 1.56-1.202 4.136-1.968 8.059-1.968v-4c-4.326 0-7.937.824-10.501 2.8-2.663 2.052-3.872 5.09-3.872 8.736h4zm10.373-7.536c3.864 0 6.394.759 7.925 1.947 1.435 1.113 2.277 2.828 2.277 5.52h4c0-3.618-1.192-6.638-3.824-8.68-2.537-1.968-6.107-2.787-10.378-2.787v4zm10.202 7.468v4.956h4V21.01h-4zm-6.493 31.992v-16.03h-4v16.03h4zm0-16.03c0-.898-.251-1.928-1.088-2.7-.807-.745-1.827-.94-2.689-.94v4c.148 0 .201.017.189.013a.606.606 0 01-.213-.134.717.717 0 01-.191-.278c-.022-.06-.008-.06-.008.039h4zm-3.777-3.64c-.866 0-1.889.19-2.702.927-.85.77-1.11 1.804-1.11 2.713h4c0-.095.014-.091-.01-.027a.736.736 0 01-.393.403c-.004.002.057-.017.215-.017v-4zm-3.812 3.64v16.03h4v-16.03h-4zm0 16.03c0 .91.268 1.94 1.126 2.701.812.72 1.829.905 2.686.905v-4c-.161 0-.227-.018-.226-.018a.752.752 0 01.399.411c.027.072.015.086.015.001h-4zm3.812 3.606c.853 0 1.867-.188 2.674-.917.845-.765 1.103-1.79 1.103-2.689h-4c0 .088-.013.08.012.01a.776.776 0 01.202-.289.612.612 0 01.209-.13c.009-.003-.049.015-.2.015v4z"/>
  </g>
  <g filter="url(#filter1_d)">
    <path fill="#FFFF38" d="M166.991 56h-4.16V42.406c0-.517-.239-.776-.718-.776-.488 0-.732.249-.732.747V56h-4.16V42.377c0-.518-.24-.776-.718-.776-.488 0-.732.249-.732.747V56h-4.161V38.993h4.161v.6c.576-.478 1.44-.717 2.592-.717.967 0 1.846.386 2.637 1.157.732-.771 1.733-1.157 3.003-1.157.723 0 1.401.22 2.036.66.635.429.952 1.03.952 1.8V56zm10.811 0h-3.692v-.66c-.312.596-1.206.894-2.68.894-2.276 0-3.413-.888-3.413-2.666v-3.413c0-.761.273-1.425.82-1.992.557-.566 1.67-1.274 3.34-2.124.967-.488 1.45-.879 1.45-1.172v-2.52c0-.556-.239-.834-.718-.834-.547 0-.82.678-.82 2.036 0 .244.015.605.044 1.084.039.478.058.84.058 1.084h-4.028v-3.399c0-2.295 1.66-3.442 4.981-3.442 3.105 0 4.658 1.196 4.658 3.589V56zm-4.175-3.179v-4.38c-.957.235-1.436.664-1.436 1.29v3.09c0 .518.249.777.747.777.459 0 .689-.26.689-.777zM189.975 56h-4.6l-1.436-4.614L182.592 56h-4.175l3.267-8.994-3.179-8.013h4.409l1.421 4.41 1.128-4.41h3.97l-2.798 8.218 3.34 8.789zm4.321 0h-3.809v-3.062h3.809V56zm18.911-2.695h-2.285V56h-4.497v-2.695h-6.24V50.33l4.526-15.337h6.211v15.161h2.285v3.15zm-6.782-3.15v-8.29l-2.095 8.29h2.095zM224.223 56H213.69v-2.783l5.186-9.522c.566-1.035.85-2.45.85-4.248 0-.937-.313-1.406-.938-1.406-.644 0-.967.293-.967.879v3.603h-4.131v-3.662c0-2.705 1.739-4.057 5.215-4.057 2.149 0 3.57.498 4.263 1.494.703.986 1.055 2.612 1.055 4.878 0 .889-.152 1.62-.454 2.197l-5.186 9.932h5.64V56zm11.396-21.006l-.718 3.179h-5.229l-.205 4.321c.459-.459 1.26-.688 2.402-.688 2.422 0 3.633 1.04 3.633 3.12v7.456c0 1.21-.483 2.148-1.45 2.812-.967.664-2.237.996-3.809.996-3.515 0-5.273-1.26-5.273-3.779v-5.23h4.497v5.391c0 .46.259.689.776.689.508 0 .762-.23.762-.689v-6.987c0-.498-.283-.747-.85-.747-.517 0-.786.43-.805 1.289l-4.322-.117.235-11.016h10.356zm.689 17.417v-13.52c0-2.725 1.811-4.087 5.434-4.087 3.555 0 5.332 1.352 5.332 4.057v13.52c0 1.212-.503 2.15-1.509 2.813-.996.664-2.28.996-3.852.996-1.621 0-2.93-.327-3.926-.981-.986-.654-1.479-1.587-1.479-2.798zm6.152.22V38.319c0-.42-.249-.63-.747-.63-.527 0-.791.21-.791.63v14.312c0 .42.264.63.791.63.498 0 .747-.21.747-.63zM265.019 56h-4.908l-2.563-6.152V56h-4.16V34.994h4.16v9.42l2.139-5.42h4.321l-3.032 7.44L265.019 56zm1.377 3.603v-2.46h3.383c.987 0 1.48-.513 1.48-1.538-.547.42-1.406.63-2.578.63-.821 0-1.534-.215-2.139-.645-.596-.44-.894-1.01-.894-1.714V41.659c0-1.855 1.109-2.783 3.326-2.783.586 0 1.357.249 2.314.747l.542-.63h3.589v16.773c0 1.103-.22 2.016-.659 2.739-.43.732-1.778 1.098-4.043 1.098h-4.321zm4.863-6.635V42.289c0-.517-.239-.776-.718-.776-.488 0-.732.259-.732.776v10.65c0 .517.244.776.732.776.479 0 .718-.25.718-.747z"/>
    <path fill="#000" d="M166.991 56v1h1v-1h-1zm-4.16 0h-1v1h1v-1zm-1.45 0v1h1v-1h-1zm-4.16 0h-1v1h1v-1zm-1.45 0v1h1v-1h-1zm-4.161 0h-1v1h1v-1zm0-17.007v-1h-1v1h1zm4.161 0h1v-1h-1v1zm0 .6h-1v2.131l1.638-1.361-.638-.77zm5.229.44l-.698.716.725.708.698-.735-.725-.689zm5.039-.498l-.569.822.008.006.561-.828zM166.991 55h-4.16v2h4.16v-2zm-3.16 1V42.406h-2V56h2zm0-13.594c0-.394-.089-.876-.445-1.26-.369-.4-.858-.516-1.273-.516v2c.032 0 .018.005-.025-.01a.448.448 0 01-.171-.117c-.116-.126-.086-.22-.086-.097h2zm-1.718-1.776c-.403 0-.888.104-1.263.487-.371.378-.469.862-.469 1.26h2c0-.1.024.01-.103.14-.131.133-.25.113-.165.113v-2zm-1.732 1.747V56h2V42.377h-2zm1 12.623h-4.16v2h4.16v-2zm-3.16 1V42.377h-2V56h2zm0-13.623c0-.394-.09-.877-.445-1.261-.37-.4-.859-.515-1.273-.515v2c.032 0 .018.004-.025-.011a.441.441 0 01-.171-.117c-.116-.125-.086-.22-.086-.096h2zm-1.718-1.776c-.403 0-.888.104-1.263.486-.372.38-.469.862-.469 1.26h2c0-.1.024.01-.103.14-.131.134-.25.114-.165.114v-2zm-1.732 1.747V56h2V42.348h-2zm1 12.652h-4.161v2h4.161v-2zm-3.161 1V38.993h-2V56h2zm-1-16.007h4.161v-2h-4.161v2zm3.161-1v.6h2v-.6h-2zm1.638 1.37c.323-.267.916-.487 1.954-.487v-2c-1.266 0-2.401.259-3.231.949l1.277 1.538zm1.954-.487c.668 0 1.306.256 1.939.873l1.396-1.432c-.949-.925-2.069-1.441-3.335-1.441v2zm3.362.846c.508-.535 1.225-.846 2.278-.846v-2c-1.486 0-2.771.46-3.728 1.469l1.45 1.377zm2.278-.846c.505 0 .987.15 1.467.481l1.138-1.644c-.79-.547-1.665-.837-2.605-.837v2zm1.475.487c.358.242.513.532.513.974h2c0-1.1-.48-2.013-1.391-2.63l-1.122 1.656zm.513.974V56h2V41.337h-2zM177.802 56v1h1v-1h-1zm-3.692 0h-1v1h1v-1zm0-.66h1l-1.885-.464.885.465zm-5.273-7.177l-.713-.7-.006.005.719.695zm3.34-2.124l-.451-.893-.003.002.454.891zm-.044-1.406l-.998.06v.011l.001.01.997-.081zm.058 1.084v1h1v-1h-1zm-4.028 0h-1v1h1v-1zm5.464 2.724h1v-1.274l-1.238.303.238.971zM177.802 55h-3.692v2h3.692v-2zm-2.692 1v-.66h-2V56h2zm-1.885-1.124c-.001.001-.009.02-.053.052a1.038 1.038 0 01-.282.134c-.304.102-.777.172-1.46.172v2c.791 0 1.503-.078 2.092-.274.593-.198 1.157-.55 1.474-1.155l-1.771-.929zm-1.795.358c-1.035 0-1.627-.206-1.945-.454-.27-.211-.468-.552-.468-1.212h-2c0 1.118.37 2.11 1.237 2.788.821.64 1.935.878 3.176.878v-2zm-2.413-1.666v-3.413h-2v3.413h2zm0-3.413c0-.493.166-.91.539-1.297l-1.438-1.39c-.721.746-1.101 1.657-1.101 2.687h2zm.533-1.291c.431-.439 1.411-1.084 3.08-1.934l-.907-1.782c-1.671.85-2.917 1.62-3.599 2.314l1.426 1.402zm3.078-1.932c.507-.257.942-.514 1.265-.774.161-.13.327-.288.46-.475.13-.185.274-.464.274-.816h-2c0-.205.083-.325.093-.34.012-.016-.004.01-.084.075-.161.13-.451.312-.91.544l.902 1.786zm1.999-2.065v-2.52h-2v2.52h2zm0-2.52c0-.398-.082-.883-.421-1.278-.364-.422-.861-.556-1.297-.556v2c.025 0 .003.004-.047-.016a.448.448 0 01-.173-.124.315.315 0 01-.068-.115c-.002-.006.006.019.006.09h2zm-1.718-1.834c-.362 0-.709.119-.996.357-.27.223-.438.509-.547.778-.209.52-.277 1.185-.277 1.9h2c0-.64.069-.994.132-1.153.029-.07.031-.038-.033.015a.457.457 0 01-.279.103v-2zm-1.82 3.036c0 .276.016.662.046 1.145l1.996-.122a18.42 18.42 0 01-.042-1.023h-2zm.047 1.165c.039.472.055.8.055 1.003h2c0-.286-.022-.68-.062-1.166l-1.993.163zm1.055.003h-4.028v2h4.028v-2zm-3.028 1v-3.399h-2v3.399h2zm0-3.399c0-.871.294-1.4.814-1.759.586-.405 1.591-.683 3.167-.683v-2c-1.745 0-3.231.296-4.304 1.038-1.141.788-1.677 1.98-1.677 3.404h2zm3.981-2.442c1.452 0 2.357.285 2.883.69.476.366.775.937.775 1.899h2c0-1.43-.478-2.654-1.554-3.484-1.028-.791-2.451-1.105-4.104-1.105v2zm3.658 2.589V56h2V42.465h-2zm-2.175 10.356v-4.38h-2v4.38h2zm-1.238-5.35c-.561.136-1.097.356-1.507.724-.443.399-.691.93-.691 1.535h2c0-.025.004-.026.001-.018-.004.007-.002-.003.026-.029.069-.061.251-.173.647-.27l-.476-1.943zm-2.198 2.26v3.09h2v-3.09h-2zm0 3.09c0 .404.097.892.467 1.276.376.391.867.5 1.28.5v-2c-.04 0-.034-.005.001.007.04.014.102.046.16.106.12.126.092.225.092.111h-2zm1.747 1.777c.417 0 .904-.123 1.265-.53.341-.386.424-.861.424-1.247h-2c0 .133-.032.045.08-.08a.46.46 0 01.181-.128c.05-.019.074-.015.05-.015v2zM189.975 56v1h1.449l-.515-1.355-.934.355zm-4.6 0l-.955.297.219.703h.736v-1zm-1.436-4.614l.955-.297-.985-3.167-.929 3.183.959.28zM182.592 56v1h.75l.21-.72-.96-.28zm-4.175 0l-.94-.341L176.99 57h1.427v-1zm3.267-8.994l.94.341.129-.357-.14-.353-.929.369zm-3.179-8.013v-1h-1.473l.543 1.369.93-.369zm4.409 0l.952-.307-.224-.693h-.728v1zm1.421 4.41l-.952.306 1.062 3.296.859-3.355-.969-.248zm1.128-4.41v-1h-.776l-.193.752.969.248zm3.97 0l.946.322.45-1.322h-1.396v1zm-2.798 8.218l-.947-.322-.116.34.128.337.935-.355zm3.34 7.789h-4.6v2h4.6v-2zm-3.645.703l-1.436-4.614-1.909.594 1.435 4.614 1.91-.594zm-3.35-4.598l-1.348 4.615 1.92.56 1.347-4.614-1.919-.56zM182.592 55h-4.175v2h4.175v-2zm-3.235 1.341l3.267-8.994-1.88-.683-3.267 8.995 1.88.682zm3.256-9.704l-3.179-8.013-1.859.738 3.179 8.013 1.859-.738zm-4.108-6.644h4.409v-2h-4.409v2zm3.457-.693l1.421 4.41 1.904-.614-1.421-4.41-1.904.614zm3.342 4.35l1.128-4.409-1.938-.496-1.128 4.41 1.938.495zm.159-3.657h3.97v-2h-3.97v2zm3.023-1.322l-2.798 8.218 1.893.644 2.798-8.218-1.893-.644zm-2.786 8.895l3.34 8.79 1.869-.711-3.339-8.79-1.87.711zM194.296 56v1h1v-1h-1zm-3.809 0h-1v1h1v-1zm0-3.062v-1h-1v1h1zm3.809 0h1v-1h-1v1zm0 2.062h-3.809v2h3.809v-2zm-2.809 1v-3.062h-2V56h2zm-1-2.062h3.809v-2h-3.809v2zm2.809-1V56h2v-3.062h-2zm19.911.367v1h1v-1h-1zm-2.285 0v-1h-1v1h1zm0 2.695v1h1v-1h-1zm-4.497 0h-1v1h1v-1zm0-2.695h1v-1h-1v1zm-6.24 0h-1v1h1v-1zm0-2.974l-.96-.283-.04.139v.144h1zm4.526-15.337v-1h-.748l-.211.717.959.283zm6.211 0h1v-1h-1v1zm0 15.161h-1v1h1v-1zm2.285 0h1v-1h-1v1zm-6.782 0v1h1v-1h-1zm0-8.29h1l-1.97-.246.97.245zm-2.095 8.29l-.969-.245-.315 1.245h1.284v-1zm8.877 2.15h-2.285v2h2.285v-2zm-3.285 1V56h2v-2.695h-2zm1 1.695h-4.497v2h4.497v-2zm-3.497 1v-2.695h-2V56h2zm-1-3.695h-6.24v2h6.24v-2zm-5.24 1V50.33h-2v2.974h2zm-.041-2.69l4.526-15.338-1.918-.566-4.527 15.337 1.919.566zm3.567-14.62h6.211v-2h-6.211v2zm5.211-1v15.16h2v-15.16h-2zm1 16.16h2.285v-2h-2.285v2zm1.285-1v3.15h2v-3.15h-2zm-4.782 0v-8.29h-2v8.29h2zm-1.97-8.536l-2.094 8.291 1.939.49 2.094-8.29-1.939-.49zm-1.125 9.536h2.095v-2h-2.095v2zM224.223 56v1h1v-1h-1zm-10.533 0h-1v1h1v-1zm0-2.783l-.878-.478-.122.223v.255h1zm5.186-9.522l-.877-.48-.001.002.878.478zm-1.055-1.172v1h1v-1h-1zm-4.131 0h-1v1h1v-1zm9.478-6.225l-.821.571.007.01.814-.581zm.601 7.075l-.886-.465-.001.002.887.463zm-5.186 9.932l-.886-.463-.764 1.463h1.65v-1zm5.64 0h1v-1h-1v1zm0 1.695H213.69v2h10.533v-2zm-9.533 1v-2.783h-2V56h2zm-.121-2.305l5.185-9.521-1.756-.957-5.186 9.522 1.757.956zm5.184-9.52c.679-1.24.973-2.843.973-4.728h-2c0 1.71-.273 2.938-.727 3.768l1.754.96zm.973-4.728c0-.548-.086-1.134-.403-1.61-.364-.546-.931-.796-1.535-.796v2c.031 0 .009.005-.037-.018a.251.251 0 01-.092-.076c-.006-.01.012.015.032.102.019.087.035.216.035.398h2zm-1.938-2.406c-.454 0-.981.101-1.398.48-.434.395-.569.926-.569 1.399h2c0-.058.008-.065 0-.04a.37.37 0 01-.085.121c-.046.041-.082.052-.081.052a.518.518 0 01.133-.012v-2zm-1.967 1.879v3.603h2V38.92h-2zm1 2.603h-4.131v2h4.131v-2zm-3.131 1v-3.662h-2v3.662h2zm0-3.662c0-1.122.348-1.81.918-2.254.618-.48 1.661-.803 3.297-.803v-2c-1.84 0-3.404.353-4.525 1.225-1.168.909-1.69 2.25-1.69 3.832h2zm4.215-3.057c2.068 0 3.042.49 3.442 1.065l1.642-1.142c-.987-1.418-2.854-1.923-5.084-1.923v2zm3.449 1.074c.515.724.869 2.085.869 4.298h2c0-2.318-.35-4.21-1.241-5.459l-1.628 1.161zm.869 4.298c0 .783-.135 1.342-.34 1.732l1.771.93c.4-.762.569-1.668.569-2.662h-2zm-.341 1.734l-5.185 9.932 1.772.925 5.186-9.931-1.773-.926zm-4.299 11.395h5.64v-2h-5.64v2zm4.64-1V56h2v-2.695h-2zm12.396-18.31l.976.22.275-1.22h-1.251v1zm-.718 3.178v1h.8l.176-.78-.976-.22zm-5.229 0v-1h-.954l-.045.952.999.048zm-.205 4.321l-.999-.047-.123 2.583 1.829-1.829-.707-.707zm-4.497 4.688v-1h-1v1h1zm4.497 0h1v-1h-1v1zm-.117-1.055l-.027 1 1.004.027.022-1.004-.999-.023zm-4.322-.117l-.999-.021-.022.993.994.027.027-1zm.235-11.016v-1h-.979l-.021.979 1 .021zm9.381-.22l-.718 3.179 1.951.44.718-3.179-1.951-.44zm.257 2.399h-5.229v2h5.229v-2zm-6.228.952l-.205 4.322 1.998.094.205-4.32-1.998-.096zm1.501 5.076c.172-.171.632-.395 1.695-.395v-2c-1.222 0-2.363.235-3.109.981l1.414 1.414zm1.695-.395c1.091 0 1.723.237 2.073.538.322.276.56.739.56 1.582h2c0-1.238-.367-2.335-1.257-3.099-.86-.739-2.045-1.021-3.376-1.021v2zm2.633 2.12v7.456h2v-7.456h-2zm0 7.456c0 .894-.332 1.518-1.016 1.988l1.132 1.649c1.249-.858 1.884-2.11 1.884-3.637h-2zm-1.016 1.988c-.752.517-1.805.82-3.243.82v2c1.707 0 3.193-.36 4.375-1.171l-1.132-1.649zm-3.243.82c-1.668 0-2.74-.304-3.372-.757-.571-.41-.901-1.024-.901-2.022h-2c0 1.521.549 2.797 1.736 3.647 1.125.807 2.69 1.132 4.537 1.132v-2zm-4.273-2.779v-5.23h-2v5.23h2zm-1-4.23h4.497v-2h-4.497v2zm3.497-1v5.391h2v-5.39h-2zm0 5.391c0 .417.123.903.53 1.265.385.34.861.424 1.246.424v-2c-.132 0-.044-.032.081.08a.464.464 0 01.127.18c.019.051.016.075.016.051h-2zm1.776 1.689c.385 0 .86-.085 1.242-.43.402-.363.52-.848.52-1.259h-2c0 .025-.004.004.014-.044a.469.469 0 01.125-.181c.128-.116.223-.086.099-.086v2zm1.762-1.689v-6.987h-2v6.987h2zm0-6.987c0-.439-.131-.94-.552-1.311-.397-.35-.89-.436-1.298-.436v2c.072 0 .097.008.091.006a.32.32 0 01-.114-.068.423.423 0 01-.115-.163c-.017-.044-.012-.06-.012-.028h2zm-1.85-1.747a1.65 1.65 0 00-1.437.792c-.275.44-.357.975-.368 1.474l1.999.046c.004-.168.02-.288.038-.369.018-.082.035-.103.027-.09a.334.334 0 01-.121.105.312.312 0 01-.138.042v-2zm-.778 1.29l-4.322-.118-.054 2 4.322.117.054-2zm-3.349.903l.234-11.016-1.999-.042-.234 11.016 1.999.042zm-.765-10.037h10.356v-2h-10.356v2zm20.302 19.2l-.551-.834-.003.002.554.832zm-7.778.015l-.553.833.004.003.549-.836zm-.479-2.798v-13.52h-2v13.52h2zm0-13.52c0-1.12.357-1.813.959-2.266.656-.494 1.76-.821 3.475-.821v-2c-1.908 0-3.521.353-4.677 1.222-1.209.91-1.757 2.26-1.757 3.865h2zm4.434-3.087c1.679 0 2.755.324 3.394.81.586.447.938 1.133.938 2.247h2c0-1.59-.537-2.933-1.727-3.839-1.139-.866-2.729-1.218-4.605-1.218v2zm4.332 3.057v13.52h2v-13.52h-2zm0 13.52c0 .878-.336 1.5-1.06 1.979l1.102 1.669c1.288-.85 1.958-2.102 1.958-3.647h-2zm-1.063 1.981c-.788.525-1.862.828-3.298.828v2c1.709 0 3.202-.36 4.407-1.164l-1.109-1.664zm-3.298.828c-1.494 0-2.593-.302-3.377-.817l-1.098 1.672c1.208.793 2.727 1.145 4.475 1.145v-2zm-3.373-.814c-.699-.464-1.032-1.08-1.032-1.965h-2c0 1.537.653 2.787 1.926 3.631l1.106-1.666zm5.12-1.745V38.319h-2v14.312h2zm0-14.312c0-.413-.131-.89-.542-1.237-.379-.32-.84-.392-1.205-.392v2c.132 0 .046.031-.084-.079a.517.517 0 01-.146-.2c-.024-.062-.023-.1-.023-.092h2zm-1.747-1.63c-.37 0-.832.07-1.216.376-.428.34-.575.822-.575 1.254h2c0-.002 0 .043-.028.11a.514.514 0 01-.151.2.354.354 0 01-.12.066c-.004.002.021-.005.09-.005v-2zm-1.791 1.63v14.312h2V38.319h-2zm0 14.312c0 .432.147.914.575 1.255.384.306.846.375 1.216.375v-2c-.069 0-.094-.007-.09-.006a.354.354 0 01.12.066c.067.054.12.125.151.2.028.068.028.112.028.11h-2zm1.791 1.63c.365 0 .826-.074 1.205-.393.411-.347.542-.824.542-1.237h-2c0 .008-.001-.03.023-.092a.518.518 0 01.146-.2c.13-.11.216-.078.084-.078v2zM265.019 56v1h1.508l-.587-1.39-.921.39zm-4.908 0l-.923.385.257.615h.666v-1zm-2.563-6.152l.923-.385-1.923.385h1zm0 6.152v1h1v-1h-1zm-4.16 0h-1v1h1v-1zm0-21.006v-1h-1v1h1zm4.16 0h1v-1h-1v1zm0 9.42h-1l1.93.366-.93-.367zm2.139-5.42v-1h-.681l-.25.632.931.367zm4.321 0l.926.377.561-1.378h-1.487v1zm-3.032 7.44l-.926-.377-.157.385.161.382.922-.39zM265.019 55h-4.908v2h4.908v-2zm-3.985.615l-2.563-6.152-1.846.77 2.563 6.152 1.846-.77zm-4.486-5.767V56h2v-6.152h-2zm1 5.152h-4.16v2h4.16v-2zm-3.16 1V34.994h-2V56h2zm-1-20.006h4.16v-2h-4.16v2zm3.16-1v9.42h2v-9.42h-2zm1.93 9.786l2.139-5.42-1.861-.734-2.138 5.42 1.86.734zm1.209-4.787h4.321v-2h-4.321v2zm3.395-1.377l-3.032 7.441 1.852.755 3.032-7.441-1.852-.755zm-3.028 8.208l4.043 9.565 1.843-.778-4.043-9.566-1.843.779zm6.342 12.78h-1v1h1v-1zm0-2.461v-1h-1v1h1zm4.863-1.538h1v-2.03l-1.609 1.236.609.794zm-4.717-.015l-.594.805.008.005.007.005.579-.815zm4.746-15.967l-.462.887.703.366.517-.6-.758-.653zm.542-.63v-1h-.459l-.299.348.758.652zm3.589 0h1v-1h-1v1zm-.659 19.512l-.855-.52-.004.007-.004.007.863.506zm-7.364 1.098v-2.46h-2v2.46h2zm-1-1.46h3.383v-2h-3.383v2zm3.383 0c.658 0 1.332-.173 1.831-.692.491-.51.649-1.19.649-1.846h-2c0 .368-.089.458-.091.46-.003.003-.018.019-.069.037a.999.999 0 01-.32.04v2zm.871-3.332c-.287.22-.878.423-1.969.423v2c1.252 0 2.38-.217 3.187-.836l-1.218-1.587zm-1.969.423c-.636 0-1.142-.163-1.56-.46l-1.158 1.631c.793.563 1.713.83 2.718.83v-2zm-1.545-.449c-.356-.262-.488-.543-.488-.909h-2c0 1.04.465 1.902 1.3 2.519l1.188-1.61zm-.488-.909V41.659h-2v12.217h2zm0-12.217c0-.722.208-1.098.474-1.32.3-.252.858-.463 1.852-.463v-2c-1.224 0-2.328.252-3.136.929-.843.705-1.19 1.72-1.19 2.854h2zm2.326-1.783c.34 0 .937.158 1.852.634l.924-1.774c-.999-.52-1.945-.86-2.776-.86v2zm3.072.4l.542-.63-1.516-1.305-.542.63 1.516 1.304zm-.216-.283h3.589v-2h-3.589v2zm2.589-1v16.773h2V38.993h-2zm0 16.773c0 .974-.194 1.694-.514 2.22l1.709 1.039c.56-.92.805-2.027.805-3.26h-2zm-.522 2.233c-.019.032-.157.208-.732.365-.553.15-1.356.24-2.448.24v2c1.174 0 2.176-.094 2.972-.31.772-.21 1.523-.583 1.933-1.283l-1.725-1.012zm-3.18.604h-4.321v2h4.321v-2zm1.542-5.635V42.289h-2v10.679h2zm0-10.679c0-.394-.09-.876-.445-1.261-.37-.4-.859-.515-1.273-.515v2c.032 0 .018.004-.025-.011a.448.448 0 01-.171-.116c-.116-.126-.086-.22-.086-.097h2zm-1.718-1.776c-.414 0-.904.112-1.277.508-.362.384-.455.87-.455 1.268h2c0-.119.029-.022-.09.104a.437.437 0 01-.165.111c-.039.014-.049.009-.013.009v-2zm-1.732 1.776v10.65h2v-10.65h-2zm0 10.65c0 .398.093.883.455 1.268.373.395.863.508 1.277.508v-2c-.036 0-.026-.005.013.008.044.016.107.05.165.111.119.126.09.223.09.104h-2zm1.732 1.776c.404 0 .888-.107 1.259-.494.365-.38.459-.86.459-1.253h-2c0 .104-.026-.003.099-.133.133-.138.258-.12.183-.12v2z"/>
  </g>
  <defs>
    <filter id="filter0_d" width="142.156" height="61.902" x=".593" y="9.542" color-interpolation-filters="sRGB" filterUnits="userSpaceOnUse">
      <feFlood flood-opacity="0" result="BackgroundImageFix"/>
      <feColorMatrix in="SourceAlpha" result="hardAlpha" values="0 0 0 0 0 0 0 0 0 0 0 0 0 0 0 0 0 0 127 0"/>
      <feOffset dy="4"/>
      <feGaussianBlur stdDeviation="2"/>
      <feColorMatrix values="0 0 0 0 0 0 0 0 0 0 0 0 0 0 0 0 0 0 0.25 0"/>
      <feBlend in2="BackgroundImageFix" result="effect1_dropShadow"/>
      <feBlend in="SourceGraphic" in2="effect1_dropShadow" result="shape"/>
    </filter>
    <filter id="filter1_d" width="133.809" height="34.8" x="146.61" y="33.804" color-interpolation-filters="sRGB" filterUnits="userSpaceOnUse">
      <feFlood flood-opacity="0" result="BackgroundImageFix"/>
      <feColorMatrix in="SourceAlpha" result="hardAlpha" values="0 0 0 0 0 0 0 0 0 0 0 0 0 0 0 0 0 0 127 0"/>
      <feOffset dy="4"/>
      <feGaussianBlur stdDeviation="2"/>
      <feColorMatrix values="0 0 0 0 0 0 0 0 0 0 0 0 0 0 0 0 0 0 0.25 0"/>
      <feBlend in2="BackgroundImageFix" result="effect1_dropShadow"/>
      <feBlend in="SourceGraphic" in2="effect1_dropShadow" result="shape"/>
    </filter>
  </defs>
</svg>
