<svg xmlns="http://www.w3.org/2000/svg" width="807" height="372" fill="none" viewBox="0 0 807 372">
  <g filter="url(#filter0_f_521_281)">
    <rect width="41" height="41" x="175" y="260" fill="#FFED00" rx="20.5"/>
  </g>
  <g filter="url(#filter1_f_521_281)">
    <rect width="41" height="41" x="340" y="64" fill="#FFED00" rx="20.5"/>
  </g>
  <g filter="url(#filter2_f_521_281)">
    <rect width="41" height="41" x="605" y="77" fill="#FFED00" rx="20.5"/>
  </g>
  <path stroke="#000" stroke-width="25" d="M0 348.897h96.868c16.145 3.971 54.781 11.467 80.168 9.68 31.732-2.234 59.29-22.34 73.486-32.765 14.196-10.425 78.497-88.614 96.868-98.294 18.372-9.681 82.673-44.68 99.374-52.126 16.702-7.447 53.445-21.595 75.157-22.34 21.712-.745 83.507 6.702 101.044 8.936 17.536 2.234 34.238 14.149 49.269 20.85 15.031 6.702 70.981 33.51 81.837 44.68 8.685 8.936 34.238 26.559 45.929 34.254"/>
  <path stroke="#FFFF38" stroke-dasharray="8 8" stroke-width="2" d="M0 348.897h96.868c16.145 3.971 54.781 11.467 80.167 9.68 31.733-2.234 59.291-22.34 73.487-32.765 14.196-10.425 78.497-88.614 96.868-98.294 18.372-9.681 82.673-44.68 99.374-52.126 16.702-7.447 53.445-21.595 75.157-22.34 21.712-.745 83.507 6.702 101.043 8.936 17.537 2.234 34.238 14.149 49.27 20.85 15.031 6.702 70.981 33.51 81.837 44.68 8.685 8.936 34.238 26.559 45.929 34.254"/>
  <g filter="url(#filter3_d_521_281)">
    <path fill="#FFFF38" d="M161.363 237h-3.845v-17.505h3.845V237zm8.997-8.301h-3.479v-3.076c0-.431-.2-.647-.598-.647-.399 0-.598.208-.598.623V237h-3.48v-14.172h3.48v.476c.463-.383 1.18-.574 2.148-.574.692 0 1.286.187 1.782.562.497.366.745.85.745 1.452v3.955zm8.874 8.301h-3.076v-.549c-.26.496-1.005.744-2.234.744-1.896 0-2.844-.74-2.844-2.221v-2.845c0-.634.228-1.188.684-1.66.463-.472 1.391-1.062 2.783-1.77.805-.407 1.208-.732 1.208-.976v-2.1c0-.464-.199-.696-.598-.696-.456 0-.683.566-.683 1.697 0 .203.012.505.036.903.033.399.049.7.049.904h-3.357v-2.832c0-1.913 1.384-2.869 4.15-2.869 2.588 0 3.882.997 3.882 2.991V237zm-3.479-2.649v-3.65c-.797.195-1.196.554-1.196 1.074v2.576c0 .431.208.647.623.647.382 0 .573-.216.573-.647zM186.949 237h-2.197c-1.571 0-2.511-.236-2.82-.708-.309-.472-.464-1.379-.464-2.722v-8.643h-1.55v-2.099h1.55v-2.857h3.479v2.857h1.88v2.099h-1.88v8.618c0 .415.122.696.366.843.253.138.798.207 1.636.207V237zm10.376 0h-4.089l-2.136-5.127V237h-3.467v-17.505h3.467v7.849l1.782-4.516h3.601l-2.527 6.201 3.369 7.971zm.464-2.795v-8.484c0-1.994 1.379-2.991 4.138-2.991 1.066 0 2.002.232 2.808.696.814.464 1.22 1.188 1.22 2.173v8.728c0 1.912-1.342 2.868-4.028 2.868-2.759 0-4.138-.997-4.138-2.99zm4.687.097v-8.679c0-.464-.199-.696-.598-.696-.407 0-.61.232-.61.696v8.679c0 .48.203.72.61.72.399 0 .598-.24.598-.72zM214.964 237h-8.349v-1.953l3.943-9.949h-3.724v-2.27h7.752v1.916l-4.004 10.01h4.382V237zm8.826 0h-3.076v-.549c-.261.496-1.005.744-2.234.744-1.896 0-2.844-.74-2.844-2.221v-2.845c0-.634.228-1.188.683-1.66.464-.472 1.392-1.062 2.783-1.77.806-.407 1.209-.732 1.209-.976v-2.1c0-.464-.199-.696-.598-.696-.456 0-.684.566-.684 1.697 0 .203.012.505.037.903.032.399.049.7.049.904h-3.357v-2.832c0-1.913 1.383-2.869 4.15-2.869 2.588 0 3.882.997 3.882 2.991V237zm-3.479-2.649v-3.65c-.798.195-1.196.554-1.196 1.074v2.576c0 .431.207.647.622.647.383 0 .574-.216.574-.647zm1.685-14.856l-1.453 2.258h-1.917l.745-2.258h2.625zm2.612 11.804h3.467v3.003c0 .48.195.72.586.72.39 0 .586-.459.586-1.379 0-1.196-.241-1.969-.721-2.319-1.814-.952-2.909-1.616-3.283-1.99-.375-.383-.562-.952-.562-1.709v-1.904c0-1.994 1.351-2.991 4.053-2.991 2.628 0 3.943.956 3.943 2.869v2.795h-3.394l.073-1.697c0-1.18-.215-1.77-.647-1.77-.431 0-.647.371-.647 1.111 0 .765.094 1.343.281 1.733.196.391 1.262 1.062 3.198 2.015.806.577 1.209 1.342 1.209 2.295v2.124c0 1.993-1.371 2.99-4.114 2.99-2.685 0-4.028-.956-4.028-2.868v-3.028z"/>
    <path fill="#000" d="M161.363 237v.5h.5v-.5h-.5zm-3.845 0h-.5v.5h.5v-.5zm0-17.505v-.5h-.5v.5h.5zm3.845 0h.5v-.5h-.5v.5zm0 17.005h-3.845v1h3.845v-1zm-3.345.5v-17.505h-1V237h1zm-.5-17.005h3.845v-1h-3.845v1zm3.345-.5V237h1v-17.505h-1zm9.497 9.204v.5h.5v-.5h-.5zm-3.479 0h-.5v.5h.5v-.5zM165.685 237v.5h.5v-.5h-.5zm-3.48 0h-.5v.5h.5v-.5zm0-14.172v-.5h-.5v.5h.5zm3.48 0h.5v-.5h-.5v.5zm0 .476h-.5v1.06l.818-.675-.318-.385zm3.93-.012l-.301.399.004.003.297-.402zm.745 4.907h-3.479v1h3.479v-1zm-2.979.5v-3.076h-1v3.076h1zm0-3.076c0-.283-.065-.589-.283-.825-.224-.243-.528-.322-.815-.322v1a.29.29 0 01.092.011c.005.002-.002 0-.011-.01-.018-.02.017-.002.017.146h1zm-1.098-1.147c-.282 0-.584.074-.81.309-.222.231-.288.534-.288.814h1c0-.136.032-.145.01-.121-.011.011-.018.012-.01.009a.34.34 0 01.098-.011v-1zm-1.098 1.123V237h1v-11.401h-1zm.5 10.901h-3.48v1h3.48v-1zm-2.98.5v-14.172h-1V237h1zm-.5-13.672h3.48v-1h-3.48v1zm2.98-.5v.476h1v-.476h-1zm.818.861c.333-.275.911-.459 1.83-.459v-1c-1.018 0-1.873.198-2.467.688l.637.771zm1.83-.459c.596 0 1.081.159 1.481.461l.602-.799c-.593-.447-1.296-.662-2.083-.662v1zm1.485.464c.373.275.542.611.542 1.05h1c0-.765-.327-1.397-.948-1.855l-.594.805zm.542 1.05v3.955h1v-3.955h-1zM179.234 237v.5h.5v-.5h-.5zm-3.076 0h-.5v.5h.5v-.5zm0-.549h.5l-.943-.233.443.233zm-4.394-5.982l-.357-.35-.003.003.36.347zm2.783-1.77l-.226-.446-.001.001.227.445zm-.037-1.172l-.499.031.001.01.498-.041zm.049.904v.5h.5v-.5h-.5zm-3.357 0h-.5v.5h.5v-.5zm4.553 2.27h.5v-.637l-.619.152.119.485zm3.479 5.799h-3.076v1h3.076v-1zm-2.576.5v-.549h-1V237h1zm-.943-.782c-.049.095-.17.217-.469.317-.301.1-.734.16-1.322.16v1c.642 0 1.195-.064 1.638-.212.446-.148.828-.398 1.039-.8l-.886-.465zm-1.791.477c-.896 0-1.477-.177-1.825-.449-.325-.254-.519-.646-.519-1.272h-1c0 .855.28 1.573.903 2.06.6.468 1.442.661 2.441.661v-1zm-2.344-1.721v-2.845h-1v2.845h1zm0-2.845c0-.5.174-.93.543-1.312l-.719-.695c-.542.562-.824 1.238-.824 2.007h1zm.54-1.309c.401-.408 1.262-.967 2.654-1.675l-.454-.891c-1.392.708-2.386 1.329-2.913 1.865l.713.701zm2.652-1.674c.415-.21.754-.412.995-.607.121-.098.235-.207.321-.329a.85.85 0 00.167-.487h-1c0-.078.032-.112.017-.091a.758.758 0 01-.133.129c-.161.13-.427.295-.818.492l.451.893zm1.483-1.423v-2.1h-1v2.1h1zm0-2.1c0-.292-.061-.604-.27-.848-.222-.258-.53-.348-.828-.348v1a.23.23 0 01.081.01c.002.001-.005-.002-.011-.01-.01-.011.028.024.028.196h1zm-1.098-1.196a.956.956 0 00-.618.221c-.169.14-.281.326-.358.517-.151.373-.207.875-.207 1.459h1c0-.547.057-.893.134-1.086.037-.091.067-.118.069-.119l-.004.002-.009.004c-.008.003-.011.002-.007.002v-1zm-1.183 2.197c0 .219.013.533.037.934l.998-.061a15.741 15.741 0 01-.035-.873h-1zm.038.944c.032.396.047.68.047.863h1c0-.225-.018-.542-.05-.944l-.997.081zm.547.363h-3.357v1h3.357v-1zm-2.857.5v-2.832h-1v2.832h1zm0-2.832c0-.819.285-1.37.822-1.741.57-.393 1.487-.628 2.828-.628v-1c-1.425 0-2.583.244-3.397.806-.847.585-1.253 1.468-1.253 2.563h1zm3.65-2.369c1.244 0 2.085.242 2.607.644.496.382.775.967.775 1.847h1c0-1.114-.368-2.025-1.165-2.639-.772-.596-1.872-.852-3.217-.852v1zm3.382 2.491V237h1v-11.279h-1zm-2.479 8.63v-3.65h-1v3.65h1zm-.619-4.135c-.44.107-.827.273-1.112.528a1.353 1.353 0 00-.465 1.031h1c0-.113.036-.199.133-.287.114-.102.325-.214.682-.301l-.238-.971zm-1.577 1.559v2.576h1v-2.576h-1zm0 2.576c0 .288.069.597.295.832.23.239.538.315.828.315v-1c-.126 0-.129-.032-.107-.008.019.019-.016.004-.016-.139h-1zm1.123 1.147c.284 0 .585-.083.804-.33.209-.235.269-.538.269-.817h-1c0 .152-.035.173-.017.154.009-.011.019-.016.019-.015-.004.001-.026.008-.075.008v1zM186.949 237v.5h.5v-.5h-.5zm-5.017-.708l-.418.274.418-.274zm-.464-11.365h.5v-.5h-.5v.5zm-1.55 0h-.5v.5h.5v-.5zm0-2.099v-.5h-.5v.5h.5zm1.55 0v.5h.5v-.5h-.5zm0-2.857v-.5h-.5v.5h.5zm3.479 0h.5v-.5h-.5v.5zm0 2.857h-.5v.5h.5v-.5zm1.88 0h.5v-.5h-.5v.5zm0 2.099v.5h.5v-.5h-.5zm-1.88 0v-.5h-.5v.5h.5zm.366 9.461l-.257.428.008.005.009.005.24-.438zm1.636.207h.5v-.5h-.5v.5zm0 1.905h-2.197v1h2.197v-1zm-2.197 0c-.766 0-1.348-.058-1.761-.162-.429-.108-.59-.242-.641-.32l-.836.548c.258.394.722.614 1.233.742.527.132 1.201.192 2.005.192v-1zm-2.402-.482c-.1-.153-.201-.421-.273-.845-.071-.416-.109-.948-.109-1.603h-1c0 .688.04 1.281.123 1.771.083.484.214.906.423 1.225l.836-.548zm-.382-2.448v-8.643h-1v8.643h1zm-.5-9.143h-1.55v1h1.55v-1zm-1.05.5v-2.099h-1v2.099h1zm-.5-1.599h1.55v-1h-1.55v1zm2.05-.5v-2.857h-1v2.857h1zm-.5-2.357h3.479v-1h-3.479v1zm2.979-.5v2.857h1v-2.857h-1zm.5 3.357h1.88v-1h-1.88v1zm1.38-.5v2.099h1v-2.099h-1zm.5 1.599h-1.88v1h1.88v-1zm-2.38.5v8.618h1v-8.618h-1zm0 8.618c0 .503.152.997.609 1.271l.515-.857c-.031-.019-.124-.086-.124-.414h-1zm.626 1.281c.211.116.487.177.776.213.301.039.67.056 1.1.056v-1a8.02 8.02 0 01-.975-.048c-.256-.032-.379-.075-.42-.098l-.481.877zm1.376-.231V237h1v-2.405h-1zM197.325 237v.5h.754l-.293-.695-.461.195zm-4.089 0l-.462.192.128.308h.334v-.5zm-2.136-5.127l.461-.192-.961.192h.5zm0 5.127v.5h.5v-.5h-.5zm-3.467 0h-.5v.5h.5v-.5zm0-17.505v-.5h-.5v.5h.5zm3.467 0h.5v-.5h-.5v.5zm0 7.849h-.5l.965.184-.465-.184zm1.782-4.516v-.5h-.34l-.125.316.465.184zm3.601 0l.463.188.281-.688h-.744v.5zm-2.527 6.201l-.463-.189-.078.192.08.191.461-.194zm3.369 7.471h-4.089v1h4.089v-1zm-3.628.308l-2.136-5.127-.923.384 2.136 5.127.923-.384zm-3.097-4.935V237h1v-5.127h-1zm.5 4.627h-3.467v1h3.467v-1zm-2.967.5v-17.505h-1V237h1zm-.5-17.005h3.467v-1h-3.467v1zm2.967-.5v7.849h1v-7.849h-1zm.965 8.033l1.782-4.517-.93-.367-1.783 4.517.931.367zm1.317-4.2h3.601v-1h-3.601v1zm3.138-.689l-2.527 6.201.926.377 2.527-6.201-.926-.377zm-2.525 6.584l3.37 7.972.921-.39-3.369-7.971-.922.389zm11.24-5.797l-.25.433.002.001.248-.434zm-6.446 10.779v-8.484h-1v8.484h1zm0-8.484c0-.868.291-1.451.827-1.838.567-.409 1.477-.653 2.811-.653v-1c-1.424 0-2.583.255-3.396.842-.844.61-1.242 1.523-1.242 2.649h1zm3.638-2.491c.992 0 1.839.215 2.558.629l.499-.867c-.892-.513-1.916-.762-3.057-.762v1zm2.56.63c.648.37.968.922.968 1.739h1c0-1.153-.493-2.049-1.473-2.608l-.495.869zm.968 1.739v8.728h1v-8.728h-1zm0 8.728c0 .824-.279 1.376-.797 1.744-.548.39-1.432.624-2.731.624v1c1.387 0 2.517-.244 3.311-.81.826-.587 1.217-1.47 1.217-2.558h-1zm-3.528 2.368c-1.334 0-2.244-.243-2.811-.653-.536-.387-.827-.97-.827-1.837h-1c0 1.126.398 2.038 1.242 2.648.813.588 1.972.842 3.396.842v-1zm1.049-2.393v-8.679h-1v8.679h1zm0-8.679c0-.292-.061-.604-.27-.848-.222-.258-.53-.348-.828-.348v1a.23.23 0 01.081.01c.002.001-.005-.002-.011-.01-.01-.011.028.024.028.196h1zm-1.098-1.196c-.298 0-.609.088-.833.344-.214.244-.277.558-.277.852h1c0-.17.039-.204.028-.192-.006.007-.012.009-.007.007a.257.257 0 01.089-.011v-1zm-1.11 1.196v8.679h1v-8.679h-1zm0 8.679c0 .299.062.616.271.864.223.263.535.356.839.356v-1a.265.265 0 01-.084-.01c-.002-.001.003.001.008.007.006.007-.034-.035-.034-.217h-1zm1.11 1.22c.304 0 .614-.095.834-.36.205-.247.264-.563.264-.86h-1c0 .184-.039.228-.034.221.005-.006.012-.01.012-.01a.208.208 0 01-.076.009v1zM214.964 237v.5h.5v-.5h-.5zm-8.349 0h-.5v.5h.5v-.5zm0-1.953l-.465-.184-.035.088v.096h.5zm3.943-9.949l.464.184.272-.684h-.736v.5zm-3.724 0h-.5v.5h.5v-.5zm0-2.27v-.5h-.5v.5h.5zm7.752 0h.5v-.5h-.5v.5zm0 1.916l.464.186.036-.09v-.096h-.5zm-4.004 10.01l-.464-.186-.275.686h.739v-.5zm4.382 0h.5v-.5h-.5v.5zm0 1.746h-8.349v1h8.349v-1zm-7.849.5v-1.953h-1V237h1zm-.035-1.769l3.942-9.949-.929-.368-3.943 9.949.93.368zm3.478-10.633h-3.724v1h3.724v-1zm-3.224.5v-2.27h-1v2.27h1zm-.5-1.77h7.752v-1h-7.752v1zm7.252-.5v1.916h1v-1.916h-1zm.036 1.73l-4.004 10.01.928.372 4.004-10.01-.928-.372zm-3.54 10.696h4.382v-1h-4.382v1zm3.882-.5V237h1v-2.246h-1zM223.79 237v.5h.5v-.5h-.5zm-3.076 0h-.5v.5h.5v-.5zm0-.549h.5l-.943-.233.443.233zm-4.395-5.982l-.356-.35-.003.003.359.347zm2.783-1.77l-.225-.446-.001.001.226.445zm-.036-1.172l-.499.031.001.01.498-.041zm.049.904v.5h.5v-.5h-.5zm-3.357 0h-.5v.5h.5v-.5zm4.553 2.27h.5v-.637l-.619.152.119.485zm1.685-11.206l.42.271.496-.771h-.916v.5zm-1.453 2.258v.5h.273l.147-.229-.42-.271zm-1.917 0l-.474-.156-.217.656h.691v-.5zm.745-2.258v-.5h-.362l-.113.344.475.156zm4.419 17.005h-3.076v1h3.076v-1zm-2.576.5v-.549h-1V237h1zm-.943-.782c-.05.095-.17.217-.469.317-.301.1-.735.16-1.322.16v1c.641 0 1.194-.064 1.638-.212.446-.148.828-.398 1.039-.8l-.886-.465zm-1.791.477c-.897 0-1.477-.177-1.825-.449-.325-.254-.519-.646-.519-1.272h-1c0 .855.28 1.573.903 2.06.6.468 1.441.661 2.441.661v-1zm-2.344-1.721v-2.845h-1v2.845h1zm0-2.845c0-.5.174-.93.543-1.312l-.719-.695c-.543.562-.824 1.238-.824 2.007h1zm.54-1.309c.401-.408 1.262-.967 2.653-1.675l-.453-.891c-1.392.708-2.387 1.329-2.913 1.865l.713.701zm2.652-1.674c.415-.21.753-.412.995-.607.121-.098.234-.207.321-.329a.85.85 0 00.167-.487h-1c0-.078.031-.112.016-.091a.7.7 0 01-.132.129c-.161.13-.427.295-.818.492l.451.893zm1.483-1.423v-2.1h-1v2.1h1zm0-2.1c0-.292-.061-.604-.27-.848-.222-.258-.53-.348-.828-.348v1c.052 0 .076.008.081.01.002.001-.005-.002-.012-.01-.01-.011.029.024.029.196h1zm-1.098-1.196a.956.956 0 00-.618.221c-.169.14-.282.326-.359.517-.15.373-.207.875-.207 1.459h1c0-.547.057-.893.135-1.086.037-.091.067-.118.068-.119l-.003.002-.009.004c-.008.003-.012.002-.007.002v-1zm-1.184 2.197c0 .219.013.533.038.934l.998-.061a15.987 15.987 0 01-.036-.873h-1zm.039.944c.032.396.047.68.047.863h1c0-.225-.018-.542-.051-.944l-.996.081zm.547.363h-3.357v1h3.357v-1zm-2.857.5v-2.832h-1v2.832h1zm0-2.832c0-.819.285-1.37.822-1.741.57-.393 1.487-.628 2.828-.628v-1c-1.425 0-2.583.244-3.397.806-.847.585-1.253 1.468-1.253 2.563h1zm3.65-2.369c1.244 0 2.085.242 2.606.644.497.382.776.967.776 1.847h1c0-1.114-.368-2.025-1.165-2.639-.773-.596-1.873-.852-3.217-.852v1zm3.382 2.491V237h1v-11.279h-1zm-2.479 8.63v-3.65h-1v3.65h1zm-.619-4.135c-.44.107-.828.273-1.112.528a1.35 1.35 0 00-.465 1.031h1c0-.113.036-.199.133-.287.114-.102.324-.214.682-.301l-.238-.971zm-1.577 1.559v2.576h1v-2.576h-1zm0 2.576c0 .288.069.597.295.832.23.239.538.315.827.315v-1c-.125 0-.129-.032-.106-.008.018.019-.016.004-.016-.139h-1zm1.122 1.147c.285 0 .586-.083.805-.33.208-.235.269-.538.269-.817h-1c0 .152-.035.173-.018.154a.057.057 0 01.019-.015.25.25 0 01-.075.008v1zm1.838-16.273l-1.453 2.258.841.541 1.453-2.258-.841-.541zm-1.032 2.028h-1.917v1h1.917v-1zm-1.442.657l.745-2.258-.95-.313-.744 2.258.949.313zm.27-1.915h2.625v-1h-2.625v1zm5.237 11.304v-.5h-.5v.5h.5zm3.467 0h.5v-.5h-.5v.5zm.451.025l.295-.404-.03-.022-.032-.017-.233.443zm-3.283-1.99l-.358.35.004.004.354-.354zm7.434-.94v.5h.5v-.5h-.5zm-3.394 0l-.499-.022-.023.522h.522v-.5zm.073-1.697l.5.022v-.022h-.5zm-1.013 1.074l-.451.217.004.007.447-.224zm3.198 2.015l.292-.407-.034-.024-.037-.018-.221.449zm-6.933 2.013h3.467v-1h-3.467v1zm2.967-.5v3.003h1v-3.003h-1zm0 3.003c0 .295.058.609.258.856.217.266.525.364.828.364v-1c-.048 0-.066-.007-.067-.007l.006.004.009.008c.005.006-.034-.04-.034-.225h-1zm1.086 1.22a.905.905 0 00.565-.192c.158-.125.263-.29.334-.457.138-.324.187-.75.187-1.23h-1c0 .44-.049.703-.107.839-.027.063-.044.07-.032.061a.107.107 0 01.053-.021v1zm1.086-1.879c0-.627-.063-1.174-.203-1.625-.141-.453-.37-.841-.723-1.098l-.589.808c.126.092.257.266.357.586.1.322.158.76.158 1.329h1zm-.988-2.762a42.19 42.19 0 01-2.156-1.196c-.547-.332-.867-.565-1.007-.705l-.707.708c.234.234.649.52 1.196.852.56.339 1.297.748 2.209 1.226l.465-.885zm-3.159-1.897c-.251-.256-.419-.678-.419-1.359h-1c0 .833.206 1.55.704 2.059l.715-.7zm-.419-1.359v-1.904h-1v1.904h1zm0-1.904c0-.872.287-1.455.81-1.841.551-.407 1.439-.65 2.743-.65v-1c-1.398 0-2.537.255-3.337.845-.828.611-1.216 1.524-1.216 2.646h1zm3.553-2.491c1.268 0 2.129.233 2.663.621.504.367.78.919.78 1.748h1c0-1.084-.381-1.967-1.192-2.556-.781-.568-1.891-.813-3.251-.813v1zm3.443 2.369v2.795h1v-2.795h-1zm.5 2.295h-3.394v1h3.394v-1zm-2.894.522l.073-1.697-.999-.043-.073 1.696.999.044zm.073-1.719c0-.606-.053-1.12-.192-1.499a1.317 1.317 0 00-.335-.53.906.906 0 00-.62-.241v1a.094.094 0 01-.053-.02c-.001 0 .007.007.021.029.013.022.03.056.048.105.077.211.131.583.131 1.156h1zm-1.147-2.27c-.392 0-.719.186-.917.526-.174.299-.23.683-.23 1.085h1c0-.338.053-.51.094-.581.017-.029.025-.03.019-.026-.006.003 0-.004.034-.004v-1zm-1.147 1.611c0 .791.095 1.458.33 1.95l.902-.433c-.139-.289-.232-.778-.232-1.517h-1zm.334 1.957c.096.191.263.36.435.505.182.153.415.317.692.491.554.349 1.323.764 2.298 1.243l.441-.897c-.962-.473-1.695-.87-2.206-1.192a5.363 5.363 0 01-.581-.41 1.357 1.357 0 01-.145-.138c-.034-.037-.041-.053-.04-.049l-.894.447zm3.354 2.197c.681.488 1 1.105 1 1.889h1c0-1.121-.487-2.035-1.417-2.702l-.583.813zm1 1.889v2.124h1v-2.124h-1zm0 2.124c0 .869-.29 1.451-.823 1.838-.561.409-1.465.652-2.791.652v1c1.417 0 2.57-.255 3.38-.843.838-.61 1.234-1.523 1.234-2.647h-1zm-3.614 2.49c-1.298 0-2.183-.234-2.731-.624-.517-.368-.797-.92-.797-1.744h-1c0 1.088.391 1.971 1.217 2.558.794.566 1.924.81 3.311.81v-1zm-3.528-2.368v-3.028h-1v3.028h1z"/>
  </g>
  <g filter="url(#filter4_d_521_281)">
    <path fill="#FFFF38" d="M331.605 10.993h3.504v4.016c0 .399.24.598.72.598.464 0 .696-.199.696-.598v-2.075c0-.635-.423-1.38-1.27-2.234-1.635-1.587-2.653-2.653-3.051-3.198a2.973 2.973 0 01-.599-1.794V3.742c0-2.27 1.482-3.406 4.444-3.406 2.653 0 3.979 1.034 3.979 3.101v3.027h-3.503V3.242c0-.35-.191-.525-.574-.525-.447 0-.671.338-.671 1.013l.073 1.135c0 .651.431 1.408 1.294 2.27 1.603 1.539 2.62 2.613 3.052 3.223.439.61.659 1.303.659 2.076v2.234c0 2.327-1.485 3.49-4.456 3.49-2.864 0-4.297-1.057-4.297-3.173v-3.992zm12.964-7.947h-3.479V.496h3.479v2.55zm0 14.954h-3.479V3.828h3.479V18zm10.45 0h-4.09l-2.136-5.127V18h-3.467V.495h3.467v7.85l1.782-4.517h3.601l-2.527 6.2 3.37 7.972zm8.679-6.006h-4.676v3.308c0 .48.204.72.611.72.399 0 .598-.24.598-.72v-2.856h3.467v2.88c0 1.913-1.363 2.87-4.09 2.87-2.701 0-4.052-.998-4.052-2.991V6.72c0-1.994 1.351-2.991 4.052-2.991 2.727 0 4.09.956 4.09 2.869v5.395zm-3.467-2.124V6.623c0-.464-.199-.696-.598-.696-.407 0-.611.232-.611.696V9.87h1.209zm12.5-.17h-3.479V6.622c0-.431-.199-.647-.598-.647-.399 0-.598.208-.598.623V18h-3.479V3.828h3.479v.476c.464-.383 1.18-.574 2.148-.574.692 0 1.286.187 1.782.562.497.366.745.85.745 1.452V9.7zm8.813 2.294h-4.675v3.308c0 .48.204.72.61.72.399 0 .599-.24.599-.72v-2.856h3.466v2.88c0 1.913-1.363 2.87-4.089 2.87-2.702 0-4.053-.998-4.053-2.991V6.72c0-1.994 1.351-2.991 4.053-2.991 2.726 0 4.089.956 4.089 2.869v5.395zm-3.466-2.124V6.623c0-.464-.2-.696-.599-.696-.406 0-.61.232-.61.696V9.87h1.209zm4.248 2.43h3.466v3.002c0 .48.196.72.586.72.391 0 .586-.46.586-1.379 0-1.196-.24-1.97-.72-2.32-1.815-.951-2.909-1.615-3.284-1.989-.374-.383-.561-.952-.561-1.709V6.721c0-1.994 1.351-2.991 4.053-2.991 2.628 0 3.943.956 3.943 2.869v2.795h-3.394l.073-1.697c0-1.18-.215-1.77-.647-1.77-.431 0-.647.37-.647 1.111 0 .765.094 1.343.281 1.733.195.391 1.261 1.063 3.198 2.015.806.577 1.209 1.342 1.209 2.295v2.124c0 1.993-1.371 2.99-4.114 2.99-2.686 0-4.028-.956-4.028-2.868v-3.028zm-70.069 26.694h-4.675v3.308c0 .48.203.72.61.72.399 0 .599-.24.599-.72v-2.856h3.466v2.88c0 1.913-1.363 2.87-4.089 2.87-2.702 0-4.053-.998-4.053-2.991V33.72c0-1.994 1.351-2.991 4.053-2.991 2.726 0 4.089.956 4.089 2.869v5.395zm-3.466-2.124v-3.247c0-.464-.2-.696-.599-.696-.407 0-.61.232-.61.696v3.247h1.209zm7.763 8.13h-3.479V27.495h3.479V45zm13.635 0h-3.466V33.672c0-.431-.2-.647-.598-.647-.407 0-.611.207-.611.623V45h-3.467V33.648c0-.432-.199-.648-.598-.648-.407 0-.61.208-.61.623V45h-3.467V30.828h3.467v.5c.48-.399 1.2-.598 2.161-.598.805 0 1.538.321 2.197.964.61-.643 1.444-.964 2.502-.964.602 0 1.168.183 1.697.55.529.357.793.858.793 1.5V45zm8.948-6.006h-4.675v3.308c0 .48.203.72.61.72.399 0 .598-.24.598-.72v-2.856h3.467v2.88c0 1.913-1.363 2.87-4.089 2.87-2.702 0-4.053-.998-4.053-2.991V33.72c0-1.994 1.351-2.991 4.053-2.991 2.726 0 4.089.956 4.089 2.869v5.395zm-3.467-2.124v-3.247c0-.464-.199-.696-.598-.696-.407 0-.61.232-.61.696v3.247h1.208zm1.734-9.375l-1.453 2.258h-1.916l.744-2.258h2.625zM343.434 45h-3.479V27.495h3.479V45zm8.936-6.006h-4.676v3.308c0 .48.204.72.611.72.398 0 .598-.24.598-.72v-2.856h3.467v2.88c0 1.913-1.363 2.87-4.09 2.87-2.702 0-4.052-.998-4.052-2.991V33.72c0-1.994 1.35-2.991 4.052-2.991 2.727 0 4.09.956 4.09 2.869v5.395zm-3.467-2.124v-3.247c0-.464-.2-.696-.598-.696-.407 0-.611.232-.611.696v3.247h1.209zM360.048 45h-2.197c-1.571 0-2.511-.236-2.82-.708-.309-.472-.464-1.38-.464-2.722v-8.643h-1.55v-2.1h1.55v-2.856h3.479v2.857h1.88v2.1h-1.88v8.617c0 .415.122.696.366.843.252.138.798.207 1.636.207V45zm4.077-14.954h-3.479v-2.55h3.479v2.55zm0 14.954h-3.479V30.828h3.479V45zm14.197-14.172L375.771 45h-4.2l-2.551-14.172h3.503l1.197 8.374 1.172-8.374h3.43zm3.894-.782h-3.479v-2.55h3.479v2.55zm0 14.954h-3.479V30.828h3.479V45zm9.021 0h-8.35v-1.953l3.943-9.949h-3.723v-2.27h7.751v1.916l-4.004 10.01h4.383V45zm.61-5.7h3.467v3.002c0 .48.195.72.586.72.391 0 .586-.46.586-1.379 0-1.196-.24-1.97-.72-2.32-1.815-.951-2.91-1.615-3.284-1.989-.374-.383-.562-.952-.562-1.709v-1.904c0-1.994 1.351-2.991 4.053-2.991 2.629 0 3.943.956 3.943 2.869v2.795h-3.394l.074-1.697c0-1.18-.216-1.77-.647-1.77-.432 0-.647.37-.647 1.111 0 .765.093 1.343.281 1.734.195.39 1.261 1.062 3.198 2.014.805.577 1.208 1.342 1.208 2.295v2.124c0 1.993-1.371 2.99-4.114 2.99-2.685 0-4.028-.956-4.028-2.868v-3.028zm9.485 8.703v-2.05h2.82c.822 0 1.233-.428 1.233-1.283-.456.35-1.172.525-2.149.525-.683 0-1.277-.179-1.782-.537-.496-.366-.745-.842-.745-1.428V33.05c0-1.547.924-2.32 2.771-2.32.489 0 1.132.207 1.929.622l.452-.524h2.991v13.977c0 .92-.184 1.68-.55 2.282-.358.61-1.481.916-3.369.916h-3.601zm4.053-5.53v-8.899c0-.431-.2-.647-.598-.647-.407 0-.611.216-.611.647v8.875c0 .431.204.647.611.647.398 0 .598-.208.598-.623zM417.836 45h-3.076v-.55c-.261.497-1.005.745-2.234.745-1.896 0-2.844-.74-2.844-2.221v-2.845c0-.634.228-1.188.683-1.66.464-.472 1.392-1.062 2.783-1.77.806-.407 1.209-.732 1.209-.976v-2.1c0-.464-.199-.696-.598-.696-.456 0-.684.566-.684 1.697 0 .203.012.505.037.903.032.4.049.7.049.904h-3.357v-2.832c0-1.913 1.383-2.869 4.15-2.869 2.588 0 3.882.997 3.882 2.99V45zm-3.479-2.649v-3.65c-.798.196-1.196.554-1.196 1.074v2.576c0 .431.207.647.622.647.383 0 .574-.216.574-.647z"/>
    <path fill="#000" d="M331.605 10.993v-.5h-.5v.5h.5zm3.504 0h.5v-.5h-.5v.5zm.146-.293l.356-.352-.007-.007-.349.36zm-3.051-3.198l-.404.295.404-.295zm7.824-1.038v.5h.5v-.5h-.5zm-3.503 0h-.5v.5h.5v-.5zM335.28 3.73h-.5v.016l.001.016.499-.032zm.073 1.135h.5V4.85l-.001-.016-.499.032zm1.294 2.27l-.354.354.008.008.346-.361zm3.052 3.223l-.409.289.003.004.406-.293zm-8.094 1.135h3.504v-1h-3.504v1zm3.004-.5v4.016h1v-4.016h-1zm0 4.016c0 .304.096.614.36.833.248.206.563.265.86.265v-1c-.183 0-.228-.04-.221-.034.006.005.01.012.01.012-.001-.004-.009-.025-.009-.076h-1zm1.22 1.098c.292 0 .605-.06.848-.27.258-.222.348-.53.348-.828h-1a.234.234 0 01-.01.081c-.001.002.003-.005.01-.011.011-.01-.024.028-.196.028v1zm1.196-1.098v-2.075h-1v2.075h1zm0-2.075c0-.843-.549-1.712-1.414-2.586l-.711.704c.828.835 1.125 1.456 1.125 1.882h1zm-1.421-2.593c-1.644-1.594-2.628-2.63-2.997-3.134l-.807.59c.429.586 1.479 1.683 3.107 3.262l.697-.718zm-2.997-3.134a2.478 2.478 0 01-.502-1.5h-1c0 .762.236 1.463.695 2.09l.807-.59zm-.502-1.5V3.743h-1v1.966h1zm0-1.965c0-1.017.325-1.705.915-2.157.616-.472 1.598-.749 3.029-.749v-1c-1.531 0-2.771.291-3.637.955-.891.683-1.307 1.698-1.307 2.951h1zm3.944-2.906c1.275 0 2.14.251 2.677.67.514.4.802 1.012.802 1.931h1c0-1.149-.375-2.087-1.187-2.72-.789-.615-1.915-.88-3.292-.88v1zm3.479 2.601v3.027h1V3.437h-1zm.5 2.527h-3.503v1h3.503v-1zm-3.003.5V3.242h-1v3.222h1zm0-3.222c0-.264-.074-.55-.306-.763-.223-.204-.51-.262-.768-.262v1c.059 0 .092.007.105.01.012.004.003.004-.012-.01a.13.13 0 01-.018-.021l-.007-.013s.006.015.006.059h1zm-1.074-1.025c-.371 0-.705.152-.92.477-.192.289-.251.659-.251 1.036h1c0-.298.052-.435.084-.484.012-.017.018-.02.018-.02a.164.164 0 01.069-.01v-1zm-1.17 1.545l.073 1.135.998-.064-.073-1.135-.998.064zm.072 1.103c0 .86.557 1.741 1.44 2.624l.708-.707c-.843-.842-1.148-1.475-1.148-1.917h-1zm1.448 2.632c1.609 1.543 2.59 2.585 2.989 3.15l.817-.577c-.463-.656-1.516-1.762-3.114-3.295l-.692.722zm2.992 3.154c.376.522.565 1.111.565 1.783h1a3.96 3.96 0 00-.754-2.368l-.811.585zm.565 1.783v2.234h1v-2.234h-1zm0 2.234c0 1.05-.329 1.76-.922 2.224-.617.484-1.6.767-3.034.767v1c1.537 0 2.782-.299 3.65-.98.892-.698 1.306-1.734 1.306-3.011h-1zm-3.956 2.99c-1.385 0-2.333-.258-2.925-.695-.564-.416-.872-1.045-.872-1.978h-1c0 1.183.409 2.14 1.278 2.782.84.621 2.04.892 3.519.892v-1zm-3.797-2.673v-3.992h-1v3.992h1zm12.464-11.939v.5h.5v-.5h-.5zm-3.479 0h-.5v.5h.5v-.5zm0-2.55v-.5h-.5v.5h.5zm3.479 0h.5v-.5h-.5v.5zm0 17.504v.5h.5V18h-.5zm-3.479 0h-.5v.5h.5V18zm0-14.172v-.5h-.5v.5h.5zm3.479 0h.5v-.5h-.5v.5zm0-1.282h-3.479v1h3.479v-1zm-2.979.5V.496h-1v2.55h1zm-.5-2.05h3.479v-1h-3.479v1zm2.979-.5v2.55h1V.496h-1zm.5 17.004h-3.479v1h3.479v-1zm-2.979.5V3.828h-1V18h1zm-.5-13.672h3.479v-1h-3.479v1zm2.979-.5V18h1V3.828h-1zM355.019 18v.5h.754l-.294-.695-.46.195zm-4.09 0l-.461.192.128.308h.333V18zm-2.136-5.127l.462-.192-.962.192h.5zm0 5.127v.5h.5V18h-.5zm-3.467 0h-.5v.5h.5V18zm0-17.505v-.5h-.5v.5h.5zm3.467 0h.5v-.5h-.5v.5zm0 7.85h-.5l.965.183-.465-.184zm1.782-4.517v-.5h-.34l-.125.316.465.184zm3.601 0l.463.188.281-.688h-.744v.5zm-2.527 6.2l-.463-.188-.078.192.081.191.46-.194zm3.37 7.472h-4.09v1h4.09v-1zm-3.628.308l-2.136-5.127-.924.384 2.137 5.127.923-.384zm-3.098-4.935V18h1v-5.127h-1zm.5 4.627h-3.467v1h3.467v-1zm-2.967.5V.495h-1V18h1zm-.5-17.005h3.467v-1h-3.467v1zm2.967-.5v7.85h1V.494h-1zm.965 8.033l1.782-4.517-.93-.367-1.782 4.517.93.367zm1.317-4.2h3.601v-1h-3.601v1zm3.138-.689l-2.527 6.201.926.377 2.527-6.2-.926-.378zm-2.524 6.585l3.369 7.97.921-.389-3.369-7.97-.921.388zm12.509 1.77v.5h.5v-.5h-.5zm-4.676 0v-.5h-.5v.5h.5zm1.209.452v-.5h-.5v.5h.5zm3.467 0h.5v-.5h-.5v.5zm-3.467-2.576v.5h.5v-.5h-.5zm-1.209 0h-.5v.5h.5v-.5zm4.676 1.624h-4.676v1h4.676v-1zm-5.176.5v3.308h1v-3.308h-1zm0 3.308c0 .299.062.616.272.864.223.263.535.357.839.357v-1a.243.243 0 01-.084-.01c-.003-.002.003 0 .007.006.007.007-.034-.035-.034-.217h-1zm1.111 1.22c.303 0 .613-.095.833-.36.205-.247.265-.563.265-.86h-1c0 .184-.04.228-.034.221.005-.006.012-.01.011-.01a.214.214 0 01-.075.01v1zm1.098-1.22v-2.856h-1v2.856h1zm-.5-2.356h3.467v-1h-3.467v1zm2.967-.5v2.88h1v-2.88h-1zm0 2.88c0 .822-.283 1.373-.81 1.743-.559.392-1.46.626-2.78.626v1c1.407 0 2.551-.244 3.355-.808.836-.586 1.235-1.47 1.235-2.56h-1zm-3.59 2.37c-1.304 0-2.191-.244-2.742-.65-.523-.386-.81-.97-.81-1.841h-1c0 1.122.388 2.034 1.216 2.645.8.59 1.939.845 3.336.845v-1zm-3.552-2.491V6.72h-1v8.484h1zm0-8.484c0-.872.287-1.455.81-1.841.551-.407 1.438-.65 2.742-.65v-1c-1.397 0-2.536.255-3.336.845-.828.611-1.216 1.524-1.216 2.646h1zm3.552-2.491c1.32 0 2.221.234 2.78.626.527.37.81.921.81 1.743h1c0-1.092-.399-1.975-1.235-2.561-.804-.564-1.948-.808-3.355-.808v1zm3.59 2.369v5.395h1V6.6h-1zm-2.467 3.271V6.623h-1V9.87h1zm0-3.247c0-.292-.061-.604-.27-.848-.222-.258-.53-.348-.828-.348v1c.052 0 .076.008.081.01.002 0-.005-.002-.012-.01-.01-.011.029.024.029.196h1zm-1.098-1.196c-.299 0-.609.088-.834.344-.213.244-.277.558-.277.852h1c0-.17.039-.204.029-.192-.006.007-.012.009-.008.007a.272.272 0 01.09-.01v-1zm-1.111 1.196V9.87h1V6.623h-1zm.5 3.747h1.209v-1h-1.209v1zm13.709-.67v.5h.5v-.5h-.5zm-3.479 0h-.5v.5h.5v-.5zm-1.196 8.3v.5h.5V18h-.5zm-3.479 0h-.5v.5h.5V18zm0-14.172v-.5h-.5v.5h.5zm3.479 0h.5v-.5h-.5v.5zm0 .476h-.5v1.06l.818-.675-.318-.385zm3.93-.013l-.301.4.005.003.296-.402zm.745 4.908h-3.479v1h3.479v-1zm-2.979.5V6.623h-1V9.7h1zm0-3.076c0-.283-.065-.59-.282-.825-.225-.242-.529-.322-.816-.322v1a.29.29 0 01.092.01c.006.003-.002.001-.011-.009-.018-.02.017-.002.017.146h1zm-1.098-1.147c-.282 0-.584.074-.809.31-.222.23-.289.533-.289.813h1c0-.136.032-.145.01-.12-.01.01-.018.011-.01.008a.313.313 0 01.098-.01v-1zM367.556 6.6V18h1V6.599h-1zm.5 10.901h-3.479v1h3.479v-1zm-2.979.5V3.828h-1V18h1zm-.5-13.672h3.479v-1h-3.479v1zm2.979-.5v.476h1v-.476h-1zm.818.861c.334-.275.912-.459 1.83-.459v-1c-1.018 0-1.873.198-2.466.688l.636.771zm1.83-.459c.596 0 1.081.16 1.481.46l.602-.798c-.593-.447-1.295-.662-2.083-.662v1zm1.486.464c.372.275.541.611.541 1.05h1c0-.765-.327-1.397-.948-1.855l-.593.805zm.541 1.05V9.7h1V5.744h-1zm9.313 6.25v.5h.5v-.5h-.5zm-4.675 0v-.5h-.5v.5h.5zm1.209.452v-.5h-.5v.5h.5zm3.466 0h.5v-.5h-.5v.5zm-3.466-2.576v.5h.5v-.5h-.5zm-1.209 0h-.5v.5h.5v-.5zm4.675 1.624h-4.675v1h4.675v-1zm-5.175.5v3.308h1v-3.308h-1zm0 3.308c0 .299.062.616.271.864.223.263.535.357.839.357v-1a.248.248 0 01-.084-.01c-.002-.002.003 0 .008.006.006.007-.034-.035-.034-.217h-1zm1.11 1.22c.304 0 .614-.095.834-.36.205-.247.265-.563.265-.86h-1c0 .184-.04.228-.035.221a.04.04 0 01.012-.01.218.218 0 01-.076.01v1zm1.099-1.22v-2.856h-1v2.856h1zm-.5-2.356h3.466v-1h-3.466v1zm2.966-.5v2.88h1v-2.88h-1zm0 2.88c0 .822-.282 1.373-.809 1.743-.559.392-1.46.626-2.78.626v1c1.406 0 2.55-.244 3.354-.808.837-.586 1.235-1.47 1.235-2.56h-1zm-3.589 2.37c-1.304 0-2.191-.244-2.743-.65-.522-.386-.81-.97-.81-1.841h-1c0 1.122.389 2.034 1.217 2.645.799.59 1.938.845 3.336.845v-1zm-3.553-2.491V6.72h-1v8.484h1zm0-8.484c0-.872.288-1.455.81-1.841.552-.407 1.439-.65 2.743-.65v-1c-1.398 0-2.537.255-3.336.845-.828.611-1.217 1.524-1.217 2.646h1zm3.553-2.491c1.32 0 2.221.234 2.78.626.527.37.809.921.809 1.743h1c0-1.092-.398-1.975-1.235-2.561-.804-.564-1.948-.808-3.354-.808v1zm3.589 2.369v5.395h1V6.6h-1zm-2.466 3.271V6.623h-1V9.87h1zm0-3.247c0-.292-.062-.604-.271-.848-.221-.258-.53-.348-.828-.348v1c.053 0 .076.008.081.01.002 0-.005-.002-.011-.01-.01-.011.029.024.029.196h1zm-1.099-1.196c-.298 0-.609.088-.833.344-.214.244-.277.558-.277.852h1c0-.17.039-.204.029-.192-.007.007-.012.009-.008.007a.269.269 0 01.089-.01v-1zm-1.11 1.196V9.87h1V6.623h-1zm.5 3.747h1.209v-1h-1.209v1zm5.457 1.93v-.5h-.5v.5h.5zm3.466 0h.5v-.5h-.5v.5zm.452.024l.295-.404-.03-.022-.033-.017-.232.443zm-3.284-1.99l-.357.35.004.004.353-.354zm7.435-.94v.5h.5v-.5h-.5zm-3.394 0l-.5-.022-.022.522h.522v-.5zm.073-1.697l.5.022V7.698h-.5zm-1.013 1.074l-.451.217.004.007.447-.224zm3.198 2.015l.292-.407-.034-.024-.037-.018-.221.449zm-6.933 2.013h3.466v-1h-3.466v1zm2.966-.5v3.003h1V12.3h-1zm0 3.003c0 .295.058.61.259.856.217.266.525.364.827.364v-1a.187.187 0 01-.066-.007c-.001 0 .002 0 .006.004l.009.008c.005.007-.035-.04-.035-.225h-1zm1.086 1.22a.9.9 0 00.565-.192c.159-.125.264-.29.335-.457.138-.324.186-.75.186-1.23h-1c0 .44-.049.703-.106.84-.027.062-.044.07-.032.06a.1.1 0 01.052-.02v1zm1.086-1.879c0-.627-.062-1.174-.202-1.625-.141-.453-.37-.84-.723-1.098l-.589.808c.126.092.257.266.357.586.1.322.157.76.157 1.33h1zm-.988-2.762a41.818 41.818 0 01-2.155-1.196c-.547-.332-.867-.565-1.007-.705l-.707.707c.234.235.649.521 1.196.853.56.339 1.297.748 2.209 1.227l.464-.886zm-3.158-1.897c-.251-.256-.419-.678-.419-1.359h-1c0 .833.206 1.55.704 2.059l.715-.7zm-.419-1.359V6.721h-1v1.904h1zm0-1.904c0-.872.287-1.455.81-1.841.551-.407 1.439-.65 2.743-.65v-1c-1.398 0-2.537.255-3.337.845-.828.611-1.216 1.524-1.216 2.646h1zm3.553-2.491c1.268 0 2.129.233 2.663.621.504.367.78.92.78 1.748h1c0-1.084-.382-1.967-1.192-2.556-.781-.568-1.891-.813-3.251-.813v1zm3.443 2.369v2.795h1V6.599h-1zm.5 2.295h-3.394v1h3.394v-1zm-2.894.522l.073-1.697-.999-.043-.074 1.696 1 .044zm.073-1.719c0-.606-.053-1.12-.192-1.499a1.309 1.309 0 00-.335-.53.905.905 0 00-.62-.24v1a.098.098 0 01-.054-.02c0-.001.008.006.021.028a.56.56 0 01.049.105c.077.211.131.583.131 1.156h1zm-1.147-2.27c-.392 0-.719.186-.917.526-.174.299-.23.683-.23 1.085h1c0-.338.052-.51.094-.581.017-.029.025-.03.019-.026-.006.003 0-.004.034-.004v-1zm-1.147 1.611c0 .791.095 1.458.33 1.95l.902-.433c-.139-.29-.232-.778-.232-1.517h-1zm.334 1.957c.095.191.263.36.435.505.182.153.415.317.692.491.554.35 1.323.764 2.298 1.243l.441-.897c-.962-.473-1.695-.87-2.206-1.192a5.242 5.242 0 01-.581-.41 1.436 1.436 0 01-.146-.138c-.033-.037-.041-.053-.039-.05l-.894.448zm3.354 2.197c.681.488 1 1.105 1 1.889h1c0-1.121-.487-2.034-1.417-2.702l-.583.813zm1 1.889v2.124h1V13.08h-1zm0 2.124c0 .868-.29 1.451-.823 1.838-.562.409-1.465.652-2.791.652v1c1.417 0 2.57-.255 3.379-.843.839-.61 1.235-1.523 1.235-2.647h-1zm-3.614 2.49c-1.299 0-2.183-.234-2.731-.624-.517-.368-.797-.92-.797-1.744h-1c0 1.088.391 1.97 1.217 2.558.794.566 1.924.81 3.311.81v-1zm-3.528-2.368v-3.028h-1v3.028h1zm-70.569 23.667v.5h.5v-.5h-.5zm-4.675 0v-.5h-.5v.5h.5zm1.209.452v-.5h-.5v.5h.5zm3.466 0h.5v-.5h-.5v.5zm-3.466-2.576v.5h.5v-.5h-.5zm-1.209 0h-.5v.5h.5v-.5zm4.675 1.624h-4.675v1h4.675v-1zm-5.175.5v3.308h1v-3.308h-1zm0 3.308c0 .299.062.616.271.864.223.263.535.357.839.357v-1a.248.248 0 01-.084-.01c-.002-.002.003 0 .008.006.006.007-.034-.035-.034-.217h-1zm1.11 1.22c.304 0 .614-.095.834-.36.205-.247.265-.563.265-.86h-1c0 .184-.04.228-.035.221a.04.04 0 01.012-.01.218.218 0 01-.076.01v1zm1.099-1.22v-2.856h-1v2.856h1zm-.5-2.356h3.466v-1h-3.466v1zm2.966-.5v2.88h1v-2.88h-1zm0 2.88c0 .822-.282 1.373-.809 1.743-.559.392-1.46.626-2.78.626v1c1.406 0 2.55-.243 3.354-.807.836-.587 1.235-1.47 1.235-2.561h-1zm-3.589 2.37c-1.304 0-2.191-.244-2.743-.65-.523-.386-.81-.97-.81-1.841h-1c0 1.122.388 2.034 1.217 2.645.799.59 1.938.845 3.336.845v-1zm-3.553-2.491V33.72h-1v8.484h1zm0-8.484c0-.872.287-1.455.81-1.841.552-.407 1.439-.65 2.743-.65v-1c-1.398 0-2.537.255-3.336.845-.829.611-1.217 1.524-1.217 2.646h1zm3.553-2.491c1.32 0 2.221.234 2.78.627.527.369.809.92.809 1.742h1c0-1.092-.399-1.974-1.235-2.561-.804-.564-1.948-.808-3.354-.808v1zm3.589 2.369v5.395h1V33.6h-1zm-2.466 3.271v-3.247h-1v3.247h1zm0-3.247c0-.292-.062-.604-.271-.848-.222-.258-.53-.348-.828-.348v1c.053 0 .076.008.081.01.002 0-.005-.002-.011-.01-.01-.011.029.024.029.196h1zm-1.099-1.196c-.298 0-.609.088-.833.345-.214.243-.277.557-.277.851h1c0-.17.039-.204.028-.192-.006.007-.012.009-.007.007a.265.265 0 01.089-.01v-1zm-1.11 1.196v3.247h1v-3.247h-1zm.5 3.747h1.209v-1h-1.209v1zm8.972 7.63v.5h.5V45h-.5zm-3.479 0h-.5v.5h.5V45zm0-17.505v-.5h-.5v.5h.5zm3.479 0h.5v-.5h-.5v.5zm0 17.005h-3.479v1h3.479v-1zm-2.979.5V27.495h-1V45h1zm-.5-17.005h3.479v-1h-3.479v1zm2.979-.5V45h1V27.495h-1zM330.189 45v.5h.5V45h-.5zm-3.466 0h-.5v.5h.5V45zm-1.209 0v.5h.5V45h-.5zm-3.467 0h-.5v.5h.5V45zm-1.208 0v.5h.5V45h-.5zm-3.467 0h-.5v.5h.5V45zm0-14.172v-.5h-.5v.5h.5zm3.467 0h.5v-.5h-.5v.5zm0 .5h-.5v1.065l.819-.68-.319-.385zm4.358.366l-.349.358.362.354.349-.367-.362-.345zm4.199-.415l-.285.411.005.003.28-.414zm.793 13.221h-3.466v1h3.466v-1zm-2.966.5V33.672h-1V45h1zm0-11.328c0-.283-.065-.59-.283-.825-.224-.243-.529-.322-.815-.322v1c.055 0 .083.008.092.01.005.003-.002 0-.011-.009-.018-.02.017-.002.017.146h1zm-1.098-1.147c-.284 0-.587.073-.815.306-.227.23-.296.534-.296.816h1c0-.132.033-.14.01-.116-.025.025-.023-.006.101-.006v-1zm-1.111 1.123V45h1V33.648h-1zm.5 10.852h-3.467v1h3.467v-1zm-2.967.5V33.648h-1V45h1zm0-11.352c0-.284-.064-.59-.282-.825-.225-.243-.529-.322-.816-.322v1c.056 0 .084.007.092.01.006.002-.001 0-.01-.01-.019-.02.016-.001.016.147h1zm-1.098-1.148c-.283 0-.586.073-.815.306-.226.231-.295.535-.295.817h1c0-.133.032-.14.009-.117-.024.025-.023-.005.101-.005v-1zm-1.11 1.123V45h1V33.623h-1zm.5 10.877h-3.467v1h3.467v-1zm-2.967.5V30.828h-1V45h1zm-.5-13.672h3.467v-1h-3.467v1zm2.967-.5v.5h1v-.5h-1zm.819.885c.353-.294.938-.483 1.842-.483v-1c-1.018 0-1.873.21-2.481.713l.639.77zM323 31.23c.656 0 1.267.256 1.848.822l.698-.716c-.738-.72-1.592-1.106-2.546-1.106v1zm2.559.809c.498-.525 1.191-.809 2.14-.809v-1c-1.166 0-2.142.359-2.865 1.12l.725.689zm2.14-.809c.494 0 .961.148 1.412.46l.57-.822a3.43 3.43 0 00-1.982-.638v1zm1.417.463c.39.265.573.61.573 1.088h1c0-.808-.345-1.464-1.013-1.916l-.56.828zm.573 1.088V45h1V32.78h-1zm9.448 6.213v.5h.5v-.5h-.5zm-4.675 0v-.5h-.5v.5h.5zm1.208.452v-.5h-.5v.5h.5zm3.467 0h.5v-.5h-.5v.5zm-3.467-2.576v.5h.5v-.5h-.5zm-1.208 0h-.5v.5h.5v-.5zm2.942-9.375l.42.27.496-.77h-.916v.5zm-1.453 2.258v.5h.273l.148-.23-.421-.27zm-1.916 0l-.475-.156-.217.656h.692v-.5zm.744-2.258v-.5h-.361l-.114.343.475.157zm4.358 11h-4.675v1h4.675v-1zm-5.175.5v3.307h1v-3.308h-1zm0 3.307c0 .299.061.616.271.864.223.263.535.357.839.357v-1a.248.248 0 01-.084-.01c-.003-.002.003 0 .008.006.006.007-.034-.035-.034-.217h-1zm1.11 1.22c.304 0 .614-.095.834-.36.205-.247.264-.563.264-.86h-1c0 .184-.04.228-.034.221a.04.04 0 01.012-.01c-.004.002-.025.01-.076.01v1zm1.098-1.22v-2.856h-1v2.856h1zm-.5-2.356h3.467v-1h-3.467v1zm2.967-.5v2.88h1v-2.88h-1zm0 2.88c0 .822-.282 1.373-.809 1.743-.559.392-1.46.626-2.78.626v1c1.406 0 2.55-.243 3.354-.807.836-.587 1.235-1.47 1.235-2.561h-1zm-3.589 2.37c-1.304 0-2.192-.244-2.743-.65-.523-.386-.81-.97-.81-1.841h-1c0 1.122.388 2.034 1.216 2.645.8.59 1.939.845 3.337.845v-1zm-3.553-2.491V33.72h-1v8.484h1zm0-8.484c0-.872.287-1.455.81-1.841.551-.407 1.439-.65 2.743-.65v-1c-1.398 0-2.537.255-3.337.845-.828.611-1.216 1.524-1.216 2.646h1zm3.553-2.491c1.32 0 2.221.234 2.78.627.527.369.809.92.809 1.742h1c0-1.092-.399-1.974-1.235-2.561-.804-.564-1.948-.808-3.354-.808v1zm3.589 2.369v5.395h1V33.6h-1zm-2.467 3.271v-3.247h-1v3.247h1zm0-3.247c0-.292-.061-.604-.27-.848-.222-.258-.53-.348-.828-.348v1c.053 0 .076.008.081.01.002 0-.005-.002-.011-.01-.01-.011.028.024.028.196h1zm-1.098-1.196c-.299 0-.609.088-.833.345-.214.243-.277.557-.277.851h1c0-.17.039-.204.028-.192-.006.007-.012.009-.007.007a.265.265 0 01.089-.01v-1zm-1.11 1.196v3.247h1v-3.247h-1zm.5 3.747h1.208v-1h-1.208v1zm2.521-10.145l-1.452 2.258.841.54 1.452-2.257-.841-.541zm-1.032 2.028h-1.916v1h1.916v-1zm-1.441.657l.744-2.258-.95-.314-.744 2.259.95.313zm.269-1.915h2.625v-1h-2.625v1zM343.434 45v.5h.5V45h-.5zm-3.479 0h-.5v.5h.5V45zm0-17.505v-.5h-.5v.5h.5zm3.479 0h.5v-.5h-.5v.5zm0 17.005h-3.479v1h3.479v-1zm-2.979.5V27.495h-1V45h1zm-.5-17.005h3.479v-1h-3.479v1zm2.979-.5V45h1V27.495h-1zm9.436 11.5v.5h.5v-.5h-.5zm-4.676 0v-.5h-.5v.5h.5zm1.209.45v-.5h-.5v.5h.5zm3.467 0h.5v-.5h-.5v.5zm-3.467-2.575v.5h.5v-.5h-.5zm-1.209 0h-.5v.5h.5v-.5zm4.676 1.624h-4.676v1h4.676v-1zm-5.176.5v3.308h1v-3.308h-1zm0 3.308c0 .299.062.616.271.864.223.263.535.357.84.357v-1a.243.243 0 01-.084-.01c-.003-.002.003 0 .007.006.007.007-.034-.035-.034-.217h-1zm1.111 1.22c.303 0 .613-.095.833-.36.205-.247.265-.563.265-.86h-1c0 .184-.04.228-.034.221a.043.043 0 01.011-.01.214.214 0 01-.075.01v1zm1.098-1.22v-2.856h-1v2.856h1zm-.5-2.356h3.467v-1h-3.467v1zm2.967-.5v2.88h1v-2.88h-1zm0 2.88c0 .822-.283 1.373-.81 1.743-.559.392-1.46.626-2.78.626v1c1.407 0 2.55-.243 3.354-.807.837-.587 1.236-1.47 1.236-2.561h-1zm-3.59 2.37c-1.304 0-2.191-.244-2.742-.65-.523-.386-.81-.97-.81-1.841h-1c0 1.122.388 2.034 1.216 2.645.799.59 1.939.845 3.336.845v-1zm-3.552-2.491V33.72h-1v8.484h1zm0-8.484c0-.872.287-1.455.81-1.841.551-.407 1.438-.65 2.742-.65v-1c-1.397 0-2.537.255-3.336.845-.828.611-1.216 1.524-1.216 2.646h1zm3.552-2.491c1.32 0 2.221.234 2.78.627.527.369.81.92.81 1.742h1c0-1.092-.399-1.974-1.236-2.561-.804-.564-1.947-.808-3.354-.808v1zm3.59 2.369v5.395h1V33.6h-1zm-2.467 3.271v-3.247h-1v3.247h1zm0-3.247c0-.292-.061-.604-.271-.848-.221-.258-.529-.348-.827-.348v1c.052 0 .076.008.081.01.002 0-.005-.002-.012-.01-.01-.011.029.024.029.196h1zm-1.098-1.196c-.299 0-.609.088-.834.345-.214.243-.277.557-.277.851h1c0-.17.039-.204.029-.192-.006.007-.012.009-.008.007a.273.273 0 01.09-.01v-1zm-1.111 1.196v3.247h1v-3.247h-1zm.5 3.747h1.209v-1h-1.209v1zM360.048 45v.5h.5V45h-.5zm-5.017-.708l-.418.274.418-.274zm-.464-11.365h.5v-.5h-.5v.5zm-1.55 0h-.5v.5h.5v-.5zm0-2.1v-.5h-.5v.5h.5zm1.55 0v.5h.5v-.5h-.5zm0-2.856v-.5h-.5v.5h.5zm3.479 0h.5v-.5h-.5v.5zm0 2.857h-.5v.5h.5v-.5zm1.88 0h.5v-.5h-.5v.5zm0 2.1v.5h.5v-.5h-.5zm-1.88 0v-.5h-.5v.5h.5zm.366 9.46l-.257.428.008.005.009.005.24-.438zm1.636.207h.5v-.5h-.5v.5zm0 1.905h-2.197v1h2.197v-1zm-2.197 0c-.767 0-1.348-.058-1.762-.162-.428-.108-.589-.242-.64-.32l-.836.548c.258.394.722.614 1.233.742.526.132 1.2.192 2.005.192v-1zm-2.402-.482c-.101-.153-.201-.421-.273-.845-.071-.416-.109-.948-.109-1.603h-1c0 .688.039 1.28.123 1.771.082.484.214.906.423 1.225l.836-.548zm-.382-2.448v-8.643h-1v8.643h1zm-.5-9.143h-1.55v1h1.55v-1zm-1.05.5v-2.1h-1v2.1h1zm-.5-1.6h1.55v-1h-1.55v1zm2.05-.5v-2.856h-1v2.857h1zm-.5-2.356h3.479v-1h-3.479v1zm2.979-.5v2.857h1V27.97h-1zm.5 3.357h1.88v-1h-1.88v1zm1.38-.5v2.1h1v-2.1h-1zm.5 1.6h-1.88v1h1.88v-1zm-2.38.5v8.617h1v-8.618h-1zm0 8.617c0 .503.152.997.609 1.271l.514-.857c-.031-.019-.123-.086-.123-.414h-1zm.626 1.281c.211.116.487.177.775.213.302.039.67.056 1.101.056v-1c-.408 0-.731-.017-.975-.048-.256-.032-.379-.075-.42-.098l-.481.877zm1.376-.23V45h1v-2.405h-1zm4.577-12.55v.5h.5v-.5h-.5zm-3.479 0h-.5v.5h.5v-.5zm0-2.55v-.5h-.5v.5h.5zm3.479 0h.5v-.5h-.5v.5zm0 17.504v.5h.5V45h-.5zm-3.479 0h-.5v.5h.5V45zm0-14.172v-.5h-.5v.5h.5zm3.479 0h.5v-.5h-.5v.5zm0-1.282h-3.479v1h3.479v-1zm-2.979.5v-2.55h-1v2.55h1zm-.5-2.05h3.479v-1h-3.479v1zm2.979-.5v2.55h1v-2.55h-1zm.5 17.004h-3.479v1h3.479v-1zm-2.979.5V30.828h-1V45h1zm-.5-13.672h3.479v-1h-3.479v1zm2.979-.5V45h1V30.828h-1zm14.697 0l.492.088.106-.588h-.598v.5zM375.771 45v.5h.418l.074-.411-.492-.089zm-4.2 0l-.492.089.074.411h.418V45zm-2.551-14.172v-.5h-.598l.106.588.492-.088zm3.503 0l.495-.071-.061-.43h-.434v.5zm1.197 8.374l-.495.07.99-.001-.495-.07zm1.172-8.374v-.5h-.435l-.061.43.496.07zm2.938-.089l-2.552 14.172.985.178 2.551-14.173-.984-.177zM375.771 44.5h-4.2v1h4.2v-1zm-3.708.411l-2.551-14.172-.984.177 2.551 14.173.984-.178zm-3.043-13.583h3.503v-1h-3.503v1zm3.008-.43l1.197 8.374.99-.141-1.197-8.374-.99.141zm2.187 8.373l1.172-8.374-.991-.139-1.171 8.374.99.139zm.677-7.943h3.43v-1h-3.43v1zm7.324-1.282v.5h.5v-.5h-.5zm-3.479 0h-.5v.5h.5v-.5zm0-2.55v-.5h-.5v.5h.5zm3.479 0h.5v-.5h-.5v.5zm0 17.504v.5h.5V45h-.5zm-3.479 0h-.5v.5h.5V45zm0-14.172v-.5h-.5v.5h.5zm3.479 0h.5v-.5h-.5v.5zm0-1.282h-3.479v1h3.479v-1zm-2.979.5v-2.55h-1v2.55h1zm-.5-2.05h3.479v-1h-3.479v1zm2.979-.5v2.55h1v-2.55h-1zm.5 17.004h-3.479v1h3.479v-1zm-2.979.5V30.828h-1V45h1zm-.5-13.672h3.479v-1h-3.479v1zm2.979-.5V45h1V30.828h-1zM391.237 45v.5h.5V45h-.5zm-8.35 0h-.5v.5h.5V45zm0-1.953l-.465-.184-.035.088v.096h.5zm3.943-9.949l.465.184.271-.684h-.736v.5zm-3.723 0h-.5v.5h.5v-.5zm0-2.27v-.5h-.5v.5h.5zm7.751 0h.5v-.5h-.5v.5zm0 1.916l.465.186.035-.09v-.096h-.5zm-4.004 10.01l-.464-.186-.274.686h.738v-.5zm4.383 0h.5v-.5h-.5v.5zm0 1.746h-8.35v1h8.35v-1zm-7.85.5v-1.953h-1V45h1zm-.035-1.769l3.943-9.949-.93-.368-3.943 9.949.93.368zm3.478-10.633h-3.723v1h3.723v-1zm-3.223.5v-2.27h-1v2.27h1zm-.5-1.77h7.751v-1h-7.751v1zm7.251-.5v1.916h1v-1.916h-1zm.036 1.73l-4.004 10.01.929.372 4.004-10.01-.929-.372zm-3.54 10.696h4.383v-1h-4.383v1zm3.883-.5V45h1v-2.246h-1zm1.11-3.455v-.5h-.5v.5h.5zm3.467 0h.5v-.5h-.5v.5zm.452.025l.294-.404-.03-.022-.032-.017-.232.443zm-3.284-1.99l-.357.35.003.004.354-.354zm7.434-.94v.5h.5v-.5h-.5zm-3.394 0l-.499-.021-.023.521h.522v-.5zm.074-1.697l.499.022.001-.01v-.012h-.5zm-1.013 1.075l-.451.216.003.007.448-.223zm3.198 2.014l.291-.407-.033-.024-.038-.018-.22.449zm-6.934 2.013h3.467v-1h-3.467v1zm2.967-.5v3.003h1V39.3h-1zm0 3.003c0 .295.058.61.259.856.216.266.524.364.827.364v-1c-.047 0-.066-.007-.067-.007 0 0 .003 0 .007.004a.03.03 0 01.008.008c.006.006-.034-.04-.034-.225h-1zm1.086 1.22a.903.903 0 00.565-.192c.158-.125.264-.29.335-.457.137-.324.186-.75.186-1.23h-1c0 .44-.049.703-.107.84-.027.062-.043.07-.031.06a.1.1 0 01.052-.02v1zm1.086-1.879c0-.627-.062-1.174-.203-1.625-.14-.453-.369-.84-.723-1.098l-.589.808c.127.092.258.266.357.586.1.322.158.76.158 1.33h1zm-.988-2.762a41.818 41.818 0 01-2.155-1.196c-.548-.332-.868-.565-1.008-.705l-.707.708c.235.234.65.52 1.197.852.559.339 1.297.748 2.208 1.227l.465-.886zm-3.159-1.897c-.25-.256-.419-.678-.419-1.359h-1c0 .833.207 1.55.705 2.059l.714-.7zm-.419-1.359v-1.904h-1v1.904h1zm0-1.904c0-.872.288-1.455.81-1.841.552-.407 1.439-.65 2.743-.65v-1c-1.398 0-2.537.255-3.336.845-.828.611-1.217 1.524-1.217 2.646h1zm3.553-2.491c1.269 0 2.13.233 2.663.622.504.366.78.918.78 1.747h1c0-1.084-.381-1.966-1.192-2.556-.78-.568-1.891-.813-3.251-.813v1zm3.443 2.369v2.795h1v-2.795h-1zm.5 2.295h-3.394v1h3.394v-1zm-2.894.522l.073-1.697-.999-.043-.073 1.697.999.043zm.074-1.719c0-.606-.054-1.12-.192-1.499a1.331 1.331 0 00-.335-.53.909.909 0 00-.62-.24v1a.098.098 0 01-.054-.02c0-.001.008.006.021.028.013.022.03.056.048.105.077.211.132.583.132 1.156h1zm-1.147-2.27c-.392 0-.719.186-.918.526-.174.299-.229.683-.229 1.085h1c0-.338.052-.51.094-.581.016-.029.024-.03.018-.026-.006.003 0-.004.035-.004v-1zm-1.147 1.611c0 .791.094 1.458.33 1.95l.901-.433c-.138-.29-.231-.778-.231-1.517h-1zm.333 1.957c.096.191.264.36.435.505.182.153.415.317.692.491.555.35 1.323.764 2.298 1.243l.441-.897c-.962-.473-1.695-.87-2.206-1.192a5.447 5.447 0 01-.581-.41 1.51 1.51 0 01-.145-.138c-.033-.037-.041-.053-.039-.05l-.895.448zm3.354 2.197c.681.488 1 1.105 1 1.889h1c0-1.121-.487-2.035-1.417-2.702l-.583.813zm1 1.889v2.124h1V40.08h-1zm0 2.124c0 .869-.29 1.451-.822 1.838-.562.409-1.466.652-2.792.652v1c1.417 0 2.57-.255 3.38-.843.839-.61 1.234-1.523 1.234-2.647h-1zm-3.614 2.49c-1.298 0-2.182-.234-2.731-.624-.517-.368-.797-.92-.797-1.744h-1c0 1.088.392 1.97 1.217 2.558.795.566 1.925.81 3.311.81v-1zm-3.528-2.368v-3.028h-1v3.028h1zm8.985 5.676h-.5v.5h.5v-.5zm0-2.05v-.5h-.5v.5h.5zm4.053-1.283h.5v-1.014l-.805.618.305.396zm-3.931-.012l-.297.403.008.005.289-.408zm3.955-13.306l-.231.444.352.183.258-.3-.379-.326zm.452-.524v-.5h-.23l-.149.174.379.326zm2.991 0h.5v-.5h-.5v.5zm-.55 16.26l-.427-.26-.004.006.431.253zm-6.47.915v-2.05h-1v2.05h1zm-.5-1.55h2.82v-1h-2.82v1zm2.82 0c.493 0 .953-.13 1.285-.475.328-.34.448-.808.448-1.308h-1c0 .355-.086.529-.169.615-.079.083-.235.167-.564.167v1zm.928-2.18c-.325.251-.908.422-1.844.422v1c1.017 0 1.868-.178 2.453-.628l-.609-.793zm-1.844.422c-.591 0-1.081-.153-1.493-.444l-.578.815c.598.424 1.295.63 2.071.63v-1zm-1.485-.44c-.377-.277-.542-.607-.542-1.025h-1c0 .754.332 1.376.948 1.83l.594-.804zm-.542-1.025V33.05h-1v10.18h1zm0-10.18c0-.671.196-1.09.514-1.357.335-.28.891-.463 1.757-.463v-1c-.981 0-1.81.203-2.399.696-.606.508-.872 1.247-.872 2.123h1zm2.271-1.82c.366 0 .922.162 1.698.566l.462-.887c-.818-.426-1.549-.679-2.16-.679v1zm2.308.449l.452-.525-.758-.652-.452.524.758.653zm.073-.351h2.991v-1h-2.991v1zm2.491-.5v13.977h1V30.828h-1zm0 13.977c0 .855-.171 1.52-.477 2.023l.854.52c.427-.702.623-1.56.623-2.543h-1zm-.481 2.03c-.081.138-.298.317-.811.456-.5.137-1.203.212-2.127.212v1c.965 0 1.767-.077 2.39-.246.61-.166 1.134-.445 1.411-.917l-.863-.506zm-2.938.668h-3.601v1h3.601v-1zm.952-5.03v-8.899h-1v8.9h1zm0-8.899c0-.283-.065-.589-.283-.824-.224-.243-.528-.323-.815-.323v1c.056 0 .083.008.092.011.005.002-.002 0-.011-.01-.018-.02.017-.002.017.146h1zm-1.098-1.147c-.289 0-.595.078-.822.319-.222.235-.289.542-.289.828h1c0-.145.035-.162.017-.142-.009.01-.015.01-.007.007a.322.322 0 01.101-.012v-1zm-1.111 1.147v8.875h1v-8.875h-1zm0 8.875c0 .285.067.593.289.828.227.24.533.319.822.319v-1a.322.322 0 01-.101-.012c-.008-.003-.002-.002.007.007.018.02-.017.003-.017-.142h-1zm1.111 1.147c.281 0 .583-.075.809-.31.222-.23.289-.533.289-.813h-1c0 .136-.033.144-.01.12.01-.01.017-.011.009-.009a.31.31 0 01-.097.012v1zM417.836 45v.5h.5V45h-.5zm-3.076 0h-.5v.5h.5V45zm0-.55h.5l-.943-.232.443.233zm-4.395-5.98l-.356-.351-.003.003.359.347zm2.783-1.77l-.225-.447h-.001l.226.446zm-.036-1.173l-.499.03v.011l.499-.04zm.049.904v.5h.5v-.5h-.5zm-3.357 0h-.5v.5h.5v-.5zm4.553 2.27h.5v-.637l-.619.151.119.486zm3.479 5.799h-3.076v1h3.076v-1zm-2.576.5v-.55h-1V45h1zm-.943-.782c-.05.095-.17.217-.469.317-.301.1-.735.16-1.322.16v1c.641 0 1.194-.064 1.638-.212.446-.148.828-.398 1.039-.8l-.886-.465zm-1.791.477c-.897 0-1.477-.177-1.826-.45-.324-.253-.518-.645-.518-1.271h-1c0 .855.28 1.573.903 2.06.6.468 1.441.661 2.441.661v-1zm-2.344-1.721v-2.845h-1v2.845h1zm0-2.845c0-.5.174-.93.543-1.313l-.719-.694c-.543.562-.824 1.238-.824 2.007h1zm.54-1.31c.401-.407 1.262-.966 2.653-1.674l-.453-.891c-1.392.708-2.387 1.329-2.913 1.865l.713.7zm2.652-1.674c.415-.209.753-.41.995-.606.121-.098.234-.207.321-.33a.849.849 0 00.167-.486h-1c0-.078.031-.112.016-.09a.726.726 0 01-.132.128c-.161.13-.427.294-.818.492l.451.892zm1.483-1.422v-2.1h-1v2.1h1zm0-2.1c0-.292-.061-.604-.27-.848-.222-.258-.53-.348-.828-.348v1c.052 0 .076.008.081.01.002 0-.005-.002-.012-.01-.01-.011.029.024.029.196h1zm-1.098-1.196a.955.955 0 00-.618.221c-.169.14-.282.325-.359.517-.15.373-.207.875-.207 1.459h1c0-.547.057-.893.135-1.086.037-.091.067-.118.068-.12l-.003.003a.121.121 0 01-.009.004c-.008.003-.012.002-.007.002v-1zm-1.184 2.197c0 .22.013.533.038.934l.998-.061a16.004 16.004 0 01-.036-.873h-1zm.038.944c.033.396.048.68.048.863h1c0-.225-.018-.542-.051-.944l-.997.081zm.548.363h-3.357v1h3.357v-1zm-2.857.5v-2.832h-1v2.832h1zm0-2.832c0-.818.285-1.37.822-1.74.569-.394 1.487-.629 2.828-.629v-1c-1.425 0-2.583.244-3.397.806-.847.585-1.253 1.468-1.253 2.563h1zm3.65-2.369c1.244 0 2.085.242 2.606.644.497.383.776.967.776 1.847h1c0-1.114-.368-2.025-1.165-2.64-.773-.595-1.873-.851-3.217-.851v1zm3.382 2.49V45h1V33.72h-1zm-2.479 8.631v-3.65h-1v3.65h1zm-.619-4.136c-.44.108-.828.273-1.112.53a1.35 1.35 0 00-.465 1.03h1c0-.114.036-.2.133-.287.114-.102.324-.214.682-.301l-.238-.971zm-1.577 1.56v2.576h1v-2.576h-1zm0 2.576c0 .288.069.597.295.832.23.239.538.315.827.315v-1c-.125 0-.129-.031-.106-.008.018.02-.016.004-.016-.139h-1zm1.122 1.147c.285 0 .586-.083.805-.33.208-.235.269-.538.269-.817h-1c0 .153-.035.173-.018.154.01-.011.02-.016.019-.015a.23.23 0 01-.075.008v1z"/>
  </g>
  <g filter="url(#filter5_d_521_281)">
    <path fill="#FFFF38" d="M596.314 20.993h3.504v4.016c0 .399.24.598.72.598.464 0 .696-.199.696-.598v-2.075c0-.635-.423-1.38-1.27-2.234-1.635-1.587-2.653-2.653-3.051-3.198a2.973 2.973 0 01-.599-1.794v-1.966c0-2.27 1.482-3.406 4.444-3.406 2.653 0 3.979 1.034 3.979 3.101v3.027h-3.503v-3.222c0-.35-.191-.525-.574-.525-.447 0-.671.338-.671 1.013l.073 1.135c0 .651.431 1.408 1.294 2.27 1.603 1.539 2.62 2.613 3.052 3.223.439.61.659 1.302.659 2.076v2.233c0 2.328-1.485 3.492-4.456 3.492-2.864 0-4.297-1.058-4.297-3.174v-3.992zm12.964-7.947h-3.479v-2.55h3.479v2.55zm0 14.954h-3.479V13.828h3.479V28zm10.449 0h-4.089l-2.136-5.127V28h-3.467V10.495h3.467v7.85l1.782-4.517h3.601l-2.527 6.2L619.727 28zm8.68-6.006h-4.676v3.308c0 .48.204.72.611.72.399 0 .598-.24.598-.72v-2.856h3.467v2.88c0 1.913-1.363 2.87-4.09 2.87-2.701 0-4.052-.998-4.052-2.991V16.72c0-1.994 1.351-2.991 4.052-2.991 2.727 0 4.09.956 4.09 2.869v5.395zm-3.467-2.124v-3.247c0-.464-.199-.696-.598-.696-.407 0-.611.232-.611.696v3.247h1.209zm12.5-.17h-3.479v-3.077c0-.431-.199-.647-.598-.647-.399 0-.598.208-.598.623V28h-3.479V13.828h3.479v.476c.463-.383 1.18-.574 2.148-.574.692 0 1.286.187 1.782.561.497.367.745.85.745 1.453V19.7zm8.813 2.294h-4.675v3.308c0 .48.204.72.61.72.399 0 .599-.24.599-.72v-2.856h3.466v2.88c0 1.913-1.363 2.87-4.089 2.87-2.702 0-4.053-.998-4.053-2.991V16.72c0-1.994 1.351-2.991 4.053-2.991 2.726 0 4.089.956 4.089 2.869v5.395zm-3.466-2.124v-3.247c0-.464-.2-.696-.599-.696-.406 0-.61.232-.61.696v3.247h1.209zm4.248 2.43h3.466v3.002c0 .48.196.72.586.72.391 0 .586-.46.586-1.379 0-1.196-.24-1.97-.72-2.32-1.815-.951-2.909-1.615-3.284-1.989-.374-.383-.561-.952-.561-1.709v-1.904c0-1.994 1.351-2.991 4.053-2.991 2.628 0 3.942.956 3.942 2.869v2.795h-3.393l.073-1.697c0-1.18-.216-1.77-.647-1.77-.431 0-.647.37-.647 1.111 0 .765.094 1.343.281 1.733.195.391 1.261 1.063 3.198 2.015.806.577 1.209 1.342 1.209 2.295v2.124c0 1.993-1.372 2.99-4.114 2.99-2.686 0-4.028-.956-4.028-2.868v-3.028zm-87.537 35.703v-2.05h2.82c.822 0 1.233-.428 1.233-1.283-.456.35-1.172.525-2.149.525-.683 0-1.277-.179-1.782-.537-.496-.366-.745-.842-.745-1.428V43.05c0-1.547.924-2.32 2.771-2.32.489 0 1.132.208 1.929.623l.452-.525h2.991v13.977c0 .92-.184 1.68-.55 2.282-.358.61-1.481.916-3.369.916h-3.601zm4.053-5.53v-8.899c0-.431-.2-.647-.598-.647-.407 0-.611.216-.611.647v8.875c0 .431.204.647.611.647.398 0 .598-.208.598-.623zm13.415-11.645l-2.697 14.099c-.277 1.44-.652 2.311-1.124 2.612-.463.31-1.11.464-1.94.464h-2.43v-1.904c.912 0 1.477-.045 1.697-.135.22-.09.33-.354.33-.793 0-.44-.501-2.73-1.502-6.873l-1.806-7.47h3.479l1.452 7.495 1.148-7.495h3.393zM585.67 55h-3.076v-.55c-.261.497-1.005.745-2.234.745-1.896 0-2.844-.74-2.844-2.221v-2.845c0-.634.227-1.188.683-1.66.464-.472 1.392-1.062 2.783-1.77.806-.407 1.209-.732 1.209-.976v-2.1c0-.464-.2-.696-.598-.696-.456 0-.684.566-.684 1.697 0 .203.012.505.037.903.032.4.049.7.049.904h-3.357v-2.832c0-1.913 1.383-2.869 4.15-2.869 2.588 0 3.882.997 3.882 2.99V55zm-3.479-2.649v-3.65c-.798.196-1.196.554-1.196 1.074v2.576c0 .431.207.647.622.647.383 0 .574-.216.574-.647zM596.217 55h-4.09l-2.136-5.127V55h-3.467V37.495h3.467v7.85l1.782-4.517h3.601l-2.526 6.2L596.217 55zm.464-2.795V43.72c0-1.994 1.379-2.991 4.138-2.991 1.066 0 2.002.232 2.807.696.814.464 1.221 1.188 1.221 2.173v8.728c0 1.912-1.343 2.868-4.028 2.868-2.759 0-4.138-.997-4.138-2.99zm4.687.097v-8.679c0-.464-.199-.696-.598-.696-.407 0-.61.232-.61.696v8.68c0 .48.203.72.61.72.399 0 .598-.24.598-.72zm12.439-5.603h-3.479v-3.076c0-.431-.199-.647-.598-.647-.399 0-.598.208-.598.623V55h-3.479V40.828h3.479v.476c.464-.383 1.18-.574 2.148-.574.692 0 1.286.187 1.782.562.497.366.745.85.745 1.452V46.7zM617.982 55h-3.479V37.495h3.479V55zm8.996 0h-3.076v-.55c-.26.497-1.005.745-2.234.745-1.896 0-2.844-.74-2.844-2.221v-2.845c0-.634.228-1.188.684-1.66.464-.472 1.391-1.062 2.783-1.77.806-.407 1.208-.732 1.208-.976v-2.1c0-.464-.199-.696-.598-.696-.455 0-.683.566-.683 1.697 0 .203.012.505.036.903.033.4.049.7.049.904h-3.357v-2.832c0-1.913 1.384-2.869 4.151-2.869 2.588 0 3.881.997 3.881 2.99V55zm-3.479-2.649v-3.65c-.797.196-1.196.554-1.196 1.074v2.576c0 .431.208.647.623.647.382 0 .573-.216.573-.647zM634.693 55h-2.197c-1.571 0-2.511-.236-2.82-.708-.309-.472-.464-1.38-.464-2.722v-8.643h-1.55v-2.1h1.55v-2.856h3.479v2.857h1.88v2.1h-1.88v8.617c0 .415.122.696.367.843.252.138.797.207 1.635.207V55zm4.077-14.954h-3.479v-2.55h3.479v2.55zm0 14.954h-3.479V40.828h3.479V55zm14.197-14.172L650.416 55h-4.199l-2.552-14.172h3.504l1.196 8.374 1.172-8.374h3.43zm3.894-.782h-3.479v-2.55h3.479v2.55zm0 14.954h-3.479V40.828h3.479V55zm9.021 0h-8.349v-1.953l3.943-9.949h-3.724v-2.27h7.752v1.916l-4.004 10.01h4.382V55zm.611-5.7h3.466v3.002c0 .48.196.72.586.72.391 0 .586-.46.586-1.379 0-1.196-.24-1.97-.72-2.32-1.815-.951-2.909-1.615-3.284-1.989-.374-.383-.561-.952-.561-1.709v-1.904c0-1.994 1.351-2.991 4.053-2.991 2.628 0 3.942.956 3.942 2.869v2.795h-3.393l.073-1.697c0-1.18-.215-1.77-.647-1.77-.431 0-.647.37-.647 1.111 0 .765.094 1.343.281 1.734.195.39 1.261 1.062 3.198 2.014.806.577 1.209 1.342 1.209 2.295v2.124c0 1.993-1.372 2.99-4.114 2.99-2.686 0-4.028-.956-4.028-2.868v-3.028zm9.484 8.703v-2.05h2.82c.822 0 1.233-.428 1.233-1.283-.456.35-1.172.525-2.148.525-.684 0-1.278-.179-1.782-.537-.497-.366-.745-.842-.745-1.428V43.05c0-1.547.924-2.32 2.771-2.32.488 0 1.131.208 1.929.623l.451-.525h2.991v13.977c0 .92-.183 1.68-.549 2.282-.358.61-1.481.916-3.369.916h-3.602zm4.053-5.53v-8.899c0-.431-.199-.647-.598-.647-.407 0-.61.216-.61.647v8.875c0 .431.203.647.61.647.399 0 .598-.208.598-.623zM692.481 55h-3.076v-.55c-.26.497-1.005.745-2.234.745-1.896 0-2.844-.74-2.844-2.221v-2.845c0-.634.228-1.188.684-1.66.464-.472 1.391-1.062 2.783-1.77.806-.407 1.208-.732 1.208-.976v-2.1c0-.464-.199-.696-.598-.696-.455 0-.683.566-.683 1.697 0 .203.012.505.036.903.033.4.049.7.049.904h-3.357v-2.832c0-1.913 1.384-2.869 4.151-2.869 2.587 0 3.881.997 3.881 2.99V55zm-3.479-2.649v-3.65c-.797.196-1.196.554-1.196 1.074v2.576c0 .431.208.647.623.647.382 0 .573-.216.573-.647z"/>
    <path fill="#000" d="M596.314 20.993v-.5h-.5v.5h.5zm3.504 0h.5v-.5h-.5v.5zm.146-.293l.356-.352-.008-.007-.348.36zm-3.051-3.198l-.404.295.404-.295zm7.824-1.038v.5h.5v-.5h-.5zm-3.503 0h-.5v.5h.5v-.5zm-1.245-2.734h-.5v.016l.001.016.499-.032zm.073 1.135h.5v-.016l-.001-.016-.499.032zm1.294 2.27l-.354.354.008.008.346-.361zm3.052 3.223l-.409.289.003.004.406-.293zm-8.094 1.135h3.504v-1h-3.504v1zm3.004-.5v4.016h1v-4.016h-1zm0 4.016c0 .304.096.614.36.834.247.205.563.264.86.264v-1c-.183 0-.228-.04-.221-.034.006.005.01.012.01.012-.001-.004-.009-.025-.009-.076h-1zm1.22 1.098c.292 0 .604-.06.848-.27.258-.222.348-.53.348-.828h-1a.234.234 0 01-.01.081c-.001.002.003-.005.01-.011.011-.01-.024.028-.196.028v1zm1.196-1.098v-2.075h-1v2.075h1zm0-2.075c0-.843-.549-1.712-1.414-2.586l-.711.704c.828.835 1.125 1.456 1.125 1.882h1zm-1.422-2.593c-1.643-1.594-2.627-2.63-2.996-3.134l-.807.59c.429.586 1.479 1.683 3.107 3.262l.696-.718zm-2.996-3.134a2.478 2.478 0 01-.502-1.5h-1c0 .762.236 1.463.695 2.09l.807-.59zm-.502-1.5v-1.965h-1v1.965h1zm0-1.965c0-1.017.325-1.705.915-2.157.616-.472 1.597-.749 3.029-.749v-1c-1.531 0-2.771.291-3.637.955-.891.683-1.307 1.698-1.307 2.951h1zm3.944-2.906c1.275 0 2.14.251 2.677.67.514.4.802 1.012.802 1.931h1c0-1.148-.375-2.087-1.187-2.72-.789-.615-1.915-.88-3.292-.88v1zm3.479 2.601v3.027h1v-3.027h-1zm.5 2.527h-3.503v1h3.503v-1zm-3.003.5v-3.222h-1v3.222h1zm0-3.222c0-.264-.074-.55-.306-.763-.223-.204-.51-.262-.768-.262v1c.059 0 .092.007.105.01.012.004.003.004-.012-.01a.125.125 0 01-.018-.021c-.005-.007-.006-.012-.007-.013 0 0 .006.015.006.059h1zm-1.074-1.025c-.371 0-.705.152-.92.477-.192.289-.251.659-.251 1.036h1c0-.298.052-.435.084-.484.012-.017.018-.02.018-.02a.158.158 0 01.069-.01v-1zm-1.17 1.545l.073 1.135.998-.064-.073-1.135-.998.064zm.072 1.103c0 .86.557 1.741 1.44 2.624l.707-.707c-.842-.842-1.147-1.475-1.147-1.917h-1zm1.448 2.632c1.609 1.543 2.59 2.585 2.989 3.15l.817-.577c-.463-.656-1.516-1.762-3.114-3.295l-.692.722zm2.992 3.154c.376.522.565 1.111.565 1.783h1a3.96 3.96 0 00-.754-2.368l-.811.585zm.565 1.783v2.233h1v-2.233h-1zm0 2.233c0 1.05-.329 1.76-.922 2.225-.617.484-1.6.767-3.034.767v1c1.537 0 2.782-.299 3.65-.98.892-.698 1.306-1.734 1.306-3.011h-1zm-3.956 2.992c-1.385 0-2.333-.259-2.925-.696-.564-.416-.872-1.045-.872-1.978h-1c0 1.183.409 2.14 1.278 2.782.84.621 2.04.892 3.519.892v-1zm-3.797-2.674v-3.992h-1v3.992h1zm12.464-11.939v.5h.5v-.5h-.5zm-3.479 0h-.5v.5h.5v-.5zm0-2.55v-.5h-.5v.5h.5zm3.479 0h.5v-.5h-.5v.5zm0 17.504v.5h.5V28h-.5zm-3.479 0h-.5v.5h.5V28zm0-14.172v-.5h-.5v.5h.5zm3.479 0h.5v-.5h-.5v.5zm0-1.282h-3.479v1h3.479v-1zm-2.979.5v-2.55h-1v2.55h1zm-.5-2.05h3.479v-1h-3.479v1zm2.979-.5v2.55h1v-2.55h-1zm.5 17.004h-3.479v1h3.479v-1zm-2.979.5V13.828h-1V28h1zm-.5-13.672h3.479v-1h-3.479v1zm2.979-.5V28h1V13.828h-1zM619.727 28v.5h.755l-.294-.695-.461.195zm-4.089 0l-.461.192.128.308h.333V28zm-2.136-5.127l.461-.192-.961.192h.5zm0 5.127v.5h.5V28h-.5zm-3.467 0h-.5v.5h.5V28zm0-17.505v-.5h-.5v.5h.5zm3.467 0h.5v-.5h-.5v.5zm0 7.85h-.5l.965.183-.465-.184zm1.782-4.517v-.5h-.34l-.125.316.465.184zm3.601 0l.463.188.281-.688h-.744v.5zm-2.527 6.2l-.463-.188-.078.192.081.192.46-.195zm3.369 7.472h-4.089v1h4.089v-1zm-3.627.308l-2.137-5.127-.923.384 2.137 5.127.923-.384zm-3.098-4.935V28h1v-5.127h-1zm.5 4.627h-3.467v1h3.467v-1zm-2.967.5V10.495h-1V28h1zm-.5-17.005h3.467v-1h-3.467v1zm2.967-.5v7.85h1v-7.85h-1zm.965 8.033l1.782-4.517-.93-.367-1.782 4.517.93.367zm1.317-4.2h3.601v-1h-3.601v1zm3.138-.689l-2.527 6.201.926.378 2.527-6.202-.926-.377zm-2.524 6.585l3.369 7.97.921-.389-3.369-7.97-.921.389zm12.509 1.77v.5h.5v-.5h-.5zm-4.676 0v-.5h-.5v.5h.5zm1.209.452v-.5h-.5v.5h.5zm3.467 0h.5v-.5h-.5v.5zm-3.467-2.576v.5h.5v-.5h-.5zm-1.209 0h-.5v.5h.5v-.5zm4.676 1.624h-4.676v1h4.676v-1zm-5.176.5v3.308h1v-3.308h-1zm0 3.308c0 .299.062.616.272.864.223.263.535.357.839.357v-1a.243.243 0 01-.084-.01c-.003-.002.003 0 .007.006.007.007-.034-.035-.034-.217h-1zm1.111 1.22c.303 0 .613-.095.833-.36.205-.247.265-.563.265-.86h-1c0 .183-.04.228-.034.221a.043.043 0 01.011-.01.214.214 0 01-.075.01v1zm1.098-1.22v-2.856h-1v2.856h1zm-.5-2.356h3.467v-1h-3.467v1zm2.967-.5v2.88h1v-2.88h-1zm0 2.88c0 .822-.283 1.373-.81 1.743-.559.392-1.46.626-2.78.626v1c1.407 0 2.551-.244 3.354-.808.837-.586 1.236-1.47 1.236-2.56h-1zm-3.59 2.37c-1.304 0-2.191-.244-2.742-.65-.523-.386-.81-.97-.81-1.841h-1c0 1.122.388 2.034 1.216 2.645.8.59 1.939.845 3.336.845v-1zm-3.552-2.491V16.72h-1v8.484h1zm0-8.484c0-.872.287-1.455.81-1.841.551-.407 1.438-.65 2.742-.65v-1c-1.397 0-2.536.255-3.336.845-.828.611-1.216 1.524-1.216 2.646h1zm3.552-2.491c1.32 0 2.221.234 2.78.627.527.369.81.92.81 1.742h1c0-1.092-.399-1.975-1.236-2.561-.803-.564-1.947-.808-3.354-.808v1zm3.59 2.369v5.395h1V16.6h-1zm-2.467 3.271v-3.247h-1v3.247h1zm0-3.247c0-.292-.061-.604-.27-.848-.222-.258-.53-.348-.828-.348v1c.052 0 .076.008.081.01.002 0-.005-.002-.012-.01-.01-.011.029.024.029.196h1zm-1.098-1.196c-.299 0-.609.088-.834.345-.214.243-.277.557-.277.851h1c0-.17.039-.204.029-.192-.006.007-.012.009-.008.007a.273.273 0 01.09-.01v-1zm-1.111 1.196v3.247h1v-3.247h-1zm.5 3.747h1.209v-1h-1.209v1zm13.709-.67v.5h.5v-.5h-.5zm-3.479 0h-.5v.5h.5v-.5zm-1.196 8.3v.5h.5V28h-.5zm-3.479 0h-.5v.5h.5V28zm0-14.172v-.5h-.5v.5h.5zm3.479 0h.5v-.5h-.5v.5zm0 .476h-.5v1.06l.818-.675-.318-.385zm3.93-.013l-.301.4.004.003.297-.403zm.745 4.908h-3.479v1h3.479v-1zm-2.979.5v-3.076h-1v3.076h1zm0-3.076c0-.283-.065-.59-.283-.825-.224-.242-.528-.322-.815-.322v1a.29.29 0 01.092.01c.006.003-.002 0-.011-.009-.018-.02.017-.002.017.146h1zm-1.098-1.147c-.282 0-.584.074-.809.31-.223.23-.289.533-.289.813h1c0-.136.032-.145.01-.12-.01.01-.018.011-.01.008a.314.314 0 01.098-.01v-1zm-1.098 1.123V28h1V16.599h-1zm.5 10.901h-3.479v1h3.479v-1zm-2.979.5V13.828h-1V28h1zm-.5-13.672h3.479v-1h-3.479v1zm2.979-.5v.476h1v-.476h-1zm.818.862c.334-.276.911-.46 1.83-.46v-1c-1.018 0-1.873.198-2.466.688l.636.772zm1.83-.46c.596 0 1.081.16 1.481.46l.602-.798c-.593-.447-1.295-.662-2.083-.662v1zm1.485.464c.373.274.542.611.542 1.05h1c0-.765-.327-1.397-.948-1.855l-.594.805zm.542 1.05V19.7h1v-3.955h-1zm9.313 6.25v.5h.5v-.5h-.5zm-4.675 0v-.5h-.5v.5h.5zm1.209.452v-.5h-.5v.5h.5zm3.466 0h.5v-.5h-.5v.5zm-3.466-2.576v.5h.5v-.5h-.5zm-1.209 0h-.5v.5h.5v-.5zm4.675 1.624h-4.675v1h4.675v-1zm-5.175.5v3.308h1v-3.308h-1zm0 3.308c0 .299.062.616.271.864.223.263.535.357.839.357v-1a.248.248 0 01-.084-.01c-.002-.002.003 0 .008.006.006.007-.034-.035-.034-.217h-1zm1.11 1.22c.304 0 .614-.095.834-.36.205-.247.265-.563.265-.86h-1c0 .183-.04.228-.035.221a.04.04 0 01.012-.01.218.218 0 01-.076.01v1zm1.099-1.22v-2.856h-1v2.856h1zm-.5-2.356h3.466v-1h-3.466v1zm2.966-.5v2.88h1v-2.88h-1zm0 2.88c0 .822-.282 1.373-.809 1.743-.559.392-1.46.626-2.78.626v1c1.406 0 2.55-.244 3.354-.808.836-.586 1.235-1.47 1.235-2.56h-1zm-3.589 2.37c-1.304 0-2.191-.244-2.743-.65-.523-.386-.81-.97-.81-1.841h-1c0 1.122.389 2.034 1.217 2.645.799.59 1.938.845 3.336.845v-1zm-3.553-2.491V16.72h-1v8.484h1zm0-8.484c0-.872.287-1.455.81-1.841.552-.407 1.439-.65 2.743-.65v-1c-1.398 0-2.537.255-3.336.845-.828.611-1.217 1.524-1.217 2.646h1zm3.553-2.491c1.32 0 2.221.234 2.78.627.527.369.809.92.809 1.742h1c0-1.092-.399-1.975-1.235-2.561-.804-.564-1.948-.808-3.354-.808v1zm3.589 2.369v5.395h1V16.6h-1zm-2.466 3.271v-3.247h-1v3.247h1zm0-3.247c0-.292-.062-.604-.271-.848-.221-.258-.53-.348-.828-.348v1c.053 0 .076.008.081.01.002 0-.005-.002-.011-.01-.01-.011.029.024.029.196h1zm-1.099-1.196c-.298 0-.609.088-.833.345-.214.243-.277.557-.277.851h1c0-.17.039-.204.029-.192-.007.007-.013.009-.008.007a.27.27 0 01.089-.01v-1zm-1.11 1.196v3.247h1v-3.247h-1zm.5 3.747h1.209v-1h-1.209v1zm5.457 1.93v-.5h-.5v.5h.5zm3.466 0h.5v-.5h-.5v.5zm.452.024l.295-.404-.03-.022-.033-.017-.232.443zm-3.284-1.99l-.357.35.004.003.353-.353zm7.434-.94v.5h.5v-.5h-.5zm-3.393 0l-.5-.021-.022.521h.522v-.5zm.073-1.697l.5.022v-.022h-.5zm-1.013 1.075l-.451.216.004.007.447-.224zm3.198 2.014l.292-.407-.034-.024-.037-.018-.221.449zm-6.933 2.013h3.466v-1h-3.466v1zm2.966-.5v3.003h1V22.3h-1zm0 3.003c0 .295.058.61.259.856.217.266.525.364.827.364v-1a.187.187 0 01-.066-.007c-.001 0 .002 0 .006.004l.009.008c.005.006-.035-.04-.035-.225h-1zm1.086 1.22a.9.9 0 00.565-.192c.159-.125.264-.29.335-.457.138-.324.186-.75.186-1.23h-1c0 .44-.049.703-.106.84-.027.062-.044.07-.032.06a.1.1 0 01.052-.02v1zm1.086-1.879c0-.627-.062-1.174-.202-1.625-.141-.453-.37-.84-.723-1.098l-.589.808c.126.092.257.266.357.586.1.322.157.76.157 1.33h1zm-.988-2.762a41.818 41.818 0 01-2.155-1.196c-.547-.332-.867-.565-1.007-.705l-.707.707c.234.235.649.521 1.196.853.56.339 1.297.748 2.209 1.227l.464-.886zm-3.158-1.897c-.251-.256-.419-.678-.419-1.359h-1c0 .833.206 1.55.704 2.059l.715-.7zm-.419-1.359v-1.904h-1v1.904h1zm0-1.904c0-.872.287-1.455.81-1.841.551-.407 1.439-.65 2.743-.65v-1c-1.398 0-2.537.255-3.337.845-.828.611-1.216 1.524-1.216 2.646h1zm3.553-2.491c1.268 0 2.129.233 2.663.621.503.367.779.92.779 1.748h1c0-1.084-.381-1.966-1.191-2.556-.781-.568-1.891-.813-3.251-.813v1zm3.442 2.369v2.795h1v-2.795h-1zm.5 2.295h-3.393v1h3.393v-1zm-2.894.522l.074-1.697-.999-.043-.074 1.697.999.043zm.074-1.719c0-.606-.053-1.12-.192-1.499a1.31 1.31 0 00-.335-.53.905.905 0 00-.62-.24v1a.098.098 0 01-.054-.02c0-.001.008.006.021.028a.558.558 0 01.049.105c.077.211.131.583.131 1.156h1zm-1.147-2.27c-.392 0-.719.186-.917.526-.174.299-.23.683-.23 1.085h1c0-.338.052-.51.094-.581.016-.029.025-.03.018-.026-.005.003.001-.004.035-.004v-1zm-1.147 1.611c0 .791.095 1.458.33 1.95l.902-.433c-.139-.29-.232-.778-.232-1.517h-1zm.334 1.957c.095.191.263.36.435.505.182.153.415.317.692.491.554.35 1.323.764 2.298 1.243l.441-.897c-.962-.473-1.695-.87-2.207-1.192a5.314 5.314 0 01-.58-.41 1.428 1.428 0 01-.146-.138c-.033-.037-.041-.053-.039-.05l-.894.448zm3.354 2.197c.681.488 1 1.105 1 1.889h1c0-1.121-.487-2.034-1.417-2.702l-.583.813zm1 1.889v2.124h1V23.08h-1zm0 2.124c0 .869-.29 1.451-.823 1.838-.562.409-1.466.652-2.791.652v1c1.417 0 2.57-.255 3.379-.843.839-.61 1.235-1.523 1.235-2.647h-1zm-3.614 2.49c-1.299 0-2.183-.234-2.731-.624-.517-.368-.797-.92-.797-1.744h-1c0 1.088.391 1.97 1.217 2.558.794.566 1.924.81 3.311.81v-1zm-3.528-2.368v-3.028h-1v3.028h1zm-88.037 32.676h-.5v.5h.5v-.5zm0-2.05v-.5h-.5v.5h.5zm4.053-1.283h.5v-1.014l-.805.618.305.396zm-3.931-.012l-.297.403.008.005.289-.408zm3.955-13.306l-.231.444.352.183.258-.3-.379-.327zm.452-.524v-.5h-.23l-.149.173.379.327zm2.991 0h.5v-.5h-.5v.5zm-.55 16.26l-.427-.26-.004.006.431.253zm-6.47.915v-2.05h-1v2.05h1zm-.5-1.55h2.82v-1h-2.82v1zm2.82 0c.493 0 .953-.13 1.285-.475.328-.34.448-.808.448-1.308h-1c0 .355-.086.529-.169.615-.079.083-.235.167-.564.167v1zm.928-2.18c-.326.251-.908.422-1.844.422v1c1.017 0 1.868-.178 2.453-.628l-.609-.793zm-1.844.422c-.591 0-1.081-.153-1.493-.444l-.578.815c.598.424 1.295.63 2.071.63v-1zm-1.485-.44c-.377-.277-.542-.607-.542-1.025h-1c0 .754.332 1.376.948 1.83l.594-.804zm-.542-1.025V43.05h-1v10.18h1zm0-10.18c0-.671.196-1.09.514-1.357.335-.28.891-.463 1.757-.463v-1c-.981 0-1.81.203-2.399.696-.606.508-.872 1.247-.872 2.123h1zm2.271-1.82c.366 0 .922.162 1.698.566l.462-.887c-.818-.426-1.549-.679-2.16-.679v1zm2.308.449l.452-.525-.758-.653-.452.525.758.653zm.073-.351h2.991v-1h-2.991v1zm2.491-.5v13.977h1V40.828h-1zm0 13.977c0 .855-.171 1.52-.477 2.023l.854.52c.427-.702.623-1.56.623-2.543h-1zm-.481 2.03c-.081.138-.298.317-.811.456-.5.137-1.203.212-2.127.212v1c.965 0 1.767-.077 2.389-.246.611-.166 1.135-.445 1.411-.917l-.862-.506zm-2.938.668h-3.601v1h3.601v-1zm.952-5.03v-8.899h-1v8.9h1zm0-8.899c0-.283-.065-.589-.283-.824-.224-.243-.528-.323-.815-.323v1c.056 0 .083.008.092.011.005.002-.002 0-.011-.01-.018-.02.017-.002.017.146h1zm-1.098-1.147c-.289 0-.595.078-.822.319-.222.235-.289.542-.289.828h1c0-.145.035-.162.017-.142-.009.01-.015.01-.007.007a.322.322 0 01.101-.012v-1zm-1.111 1.147v8.875h1v-8.875h-1zm0 8.875c0 .285.067.593.289.828.227.24.533.319.822.319v-1a.322.322 0 01-.101-.012c-.008-.003-.002-.002.007.007.018.02-.017.003-.017-.142h-1zm1.111 1.147c.281 0 .583-.075.809-.31.222-.23.289-.533.289-.813h-1c0 .136-.033.144-.01.12.01-.01.017-.011.009-.009a.31.31 0 01-.097.012v1zm14.013-12.768l.491.094.114-.594h-.605v.5zm-2.697 14.099l.491.094-.491-.094zm-1.124 2.612l-.269-.422-.008.006.277.416zm-4.37.464h-.5v.5h.5v-.5zm0-1.904v-.5h-.5v.5h.5zm.525-7.8l.486-.118-.486.117zm-1.806-7.471v-.5h-.636l.15.617.486-.117zm3.479 0l.49-.096-.078-.404h-.412v.5zm1.452 7.495l-.491.095.985-.02-.494-.075zm1.148-7.495v-.5h-.43l-.065.424.495.076zm2.902-.094l-2.698 14.099.983.188 2.697-14.1-.982-.187zm-2.698 14.098c-.134.702-.289 1.241-.456 1.63-.172.401-.333.585-.444.655l.537.844c.361-.23.623-.633.826-1.103.207-.482.378-1.098.52-1.837l-.983-.189zm-.909 2.291c-.351.234-.887.38-1.663.38v1c.883 0 1.641-.163 2.218-.548l-.555-.832zm-1.663.38h-2.43v1h2.43v-1zm-1.93.5v-1.904h-1v1.904h1zm-.5-1.404c.462 0 .846-.012 1.148-.035.282-.023.549-.06.738-.137l-.378-.926-.008.003a1.292 1.292 0 01-.117.026 3.571 3.571 0 01-.314.037c-.265.02-.619.032-1.069.032v1zm1.886-.172c.533-.217.641-.795.641-1.256h-1a.96.96 0 01-.044.336c-.016.036-.013.01.025-.006l.378.926zm.641-1.256c0-.164-.041-.435-.102-.767-.064-.35-.16-.813-.285-1.388-.252-1.15-.628-2.763-1.129-4.835l-.972.235c.5 2.07.875 3.674 1.124 4.814.124.57.217 1.021.278 1.354.064.35.086.53.086.587h1zm-1.516-6.99l-1.806-7.47-.972.234 1.806 7.47.972-.234zm-2.292-6.853h3.479v-1h-3.479v1zm2.988-.405l1.452 7.495.982-.19-1.453-7.495-.981.19zm2.437 7.475l1.148-7.495-.989-.151-1.147 7.495.988.151zm.654-7.07h3.393v-1h-3.393v1zM585.67 55v.5h.5V55h-.5zm-3.076 0h-.5v.5h.5V55zm0-.55h.5l-.943-.232.443.233zm-4.395-5.98l-.356-.351-.004.003.36.347zm2.783-1.77l-.225-.447h-.001l.226.446zm-.036-1.173l-.499.03v.011l.499-.04zm.049.904v.5h.5v-.5h-.5zm-3.357 0h-.5v.5h.5v-.5zm4.553 2.27h.5v-.637l-.619.151.119.486zm3.479 5.799h-3.076v1h3.076v-1zm-2.576.5v-.55h-1V55h1zm-.943-.782c-.05.095-.17.217-.469.317-.301.1-.735.16-1.322.16v1c.641 0 1.194-.064 1.638-.212.445-.148.828-.398 1.038-.8l-.885-.465zm-1.791.477c-.897 0-1.477-.177-1.826-.45-.324-.253-.518-.645-.518-1.271h-1c0 .855.28 1.573.903 2.06.6.468 1.441.661 2.441.661v-1zm-2.344-1.721v-2.845h-1v2.845h1zm0-2.845c0-.5.174-.93.543-1.313l-.72-.694c-.542.562-.823 1.238-.823 2.007h1zm.54-1.31c.401-.407 1.262-.966 2.653-1.674l-.453-.891c-1.392.708-2.387 1.329-2.913 1.865l.713.7zm2.652-1.674c.415-.209.753-.41.995-.606.121-.098.234-.207.321-.33a.849.849 0 00.167-.486h-1c0-.078.031-.112.016-.09a.711.711 0 01-.133.128c-.16.13-.426.294-.817.492l.451.892zm1.483-1.422v-2.1h-1v2.1h1zm0-2.1c0-.292-.061-.604-.271-.848-.221-.258-.529-.348-.827-.348v1c.052 0 .076.008.081.01.002 0-.005-.002-.012-.01-.01-.011.029.024.029.196h1zm-1.098-1.196a.955.955 0 00-.618.221c-.169.14-.282.325-.359.517-.15.373-.207.875-.207 1.459h1c0-.547.057-.893.135-1.086.037-.091.067-.118.068-.12l-.003.003-.009.004c-.008.003-.012.002-.007.002v-1zm-1.184 2.197c0 .22.013.533.038.934l.998-.061a16.004 16.004 0 01-.036-.873h-1zm.038.944c.033.396.048.68.048.863h1c0-.225-.018-.542-.051-.944l-.997.081zm.548.363h-3.357v1h3.357v-1zm-2.857.5v-2.832h-1v2.832h1zm0-2.832c0-.818.285-1.37.822-1.74.569-.394 1.487-.629 2.828-.629v-1c-1.426 0-2.583.244-3.397.806-.847.585-1.253 1.468-1.253 2.563h1zm3.65-2.369c1.244 0 2.085.242 2.606.644.497.383.776.967.776 1.847h1c0-1.114-.368-2.025-1.165-2.64-.773-.595-1.873-.851-3.217-.851v1zm3.382 2.49V55h1V43.72h-1zm-2.479 8.631v-3.65h-1v3.65h1zm-.619-4.136c-.44.108-.828.273-1.112.53a1.35 1.35 0 00-.465 1.03h1c0-.114.035-.2.133-.287.114-.102.324-.214.682-.301l-.238-.971zm-1.577 1.56v2.576h1v-2.576h-1zm0 2.576c0 .288.069.597.295.832.23.239.538.315.827.315v-1c-.125 0-.129-.031-.106-.008.018.02-.016.004-.016-.139h-1zm1.122 1.147c.285 0 .586-.083.805-.33.208-.235.269-.538.269-.817h-1c0 .153-.035.173-.018.154.01-.011.02-.016.019-.015a.23.23 0 01-.075.008v1zm14.6 1.502v.5h.754l-.294-.695-.46.195zm-4.09 0l-.461.192.128.308h.333V55zm-2.136-5.127l.462-.192-.962.192h.5zm0 5.127v.5h.5V55h-.5zm-3.467 0h-.5v.5h.5V55zm0-17.505v-.5h-.5v.5h.5zm3.467 0h.5v-.5h-.5v.5zm0 7.85h-.5l.965.183-.465-.184zm1.782-4.517v-.5h-.34l-.125.316.465.184zm3.601 0l.464.188.28-.688h-.744v.5zm-2.526 6.2l-.463-.188-.079.192.081.192.461-.195zm3.369 7.472h-4.09v1h4.09v-1zm-3.628.308l-2.136-5.127-.923.384 2.136 5.127.923-.384zm-3.098-4.935V55h1v-5.127h-1zm.5 4.627h-3.467v1h3.467v-1zm-2.967.5V37.495h-1V55h1zm-.5-17.005h3.467v-1h-3.467v1zm2.967-.5v7.85h1v-7.85h-1zm.965 8.033l1.782-4.517-.93-.367-1.782 4.517.93.367zm1.317-4.2h3.601v-1h-3.601v1zm3.138-.689l-2.526 6.201.926.377 2.527-6.2-.927-.378zm-2.524 6.584l3.369 7.972.921-.39-3.369-7.97-.921.389zm11.239-5.797l-.249.433.002.001.247-.434zm-6.445 10.779V43.72h-1v8.484h1zm0-8.484c0-.868.291-1.45.827-1.838.566-.41 1.477-.653 2.811-.653v-1c-1.425 0-2.584.255-3.397.842-.843.61-1.241 1.523-1.241 2.649h1zm3.638-2.491c.991 0 1.839.215 2.558.63l.499-.867c-.892-.514-1.917-.763-3.057-.763v1zm2.56.63c.648.37.968.922.968 1.739h1c0-1.153-.494-2.05-1.473-2.608l-.495.87zm.968 1.739v8.728h1v-8.728h-1zm0 8.728c0 .824-.28 1.376-.797 1.744-.548.39-1.433.624-2.731.624v1c1.387 0 2.517-.244 3.311-.81.826-.587 1.217-1.47 1.217-2.558h-1zm-3.528 2.368c-1.334 0-2.245-.243-2.811-.653-.536-.387-.827-.97-.827-1.837h-1c0 1.126.398 2.038 1.241 2.648.813.588 1.972.842 3.397.842v-1zm1.049-2.393v-8.679h-1v8.68h1zm0-8.679c0-.292-.061-.604-.27-.848-.222-.258-.53-.348-.828-.348v1c.052 0 .076.008.081.01.002 0-.005-.002-.012-.01-.009-.011.029.024.029.196h1zm-1.098-1.196c-.299 0-.609.088-.834.345-.213.243-.276.557-.276.851h1c0-.17.038-.204.028-.192-.006.007-.012.009-.007.007a.265.265 0 01.089-.01v-1zm-1.11 1.196v8.68h1v-8.68h-1zm0 8.68c0 .298.061.615.271.863.223.263.535.357.839.357v-1a.243.243 0 01-.084-.01c-.003-.002.003 0 .008.006.006.007-.034-.035-.034-.217h-1zm1.11 1.22c.303 0 .613-.096.833-.361.205-.247.265-.563.265-.86h-1c0 .184-.04.228-.034.221.005-.006.012-.01.011-.01a.208.208 0 01-.075.01v1zm13.037-6.824v.5h.5v-.5h-.5zm-3.479 0h-.5v.5h.5v-.5zM609.132 55v.5h.5V55h-.5zm-3.479 0h-.5v.5h.5V55zm0-14.172v-.5h-.5v.5h.5zm3.479 0h.5v-.5h-.5v.5zm0 .476h-.5v1.06l.818-.674-.318-.386zm3.93-.013l-.301.4.005.003.296-.403zm.745 4.908h-3.479v1h3.479v-1zm-2.979.5v-3.076h-1v3.076h1zm0-3.076c0-.283-.065-.59-.282-.825-.225-.242-.529-.322-.816-.322v1a.29.29 0 01.092.01c.006.003-.002 0-.011-.009-.018-.02.017-.002.017.146h1zm-1.098-1.147c-.282 0-.584.074-.809.31-.222.23-.289.533-.289.813h1c0-.136.033-.144.01-.12-.01.01-.018.011-.01.008a.32.32 0 01.098-.01v-1zm-1.098 1.123V55h1V43.599h-1zm.5 10.901h-3.479v1h3.479v-1zm-2.979.5V40.828h-1V55h1zm-.5-13.672h3.479v-1h-3.479v1zm2.979-.5v.476h1v-.476h-1zm.818.861c.334-.275.912-.459 1.83-.459v-1c-1.018 0-1.872.198-2.466.688l.636.772zm1.83-.459c.596 0 1.081.16 1.481.46l.602-.798c-.592-.447-1.295-.662-2.083-.662v1zm1.486.464c.372.274.541.611.541 1.05h1c0-.765-.327-1.397-.948-1.855l-.593.805zm.541 1.05V46.7h1v-3.955h-1zM617.982 55v.5h.5V55h-.5zm-3.479 0h-.5v.5h.5V55zm0-17.505v-.5h-.5v.5h.5zm3.479 0h.5v-.5h-.5v.5zm0 17.005h-3.479v1h3.479v-1zm-2.979.5V37.495h-1V55h1zm-.5-17.005h3.479v-1h-3.479v1zm2.979-.5V55h1V37.495h-1zM626.978 55v.5h.5V55h-.5zm-3.076 0h-.5v.5h.5V55zm0-.55h.5l-.942-.232.442.233zm-4.394-5.98l-.357-.351-.003.003.36.347zm2.783-1.77l-.225-.447h-.002l.227.446zm-.037-1.173l-.499.03.001.011.498-.04zm.049.904v.5h.5v-.5h-.5zm-3.357 0h-.5v.5h.5v-.5zm4.553 2.27h.5v-.637l-.618.151.118.486zm3.479 5.799h-3.076v1h3.076v-1zm-2.576.5v-.55h-1V55h1zm-.942-.782c-.05.095-.17.217-.47.317-.301.1-.734.16-1.322.16v1c.642 0 1.195-.064 1.639-.212.445-.148.827-.398 1.038-.8l-.885-.465zm-1.792.477c-.896 0-1.477-.177-1.825-.45-.325-.253-.519-.645-.519-1.271h-1c0 .855.28 1.573.903 2.06.6.468 1.442.661 2.441.661v-1zm-2.344-1.721v-2.845h-1v2.845h1zm0-2.845c0-.5.174-.93.543-1.313l-.719-.694c-.542.562-.824 1.238-.824 2.007h1zm.54-1.31c.401-.407 1.263-.966 2.654-1.674l-.454-.891c-1.392.708-2.386 1.329-2.913 1.865l.713.7zm2.652-1.674c.415-.209.754-.41.996-.606.121-.098.234-.207.32-.33a.842.842 0 00.167-.486h-1c0-.078.032-.112.017-.09a.748.748 0 01-.133.128c-.161.13-.427.294-.817.492l.45.892zm1.483-1.422v-2.1h-1v2.1h1zm0-2.1c0-.292-.061-.604-.27-.848-.222-.258-.53-.348-.828-.348v1c.053 0 .076.008.081.01.002 0-.005-.002-.011-.01-.01-.011.028.024.028.196h1zm-1.098-1.196a.95.95 0 00-.617.221c-.17.14-.282.325-.359.517-.151.373-.207.875-.207 1.459h1c0-.547.057-.893.134-1.086a.323.323 0 01.069-.12l-.003.003-.01.004c-.008.003-.011.002-.007.002v-1zm-1.183 2.197c0 .22.013.533.037.934l.998-.061a15.757 15.757 0 01-.035-.873h-1zm.038.944c.032.396.047.68.047.863h1c0-.225-.017-.542-.05-.944l-.997.081zm.547.363h-3.357v1h3.357v-1zm-2.857.5v-2.832h-1v2.832h1zm0-2.832c0-.818.286-1.37.822-1.74.57-.394 1.487-.629 2.829-.629v-1c-1.426 0-2.584.244-3.397.806-.847.585-1.254 1.468-1.254 2.563h1zm3.651-2.369c1.243 0 2.084.242 2.606.644.497.383.775.967.775 1.847h1c0-1.114-.368-2.025-1.165-2.64-.772-.595-1.872-.851-3.216-.851v1zm3.381 2.49V55h1V43.72h-1zm-2.479 8.631v-3.65h-1v3.65h1zm-.618-4.136c-.44.108-.828.273-1.113.53-.301.27-.465.623-.465 1.03h1c0-.114.036-.2.133-.287.114-.102.325-.214.682-.301l-.237-.971zm-1.578 1.56v2.576h1v-2.576h-1zm0 2.576c0 .288.069.597.296.832.229.239.537.315.827.315v-1c-.126 0-.129-.031-.107-.008.019.02-.016.004-.016-.139h-1zm1.123 1.147c.285 0 .585-.083.804-.33.209-.235.269-.538.269-.817h-1c0 .153-.035.173-.017.154a.064.064 0 01.019-.015c-.004 0-.025.008-.075.008v1zM634.693 55v.5h.5V55h-.5zm-5.017-.708l-.418.274.418-.274zm-.464-11.365h.5v-.5h-.5v.5zm-1.55 0h-.5v.5h.5v-.5zm0-2.1v-.5h-.5v.5h.5zm1.55 0v.5h.5v-.5h-.5zm0-2.856v-.5h-.5v.5h.5zm3.479 0h.5v-.5h-.5v.5zm0 2.857h-.5v.5h.5v-.5zm1.88 0h.5v-.5h-.5v.5zm0 2.1v.5h.5v-.5h-.5zm-1.88 0v-.5h-.5v.5h.5zm.367 9.46l-.258.428.009.005.008.005.241-.438zm1.635.207h.5v-.5h-.5v.5zm0 1.905h-2.197v1h2.197v-1zm-2.197 0c-.766 0-1.348-.058-1.761-.162-.429-.108-.59-.242-.641-.32l-.836.548c.258.394.722.614 1.233.742.527.132 1.201.192 2.005.192v-1zm-2.402-.482c-.1-.153-.201-.421-.273-.845-.071-.416-.109-.948-.109-1.603h-1c0 .688.04 1.28.123 1.771.083.484.214.906.423 1.225l.836-.548zm-.382-2.448v-8.643h-1v8.643h1zm-.5-9.143h-1.55v1h1.55v-1zm-1.05.5v-2.1h-1v2.1h1zm-.5-1.6h1.55v-1h-1.55v1zm2.05-.5v-2.856h-1v2.857h1zm-.5-2.356h3.479v-1h-3.479v1zm2.979-.5v2.857h1V37.97h-1zm.5 3.357h1.88v-1h-1.88v1zm1.38-.5v2.1h1v-2.1h-1zm.5 1.6h-1.88v1h1.88v-1zm-2.38.5v8.617h1v-8.618h-1zm0 8.617c0 .503.152.997.609 1.271l.515-.857c-.031-.019-.124-.086-.124-.414h-1zm.626 1.281c.211.116.487.177.776.213.301.039.67.056 1.1.056v-1c-.407 0-.73-.017-.974-.048-.257-.032-.38-.075-.421-.098l-.481.877zm1.376-.23V55h1v-2.405h-1zm4.577-12.55v.5h.5v-.5h-.5zm-3.479 0h-.5v.5h.5v-.5zm0-2.55v-.5h-.5v.5h.5zm3.479 0h.5v-.5h-.5v.5zm0 17.504v.5h.5V55h-.5zm-3.479 0h-.5v.5h.5V55zm0-14.172v-.5h-.5v.5h.5zm3.479 0h.5v-.5h-.5v.5zm0-1.282h-3.479v1h3.479v-1zm-2.979.5v-2.55h-1v2.55h1zm-.5-2.05h3.479v-1h-3.479v1zm2.979-.5v2.55h1v-2.55h-1zm.5 17.004h-3.479v1h3.479v-1zm-2.979.5V40.828h-1V55h1zm-.5-13.672h3.479v-1h-3.479v1zm2.979-.5V55h1V40.828h-1zm14.697 0l.492.088.106-.588h-.598v.5zM650.416 55v.5h.418l.074-.411-.492-.089zm-4.199 0l-.492.089.074.411h.418V55zm-2.552-14.172v-.5h-.598l.106.588.492-.088zm3.504 0l.495-.071-.061-.43h-.434v.5zm1.196 8.374l-.495.07.99-.001-.495-.07zm1.172-8.374v-.5h-.435l-.06.43.495.07zm2.938-.089l-2.551 14.172.984.178 2.551-14.173-.984-.177zM650.416 54.5h-4.199v1h4.199v-1zm-3.707.411l-2.551-14.172-.985.177 2.552 14.173.984-.178zm-3.044-13.583h3.504v-1h-3.504v1zm3.009-.43l1.196 8.374.99-.141-1.196-8.374-.99.141zm2.186 8.373l1.172-8.374-.99-.139-1.172 8.374.99.139zm.677-7.943h3.43v-1h-3.43v1zm7.324-1.282v.5h.5v-.5h-.5zm-3.479 0h-.5v.5h.5v-.5zm0-2.55v-.5h-.5v.5h.5zm3.479 0h.5v-.5h-.5v.5zm0 17.504v.5h.5V55h-.5zm-3.479 0h-.5v.5h.5V55zm0-14.172v-.5h-.5v.5h.5zm3.479 0h.5v-.5h-.5v.5zm0-1.282h-3.479v1h3.479v-1zm-2.979.5v-2.55h-1v2.55h1zm-.5-2.05h3.479v-1h-3.479v1zm2.979-.5v2.55h1v-2.55h-1zm.5 17.004h-3.479v1h3.479v-1zm-2.979.5V40.828h-1V55h1zm-.5-13.672h3.479v-1h-3.479v1zm2.979-.5V55h1V40.828h-1zM665.882 55v.5h.5V55h-.5zm-8.349 0h-.5v.5h.5V55zm0-1.953l-.465-.184-.035.088v.096h.5zm3.943-9.949l.464.184.272-.684h-.736v.5zm-3.724 0h-.5v.5h.5v-.5zm0-2.27v-.5h-.5v.5h.5zm7.752 0h.5v-.5h-.5v.5zm0 1.916l.464.186.036-.09v-.096h-.5zm-4.004 10.01l-.464-.186-.275.686h.739v-.5zm4.382 0h.5v-.5h-.5v.5zm0 1.746h-8.349v1h8.349v-1zm-7.849.5v-1.953h-1V55h1zm-.036-1.769l3.943-9.949-.929-.368-3.943 9.949.929.368zm3.479-10.633h-3.724v1h3.724v-1zm-3.224.5v-2.27h-1v2.27h1zm-.5-1.77h7.752v-1h-7.752v1zm7.252-.5v1.916h1v-1.916h-1zm.036 1.73l-4.004 10.01.928.372 4.004-10.01-.928-.372zm-3.54 10.696h4.382v-1H661.5v1zm3.882-.5V55h1v-2.246h-1zm1.111-3.455v-.5h-.5v.5h.5zm3.466 0h.5v-.5h-.5v.5zm.452.025l.295-.404-.03-.022-.033-.017-.232.443zm-3.284-1.99l-.357.35.004.004.353-.354zm7.434-.94v.5h.5v-.5h-.5zm-3.393 0l-.5-.021-.022.521h.522v-.5zm.073-1.697l.5.022v-.022h-.5zm-1.013 1.075l-.451.216.004.007.447-.223zm3.198 2.014l.292-.407-.034-.024-.037-.018-.221.449zm-6.933 2.013h3.466v-1h-3.466v1zm2.966-.5v3.003h1V49.3h-1zm0 3.003c0 .295.058.61.259.856.217.266.525.364.827.364v-1a.187.187 0 01-.066-.007c-.001 0 .002 0 .006.004l.009.008c.005.006-.035-.04-.035-.225h-1zm1.086 1.22a.9.9 0 00.565-.192c.159-.125.264-.29.335-.457.138-.324.186-.75.186-1.23h-1c0 .44-.049.703-.106.84-.027.062-.044.07-.032.06a.1.1 0 01.052-.02v1zm1.086-1.879c0-.627-.062-1.174-.202-1.625-.141-.453-.37-.84-.723-1.098l-.589.808c.126.092.257.266.357.586.1.322.157.76.157 1.33h1zm-.988-2.762a41.818 41.818 0 01-2.155-1.196c-.547-.332-.867-.565-1.007-.705l-.707.708c.234.234.649.52 1.196.852.56.339 1.297.748 2.209 1.227l.464-.886zm-3.158-1.897c-.251-.256-.419-.678-.419-1.359h-1c0 .833.206 1.55.704 2.059l.715-.7zm-.419-1.359v-1.904h-1v1.904h1zm0-1.904c0-.872.287-1.455.81-1.841.551-.407 1.439-.65 2.743-.65v-1c-1.398 0-2.537.255-3.337.845-.828.611-1.216 1.524-1.216 2.646h1zm3.553-2.491c1.268 0 2.129.233 2.663.622.503.366.779.918.779 1.747h1c0-1.084-.381-1.966-1.191-2.556-.781-.568-1.891-.813-3.251-.813v1zm3.442 2.369v2.795h1v-2.795h-1zm.5 2.295h-3.393v1h3.393v-1zm-2.894.522l.074-1.697-.999-.043-.074 1.697.999.043zm.074-1.719c0-.606-.053-1.12-.192-1.499a1.31 1.31 0 00-.335-.53.905.905 0 00-.62-.24v1a.098.098 0 01-.054-.02c0-.001.008.006.021.028a.558.558 0 01.049.105c.077.211.131.583.131 1.156h1zm-1.147-2.27c-.392 0-.719.186-.917.526-.174.299-.23.683-.23 1.085h1c0-.338.052-.51.094-.581.016-.029.025-.03.019-.026-.006.003 0-.004.034-.004v-1zm-1.147 1.611c0 .791.095 1.458.33 1.95l.902-.433c-.139-.29-.232-.778-.232-1.517h-1zm.334 1.957c.095.191.263.36.435.505.182.153.415.317.692.491.554.35 1.323.764 2.298 1.243l.441-.897c-.962-.473-1.695-.87-2.207-1.192a5.314 5.314 0 01-.58-.41 1.428 1.428 0 01-.146-.138c-.033-.037-.041-.053-.039-.05l-.894.448zm3.354 2.197c.681.488 1 1.105 1 1.889h1c0-1.121-.487-2.035-1.417-2.702l-.583.813zm1 1.889v2.124h1V50.08h-1zm0 2.124c0 .869-.29 1.451-.823 1.838-.562.409-1.466.652-2.791.652v1c1.417 0 2.57-.255 3.379-.843.839-.61 1.235-1.523 1.235-2.647h-1zm-3.614 2.49c-1.299 0-2.183-.234-2.731-.624-.517-.368-.797-.92-.797-1.744h-1c0 1.088.391 1.97 1.217 2.558.794.566 1.924.81 3.311.81v-1zm-3.528-2.368v-3.028h-1v3.028h1zm8.984 5.676h-.5v.5h.5v-.5zm0-2.05v-.5h-.5v.5h.5zm4.053-1.283h.5v-1.014l-.804.618.304.396zm-3.93-.012l-.297.403.007.005.29-.408zm3.955-13.306l-.231.444.351.183.259-.3-.379-.327zm.451-.524v-.5h-.229l-.15.173.379.327zm2.991 0h.5v-.5h-.5v.5zm-.549 16.26l-.428-.26-.004.006.432.253zm-6.471.915v-2.05h-1v2.05h1zm-.5-1.55h2.82v-1h-2.82v1zm2.82 0c.493 0 .954-.13 1.285-.475.328-.34.448-.808.448-1.308h-1c0 .355-.085.529-.168.615-.08.083-.236.167-.565.167v1zm.929-2.18c-.326.251-.908.422-1.844.422v1c1.017 0 1.867-.178 2.453-.628l-.609-.793zm-1.844.422c-.592 0-1.082-.153-1.493-.444l-.579.815c.598.424 1.296.63 2.072.63v-1zm-1.486-.44c-.376-.277-.541-.607-.541-1.025h-1c0 .754.331 1.376.948 1.83l.593-.804zm-.541-1.025V43.05h-1v10.18h1zm0-10.18c0-.671.196-1.09.514-1.357.334-.28.891-.463 1.757-.463v-1c-.981 0-1.81.203-2.399.696-.606.508-.872 1.247-.872 2.123h1zm2.271-1.82c.366 0 .921.162 1.698.566l.461-.887c-.818-.426-1.548-.679-2.159-.679v1zm2.308.449l.451-.525-.758-.653-.451.525.758.653zm.072-.351h2.991v-1h-2.991v1zm2.491-.5v13.977h1V40.828h-1zm0 13.977c0 .855-.17 1.52-.476 2.023l.854.52c.426-.702.622-1.56.622-2.543h-1zm-.481 2.03c-.081.138-.298.317-.81.456-.501.137-1.204.212-2.127.212v1c.964 0 1.767-.077 2.389-.246.611-.166 1.134-.445 1.411-.917l-.863-.506zm-2.937.668h-3.602v1h3.602v-1zm.951-5.03v-8.899h-1v8.9h1zm0-8.899c0-.283-.064-.589-.282-.824-.225-.243-.529-.323-.816-.323v1c.056 0 .084.008.092.011.006.002-.001 0-.01-.01-.019-.02.016-.002.016.146h1zm-1.098-1.147c-.288 0-.594.078-.821.319-.222.235-.289.542-.289.828h1c0-.145.035-.162.016-.142-.009.01-.015.01-.006.007a.313.313 0 01.1-.012v-1zm-1.11 1.147v8.875h1v-8.875h-1zm0 8.875c0 .285.067.593.289.828.227.24.533.319.821.319v-1a.313.313 0 01-.1-.012c-.009-.003-.003-.002.006.007.019.02-.016.003-.016-.142h-1zm1.11 1.147c.282 0 .584-.075.809-.31.222-.23.289-.533.289-.813h-1c0 .136-.033.144-.01.12.01-.01.018-.011.01-.009a.32.32 0 01-.098.012v1zM692.481 55v.5h.5V55h-.5zm-3.076 0h-.5v.5h.5V55zm0-.55h.5l-.943-.232.443.233zm-4.394-5.98l-.357-.351-.003.003.36.347zm2.783-1.77l-.226-.447h-.001l.227.446zm-.037-1.173l-.499.03.001.011.498-.04zm.049.904v.5h.5v-.5h-.5zm-3.357 0h-.5v.5h.5v-.5zm4.553 2.27h.5v-.637l-.619.151.119.486zm3.479 5.799h-3.076v1h3.076v-1zm-2.576.5v-.55h-1V55h1zm-.943-.782c-.049.095-.169.217-.469.317-.301.1-.734.16-1.322.16v1c.642 0 1.195-.064 1.639-.212.445-.148.827-.398 1.038-.8l-.886-.465zm-1.791.477c-.896 0-1.477-.177-1.825-.45-.325-.253-.519-.645-.519-1.271h-1c0 .855.28 1.573.903 2.06.6.468 1.442.661 2.441.661v-1zm-2.344-1.721v-2.845h-1v2.845h1zm0-2.845c0-.5.174-.93.543-1.313l-.719-.694c-.542.562-.824 1.238-.824 2.007h1zm.54-1.31c.401-.407 1.263-.966 2.654-1.674l-.454-.891c-1.392.708-2.386 1.329-2.913 1.865l.713.7zm2.652-1.674c.415-.209.754-.41.996-.606.12-.098.234-.207.32-.33a.842.842 0 00.167-.486h-1c0-.078.032-.112.017-.09a.79.79 0 01-.133.128c-.161.13-.427.294-.818.492l.451.892zm1.483-1.422v-2.1h-1v2.1h1zm0-2.1c0-.292-.061-.604-.27-.848-.222-.258-.53-.348-.828-.348v1c.053 0 .076.008.081.01.002 0-.005-.002-.011-.01-.01-.011.028.024.028.196h1zm-1.098-1.196a.955.955 0 00-.618.221c-.169.14-.281.325-.358.517-.151.373-.207.875-.207 1.459h1c0-.547.057-.893.134-1.086a.323.323 0 01.069-.12l-.004.003a.03.03 0 01-.009.004c-.008.003-.011.002-.007.002v-1zm-1.183 2.197c0 .22.013.533.037.934l.998-.061a15.757 15.757 0 01-.035-.873h-1zm.038.944c.032.396.047.68.047.863h1c0-.225-.018-.542-.05-.944l-.997.081zm.547.363h-3.357v1h3.357v-1zm-2.857.5v-2.832h-1v2.832h1zm0-2.832c0-.818.286-1.37.822-1.74.57-.394 1.487-.629 2.829-.629v-1c-1.426 0-2.584.244-3.398.806-.847.585-1.253 1.468-1.253 2.563h1zm3.651-2.369c1.243 0 2.084.242 2.606.644.497.383.775.967.775 1.847h1c0-1.114-.368-2.025-1.165-2.64-.772-.595-1.872-.851-3.216-.851v1zm3.381 2.49V55h1V43.72h-1zm-2.479 8.631v-3.65h-1v3.65h1zm-.619-4.136c-.439.108-.827.273-1.112.53-.301.27-.465.623-.465 1.03h1c0-.114.036-.2.133-.287.114-.102.325-.214.682-.301l-.238-.971zm-1.577 1.56v2.576h1v-2.576h-1zm0 2.576c0 .288.069.597.295.832.23.239.538.315.828.315v-1c-.126 0-.129-.031-.107-.008.019.02-.016.004-.016-.139h-1zm1.123 1.147c.285 0 .585-.083.804-.33.209-.235.269-.538.269-.817h-1c0 .153-.035.173-.017.154a.053.053 0 01.019-.015c-.004 0-.025.008-.075.008v1z"/>
  </g>
  <g filter="url(#filter6_d_521_281)">
    <path fill="#000" fill-rule="evenodd" d="M195.543 276.354c-2.091 0-3.792 1.603-3.792 3.575 0 1.97 1.701 3.571 3.792 3.571 2.091 0 3.792-1.601 3.792-3.571 0-1.972-1.701-3.575-3.792-3.575zm0 10.208c-3.883 0-7.042-2.974-7.042-6.633 0-3.661 3.159-6.637 7.042-6.637s7.042 2.976 7.042 6.637c0 3.659-3.159 6.633-7.042 6.633z" clip-rule="evenodd"/>
    <mask id="a" width="37" height="40" x="177" y="263" maskUnits="userSpaceOnUse" style="mask-type:alpha">
      <path fill="#fff" fill-rule="evenodd" d="M177.667 263.083h35.749v39.813h-35.749v-39.813z" clip-rule="evenodd"/>
    </mask>
    <g mask="url(#a)">
      <path fill="#000" fill-rule="evenodd" d="M195.541 266.146c-8.065 0-14.625 6.241-14.625 13.91 0 9.757 12.185 19.263 14.625 19.769 2.439-.508 14.625-10.014 14.625-19.769 0-7.669-6.561-13.91-14.625-13.91zm0 36.75c-3.887 0-17.875-11.336-17.875-22.84 0-9.359 8.019-16.973 17.875-16.973s17.875 7.614 17.875 16.973c0 11.504-13.988 22.84-17.875 22.84z" clip-rule="evenodd"/>
    </g>
  </g>
  <g filter="url(#filter7_d_521_281)">
    <path fill="#000" fill-rule="evenodd" d="M360.543 76.354c-2.091 0-3.792 1.603-3.792 3.575 0 1.97 1.701 3.57 3.792 3.57 2.091 0 3.792-1.6 3.792-3.57 0-1.972-1.701-3.575-3.792-3.575m0 10.208c-3.883 0-7.042-2.974-7.042-6.633 0-3.66 3.159-6.638 7.042-6.638s7.042 2.977 7.042 6.638c0 3.659-3.159 6.633-7.042 6.633" clip-rule="evenodd"/>
    <mask id="b" width="37" height="40" x="342" y="63" maskUnits="userSpaceOnUse" style="mask-type:alpha">
      <path fill="#fff" fill-rule="evenodd" d="M342.667 63.083h35.749v39.813h-35.749V63.083z" clip-rule="evenodd"/>
    </mask>
    <g mask="url(#b)">
      <path fill="#000" fill-rule="evenodd" d="M360.541 66.146c-8.065 0-14.625 6.241-14.625 13.91 0 9.757 12.185 19.263 14.625 19.77 2.439-.51 14.625-10.015 14.625-19.77 0-7.669-6.561-13.91-14.625-13.91zm0 36.75c-3.887 0-17.875-11.336-17.875-22.84 0-9.36 8.019-16.973 17.875-16.973s17.875 7.614 17.875 16.973c0 11.504-13.988 22.84-17.875 22.84z" clip-rule="evenodd"/>
    </g>
  </g>
  <g filter="url(#filter8_d_521_281)">
    <path fill="#000" fill-rule="evenodd" d="M626.543 92.354c-2.091 0-3.792 1.603-3.792 3.575 0 1.97 1.701 3.57 3.792 3.57 2.091 0 3.792-1.6 3.792-3.57 0-1.972-1.701-3.575-3.792-3.575zm0 10.208c-3.883 0-7.042-2.974-7.042-6.633 0-3.66 3.159-6.638 7.042-6.638s7.042 2.977 7.042 6.638c0 3.659-3.159 6.633-7.042 6.633z" clip-rule="evenodd"/>
    <mask id="c" width="37" height="40" x="608" y="79" maskUnits="userSpaceOnUse" style="mask-type:alpha">
      <path fill="#fff" fill-rule="evenodd" d="M608.667 79.083h35.749v39.813h-35.749V79.083z" clip-rule="evenodd"/>
    </mask>
    <g mask="url(#c)">
      <path fill="#000" fill-rule="evenodd" d="M626.541 82.146c-8.065 0-14.625 6.241-14.625 13.91 0 9.757 12.185 19.263 14.625 19.769 2.439-.508 14.625-10.014 14.625-19.77 0-7.668-6.561-13.91-14.625-13.91zm0 36.75c-3.887 0-17.875-11.336-17.875-22.84 0-9.36 8.019-16.973 17.875-16.973s17.875 7.614 17.875 16.973c0 11.504-13.988 22.84-17.875 22.84z" clip-rule="evenodd"/>
    </g>
  </g>
  <path fill="#2D6B8A" stroke="#2D6B8A" d="M412.743 142.036l-68.404 31.537-2.143-4.455 3.094-11.088 3.188-3.591 43.915-21.127 14.25 4.802 6.1 3.922z"/>
  <ellipse cx="359.417" cy="188.947" fill="#8092A0" rx="10.087" ry="9.269" transform="rotate(-25.692 359.417 188.947)"/>
  <ellipse cx="433.559" cy="153.278" fill="#8092A0" rx="10.087" ry="9.269" transform="rotate(-25.692 433.559 153.278)"/>
  <path fill="#000" d="M369.252 184.773c.203.423.367.854.509 1.289 1.723 5.19-.721 11.024-5.897 13.513-5.317 2.559-11.592.662-14.477-4.205-.159-.269-.314-.54-.451-.826-2.636-5.478-.226-12.104 5.386-14.804 5.61-2.695 12.295-.444 14.93 5.033zm-16.867 7.077l2.919-1.404a3.669 3.669 0 01-.051-1.049l-3.047-1.027a6.776 6.776 0 00.179 3.48zm3.435 4.026l1.104-3.037a3.72 3.72 0 01-.791-.677l-2.919 1.404a6.804 6.804 0 002.606 2.31zm3.98-2.494c-.35.071-.703.097-1.049.072l-1.095 3.012a7.055 7.055 0 003.52-.226l-1.376-2.858zm-4.547-9.452a7.099 7.099 0 00-2.39 2.628l3.04 1.024c.202-.294.441-.562.722-.797l-1.373-2.854.001-.001zm7.13-.457l-1.098 3.02c.291.192.557.423.786.696l2.921-1.405a6.77 6.77 0 00-2.609-2.311zm-3.997 2.466c.36-.073.718-.092 1.073-.066l1.097-3.014a7.117 7.117 0 00-3.544.229l1.374 2.851zm6.923 6.846l-3.036-1.023a3.856 3.856 0 01-.713.772l1.376 2.861a7.052 7.052 0 002.373-2.61zm.521-5.287l-2.941 1.415a3.8 3.8 0 01.047 1.036l3.05 1.029a6.8 6.8 0 00-.156-3.48zM444.451 148.596c.203.423.368.854.509 1.289 1.723 5.19-.721 11.024-5.895 13.513-5.318 2.558-11.593.662-14.478-4.205-.159-.269-.315-.54-.452-.826-2.636-5.478-.226-12.104 5.387-14.804 5.611-2.695 12.294-.444 14.929 5.033zm-16.868 7.078l2.92-1.405a3.744 3.744 0 01-.051-1.049l-3.046-1.027a6.768 6.768 0 00.177 3.481zm3.435 4.026l1.104-3.038a3.663 3.663 0 01-.791-.677l-2.919 1.405a6.82 6.82 0 002.606 2.31zm3.982-2.495a3.887 3.887 0 01-1.05.072l-1.095 3.012a7.055 7.055 0 003.52-.226L435 157.205zm-4.547-9.452a7.083 7.083 0 00-2.39 2.628l3.04 1.024c.201-.294.44-.562.722-.797l-1.374-2.854.002-.001zm7.129-.457l-1.099 3.021c.292.192.557.423.787.695l2.92-1.404a6.755 6.755 0 00-2.608-2.312zm-3.997 2.466c.36-.073.719-.092 1.074-.066l1.097-3.016a7.11 7.11 0 00-3.545.23l1.374 2.852zm6.923 6.846l-3.035-1.024a3.84 3.84 0 01-.714.773l1.376 2.861a7.043 7.043 0 002.373-2.61zm.52-5.287l-2.941 1.416c.064.344.079.694.047 1.036l3.05 1.028a6.79 6.79 0 00-.156-3.48z"/>
  <path fill="#000" d="M453.782 137.676l1.78 6.657c.403 1.507-.348 3.107-1.787 3.799l-5.834 2.807a13.003 13.003 0 00-.464-1.896 13.138 13.138 0 00-.633-1.596c-3.25-6.757-11.526-9.544-18.444-6.216-6.921 3.329-9.907 11.535-6.657 18.292.169.35.359.685.556 1.018.433.731.931 1.404 1.479 2.021l-51.039 24.554a13.085 13.085 0 00-1.097-3.491c-3.249-6.755-11.525-9.545-18.444-6.216-6.919 3.329-9.905 11.536-6.655 18.292.168.349.359.685.555 1.019.434.731.932 1.404 1.481 2.022l-1.481.712s-6.333-6.705-7.176-10.73c-.657-3.139.565-5.132.565-5.132s-2.145-4.033-1.921-9.38c.047-1.134 1.398-7.909 4.648-15.579 1.485-3.507 3.17-5.189 6.634-6.866 9.808-4.75 32.364-15.659 37.738-18.14 3.576-1.65 5.875-2.093 9.821-1.782.391.03.714.297.787.675a.862.862 0 01-.48.932l-.201.096 14.543 4.729s3.944-1.874 5.281-2.453c6.647-2.874 18.825-7.575 28.48-5.704a4.849 4.849 0 013.152 2.104c.929 1.422 1.767 3.087 1.767 3.087 1.445.036 2.679.993 3.046 2.365zm-94.009 14.027l-10.293 4.952a5.65 5.65 0 00-2.586 2.517c-1.527 2.995-2.441 5.927-2.988 8.388a1.305 1.305 0 00.476 1.322c.4.313.95.372 1.421.154l18.234-8.465-4.264-8.868zm5.483-2.638l-.698.336 4.297 8.933.703-.326-4.302-8.943zm41.564-8.359l-14.434-4.694-22.344 10.75 4.333 9.007 23.849-11.073c-.068-.109-.139-.212-.196-.33-.744-1.548-.214-3.348 1.184-4.021 1.401-.674 3.137.036 3.882 1.584.068.142.114.287.162.431l3.564-1.654z"/>
  <path fill="#FFFF38" d="M384.746 161.312l.697 2.444-2.257 1.086.735 2.562 2.234-1.074.678 2.443-2.241 1.079.69 2.428-2.249 1.082-.691-2.428-2.368 1.139.69 2.428-2.257 1.086-.69-2.428-2.241 1.078-.671-2.447 2.218-1.067-.712-2.574-2.225 1.071-.698-2.444 2.241-1.078-.69-2.429 2.257-1.085.683 2.431 2.368-1.139-.682-2.432 2.249-1.082.69 2.428 2.242-1.078zm-3.817 4.616l-2.368 1.139.735 2.563 2.352-1.132-.719-2.57zm14.19 1.619l-1.196.576-.626-.47c-.315.75-.779 1.273-1.392 1.567-.596.287-1.193.386-1.789.295-.593-.098-1.053-.485-1.378-1.161l-3.566-7.413c-.709-1.473-.123-2.662 1.756-3.566 1.785-.859 3-.617 3.645.724l1.014 2.106-2.258 1.086-1.105-2.296c-.088-.185-.257-.218-.505-.099-.248.12-.328.272-.239.457l3.791 7.88c.089.185.258.218.506.098.248-.119.328-.271.239-.456l-1.021-2.122-.515.247-.839-1.742 2.773-1.334 2.705 5.623zm.95-5.606l2.012 4.181-2.432 1.17-5.463-11.357 2.621-1.262c1.04-.5 1.875-.739 2.503-.716.634.02 1.147.437 1.538 1.25l1.516 3.152c.359.745.407 1.372.145 1.881-.265.505-1.078 1.071-2.44 1.701zm-.239-2.626l-1.311-2.725c-.193-.401-.566-.468-1.121-.201l1.89 3.928c.554-.267.735-.601.542-1.002zm5.008 3.091l-3.517-7.31c-.708-1.473-.107-2.669 1.804-3.589 1.885-.907 3.18-.629 3.883.834l3.517 7.31c.318.66.299 1.297-.056 1.91-.353.605-.952 1.111-1.796 1.517-1.901.915-3.179.691-3.835-.672zm3.313-1.447l-3.723-7.738c-.109-.227-.299-.276-.568-.146-.28.135-.365.315-.256.542l3.723 7.738c.109.227.304.274.584.139.269-.129.349-.308.24-.535z"/>
  <path fill="#FFFF38" stroke="#FFFF38" d="M441.121 133.869l3.422-1.646 1.14-.549.999.617.999.616.643 1.337.643 1.336-.57.274-5.133 2.47-.643-1.337-1.5-3.118z"/>
  <path fill="#ED542B" stroke="#ED542B" d="M350.203 149.266l.893 1.856 5.704-2.744-.893-1.856-2.567-1.965-3.071 1.477-.066 3.232z"/>
  <defs>
    <filter id="filter0_f_521_281" width="91" height="91" x="150" y="235" color-interpolation-filters="sRGB" filterUnits="userSpaceOnUse">
      <feFlood flood-opacity="0" result="BackgroundImageFix"/>
      <feBlend in="SourceGraphic" in2="BackgroundImageFix" result="shape"/>
      <feGaussianBlur result="effect1_foregroundBlur_521_281" stdDeviation="12.5"/>
    </filter>
    <filter id="filter1_f_521_281" width="91" height="91" x="315" y="39" color-interpolation-filters="sRGB" filterUnits="userSpaceOnUse">
      <feFlood flood-opacity="0" result="BackgroundImageFix"/>
      <feBlend in="SourceGraphic" in2="BackgroundImageFix" result="shape"/>
      <feGaussianBlur result="effect1_foregroundBlur_521_281" stdDeviation="12.5"/>
    </filter>
    <filter id="filter2_f_521_281" width="91" height="91" x="580" y="52" color-interpolation-filters="sRGB" filterUnits="userSpaceOnUse">
      <feFlood flood-opacity="0" result="BackgroundImageFix"/>
      <feBlend in="SourceGraphic" in2="BackgroundImageFix" result="shape"/>
      <feGaussianBlur result="effect1_foregroundBlur_521_281" stdDeviation="12.5"/>
    </filter>
    <filter id="filter3_d_521_281" width="83.232" height="25.7" x="153.518" y="219.495" color-interpolation-filters="sRGB" filterUnits="userSpaceOnUse">
      <feFlood flood-opacity="0" result="BackgroundImageFix"/>
      <feColorMatrix in="SourceAlpha" result="hardAlpha" values="0 0 0 0 0 0 0 0 0 0 0 0 0 0 0 0 0 0 127 0"/>
      <feOffset dy="4"/>
      <feGaussianBlur stdDeviation="2"/>
      <feColorMatrix values="0 0 0 0 0 0 0 0 0 0 0 0 0 0 0 0 0 0 0.25 0"/>
      <feBlend in2="BackgroundImageFix" result="effect1_dropShadow_521_281"/>
      <feBlend in="SourceGraphic" in2="effect1_dropShadow_521_281" result="shape"/>
    </filter>
    <filter id="filter4_d_521_281" width="121.721" height="55.666" x="300.115" y=".336" color-interpolation-filters="sRGB" filterUnits="userSpaceOnUse">
      <feFlood flood-opacity="0" result="BackgroundImageFix"/>
      <feColorMatrix in="SourceAlpha" result="hardAlpha" values="0 0 0 0 0 0 0 0 0 0 0 0 0 0 0 0 0 0 127 0"/>
      <feOffset dy="4"/>
      <feGaussianBlur stdDeviation="2"/>
      <feColorMatrix values="0 0 0 0 0 0 0 0 0 0 0 0 0 0 0 0 0 0 0.25 0"/>
      <feBlend in2="BackgroundImageFix" result="effect1_dropShadow_521_281"/>
      <feBlend in="SourceGraphic" in2="effect1_dropShadow_521_281" result="shape"/>
    </filter>
    <filter id="filter5_d_521_281" width="141.606" height="55.666" x="554.875" y="10.336" color-interpolation-filters="sRGB" filterUnits="userSpaceOnUse">
      <feFlood flood-opacity="0" result="BackgroundImageFix"/>
      <feColorMatrix in="SourceAlpha" result="hardAlpha" values="0 0 0 0 0 0 0 0 0 0 0 0 0 0 0 0 0 0 127 0"/>
      <feOffset dy="4"/>
      <feGaussianBlur stdDeviation="2"/>
      <feColorMatrix values="0 0 0 0 0 0 0 0 0 0 0 0 0 0 0 0 0 0 0.25 0"/>
      <feBlend in2="BackgroundImageFix" result="effect1_dropShadow_521_281"/>
      <feBlend in="SourceGraphic" in2="effect1_dropShadow_521_281" result="shape"/>
    </filter>
    <filter id="filter6_d_521_281" width="60" height="57" x="165" y="259" color-interpolation-filters="sRGB" filterUnits="userSpaceOnUse">
      <feFlood flood-opacity="0" result="BackgroundImageFix"/>
      <feColorMatrix in="SourceAlpha" result="hardAlpha" values="0 0 0 0 0 0 0 0 0 0 0 0 0 0 0 0 0 0 127 0"/>
      <feOffset dy="4"/>
      <feGaussianBlur stdDeviation="2"/>
      <feComposite in2="hardAlpha" operator="out"/>
      <feColorMatrix values="0 0 0 0 0 0 0 0 0 0 0 0 0 0 0 0 0 0 0.25 0"/>
      <feBlend in2="BackgroundImageFix" result="effect1_dropShadow_521_281"/>
      <feBlend in="SourceGraphic" in2="effect1_dropShadow_521_281" result="shape"/>
    </filter>
    <filter id="filter7_d_521_281" width="60" height="57" x="330" y="59" color-interpolation-filters="sRGB" filterUnits="userSpaceOnUse">
      <feFlood flood-opacity="0" result="BackgroundImageFix"/>
      <feColorMatrix in="SourceAlpha" result="hardAlpha" values="0 0 0 0 0 0 0 0 0 0 0 0 0 0 0 0 0 0 127 0"/>
      <feOffset dy="4"/>
      <feGaussianBlur stdDeviation="2"/>
      <feComposite in2="hardAlpha" operator="out"/>
      <feColorMatrix values="0 0 0 0 0 0 0 0 0 0 0 0 0 0 0 0 0 0 0.25 0"/>
      <feBlend in2="BackgroundImageFix" result="effect1_dropShadow_521_281"/>
      <feBlend in="SourceGraphic" in2="effect1_dropShadow_521_281" result="shape"/>
    </filter>
    <filter id="filter8_d_521_281" width="60" height="57" x="596" y="75" color-interpolation-filters="sRGB" filterUnits="userSpaceOnUse">
      <feFlood flood-opacity="0" result="BackgroundImageFix"/>
      <feColorMatrix in="SourceAlpha" result="hardAlpha" values="0 0 0 0 0 0 0 0 0 0 0 0 0 0 0 0 0 0 127 0"/>
      <feOffset dy="4"/>
      <feGaussianBlur stdDeviation="2"/>
      <feComposite in2="hardAlpha" operator="out"/>
      <feColorMatrix values="0 0 0 0 0 0 0 0 0 0 0 0 0 0 0 0 0 0 0.25 0"/>
      <feBlend in2="BackgroundImageFix" result="effect1_dropShadow_521_281"/>
      <feBlend in="SourceGraphic" in2="effect1_dropShadow_521_281" result="shape"/>
    </filter>
  </defs>
</svg>
