<svg width="75" height="76" fill="none" xmlns="http://www.w3.org/2000/svg">
  <circle cx="38.166" cy="39.032" r="36.818" fill="#FFFF38"/>
  <path d="M72.928 31.097c.13.548.004-.224-.081-.847-.041-.312-.075-.585-.066-.634.007-.024.028.006.07.115.037.11.09.3.164.593-.031-.208-.064-.446-.124-.7a29.176 29.176 0 00-.215-.813c-.082-.287-.162-.592-.265-.9-.11-.305-.222-.62-.335-.938-.214-.64-.506-1.265-.75-1.869-.12-.303-.26-.587-.386-.861a37.91 37.91 0 01-.35-.777c.058-.165.329.159.41.081.04-.039.033-.179-.074-.534a20.041 20.041 0 00-.761-1.783c-.307-.567-.55-.998-.742-1.325a7.87 7.87 0 00-.479-.683c-.236-.294-.325-.312-.41-.313-.084 0-.164.016-.377-.206-.103-.112-.258-.272-.46-.526-.206-.25-.453-.6-.8-1.05.307.418.588.855.883 1.28.072.108.147.213.217.323l.203.331.406.663c-.255-.299-.525-.666-.837-1.068-.322-.395-.66-.845-1.032-1.32l-.594-.723c-.203-.248-.403-.51-.632-.76-.448-.503-.897-1.046-1.405-1.559-.975-1.064-2.099-2.08-3.225-3.043l-.867-.685-.43-.337c-.147-.104-.293-.208-.44-.31l-.862-.607c-.288-.19-.579-.365-.86-.54-1.598-1.182-3.178-2.272-5.018-3.243-1.843-.951-3.95-1.79-6.552-2.282.29.028 1.581.238 1.356.057a10.224 10.224 0 00-.818-.246 9.112 9.112 0 00-.973-.215 43.333 43.333 0 00-1.45-.218l-.41-.034c-1.399-.04-1.21.079-.817.216.395.138.998.295.471.335-.57-.036-1.131-.086-1.706-.08l-.869-.017c-.147-.002-.294-.01-.444-.008l-.453.008c-.61.016-1.249-.011-1.934.023a45.19 45.19 0 01-1.065.015c-.37.005-.75.032-1.15.041-.333-.014-.669-.046-1.002-.045l-1.004-.004c-.675-.018-1.343.037-2.02.064-.157.072-.323.132-.493.203-.169.072-.345.14-.527.206-.363.133-.754.247-1.166.37a29.46 29.46 0 01-1.298.39l-.346.098-.35.113-.727.228c-1.968.63-4.255 1.505-6.538 2.982-.55.112-1.951 1.043-3.277 2.064-.644.536-1.306 1.047-1.824 1.509-.265.224-.507.42-.716.574-.208.154-.37.28-.498.339-.462.443-.754.643-.962.717a.439.439 0 01-.437-.048c-.23-.14-.439-.352-1.273.336-.348.316-.562.541-.704.673-.14.133-.201.178-.209.165-.015-.025.183-.284.382-.543.202-.257.419-.501.402-.529-.007-.013-.07.03-.219.157-.152.124-.373.346-.703.686.162-.2.31-.376.446-.532.141-.15.272-.28.39-.393.237-.227.43-.386.596-.504.165-.118.304-.194.432-.252.133-.055.255-.092.385-.137.532-.166 1.113-.515 3.169-2.258l-.287.065c.203-.19.433-.391.68-.597.125-.102.252-.208.386-.311l.42-.3.882-.608c.3-.202.617-.382.92-.571.308-.184.602-.38.898-.545.296-.167.578-.331.84-.49.516-.327.972-.594 1.273-.848.328-.16.613-.305.865-.42l.663-.272c.374-.149.618-.233.769-.272.302-.078.232.028.082.177-.302.3-.914.765.422.32.355-.21.99-.544 1.764-.884l1.247-.51c.434-.173.89-.316 1.33-.476.222-.076.44-.158.655-.227l.63-.193c.406-.125.78-.25 1.103-.357.65-.191 1.085-.357 1.125-.472l-1.117.2c-.372.074-.739.168-1.108.251-.742.156-1.467.376-2.195.583.705-.212.134-.142.413-.26.78-.132 1.847-.413 2.99-.731.576-.139 1.168-.311 1.755-.453l1.706-.382c1.083-.187 2.007-.347 2.515-.317.508.013.589.14.017.464-.15.022-.363.04-.606.054l-.779.081c-.533.06-1.05.114-1.276.214.13.121.963.103 2.052.022l1.777-.055c.62 0 1.25.02 1.831.039.6-.048 1.225-.074 1.887-.114.66-.023 1.354-.006 2.094.013 1.467.114 3.123.323 4.925.963.625.212.73.325.837.427.108.102.215.205.82.45.23.071.458.13.67.206l.618.221c.397.147.773.274 1.117.42l.963.426c.301.136.586.262.845.407.52.28.99.529 1.417.789.424.269.819.527 1.214.788.395.263.772.558 1.19.853.42.29.844.636 1.332 1.005a58.95 58.95 0 013.637 3.014c1.715 1.843 3.534 3.955 5.09 6.261 1.567 2.295 2.821 4.804 3.582 7.174-.01-.2.068-.111.196.15.064.131.14.305.224.508l.13.323c.043.114.082.236.123.36.162.5.347 1.05.482 1.544l.294 1.175c.056.352.16 1.214.34 2.215.066.505.141 1.048.228 1.584.083.537.135 1.074.22 1.56-.153-1.151-.18-.436-.346-1.226.085.546.155 1.037.212 1.48.032.22.046.43.057.628l.029.559c.014.35.02.656.02.923-.016.268-.036.498-.06.694-.094.786-.247 1.046-.365 1.169-.066-.842-.121-1.493-.216-2.054l-.287-1.523a24.53 24.53 0 01-.32-1.617c-.047-.313-.127-.652-.189-1.036-.072-.384-.119-.816-.223-1.294zM5.954 23.432c-.048-.508-.89 1.155-1.45 2.534-.282.687-.5 1.299-.63 1.485-.123.188-.138-.04.042-1.027l-.333.895-.145.407-.115.388c-.145.503-.263.945-.363 1.354-.08.413-.144.791-.2 1.16l-.078.55c-.024.183-.033.37-.05.56.047-.19.084-.352.121-.49l.105-.343a4.08 4.08 0 01.115-.338c.042-.094.021.044-.007.226-.058.364-.149.9.151.118a38.322 38.322 0 00.017 14.364A36.819 36.819 0 008.23 58.088l.314.552c.104.183.224.356.336.533.228.351.455.702.688 1.045.496.663.97 1.335 1.51 1.942 1.04 1.252 2.198 2.362 3.406 3.388l.922.748c.31.244.637.467.955.7l.481.345c.16.116.33.217.495.325l.998.637c.34.2.687.392 1.03.588l.518.291.533.267 1.07.532c.365.16.732.32 1.1.483.429.25.783.42 1.052.572.27.15.46.267.585.358.252.18.245.256.095.27-.298.03-1.17-.18-1.65-.245a39.293 39.293 0 004.721 1.884c-1.666-.412-3.3-.961-4.913-1.594-.12.06.35.33.991.672l.507.267c.176.09.361.17.541.257.362.17.714.34 1.003.494.461.155.931.283 1.395.426-.96.193-3.468-.686-6.096-2.19-.334-.176-.653-.394-.985-.594-.326-.209-.668-.4-.988-.628-.645-.448-1.303-.88-1.911-1.355-.307-.234-.619-.453-.913-.685l-.86-.684-.42-.325-.394-.329a32.53 32.53 0 00-.76-.609c.574.481.985.841 1.3 1.07.313.23.504.36.606.418.205.116.055-.056-.176-.296l-.374-.385a3.337 3.337 0 01-.28-.338c-.116-.17-.056-.173.453.19-.467-.403-.921-.821-1.382-1.23.313.267.713.589 1.186.963.233.19.506.368.786.57.283.199.578.417.899.633a51.665 51.665 0 004.765 2.792c-.33-.163-.64-.359-.958-.541-.315-.187-.635-.366-.947-.557l-.922-.596-.46-.296-.448-.317-.892-.633c-.295-.215-.576-.446-.865-.667-.584-.435-1.127-.917-1.679-1.385-.28-.228-.538-.482-.803-.727l-.79-.738-.754-.77-.377-.382c-.124-.129-.24-.265-.36-.397l-.715-.796c-.241-.261-.454-.546-.682-.817-.222-.275-.454-.543-.667-.823l-.631-.845-.316-.421-.295-.433-.586-.863c-.2-.284-.367-.588-.552-.879-.18-.294-.363-.585-.538-.88l-.495-.897c-.163-.299-.336-.591-.48-.898l-.446-.905c-.074-.151-.151-.3-.221-.452l-.2-.458a38.607 38.607 0 01-2.423-7.292c.109.272.318 1.01.227.126-.07-.433-.163-.84-.224-1.23a31.95 31.95 0 00-.197-1.11l-.104-.513-.084-.488a36.016 36.016 0 00-.172-.904c-.128-.57-.197-1.085-.284-1.554-.08-.469-.16-.893-.18-1.284l.03.39c.011.131.03.261.045.391l.096.778c.04-.553.034-1.19.064-1.877.009-.344.012-.701.013-1.066.007-.365.03-.738.042-1.115.038-1.51.196-3.076.42-4.392.197-.703.425-1.333.624-1.966l.706-1.932c.135-.338.27-.69.41-1.066.072-.187.137-.383.217-.58l.249-.611c.325-.85.729-1.8 1.218-2.919l.105.236.47-.86c.16-.286.306-.579.483-.854l.51-.836.256-.417.273-.406c-.25.416-.291.558-.263.57.03.013.126-.104.201-.176-.097.271-.227.425-.59 1.005.07.18.445-.111.954-.656.542-.525 1.203-1.312 1.92-2.097l-.59.776c-.178.252-.329.493-.45.696.494-.709 1.71-2.208 2.63-3.172.952-.942 1.533-1.405.688-.198-.204.23-.394.447-.562.66-.172.21-.335.404-.49.586-.154.184-.308.348-.442.513l-.384.463c-.245.29-.474.543-.688.781l-.591.696c-.19.226-.39.445-.577.69a22.39 22.39 0 00-.893 1.284c-.103.171-.204.357-.313.554-.107.197-.22.408-.336.634l-.18.35c-.058.123-.112.252-.17.384zm13.74-16.965l-.544.279-.378.206a2.288 2.288 0 01-.362.173c-.093.022.083-.124.337-.32.249-.205.596-.429.82-.602.224-.172.331-.283.122-.225l.738-.43c.25-.136.505-.264.757-.396l.759-.394c.251-.134.515-.242.773-.364.046.041-.114.16-.38.322l-1.01.614c-.765.436-1.533.972-1.632 1.137zm24.502 67.202c.166.06.824-.02 1.598-.17.769-.17 1.66-.373 2.297-.547l.847-.3c.256-.099.488-.205.712-.3l.647-.279.318-.135.318-.15c.429-.208.902-.4 1.472-.658.563-.273 1.254-.542 2.09-.962-1.174.91-.424.714.973.157.346-.144.72-.33 1.118-.518l.606-.293.602-.326.598-.322.293-.156.279-.164a32.99 32.99 0 011.015-.576c-.381.287-.824.662-1.343 1.048l-.827.594-.442.31-.47.297c-.318.198-.646.4-.98.599-.341.186-.692.364-1.044.541l-.53.26c-.18.08-.364.15-.545.224-.363.144-.726.28-1.084.403.136-.14-.432.023-1.194.266-.189.062-.391.13-.598.197l-.632.183-1.143.336c-.954.412-.502.497-.821.78-.162.136-.511.353-1.358.61-.424.127-.961.31-1.67.45l-1.183.246c-.44.07-.924.138-1.457.214-.393.038-.933.06-1.514.102-.292.018-.593.045-.894.058l-.885.015c-.285.004-.555.005-.799.003-.244 0-.46-.027-.637-.044-.354-.04-.548-.093-.484-.167a4.973 4.973 0 00-.804-.027l-.806.016a8.413 8.413 0 01-.828-.02 3.16 3.16 0 01-.858-.177l-.584-.201c1.762.187 3.535.199 5.294.127.194.037.598.11 1.079.081-.252-.047-.019-.103.414-.177.431-.091 1.063-.2 1.615-.309 1.103-.256 1.876-.52.186-.486a36.434 36.434 0 01-7.09.047c-.428-.06-.591-.134-.562-.163.03-.034.252-.036.61-.049.356-.008.843-.002 1.399.014.557-.004 1.183-.014 1.815-.007.46.023.861.028 1.214.04.353.004.659.027.928.01.538-.02.936-.042 1.292-.073.358-.023.67-.093 1.043-.164l.617-.127c.229-.046.484-.1.777-.181z" fill="#292929"/>
  <path d="M26.691 72.89l-.342-.204c.5.157.993.33 1.495.475l1.514.408 1.53.335c.254.06.513.097.77.14l.773.128a34.208 34.208 0 01-5.74-1.282zm37.338-9.836c-.192.234-.382.454-.58.661-.204.2-.408.394-.613.586l-.613.584c-.213.19-.426.388-.637.602l-.361-.198.724-.525c.243-.175.467-.37.703-.554l.701-.562c.229-.194.45-.396.676-.594zM6.857 59.027a8.563 8.563 0 01-1.052-1.361 45.22 45.22 0 01-.57-.906c-.19-.317-.363-.654-.544-.983-.174-.333-.368-.654-.518-.983l-.457-.925c-.305-.573-.525-1.077-.734-1.388.437 1.124.358.706.526.954-.13-.365-.25-.733-.375-1.098-.122-.366-.253-.729-.351-1.103 1.174 2.604 2.31 5.163 4.075 7.793z" fill="#292929"/>
  <path d="M70.796 53.04c.101-.236.2-.459.286-.674l.224-.627c.136-.4.27-.762.368-1.112l.264-.997.123-.473c.039-.157.068-.317.103-.476.134-.638.301-1.287.457-2.077.185-.783.366-1.704.605-2.871.24-1.015.026 1.297.31-.185.295-1.482.134-1.855.118-2.592l-.17.566c.082-.282.184-.72.27-1.193.073-.474.148-.981.226-1.394.15-.834.294-1.303.505-.314-.018.381-.03.75-.04 1.107-.012.356-.002.703-.03 1.037l-.045.975c-.012.316-.017.624-.045.923-.05.597-.064 1.169-.116 1.716l-.156 1.592a92.082 92.082 0 01-.234 1.521c-.083.503-.215.995-.338 1.498-.118.506-.299 1.004-.485 1.519-.097.256-.19.52-.307.78-.12.26-.245.523-.379.792-.23.206-.455.412-.685.612l-.537 1.314a9.621 9.621 0 01-.288.65l-.3.644c-.063.077-.108.086-.187.183-.08.096-.186.285-.412.7-.417.897-.195.608.145.12l.27-.388c.085-.135.17-.267.245-.38.152-.224.272-.371.298-.312-.191.42-.378.844-.599 1.25-.215.41-.419.827-.644 1.232l-.698 1.204c-.233.402-.498.784-.747 1.177-.414.54.232-.529.081-.389-.21.254-.402.502-.58.745-.187.235-.361.465-.525.692-.164.227-.318.45-.467.67-.153.218-.31.424-.462.632-.6.836-1.241 1.594-2.17 2.27.198-.208.38-.43.564-.65l.552-.66c.188-.216.36-.444.532-.673l.519-.683c-1.341 1.571-2.685 2.788-3.964 3.821-1.27 1.047-2.529 1.852-3.74 2.616a27.144 27.144 0 004.268-3.52l.853-.902c.275-.299.525-.613.782-.913l.378-.451c.124-.15.237-.31.355-.462l.696-.918.65-.939.324-.467c.107-.157.204-.32.308-.48l.621-.966.6-1 .31-.506.293-.525.613-1.07c.196-.37.4-.746.612-1.128l.16-.289.15-.298.312-.605z" fill="#292929"/>
  <mask id="a" fill="#fff">
    <path d="M18.636 35.428a.36.36 0 01-.17.097c-.064.016-.08.073-.048.17a1.386 1.386 0 00-.607.218.551.551 0 01-.607-.024c-.162.081-.34.162-.535.243-.178.081-.348.04-.51-.121-.129.178-.25.323-.364.437a.465.465 0 00-.145.34c0 .065.008.13.024.194a.538.538 0 01.024.17.92.92 0 01-.048.291.649.649 0 00-.049.243.163.163 0 01-.073.146c-.032.016-.048.04-.048.073.032.162.024.291-.025.388-.048.081-.024.146.073.195a.493.493 0 00-.17.34.978.978 0 01-.073.388.57.57 0 01-.121.194.522.522 0 00-.097.17 2.428 2.428 0 00-.073.365c0 .13-.016.259-.049.388.114.049.251.073.413.073.178-.016.308-.081.389-.194.08 0 .153.016.218.048a.651.651 0 00.243.049.3.3 0 00.17-.049.355.355 0 01.219-.073c.113 0 .21.025.291.073.097.049.186.105.267.17l.243.146c.097.048.194.08.291.097-.032.081-.032.138 0 .17.033.032.049.081.049.146-.065.226-.09.38-.073.461a.353.353 0 01-.024.219.572.572 0 00-.194.121c-.033.032-.04.097-.025.194a.86.86 0 00-.267.146.457.457 0 01-.267.121.335.335 0 01-.073.17c-.032.017-.04.065-.024.146-.049 0-.081-.024-.097-.073 0-.064-.016-.113-.049-.145a.548.548 0 01-.388.048c-.114-.032-.235-.008-.365.073a.51.51 0 00-.267-.17 1.076 1.076 0 00-.34-.048 2.577 2.577 0 00-.364-.025h-.316a.678.678 0 00-.097.17c.016.016.025.04.025.073a.423.423 0 01-.073.17 1.339 1.339 0 00-.073.17.598.598 0 00-.024.291.49.49 0 01-.025.267c-.032.195-.073.324-.121.39-.049.064-.073.218-.073.46 0 .114.008.227.024.34.016.098.025.203.025.316 0 .13-.033.203-.098.219-.048 0-.097.04-.145.121.016.081.032.17.048.267a.916.916 0 01.049.292c0 .113-.04.218-.122.315-.064.081-.137.17-.218.267a4.01 4.01 0 00-.243.268.757.757 0 00-.121.315 1.23 1.23 0 00-.292.146 3.16 3.16 0 00-.243.218.99.99 0 01-.607-.097 2.33 2.33 0 01-.51-.34 2.906 2.906 0 01-.073-.315 2.4 2.4 0 01-.024-.34c0-.227.049-.397.146-.51.097-.13.146-.227.146-.292a.165.165 0 00-.049-.121c-.016-.032-.016-.081 0-.146.113-.016.178-.105.194-.267.016-.178.081-.283.195-.316a2.945 2.945 0 01.145-1.068c.13-.356.178-.72.146-1.093a1.334 1.334 0 00-.364 0 .902.902 0 00-.219.025.458.458 0 00-.145.024.505.505 0 01-.195.024.458.458 0 01-.146-.024.538.538 0 00-.316 0 .458.458 0 01-.145.024.3.3 0 01-.17-.048c-.032-.05-.073-.073-.121-.073a.355.355 0 00-.219.073.482.482 0 01-.218.048c-.13-.065-.21-.08-.243-.048s-.097.048-.194.048a.54.54 0 01-.073.17.54.54 0 00-.073.17.917.917 0 00-.049.291.739.739 0 010 .267c-.048.195-.097.324-.145.39-.049.064-.073.218-.073.46 0 .114.008.227.024.34a.993.993 0 01.049.316c0 .13-.033.203-.098.219-.064 0-.121.04-.17.121.017.081.033.17.049.267a.917.917 0 01.049.292.558.558 0 01-.098.315c-.064.081-.137.17-.218.267a4.01 4.01 0 00-.243.268.756.756 0 00-.121.315 1.498 1.498 0 00-.535.364c-.21.033-.42 0-.631-.097a2.331 2.331 0 01-.51-.34 2.886 2.886 0 01-.073-.315 2.401 2.401 0 01-.024-.34c0-.227.048-.397.146-.51.097-.13.145-.227.145-.292a.165.165 0 00-.048-.121c-.016-.032-.016-.081 0-.146.065 0 .105-.024.121-.073a.95.95 0 00.073-.194c.032-.08.057-.146.073-.194.032-.065.073-.105.121-.122 0-.34.049-.671.146-.995.097-.324.154-.656.17-.996a.338.338 0 01-.146-.024.27.27 0 00-.121-.024 2.4 2.4 0 00-.34.024c-.097 0-.194.008-.292.024a.458.458 0 00-.145.025.215.215 0 01-.097.024.441.441 0 01-.316-.146.688.688 0 00-.291-.218c.032-.13.016-.21-.049-.243-.065-.049-.097-.122-.097-.219 0-.08.008-.137.024-.17.016-.032-.008-.08-.073-.146.033-.08 0-.121-.097-.121-.08 0-.105-.049-.073-.146.13 0 .219-.04.267-.121l.146-.243c.081.016.138 0 .17-.049.033-.048.097-.072.194-.072.114 0 .227.016.34.048a.504.504 0 00.365-.097c.08-.032.13-.016.145.049.016.048.057.072.122.072.13 0 .243-.008.34-.024.113-.032.226-.056.34-.073a1.7 1.7 0 01.121-.242c.049-.081.09-.162.121-.243.081-.26.138-.518.17-.777.049-.26.106-.518.17-.777l.098-.389c.048-.146.089-.283.121-.413.032-.178.057-.34.073-.486.016-.161.048-.331.097-.51.032-.178.073-.315.121-.412.065-.097.098-.243.098-.437-.227 0-.462.008-.705.024a3.35 3.35 0 00-.704.073c-.048-.081-.137-.113-.267-.097H7.32c-.08-.065-.121-.138-.121-.219 0-.08-.081-.113-.243-.097a1.602 1.602 0 01-.073-.607 8.81 8.81 0 01.073-.607.63.63 0 00.316-.267c.08.048.154.056.218.024a.355.355 0 01.219-.073c.08 0 .146.008.194.024.065.017.13.025.194.025.13 0 .243-.017.34-.049a1.32 1.32 0 01.365-.048c.145 0 .283.024.412.072.146.049.292.081.438.097v-.242c.145-.146.242-.332.29-.559a.96.96 0 01.292-.534c-.048-.146-.032-.267.049-.364a1.58 1.58 0 00.194-.365.413.413 0 00.049-.267c-.017-.097.016-.186.097-.267.097-.048.138-.089.121-.121a.4.4 0 01-.024-.122c0-.178.032-.34.097-.485a1.39 1.39 0 00.146-.486.915.915 0 01.291-.267.913.913 0 00.292-.267c.194-.033.388-.049.582-.049.195 0 .365.081.51.243.017.097.04.186.073.267a.51.51 0 01.073.267c0 .13-.016.219-.049.267a.335.335 0 00-.072.17l-.073.267c-.049.227-.081.332-.097.316-.017-.016-.04.016-.073.097a.205.205 0 00-.024.17c.016.049.008.105-.025.17a.968.968 0 01-.145.243.61.61 0 00-.146.243 1.343 1.343 0 00-.097.34c0 .113-.016.235-.049.364a1.543 1.543 0 01-.145.34 1.341 1.341 0 00-.098.364c.114 0 .203.025.268.073.064.033.129.073.194.122a.573.573 0 01.364-.073.625.625 0 00.389-.073c.129 0 .21.049.242.146a.398.398 0 00.098-.025.797.797 0 01.194-.024c.08-.016.154-.024.218-.024a.73.73 0 01.122-.024c.145.064.218.089.218.072.017-.016.04-.024.073-.024.049 0 .09.024.122.073a.233.233 0 00.17.073.739.739 0 000-.267c.145-.146.242-.332.29-.559a.96.96 0 01.292-.534c-.032-.146-.008-.267.073-.364a1.56 1.56 0 00.194-.365.518.518 0 00.025-.267.37.37 0 01.121-.267c.097-.048.13-.089.097-.121a.4.4 0 01-.024-.122c0-.178.032-.34.097-.485.081-.162.138-.324.17-.486a.915.915 0 01.291-.267.914.914 0 00.292-.267c.194-.033.38-.049.558-.049.195 0 .373.081.535.243.016.097.04.186.073.267a.51.51 0 01.072.267c0 .13-.016.219-.048.267a.52.52 0 00-.097.17l-.073.267c-.033.227-.065.332-.097.316-.017-.016-.04.016-.073.097a.205.205 0 00-.024.17.304.304 0 010 .17.741.741 0 01-.17.243.61.61 0 00-.146.243 1.343 1.343 0 00-.097.34 1.504 1.504 0 01-.194.728.915.915 0 00-.073.365c.13.113.242.145.34.097a.644.644 0 01.315-.097c.194.048.316.056.364.024a.263.263 0 01.195-.073.64.64 0 01.291.073c.097.032.186.065.267.097 0 .178.049.291.146.34.113.032.21.113.291.243-.064.146-.089.259-.072.34.016.08.04.194.072.34zm-4.59.631c-.145-.016-.29 0-.436.049-.13.032-.267.048-.413.048a.63.63 0 01-.194-.024.54.54 0 00-.17-.073c-.033-.016-.073-.016-.122 0h-.121a.3.3 0 01-.17-.048.366.366 0 00-.146-.122 1.235 1.235 0 00-.34-.048h-.291a.263.263 0 00-.195.072c-.048.033-.113.041-.194.025.049.178 0 .332-.146.461a.506.506 0 00-.194.389c0 .065.008.13.025.194a.54.54 0 01.024.17.92.92 0 01-.049.291.649.649 0 00-.048.243c-.065.194-.073.316-.025.364a1.248 1.248 0 01-.097.243c-.048.081-.024.146.073.195a.543.543 0 00-.194.364c0 .13-.024.25-.073.364a1.054 1.054 0 01-.097.194.522.522 0 00-.097.17 2.124 2.124 0 00-.122.535 3.09 3.09 0 01-.097.534c.243-.016.486-.016.729 0 .242.016.485.024.728.024a.233.233 0 00.17-.073.263.263 0 01.195-.073c.161.049.25.049.267 0 .016-.048.056-.072.121-.072.097 0 .194.008.291.024h.316a2.13 2.13 0 00.291-.874c.033-.324.09-.64.17-.947l.098-.389a5.62 5.62 0 00.121-.413c.032-.178.057-.34.073-.486.032-.161.065-.331.097-.51.032-.161.081-.29.146-.388.065-.097.097-.235.097-.413zm8.573 3.667a.505.505 0 01.024.194c.016.081.024.17.024.267a.88.88 0 010 .292c0 .08-.008.13-.024.145a.648.648 0 00.122.17.482.482 0 01.145.17.315.315 0 000 .243.482.482 0 01.049.219c-.049.065-.065.113-.049.146a.379.379 0 01.073.097c.113.178.162.315.146.413 0 .08.032.186.097.315.097.26.162.421.194.486.033.048.097.137.194.267v.267c.065.081.122.17.17.267.05.097.098.186.146.267.081.081.162.154.243.219.081.065.113.162.097.291.081.097.17.195.267.292.114.08.21.178.292.291.178 0 .323.081.437.243h.267c.13.13.275.218.437.267.162.049.332.09.51.121a2.01 2.01 0 00-.049.219c.017 0 .025.008.025.024.226-.08.404-.072.534.025a.857.857 0 00.486.145c.194-.048.307-.065.34-.048l.097.048a.43.43 0 00.194-.048.323.323 0 01.194-.073.27.27 0 01.122.024.398.398 0 00.121.024c.13.017.324-.008.583-.072.259-.081.437-.162.534-.243.178.064.308.08.389.048.097-.048.218-.08.364-.097.097-.08.194-.146.291-.194a6.58 6.58 0 00.316-.17c.049-.016.08-.04.097-.073a.434.434 0 01.122-.121.756.756 0 00.315-.122 1.59 1.59 0 01.292-.194l.218-.219c.065 0 .13-.04.195-.121a5.36 5.36 0 00.194-.316c.065-.13.121-.25.17-.364a1.2 1.2 0 01.17-.243v-.364c.13-.016.21-.057.242-.121a.648.648 0 01.243-.219c-.016-.08-.008-.146.025-.194.048-.049.056-.114.024-.194a.236.236 0 00.048-.122.305.305 0 01.073-.121c.114-.178.114-.38 0-.607-.113-.243-.226-.421-.34-.535a.496.496 0 00-.218 0 .596.596 0 00-.219.049.937.937 0 00-.461-.121 1.185 1.185 0 01-.461-.146h-.389c-.081 0-.194-.049-.34-.146-.259 0-.47.016-.631.049a.628.628 0 01-.413-.098.311.311 0 00-.195.122c-.032.048-.113.073-.242.073a.763.763 0 00-.534-.097c-.195.032-.381.064-.56.097a.422.422 0 01-.169.073c-.016 0-.016.056 0 .17l-.291-.097a.992.992 0 00-.316-.05.798.798 0 00-.194.025.902.902 0 01-.219.025 1.1 1.1 0 01-.389-.073.97.97 0 00-.364-.122 5.317 5.317 0 00-.243-.583 1.725 1.725 0 01-.097-.631c.065-.016.105-.04.122-.073.032-.032.089-.048.17-.048.048-.13.13-.21.242-.243a.662.662 0 00.316-.17c.097 0 .195.008.292.024.097.016.194.024.291.024.162 0 .316-.032.461-.097a.587.587 0 01.462-.048.949.949 0 01.194-.073c.065-.033.122-.065.17-.097.081.016.21.032.389.048.178 0 .3-.016.364-.048h.267c.065-.017.121-.033.17-.049a.431.431 0 01.194-.048c.162 0 .332.024.51.072.178.049.356.09.534.122.195.032.373.048.535.048a.767.767 0 00.437-.194c.097.032.194.057.291.073a2.4 2.4 0 00.34.024c.13 0 .251-.048.364-.145.13-.098.284-.098.462 0a1.3 1.3 0 01.631-.098c.243 0 .462.017.656.049.097.08.17.162.218.243a.659.659 0 00.292.194c.016.081.024.162.024.243a.83.83 0 00.097.218l-.097.195c-.016.048-.04.105-.073.17.081.226.162.445.243.655.08.21.089.446.024.705.033.097.073.194.122.291.048.08.089.178.121.291-.08.195-.194.357-.34.486 0 .275-.04.542-.121.801-.081.26-.13.527-.146.802-.08 0-.138.032-.17.097a.542.542 0 00-.073.17c-.016.048-.04.105-.073.17-.032.048-.089.073-.17.073a.262.262 0 01.049.145c.016.049-.008.09-.073.122a.307.307 0 01-.146.17c-.048.016-.105.04-.17.073 0 .113-.048.21-.145.291a.583.583 0 00-.195.291c-.178.033-.275.057-.291.073a.721.721 0 01-.097.073v.267a1.43 1.43 0 00-.364.146c-.097.065-.154.178-.17.34h-.268a.27.27 0 00-.12.024.714.714 0 00-.074.097.711.711 0 01-.121.195c-.13.064-.267.113-.413.145-.146.033-.235.138-.267.316l-.486.097a.933.933 0 00-.437.219h-.267a2.738 2.738 0 01-.947.485.626.626 0 00-.316.146c-.097 0-.17-.056-.218-.17a1.103 1.103 0 01-.267-.048.187.187 0 00-.073-.025.187.187 0 00-.073.025c-.016.016-.057.024-.122.024-.145-.049-.25-.04-.315.024a.64.64 0 01-.389.024c-.113-.048-.21-.008-.291.122a1.562 1.562 0 00-.802-.17l-.8.048a.608.608 0 00-.316-.291 1.166 1.166 0 00-.413-.073c0-.08-.025-.137-.073-.17a.308.308 0 00-.146-.073 2.285 2.285 0 00-.17-.048.236.236 0 01-.097-.146 6.705 6.705 0 01-.607-.121.846.846 0 01-.462-.34c-.161-.114-.267-.17-.315-.17a1.088 1.088 0 01-.194-.097.79.79 0 00-.098-.122.236.236 0 00-.145-.097c-.049-.032-.13-.04-.243-.024a.648.648 0 00-.146-.219.946.946 0 01-.121-.218c-.114-.033-.17-.057-.17-.073 0-.033-.016-.065-.049-.097a.309.309 0 00-.145-.073l-.146-.073a.583.583 0 00-.194-.316.494.494 0 01-.146-.364.164.164 0 00-.122-.049.305.305 0 01-.121-.072c.032-.081.032-.13 0-.146-.016-.032-.073-.065-.17-.097a.786.786 0 000-.389 1.341 1.341 0 00-.097-.364 3.316 3.316 0 00-.17-.34 1.706 1.706 0 01-.097-.389 247.19 247.19 0 01-.073-.145c0-.033-.049-.04-.146-.025-.016-.08-.016-.129 0-.145a.562.562 0 00.073-.122c0-.048-.032-.13-.097-.242-.049-.114-.097-.187-.146-.219 0-.178-.024-.356-.073-.534a.855.855 0 00-.243-.462c.033-.178.041-.34.025-.485 0-.146-.049-.3-.146-.462a2.99 2.99 0 00.097-.291.952.952 0 00.073-.316 20.33 20.33 0 01-.024-.898c0-.26.048-.502.145-.729-.08-.162-.113-.283-.097-.364.033-.097.057-.186.073-.267a.739.739 0 000-.267c-.016-.081-.08-.146-.194-.195-.016-.097-.016-.153 0-.17a1.1 1.1 0 00.146-.097c0-.372.056-.68.17-.922.13-.243.17-.486.121-.729.049-.162.097-.267.146-.316.064-.064.08-.194.048-.388.146-.049.243-.105.292-.17.064-.081.154-.162.267-.243a.995.995 0 01.121-.389.52.52 0 01.316-.267c0-.13.024-.226.073-.291a.49.49 0 00.097-.316c.097-.162.162-.267.194-.315.033-.049.04-.13.024-.243a6.21 6.21 0 00.243-.195 4.389 4.389 0 00.51-.607c.081-.113.122-.21.122-.291.113.016.178.008.194-.024.032-.049.089-.073.17-.073.032-.032.04-.073.024-.122v-.121c.356-.097.64-.275.85-.534.178 0 .308-.024.389-.073.097-.049.21-.113.34-.194.194.048.356.04.485-.025a.853.853 0 01.462-.121c.113 0 .218.016.315.049a2.4 2.4 0 00.34.024.68.68 0 00.34-.097.812.812 0 00.365.073c.145 0 .283-.009.412-.025.146-.016.276-.016.389 0 .13 0 .235.04.316.122a.52.52 0 00.17-.097c.032-.033.089-.049.17-.049.13.049.267.089.412.121a.79.79 0 01.413.219c.114-.032.219-.049.316-.049a.565.565 0 01.34.073c.08 0 .13-.016.146-.048a.368.368 0 01.145-.122c.21.097.332.146.365.146.048-.016.105-.008.17.024a.318.318 0 01.145.146.916.916 0 00.146.121c.049.033.113.081.194.146a5.89 5.89 0 00.632.267c.113.032.194.04.242.024a.493.493 0 01.098.268c.13-.017.218 0 .267.048a.85.85 0 01.17.17c.048.049.105.097.17.146.064.048.17.065.315.048a.9.9 0 00.17.413c.081.097.21.162.389.195-.032.097-.016.153.048.17.081.016.106.08.073.194.049.113.13.194.243.242.113.033.178.138.194.316.065.016.122.033.17.049a1.6 1.6 0 01.219.073 1.373 1.373 0 01-.146.437c-.048.097-.04.235.025.413a.642.642 0 00-.195.242c-.032.081-.137.122-.316.122a.275.275 0 00-.097.097c-.016.032-.056.065-.121.097a.98.98 0 00-.364-.024.973.973 0 00-.34.145c-.13-.032-.26-.08-.389-.145a.446.446 0 01-.218-.292 1.14 1.14 0 01-.437-.34 1.487 1.487 0 00-.413-.364c-.016-.113-.04-.178-.073-.194a.27.27 0 01-.024-.122c-.13-.097-.21-.186-.243-.267-.114 0-.195-.024-.243-.072-.032-.049-.113-.057-.243-.025a.307.307 0 00-.146-.17.484.484 0 01-.145-.17 2.307 2.307 0 00-.437-.145 1.449 1.449 0 01-.413-.219 2.413 2.413 0 00-.364-.073.503.503 0 01-.292-.146.237.237 0 00-.121.049.416.416 0 01-.17.024.676.676 0 00-.34-.17.583.583 0 01-.316-.194c-.178-.016-.348 0-.51.049a2.241 2.241 0 01-.485.048.599.599 0 01-.34-.097.483.483 0 00-.535-.073.538.538 0 01-.17.024h-.17a.458.458 0 00-.145-.024h-.17a.458.458 0 00-.146.024c-.049.033-.073.114-.073.243a1.02 1.02 0 00-.486.365 2.044 2.044 0 00-.242.534c-.162.016-.268.073-.316.17a.462.462 0 01-.267.218c.016.114-.008.195-.073.243-.049.033-.065.105-.049.219-.08.08-.17.162-.267.243-.08.08-.17.162-.267.242.016.081 0 .146-.048.195-.033.048-.033.121 0 .218-.114.065-.21.146-.292.243a.87.87 0 01-.316.194c.049.178-.008.308-.17.389a5.671 5.671 0 00-.024.51 1.5 1.5 0 01-.024.461c-.032.13-.073.251-.122.364a.59.59 0 00-.048.34c.032.114.032.187 0 .219-.016.016.024.049.121.097l-.097.146-.073.145c0 .308.017.567.049.778.048.21.008.461-.122.752 0 .049.017.098.049.146.049.032.073.073.073.121a.165.165 0 01-.049.122c-.016.032-.04.073-.072.121.016.081.04.13.072.146.033.016-.008.073-.121.17zm25.57-8.96a.676.676 0 01.292-.05.82.82 0 00.218.195c.081.032.17.073.268.121.097.033.186.073.267.122a.601.601 0 01.17.073c.113.032.218.073.315.121a.443.443 0 01.267.219.91.91 0 01.413.218c.097.081.26.138.486.17.08.34.194.591.34.753.146.146.316.348.51.607 0 .178.032.34.097.486a.982.982 0 01.121.485c0 .146-.024.292-.073.438a1.906 1.906 0 000 .85c.05.13.073.259.073.388 0 .13-.016.227-.048.291.065.114.089.187.073.219 0 .016.064.065.194.146a4.91 4.91 0 01-.121.194.216.216 0 00-.025.097v.122a.416.416 0 01.024.17c0 .097-.016.17-.048.218a.612.612 0 01-.073.146 3.28 3.28 0 01-.073.194.993.993 0 000 .316c-.113.064-.178.13-.194.194a.217.217 0 01-.121.146.799.799 0 01.048.243c-.113.097-.178.186-.194.267 0 .08-.04.17-.122.267.017.08.025.154.025.218a.56.56 0 00.048.195c-.064.13-.145.202-.243.218-.016.081-.089.138-.218.17v.146c0 .032.008.065.024.097a.976.976 0 00-.267.024.38.38 0 00-.097.073.73.73 0 00-.073.097.418.418 0 01-.121.122c-.049.13-.106.234-.17.315-.049.081-.146.09-.292.025a2.399 2.399 0 01-.315.194c-.097.032-.195.113-.292.243a.821.821 0 00-.388.121l-.438.219c-.161.08-.34.162-.534.242a1.906 1.906 0 01-.607.098c-.097.032-.194.08-.291.145-.081.049-.17.033-.267-.048-.26.032-.51.089-.753.17a2.47 2.47 0 01-.777.121c-.049 0-.138-.016-.267-.048a4.91 4.91 0 01-.122.194c-.016.032-.08.057-.194.073-.227-.033-.372-.04-.437-.024a1.409 1.409 0 01-.34.024h-.194a.798.798 0 00-.195-.024.648.648 0 00-.291.072.712.712 0 01-.267.049 1.537 1.537 0 01-.437.073 5.335 5.335 0 01-.292-.049c-.145.065-.259.09-.34.073-.016.13-.016.267 0 .413.017.13.04.259.073.388a.618.618 0 00-.145.146l-.098.146c.081.097.122.178.122.243v.218c0 .065.008.154.024.267.032.097.105.219.219.364-.033.114-.04.195-.025.243a.299.299 0 01.049.17c0 .097-.024.17-.073.219a.569.569 0 00-.097.146.496.496 0 000 .218c.016.065.024.13.024.194 0 .162-.04.316-.121.462-.081.13-.146.259-.194.388-.114.017-.178.033-.195.049 0 .016-.04.04-.121.073a.872.872 0 01-.194.316.87.87 0 00-.195.315.391.391 0 01-.315.146 1.568 1.568 0 00-.389 0l-.097-.194a.95.95 0 00-.121-.219.3.3 0 01-.146-.218c-.13-.081-.194-.146-.194-.195.016-.048-.017-.097-.098-.145a1.195 1.195 0 000-.34c0-.13.017-.243.05-.34a.55.55 0 01-.147-.365c0-.08.017-.137.049-.17a.52.52 0 00.097-.17c.081-.194.09-.429.024-.704a1.142 1.142 0 01.122-.777l-.097-.243c0-.097.008-.154.024-.17a.52.52 0 00.097-.17c-.113-.194-.138-.332-.073-.413 0-.13-.024-.218-.073-.267-.048-.064-.04-.178.025-.34a.907.907 0 00-.025-.218c0-.065.008-.138.025-.219a.735.735 0 00-.243-.073c0-.08.008-.178.024-.291a.3.3 0 01.219-.219 4.472 4.472 0 01-.025-.8 6.95 6.95 0 00.049-.827c0-.178-.024-.356-.073-.534a2.545 2.545 0 01-.049-.437 3.824 3.824 0 01-.048-.388.54.54 0 01.024-.17.394.394 0 000-.195c0-.064-.04-.162-.121-.291.113-.113.154-.21.121-.291a.518.518 0 010-.316c-.097-.227-.137-.43-.121-.607.032-.195.048-.405.048-.632a.62.62 0 01-.145-.364v-.388a.916.916 0 00-.049-.292.992.992 0 01-.048-.316c-.081-.129-.114-.21-.098-.242a.302.302 0 010-.17.798.798 0 00-.048-.535 1.101 1.101 0 01-.073-.388.4.4 0 01.024-.121.4.4 0 00.025-.122.556.556 0 00-.073-.291c-.049-.081-.049-.186 0-.316l-.195-.389c-.048-.097-.048-.234 0-.412a.8.8 0 01-.048-.243 1.44 1.44 0 01.194-.632.93.93 0 01.51-.412.715.715 0 01.316-.025.523.523 0 00.34-.072c.162-.017.283.032.364.145.21-.048.348-.065.413-.048.065.016.162.024.291.024.049 0 .09-.016.122-.049a.8.8 0 01.097-.121c.08.032.154.065.218.097.065.016.138.032.219.049.308-.13.623-.235.947-.316.34-.081.672-.049.995.097.082-.016.146-.032.195-.049a.345.345 0 01.194-.048c.178.097.405.146.68.146.291 0 .55.024.777.073.146.016.235.032.267.048.049 0 .09.016.122.049a.951.951 0 01.121.048c.049.016.113.008.194-.024l.146.097c.065.032.121.065.17.097a.224.224 0 01.146 0h.17a.458.458 0 00.145-.024c.049-.032.09-.057.122-.073a.903.903 0 01.218-.024h.219c.065-.049.162-.024.291.073.13.08.219.162.267.242zm1.336 7.163l.049-.049c-.017-.129.016-.226.097-.29a.51.51 0 00.17-.268c-.065-.13-.081-.3-.049-.51a4.1 4.1 0 00.049-.558.764.764 0 00-.097-.243.647.647 0 01-.073-.292c-.114-.372-.105-.68.024-.922a1.282 1.282 0 01-.073-.268 1.38 1.38 0 00-.024-.267.725.725 0 00-.194-.364.945.945 0 01-.219-.34 2.81 2.81 0 01-.364-.146 1.504 1.504 0 00-.267-.17 1.219 1.219 0 00-.292-.121 1.222 1.222 0 00-.437-.024.8.8 0 00-.097-.122.794.794 0 00-.097-.121c-.13 0-.219-.024-.267-.073a.37.37 0 00-.194-.097c-.081-.033-.235-.057-.462-.073a3.817 3.817 0 00-.388-.049c-.21.033-.357.049-.438.049-.08 0-.218-.04-.412-.121a.768.768 0 00-.535-.049.892.892 0 00-.364-.243c-.113-.032-.259-.016-.437.049-.113-.097-.227-.138-.34-.122-.113 0-.235.017-.364.049a.305.305 0 00-.122-.073.306.306 0 01-.121-.073c-.162.178-.372.227-.631.146a.543.543 0 01-.17.073l-.146.048a.837.837 0 01-.291.292c-.098.097-.203.121-.316.072-.13-.129-.308-.137-.534-.024a.72.72 0 00.048.267c.049.065.033.138-.048.219.097.227.121.364.073.413-.05.048-.065.137-.05.267a.745.745 0 01.122.291c.017.097.025.203.025.316.016.097.032.202.048.316.033.113.09.226.17.34-.097.161-.113.307-.048.437a.73.73 0 01.048.461.556.556 0 01.122.316c.016.097.08.21.194.34a2.393 2.393 0 00-.243.145c0 .162.024.3.073.413.065.097.048.227-.049.389.049.08.09.186.122.316.048.113.056.21.024.29a.369.369 0 01.049.365c.016.21.04.397.072.559.033.145.049.323.049.534a.47.47 0 01.097.461c-.032.178-.048.34-.048.486a4.87 4.87 0 01.388-.024c.097 0 .235-.04.413-.122l.291.243a.299.299 0 01.243-.121.72.72 0 01.267.048.632.632 0 01.17-.097.975.975 0 00.146-.121.786.786 0 00.389 0 .548.548 0 01.388.048c.13-.048.243-.08.34-.097a.604.604 0 01.34 0 .978.978 0 00.194-.146.95.95 0 01.219-.121c.032.08.056.13.073.146.016 0 .056.016.121.048a.379.379 0 01.097-.073l.097-.097a.77.77 0 00.389-.097.548.548 0 01.388-.048c.065-.033.122-.057.17-.073a.618.618 0 00.146-.146c.162.097.283.121.364.073a.943.943 0 01.413-.073c.033 0 .097-.032.194-.097a.808.808 0 01.292-.146.67.67 0 01.17-.194c.065-.049.137-.097.218-.146a.821.821 0 01.122-.267l.145-.194a.953.953 0 00.122-.219.663.663 0 00.073-.34l.194-.194zm14.886-7.674h.413c.08.114.17.187.267.219a.626.626 0 01.315.146 1.2 1.2 0 00.122.073h.097c.032 0 .073.016.121.048.049.032.114.09.195.17l.194.219c.08.048.154.089.218.121a.428.428 0 01.17.17c.081.016.138.04.17.073.033.032.09.04.17.024.146.194.3.373.462.534.162.162.348.308.558.438a.57.57 0 00.073.218l.194.291c.081.098.162.187.243.268a.717.717 0 00.195.121c-.033.13-.049.202-.049.219.016 0 .04.064.073.194l.145.194.17.17c.114.13.17.235.17.316.017.08.106.186.268.316a3.67 3.67 0 00-.025.267l.049.097a.662.662 0 01.17.291c.049.114.13.21.243.291 0 .227.04.454.121.68.081.227.114.454.097.68a.626.626 0 01.097.17.458.458 0 01.025.146c.016.049.04.097.073.146.032.032.089.08.17.146-.033.032-.073.08-.122.145a.236.236 0 00-.048.122c.032.145.04.259.024.34 0 .08-.04.186-.122.315.065.146.09.267.073.364a.712.712 0 01-.048.268c-.033.08-.057.17-.073.267 0 .08.032.178.097.291-.016.114-.04.186-.073.219a.384.384 0 00-.073.097c-.016.016-.024.056-.024.121s.024.186.073.364c-.049.065-.09.13-.122.195a.631.631 0 01-.097.17 1.87 1.87 0 01-.097.34c-.032.13-.073.259-.121.388-.033.13-.065.251-.097.364a.77.77 0 00-.049.22c-.08.242-.186.469-.316.679-.097.065-.21.146-.34.243a.79.79 0 01.097.121c.05.033.09.065.122.097a3.584 3.584 0 00-.316.486c-.08.162-.194.3-.34.413-.032.13-.04.21-.024.243l-.267.17a.549.549 0 01-.097.242.617.617 0 00-.073.243.5.5 0 00-.243.195 1.506 1.506 0 00-.097.291c-.162-.016-.243-.016-.243 0s-.065.057-.194.122l-.34.34c-.13.129-.26.218-.389.267a.888.888 0 00-.364.194l-.291.243a.873.873 0 00-.437.097 4.308 4.308 0 00-.389.194 1.89 1.89 0 01-.51.17c-.162.032-.324.09-.486.17h-.17a.262.262 0 01-.145-.049 1.42 1.42 0 01-.194.17 1.617 1.617 0 01-.268.049c-.226.097-.356.146-.388.146a2.397 2.397 0 01-.194-.122c-.146.081-.276.13-.389.146h-.316a1.03 1.03 0 00-.315 0 .648.648 0 00-.292.073 1.61 1.61 0 01-.267-.049.261.261 0 00-.146-.048c-.032-.017-.08-.017-.145 0a2.278 2.278 0 00-.292.145l-.242-.048a1.267 1.267 0 01-.195-.122 2.896 2.896 0 01-.631-.121 1.564 1.564 0 01-.51-.34.46.46 0 01-.146-.024.261.261 0 00-.145-.049c-.13.016-.211 0-.243-.048a.304.304 0 00-.073-.122 1.63 1.63 0 01-.219-.073c-.016-.016-.089-.008-.218.025-.195-.13-.292-.21-.292-.243s-.089-.033-.267 0a.815.815 0 00-.17-.292.823.823 0 00-.218-.194 1.128 1.128 0 00-.219-.17.844.844 0 01-.17-.267l-.388-.146a8.712 8.712 0 00-.365-.145.694.694 0 010-.365 1.309 1.309 0 01-.145-.34c0-.08-.09-.162-.268-.242.033-.098.041-.17.025-.219a.3.3 0 00-.049-.17 1.344 1.344 0 00-.073-.17 1.021 1.021 0 01-.024-.243 1.541 1.541 0 01-.194-.583c0-.194-.016-.331-.049-.412a1.008 1.008 0 00-.145-.195c-.049-.048-.065-.13-.049-.242a1.587 1.587 0 00-.097-.17.958.958 0 00-.122-.146 1.078 1.078 0 00-.315-.729.826.826 0 00.097-.218c.016-.081-.032-.146-.146-.194v-.22a.36.36 0 01.097-.17 1.676 1.676 0 00-.048-.193c0-.049.024-.114.073-.195-.033-.178-.073-.3-.122-.364v-.194l.097-.194a.481.481 0 00-.048-.219c-.017-.08.008-.162.073-.243a2.203 2.203 0 01-.025-.728l.097-.729a.615.615 0 01.122.364c0 .13-.016.243-.049.34-.113-.097-.154-.21-.121-.34a4.37 4.37 0 01.121-.437 5.67 5.67 0 00.122-.412.934.934 0 01.097-.219c-.032-.113-.025-.202.024-.267a.946.946 0 00.121-.219c-.064-.13-.088-.226-.072-.291a.893.893 0 01.17-.219c.032-.275.097-.542.194-.801s.17-.526.218-.801c.146-.162.26-.284.34-.365.081-.097.146-.259.195-.485.13-.13.202-.219.218-.267.017-.049.065-.098.146-.146a.482.482 0 00.17-.146.289.289 0 01.194-.145.538.538 0 00.073-.17l.097-.195c.146 0 .251-.032.316-.097.194-.243.34-.38.437-.413.097-.032.186-.145.267-.34.146-.032.243-.08.291-.145a.52.52 0 01.292-.17c.016-.049.057-.122.121-.219.21 0 .38-.048.51-.146.146-.097.316-.153.51-.17.13-.08.251-.145.364-.194a.769.769 0 01.389-.097c.081-.048.194-.089.34-.121.146-.049.3-.081.461-.098.162-.032.316-.048.462-.048.162 0 .283.016.364.049.081-.065.138-.081.17-.05a.345.345 0 00.194.05.598.598 0 00.267-.098.728.728 0 01.389-.121c.097 0 .17.016.218.049a.569.569 0 01.146.097l.146.097a.398.398 0 00.218.048c.162 0 .3-.024.413-.073.13-.048.26.009.389.17zm3.57 7.334l.072-.17a.806.806 0 01-.121-.097l-.097-.146c0-.21-.04-.404-.122-.583a2.211 2.211 0 01-.17-.582c-.064-.033-.105-.073-.121-.122l-.049-.194a6.654 6.654 0 00-.291-.316.427.427 0 01-.121-.315c-.049.032-.114-.033-.195-.195a2.095 2.095 0 00-.145-.315.65.65 0 00-.122-.17 1.596 1.596 0 01-.097-.17l-.243-.097a.395.395 0 01-.17-.195.697.697 0 01-.364-.17c0-.13-.04-.226-.121-.291a.51.51 0 01-.17-.267.604.604 0 01-.267-.146c-.017-.065-.041-.105-.073-.121a.521.521 0 01-.122-.097.55.55 0 01-.34-.146c-.08-.081-.194-.09-.34-.024-.097-.065-.153-.13-.17-.195-.113-.032-.194-.04-.243-.024a.392.392 0 01-.17-.049c-.145-.145-.267-.226-.364-.242a.713.713 0 00-.267-.049c-.08.097-.21.13-.389.097a.95.95 0 01-.218.122c-.065.016-.138 0-.219-.049a.471.471 0 01-.242.097.714.714 0 01-.267-.048.713.713 0 00-.268-.049c-.113 0-.226.016-.34.049a1.37 1.37 0 01-.364 0 .462.462 0 01-.437.145c-.08.097-.162.154-.243.17a.949.949 0 00-.194.073c-.049.016-.097.065-.146.146a1.204 1.204 0 00-.146.364.734.734 0 00-.242-.073c-.049-.016-.09-.008-.122.024-.016.017-.048.05-.097.098a.526.526 0 01-.194.097l-.097.243a1.13 1.13 0 00-.364.315.736.736 0 01-.365.292.814.814 0 01-.17.291 3.67 3.67 0 00-.218.243c0 .08-.04.178-.122.291-.016.097-.065.162-.145.195-.033.13-.057.267-.073.412 0 .13-.04.26-.122.389a1.597 1.597 0 00-.097.17.713.713 0 00-.024.17c.032.162.032.267 0 .316l-.049.145a.338.338 0 00-.024.146c.016.049.057.138.122.267h-.268v.194c.016.065-.016.13-.097.195 0 .064.008.13.024.194a.631.631 0 01.025.194c-.049.049-.073.09-.073.122 0 .016-.016.048-.049.097.033.097.04.202.025.315v.34c-.13.162-.178.373-.146.632-.016.162-.049.275-.097.34-.033.194-.04.307-.024.34a.555.555 0 01.097.218.42.42 0 01.024.243c0 .065.008.138.024.219a.93.93 0 01.219.607c.016.21.064.364.145.461l.146.194c.065.049.081.114.049.195.08.097.121.17.121.218v.122c0 .032.016.064.049.097.032.016.113.048.243.097l-.122.121a.305.305 0 00-.073.122.217.217 0 01.122.145c.016.049.056.09.121.122.049.178.073.356.073.534.194.081.308.202.34.364a.914.914 0 00.316.413c.08-.016.17.024.267.122.048.08.105.121.17.121a.714.714 0 01.17-.024l-.025.242c.308.114.543.211.705.292.178.065.404.073.68.024.08.097.145.162.194.194.048.017.089.017.121 0a2.33 2.33 0 01.17-.048 1.02 1.02 0 01.243-.024c.097.113.178.161.243.145a.678.678 0 01.437-.024.459.459 0 00.146.024c.08.017.153-.016.218-.097.081-.097.21-.089.389.024a.766.766 0 01.413-.12c.162-.017.315-.017.461 0 .178-.179.397-.292.656-.34.275-.066.526-.122.753-.17.129-.147.323-.236.582-.268a1.01 1.01 0 01.316-.219c.113-.064.235-.13.364-.194.033-.08.065-.154.097-.218l.097-.243c.276-.243.478-.47.608-.68.145-.21.267-.437.364-.68a.563.563 0 00.145-.073c.017-.032.041-.073.073-.121.049-.21.065-.397.049-.559.08-.178.146-.3.194-.364.065-.065.057-.203-.024-.413.178-.113.267-.243.267-.389.016-.161.024-.331.024-.51.098-.161.154-.283.17-.364.017-.08.008-.21-.024-.388.097-.195.13-.43.097-.704a14.17 14.17 0 01-.024-.778c0-.08-.024-.129-.073-.145-.032-.033-.048-.081-.048-.146z"/>
  </mask>
  <path d="M18.636 35.428a.36.36 0 01-.17.097c-.064.016-.08.073-.048.17a1.386 1.386 0 00-.607.218.551.551 0 01-.607-.024c-.162.081-.34.162-.535.243-.178.081-.348.04-.51-.121-.129.178-.25.323-.364.437a.465.465 0 00-.145.34c0 .065.008.13.024.194a.538.538 0 01.024.17.92.92 0 01-.048.291.649.649 0 00-.049.243.163.163 0 01-.073.146c-.032.016-.048.04-.048.073.032.162.024.291-.025.388-.048.081-.024.146.073.195a.493.493 0 00-.17.34.978.978 0 01-.073.388.57.57 0 01-.121.194.522.522 0 00-.097.17 2.428 2.428 0 00-.073.365c0 .13-.016.259-.049.388.114.049.251.073.413.073.178-.016.308-.081.389-.194.08 0 .153.016.218.048a.651.651 0 00.243.049.3.3 0 00.17-.049.355.355 0 01.219-.073c.113 0 .21.025.291.073.097.049.186.105.267.17l.243.146c.097.048.194.08.291.097-.032.081-.032.138 0 .17.033.032.049.081.049.146-.065.226-.09.38-.073.461a.353.353 0 01-.024.219.572.572 0 00-.194.121c-.033.032-.04.097-.025.194a.86.86 0 00-.267.146.457.457 0 01-.267.121.335.335 0 01-.073.17c-.032.017-.04.065-.024.146-.049 0-.081-.024-.097-.073 0-.064-.016-.113-.049-.145a.548.548 0 01-.388.048c-.114-.032-.235-.008-.365.073a.51.51 0 00-.267-.17 1.076 1.076 0 00-.34-.048 2.577 2.577 0 00-.364-.025h-.316a.678.678 0 00-.097.17c.016.016.025.04.025.073a.423.423 0 01-.073.17 1.339 1.339 0 00-.073.17.598.598 0 00-.024.291.49.49 0 01-.025.267c-.032.195-.073.324-.121.39-.049.064-.073.218-.073.46 0 .114.008.227.024.34.016.098.025.203.025.316 0 .13-.033.203-.098.219-.048 0-.097.04-.145.121.016.081.032.17.048.267a.916.916 0 01.049.292c0 .113-.04.218-.122.315-.064.081-.137.17-.218.267a4.01 4.01 0 00-.243.268.757.757 0 00-.121.315 1.23 1.23 0 00-.292.146 3.16 3.16 0 00-.243.218.99.99 0 01-.607-.097 2.33 2.33 0 01-.51-.34 2.906 2.906 0 01-.073-.315 2.4 2.4 0 01-.024-.34c0-.227.049-.397.146-.51.097-.13.146-.227.146-.292a.165.165 0 00-.049-.121c-.016-.032-.016-.081 0-.146.113-.016.178-.105.194-.267.016-.178.081-.283.195-.316a2.945 2.945 0 01.145-1.068c.13-.356.178-.72.146-1.093a1.334 1.334 0 00-.364 0 .902.902 0 00-.219.025.458.458 0 00-.145.024.505.505 0 01-.195.024.458.458 0 01-.146-.024.538.538 0 00-.316 0 .458.458 0 01-.145.024.3.3 0 01-.17-.048c-.032-.05-.073-.073-.121-.073a.355.355 0 00-.219.073.482.482 0 01-.218.048c-.13-.065-.21-.08-.243-.048s-.097.048-.194.048a.54.54 0 01-.073.17.54.54 0 00-.073.17.917.917 0 00-.049.291.739.739 0 010 .267c-.048.195-.097.324-.145.39-.049.064-.073.218-.073.46 0 .114.008.227.024.34a.993.993 0 01.049.316c0 .13-.033.203-.098.219-.064 0-.121.04-.17.121.017.081.033.17.049.267a.917.917 0 01.049.292.558.558 0 01-.098.315c-.064.081-.137.17-.218.267a4.01 4.01 0 00-.243.268.756.756 0 00-.121.315 1.498 1.498 0 00-.535.364c-.21.033-.42 0-.631-.097a2.331 2.331 0 01-.51-.34 2.886 2.886 0 01-.073-.315 2.401 2.401 0 01-.024-.34c0-.227.048-.397.146-.51.097-.13.145-.227.145-.292a.165.165 0 00-.048-.121c-.016-.032-.016-.081 0-.146.065 0 .105-.024.121-.073a.95.95 0 00.073-.194c.032-.08.057-.146.073-.194.032-.065.073-.105.121-.122 0-.34.049-.671.146-.995.097-.324.154-.656.17-.996a.338.338 0 01-.146-.024.27.27 0 00-.121-.024 2.4 2.4 0 00-.34.024c-.097 0-.194.008-.292.024a.458.458 0 00-.145.025.215.215 0 01-.097.024.441.441 0 01-.316-.146.688.688 0 00-.291-.218c.032-.13.016-.21-.049-.243-.065-.049-.097-.122-.097-.219 0-.08.008-.137.024-.17.016-.032-.008-.08-.073-.146.033-.08 0-.121-.097-.121-.08 0-.105-.049-.073-.146.13 0 .219-.04.267-.121l.146-.243c.081.016.138 0 .17-.049.033-.048.097-.072.194-.072.114 0 .227.016.34.048a.504.504 0 00.365-.097c.08-.032.13-.016.145.049.016.048.057.072.122.072.13 0 .243-.008.34-.024.113-.032.226-.056.34-.073a1.7 1.7 0 01.121-.242c.049-.081.09-.162.121-.243.081-.26.138-.518.17-.777.049-.26.106-.518.17-.777l.098-.389c.048-.146.089-.283.121-.413.032-.178.057-.34.073-.486.016-.161.048-.331.097-.51.032-.178.073-.315.121-.412.065-.097.098-.243.098-.437-.227 0-.462.008-.705.024a3.35 3.35 0 00-.704.073c-.048-.081-.137-.113-.267-.097H7.32c-.08-.065-.121-.138-.121-.219 0-.08-.081-.113-.243-.097a1.602 1.602 0 01-.073-.607 8.81 8.81 0 01.073-.607.63.63 0 00.316-.267c.08.048.154.056.218.024a.355.355 0 01.219-.073c.08 0 .146.008.194.024.065.017.13.025.194.025.13 0 .243-.017.34-.049a1.32 1.32 0 01.365-.048c.145 0 .283.024.412.072.146.049.292.081.438.097v-.242c.145-.146.242-.332.29-.559a.96.96 0 01.292-.534c-.048-.146-.032-.267.049-.364a1.58 1.58 0 00.194-.365.413.413 0 00.049-.267c-.017-.097.016-.186.097-.267.097-.048.138-.089.121-.121a.4.4 0 01-.024-.122c0-.178.032-.34.097-.485a1.39 1.39 0 00.146-.486.915.915 0 01.291-.267.913.913 0 00.292-.267c.194-.033.388-.049.582-.049.195 0 .365.081.51.243.017.097.04.186.073.267a.51.51 0 01.073.267c0 .13-.016.219-.049.267a.335.335 0 00-.072.17l-.073.267c-.049.227-.081.332-.097.316-.017-.016-.04.016-.073.097a.205.205 0 00-.024.17c.016.049.008.105-.025.17a.968.968 0 01-.145.243.61.61 0 00-.146.243 1.343 1.343 0 00-.097.34c0 .113-.016.235-.049.364a1.543 1.543 0 01-.145.34 1.341 1.341 0 00-.098.364c.114 0 .203.025.268.073.064.033.129.073.194.122a.573.573 0 01.364-.073.625.625 0 00.389-.073c.129 0 .21.049.242.146a.398.398 0 00.098-.025.797.797 0 01.194-.024c.08-.016.154-.024.218-.024a.73.73 0 01.122-.024c.145.064.218.089.218.072.017-.016.04-.024.073-.024.049 0 .09.024.122.073a.233.233 0 00.17.073.739.739 0 000-.267c.145-.146.242-.332.29-.559a.96.96 0 01.292-.534c-.032-.146-.008-.267.073-.364a1.56 1.56 0 00.194-.365.518.518 0 00.025-.267.37.37 0 01.121-.267c.097-.048.13-.089.097-.121a.4.4 0 01-.024-.122c0-.178.032-.34.097-.485.081-.162.138-.324.17-.486a.915.915 0 01.291-.267.914.914 0 00.292-.267c.194-.033.38-.049.558-.049.195 0 .373.081.535.243.016.097.04.186.073.267a.51.51 0 01.072.267c0 .13-.016.219-.048.267a.52.52 0 00-.097.17l-.073.267c-.033.227-.065.332-.097.316-.017-.016-.04.016-.073.097a.205.205 0 00-.024.17.304.304 0 010 .17.741.741 0 01-.17.243.61.61 0 00-.146.243 1.343 1.343 0 00-.097.34 1.504 1.504 0 01-.194.728.915.915 0 00-.073.365c.13.113.242.145.34.097a.644.644 0 01.315-.097c.194.048.316.056.364.024a.263.263 0 01.195-.073.64.64 0 01.291.073c.097.032.186.065.267.097 0 .178.049.291.146.34.113.032.21.113.291.243-.064.146-.089.259-.072.34.016.08.04.194.072.34zm-4.59.631c-.145-.016-.29 0-.436.049-.13.032-.267.048-.413.048a.63.63 0 01-.194-.024.54.54 0 00-.17-.073c-.033-.016-.073-.016-.122 0h-.121a.3.3 0 01-.17-.048.366.366 0 00-.146-.122 1.235 1.235 0 00-.34-.048h-.291a.263.263 0 00-.195.072c-.048.033-.113.041-.194.025.049.178 0 .332-.146.461a.506.506 0 00-.194.389c0 .065.008.13.025.194a.54.54 0 01.024.17.92.92 0 01-.049.291.649.649 0 00-.048.243c-.065.194-.073.316-.025.364a1.248 1.248 0 01-.097.243c-.048.081-.024.146.073.195a.543.543 0 00-.194.364c0 .13-.024.25-.073.364a1.054 1.054 0 01-.097.194.522.522 0 00-.097.17 2.124 2.124 0 00-.122.535 3.09 3.09 0 01-.097.534c.243-.016.486-.016.729 0 .242.016.485.024.728.024a.233.233 0 00.17-.073.263.263 0 01.195-.073c.161.049.25.049.267 0 .016-.048.056-.072.121-.072.097 0 .194.008.291.024h.316a2.13 2.13 0 00.291-.874c.033-.324.09-.64.17-.947l.098-.389a5.62 5.62 0 00.121-.413c.032-.178.057-.34.073-.486.032-.161.065-.331.097-.51.032-.161.081-.29.146-.388.065-.097.097-.235.097-.413zm8.573 3.667a.505.505 0 01.024.194c.016.081.024.17.024.267a.88.88 0 010 .292c0 .08-.008.13-.024.145a.648.648 0 00.122.17.482.482 0 01.145.17.315.315 0 000 .243.482.482 0 01.049.219c-.049.065-.065.113-.049.146a.379.379 0 01.073.097c.113.178.162.315.146.413 0 .08.032.186.097.315.097.26.162.421.194.486.033.048.097.137.194.267v.267c.065.081.122.17.17.267.05.097.098.186.146.267.081.081.162.154.243.219.081.065.113.162.097.291.081.097.17.195.267.292.114.08.21.178.292.291.178 0 .323.081.437.243h.267c.13.13.275.218.437.267.162.049.332.09.51.121a2.01 2.01 0 00-.049.219c.017 0 .025.008.025.024.226-.08.404-.072.534.025a.857.857 0 00.486.145c.194-.048.307-.065.34-.048l.097.048a.43.43 0 00.194-.048.323.323 0 01.194-.073.27.27 0 01.122.024.398.398 0 00.121.024c.13.017.324-.008.583-.072.259-.081.437-.162.534-.243.178.064.308.08.389.048.097-.048.218-.08.364-.097.097-.08.194-.146.291-.194a6.58 6.58 0 00.316-.17c.049-.016.08-.04.097-.073a.434.434 0 01.122-.121.756.756 0 00.315-.122 1.59 1.59 0 01.292-.194l.218-.219c.065 0 .13-.04.195-.121a5.36 5.36 0 00.194-.316c.065-.13.121-.25.17-.364a1.2 1.2 0 01.17-.243v-.364c.13-.016.21-.057.242-.121a.648.648 0 01.243-.219c-.016-.08-.008-.146.025-.194.048-.049.056-.114.024-.194a.236.236 0 00.048-.122.305.305 0 01.073-.121c.114-.178.114-.38 0-.607-.113-.243-.226-.421-.34-.535a.496.496 0 00-.218 0 .596.596 0 00-.219.049.937.937 0 00-.461-.121 1.185 1.185 0 01-.461-.146h-.389c-.081 0-.194-.049-.34-.146-.259 0-.47.016-.631.049a.628.628 0 01-.413-.098.311.311 0 00-.195.122c-.032.048-.113.073-.242.073a.763.763 0 00-.534-.097c-.195.032-.381.064-.56.097a.422.422 0 01-.169.073c-.016 0-.016.056 0 .17l-.291-.097a.992.992 0 00-.316-.05.798.798 0 00-.194.025.902.902 0 01-.219.025 1.1 1.1 0 01-.389-.073.97.97 0 00-.364-.122 5.317 5.317 0 00-.243-.583 1.725 1.725 0 01-.097-.631c.065-.016.105-.04.122-.073.032-.032.089-.048.17-.048.048-.13.13-.21.242-.243a.662.662 0 00.316-.17c.097 0 .195.008.292.024.097.016.194.024.291.024.162 0 .316-.032.461-.097a.587.587 0 01.462-.048.949.949 0 01.194-.073c.065-.033.122-.065.17-.097.081.016.21.032.389.048.178 0 .3-.016.364-.048h.267c.065-.017.121-.033.17-.049a.431.431 0 01.194-.048c.162 0 .332.024.51.072.178.049.356.09.534.122.195.032.373.048.535.048a.767.767 0 00.437-.194c.097.032.194.057.291.073a2.4 2.4 0 00.34.024c.13 0 .251-.048.364-.145.13-.098.284-.098.462 0a1.3 1.3 0 01.631-.098c.243 0 .462.017.656.049.097.08.17.162.218.243a.659.659 0 00.292.194c.016.081.024.162.024.243a.83.83 0 00.097.218l-.097.195c-.016.048-.04.105-.073.17.081.226.162.445.243.655.08.21.089.446.024.705.033.097.073.194.122.291.048.08.089.178.121.291-.08.195-.194.357-.34.486 0 .275-.04.542-.121.801-.081.26-.13.527-.146.802-.08 0-.138.032-.17.097a.542.542 0 00-.073.17c-.016.048-.04.105-.073.17-.032.048-.089.073-.17.073a.262.262 0 01.049.145c.016.049-.008.09-.073.122a.307.307 0 01-.146.17c-.048.016-.105.04-.17.073 0 .113-.048.21-.145.291a.583.583 0 00-.195.291c-.178.033-.275.057-.291.073a.721.721 0 01-.097.073v.267a1.43 1.43 0 00-.364.146c-.097.065-.154.178-.17.34h-.268a.27.27 0 00-.12.024.714.714 0 00-.074.097.711.711 0 01-.121.195c-.13.064-.267.113-.413.145-.146.033-.235.138-.267.316l-.486.097a.933.933 0 00-.437.219h-.267a2.738 2.738 0 01-.947.485.626.626 0 00-.316.146c-.097 0-.17-.056-.218-.17a1.103 1.103 0 01-.267-.048.187.187 0 00-.073-.025.187.187 0 00-.073.025c-.016.016-.057.024-.122.024-.145-.049-.25-.04-.315.024a.64.64 0 01-.389.024c-.113-.048-.21-.008-.291.122a1.562 1.562 0 00-.802-.17l-.8.048a.608.608 0 00-.316-.291 1.166 1.166 0 00-.413-.073c0-.08-.025-.137-.073-.17a.308.308 0 00-.146-.073 2.285 2.285 0 00-.17-.048.236.236 0 01-.097-.146 6.705 6.705 0 01-.607-.121.846.846 0 01-.462-.34c-.161-.114-.267-.17-.315-.17a1.088 1.088 0 01-.194-.097.79.79 0 00-.098-.122.236.236 0 00-.145-.097c-.049-.032-.13-.04-.243-.024a.648.648 0 00-.146-.219.946.946 0 01-.121-.218c-.114-.033-.17-.057-.17-.073 0-.033-.016-.065-.049-.097a.309.309 0 00-.145-.073l-.146-.073a.583.583 0 00-.194-.316.494.494 0 01-.146-.364.164.164 0 00-.122-.049.305.305 0 01-.121-.072c.032-.081.032-.13 0-.146-.016-.032-.073-.065-.17-.097a.786.786 0 000-.389 1.341 1.341 0 00-.097-.364 3.316 3.316 0 00-.17-.34 1.706 1.706 0 01-.097-.389 247.19 247.19 0 01-.073-.145c0-.033-.049-.04-.146-.025-.016-.08-.016-.129 0-.145a.562.562 0 00.073-.122c0-.048-.032-.13-.097-.242-.049-.114-.097-.187-.146-.219 0-.178-.024-.356-.073-.534a.855.855 0 00-.243-.462c.033-.178.041-.34.025-.485 0-.146-.049-.3-.146-.462a2.99 2.99 0 00.097-.291.952.952 0 00.073-.316 20.33 20.33 0 01-.024-.898c0-.26.048-.502.145-.729-.08-.162-.113-.283-.097-.364.033-.097.057-.186.073-.267a.739.739 0 000-.267c-.016-.081-.08-.146-.194-.195-.016-.097-.016-.153 0-.17a1.1 1.1 0 00.146-.097c0-.372.056-.68.17-.922.13-.243.17-.486.121-.729.049-.162.097-.267.146-.316.064-.064.08-.194.048-.388.146-.049.243-.105.292-.17.064-.081.154-.162.267-.243a.995.995 0 01.121-.389.52.52 0 01.316-.267c0-.13.024-.226.073-.291a.49.49 0 00.097-.316c.097-.162.162-.267.194-.315.033-.049.04-.13.024-.243a6.21 6.21 0 00.243-.195 4.389 4.389 0 00.51-.607c.081-.113.122-.21.122-.291.113.016.178.008.194-.024.032-.049.089-.073.17-.073.032-.032.04-.073.024-.122v-.121c.356-.097.64-.275.85-.534.178 0 .308-.024.389-.073.097-.049.21-.113.34-.194.194.048.356.04.485-.025a.853.853 0 01.462-.121c.113 0 .218.016.315.049a2.4 2.4 0 00.34.024.68.68 0 00.34-.097.812.812 0 00.365.073c.145 0 .283-.009.412-.025.146-.016.276-.016.389 0 .13 0 .235.04.316.122a.52.52 0 00.17-.097c.032-.033.089-.049.17-.049.13.049.267.089.412.121a.79.79 0 01.413.219c.114-.032.219-.049.316-.049a.565.565 0 01.34.073c.08 0 .13-.016.146-.048a.368.368 0 01.145-.122c.21.097.332.146.365.146.048-.016.105-.008.17.024a.318.318 0 01.145.146.916.916 0 00.146.121c.049.033.113.081.194.146a5.89 5.89 0 00.632.267c.113.032.194.04.242.024a.493.493 0 01.098.268c.13-.017.218 0 .267.048a.85.85 0 01.17.17c.048.049.105.097.17.146.064.048.17.065.315.048a.9.9 0 00.17.413c.081.097.21.162.389.195-.032.097-.016.153.048.17.081.016.106.08.073.194.049.113.13.194.243.242.113.033.178.138.194.316.065.016.122.033.17.049a1.6 1.6 0 01.219.073 1.373 1.373 0 01-.146.437c-.048.097-.04.235.025.413a.642.642 0 00-.195.242c-.032.081-.137.122-.316.122a.275.275 0 00-.097.097c-.016.032-.056.065-.121.097a.98.98 0 00-.364-.024.973.973 0 00-.34.145c-.13-.032-.26-.08-.389-.145a.446.446 0 01-.218-.292 1.14 1.14 0 01-.437-.34 1.487 1.487 0 00-.413-.364c-.016-.113-.04-.178-.073-.194a.27.27 0 01-.024-.122c-.13-.097-.21-.186-.243-.267-.114 0-.195-.024-.243-.072-.032-.049-.113-.057-.243-.025a.307.307 0 00-.146-.17.484.484 0 01-.145-.17 2.307 2.307 0 00-.437-.145 1.449 1.449 0 01-.413-.219 2.413 2.413 0 00-.364-.073.503.503 0 01-.292-.146.237.237 0 00-.121.049.416.416 0 01-.17.024.676.676 0 00-.34-.17.583.583 0 01-.316-.194c-.178-.016-.348 0-.51.049a2.241 2.241 0 01-.485.048.599.599 0 01-.34-.097.483.483 0 00-.535-.073.538.538 0 01-.17.024h-.17a.458.458 0 00-.145-.024h-.17a.458.458 0 00-.146.024c-.049.033-.073.114-.073.243a1.02 1.02 0 00-.486.365 2.044 2.044 0 00-.242.534c-.162.016-.268.073-.316.17a.462.462 0 01-.267.218c.016.114-.008.195-.073.243-.049.033-.065.105-.049.219-.08.08-.17.162-.267.243-.08.08-.17.162-.267.242.016.081 0 .146-.048.195-.033.048-.033.121 0 .218-.114.065-.21.146-.292.243a.87.87 0 01-.316.194c.049.178-.008.308-.17.389a5.671 5.671 0 00-.024.51 1.5 1.5 0 01-.024.461c-.032.13-.073.251-.122.364a.59.59 0 00-.048.34c.032.114.032.187 0 .219-.016.016.024.049.121.097l-.097.146-.073.145c0 .308.017.567.049.778.048.21.008.461-.122.752 0 .049.017.098.049.146.049.032.073.073.073.121a.165.165 0 01-.049.122c-.016.032-.04.073-.072.121.016.081.04.13.072.146.033.016-.008.073-.121.17zm25.57-8.96a.676.676 0 01.292-.05.82.82 0 00.218.195c.081.032.17.073.268.121.097.033.186.073.267.122a.601.601 0 01.17.073c.113.032.218.073.315.121a.443.443 0 01.267.219.91.91 0 01.413.218c.097.081.26.138.486.17.08.34.194.591.34.753.146.146.316.348.51.607 0 .178.032.34.097.486a.982.982 0 01.121.485c0 .146-.024.292-.073.438a1.906 1.906 0 000 .85c.05.13.073.259.073.388 0 .13-.016.227-.048.291.065.114.089.187.073.219 0 .016.064.065.194.146a4.91 4.91 0 01-.121.194.216.216 0 00-.025.097v.122a.416.416 0 01.024.17c0 .097-.016.17-.048.218a.612.612 0 01-.073.146 3.28 3.28 0 01-.073.194.993.993 0 000 .316c-.113.064-.178.13-.194.194a.217.217 0 01-.121.146.799.799 0 01.048.243c-.113.097-.178.186-.194.267 0 .08-.04.17-.122.267.017.08.025.154.025.218a.56.56 0 00.048.195c-.064.13-.145.202-.243.218-.016.081-.089.138-.218.17v.146c0 .032.008.065.024.097a.976.976 0 00-.267.024.38.38 0 00-.097.073.73.73 0 00-.073.097.418.418 0 01-.121.122c-.049.13-.106.234-.17.315-.049.081-.146.09-.292.025a2.399 2.399 0 01-.315.194c-.097.032-.195.113-.292.243a.821.821 0 00-.388.121l-.438.219c-.161.08-.34.162-.534.242a1.906 1.906 0 01-.607.098c-.097.032-.194.08-.291.145-.081.049-.17.033-.267-.048-.26.032-.51.089-.753.17a2.47 2.47 0 01-.777.121c-.049 0-.138-.016-.267-.048a4.91 4.91 0 01-.122.194c-.016.032-.08.057-.194.073-.227-.033-.372-.04-.437-.024a1.409 1.409 0 01-.34.024h-.194a.798.798 0 00-.195-.024.648.648 0 00-.291.072.712.712 0 01-.267.049 1.537 1.537 0 01-.437.073 5.335 5.335 0 01-.292-.049c-.145.065-.259.09-.34.073-.016.13-.016.267 0 .413.017.13.04.259.073.388a.618.618 0 00-.145.146l-.098.146c.081.097.122.178.122.243v.218c0 .065.008.154.024.267.032.097.105.219.219.364-.033.114-.04.195-.025.243a.299.299 0 01.049.17c0 .097-.024.17-.073.219a.569.569 0 00-.097.146.496.496 0 000 .218c.016.065.024.13.024.194 0 .162-.04.316-.121.462-.081.13-.146.259-.194.388-.114.017-.178.033-.195.049 0 .016-.04.04-.121.073a.872.872 0 01-.194.316.87.87 0 00-.195.315.391.391 0 01-.315.146 1.568 1.568 0 00-.389 0l-.097-.194a.95.95 0 00-.121-.219.3.3 0 01-.146-.218c-.13-.081-.194-.146-.194-.195.016-.048-.017-.097-.098-.145a1.195 1.195 0 000-.34c0-.13.017-.243.05-.34a.55.55 0 01-.147-.365c0-.08.017-.137.049-.17a.52.52 0 00.097-.17c.081-.194.09-.429.024-.704a1.142 1.142 0 01.122-.777l-.097-.243c0-.097.008-.154.024-.17a.52.52 0 00.097-.17c-.113-.194-.138-.332-.073-.413 0-.13-.024-.218-.073-.267-.048-.064-.04-.178.025-.34a.907.907 0 00-.025-.218c0-.065.008-.138.025-.219a.735.735 0 00-.243-.073c0-.08.008-.178.024-.291a.3.3 0 01.219-.219 4.472 4.472 0 01-.025-.8 6.95 6.95 0 00.049-.827c0-.178-.024-.356-.073-.534a2.545 2.545 0 01-.049-.437 3.824 3.824 0 01-.048-.388.54.54 0 01.024-.17.394.394 0 000-.195c0-.064-.04-.162-.121-.291.113-.113.154-.21.121-.291a.518.518 0 010-.316c-.097-.227-.137-.43-.121-.607.032-.195.048-.405.048-.632a.62.62 0 01-.145-.364v-.388a.916.916 0 00-.049-.292.992.992 0 01-.048-.316c-.081-.129-.114-.21-.098-.242a.302.302 0 010-.17.798.798 0 00-.048-.535 1.101 1.101 0 01-.073-.388.4.4 0 01.024-.121.4.4 0 00.025-.122.556.556 0 00-.073-.291c-.049-.081-.049-.186 0-.316l-.195-.389c-.048-.097-.048-.234 0-.412a.8.8 0 01-.048-.243 1.44 1.44 0 01.194-.632.93.93 0 01.51-.412.715.715 0 01.316-.025.523.523 0 00.34-.072c.162-.017.283.032.364.145.21-.048.348-.065.413-.048.065.016.162.024.291.024.049 0 .09-.016.122-.049a.8.8 0 01.097-.121c.08.032.154.065.218.097.065.016.138.032.219.049.308-.13.623-.235.947-.316.34-.081.672-.049.995.097.082-.016.146-.032.195-.049a.345.345 0 01.194-.048c.178.097.405.146.68.146.291 0 .55.024.777.073.146.016.235.032.267.048.049 0 .09.016.122.049a.951.951 0 01.121.048c.049.016.113.008.194-.024l.146.097c.065.032.121.065.17.097a.224.224 0 01.146 0h.17a.458.458 0 00.145-.024c.049-.032.09-.057.122-.073a.903.903 0 01.218-.024h.219c.065-.049.162-.024.291.073.13.08.219.162.267.242zm1.336 7.163l.049-.049c-.017-.129.016-.226.097-.29a.51.51 0 00.17-.268c-.065-.13-.081-.3-.049-.51a4.1 4.1 0 00.049-.558.764.764 0 00-.097-.243.647.647 0 01-.073-.292c-.114-.372-.105-.68.024-.922a1.282 1.282 0 01-.073-.268 1.38 1.38 0 00-.024-.267.725.725 0 00-.194-.364.945.945 0 01-.219-.34 2.81 2.81 0 01-.364-.146 1.504 1.504 0 00-.267-.17 1.219 1.219 0 00-.292-.121 1.222 1.222 0 00-.437-.024.8.8 0 00-.097-.122.794.794 0 00-.097-.121c-.13 0-.219-.024-.267-.073a.37.37 0 00-.194-.097c-.081-.033-.235-.057-.462-.073a3.817 3.817 0 00-.388-.049c-.21.033-.357.049-.438.049-.08 0-.218-.04-.412-.121a.768.768 0 00-.535-.049.892.892 0 00-.364-.243c-.113-.032-.259-.016-.437.049-.113-.097-.227-.138-.34-.122-.113 0-.235.017-.364.049a.305.305 0 00-.122-.073.306.306 0 01-.121-.073c-.162.178-.372.227-.631.146a.543.543 0 01-.17.073l-.146.048a.837.837 0 01-.291.292c-.098.097-.203.121-.316.072-.13-.129-.308-.137-.534-.024a.72.72 0 00.048.267c.049.065.033.138-.048.219.097.227.121.364.073.413-.05.048-.065.137-.05.267a.745.745 0 01.122.291c.017.097.025.203.025.316.016.097.032.202.048.316.033.113.09.226.17.34-.097.161-.113.307-.048.437a.73.73 0 01.048.461.556.556 0 01.122.316c.016.097.08.21.194.34a2.393 2.393 0 00-.243.145c0 .162.024.3.073.413.065.097.048.227-.049.389.049.08.09.186.122.316.048.113.056.21.024.29a.369.369 0 01.049.365c.016.21.04.397.072.559.033.145.049.323.049.534a.47.47 0 01.097.461c-.032.178-.048.34-.048.486a4.87 4.87 0 01.388-.024c.097 0 .235-.04.413-.122l.291.243a.299.299 0 01.243-.121.72.72 0 01.267.048.632.632 0 01.17-.097.975.975 0 00.146-.121.786.786 0 00.389 0 .548.548 0 01.388.048c.13-.048.243-.08.34-.097a.604.604 0 01.34 0 .978.978 0 00.194-.146.95.95 0 01.219-.121c.032.08.056.13.073.146.016 0 .056.016.121.048a.379.379 0 01.097-.073l.097-.097a.77.77 0 00.389-.097.548.548 0 01.388-.048c.065-.033.122-.057.17-.073a.618.618 0 00.146-.146c.162.097.283.121.364.073a.943.943 0 01.413-.073c.033 0 .097-.032.194-.097a.808.808 0 01.292-.146.67.67 0 01.17-.194c.065-.049.137-.097.218-.146a.821.821 0 01.122-.267l.145-.194a.953.953 0 00.122-.219.663.663 0 00.073-.34l.194-.194zm14.886-7.674h.413c.08.114.17.187.267.219a.626.626 0 01.315.146 1.2 1.2 0 00.122.073h.097c.032 0 .073.016.121.048.049.032.114.09.195.17l.194.219c.08.048.154.089.218.121a.428.428 0 01.17.17c.081.016.138.04.17.073.033.032.09.04.17.024.146.194.3.373.462.534.162.162.348.308.558.438a.57.57 0 00.073.218l.194.291c.081.098.162.187.243.268a.717.717 0 00.195.121c-.033.13-.049.202-.049.219.016 0 .04.064.073.194l.145.194.17.17c.114.13.17.235.17.316.017.08.106.186.268.316a3.67 3.67 0 00-.025.267l.049.097a.662.662 0 01.17.291c.049.114.13.21.243.291 0 .227.04.454.121.68.081.227.114.454.097.68a.626.626 0 01.097.17.458.458 0 01.025.146c.016.049.04.097.073.146.032.032.089.08.17.146-.033.032-.073.08-.122.145a.236.236 0 00-.048.122c.032.145.04.259.024.34 0 .08-.04.186-.122.315.065.146.09.267.073.364a.712.712 0 01-.048.268c-.033.08-.057.17-.073.267 0 .08.032.178.097.291-.016.114-.04.186-.073.219a.384.384 0 00-.073.097c-.016.016-.024.056-.024.121s.024.186.073.364c-.049.065-.09.13-.122.195a.631.631 0 01-.097.17 1.87 1.87 0 01-.097.34c-.032.13-.073.259-.121.388-.033.13-.065.251-.097.364a.77.77 0 00-.049.22c-.08.242-.186.469-.316.679-.097.065-.21.146-.34.243a.79.79 0 01.097.121c.05.033.09.065.122.097a3.584 3.584 0 00-.316.486c-.08.162-.194.3-.34.413-.032.13-.04.21-.024.243l-.267.17a.549.549 0 01-.097.242.617.617 0 00-.073.243.5.5 0 00-.243.195 1.506 1.506 0 00-.097.291c-.162-.016-.243-.016-.243 0s-.065.057-.194.122l-.34.34c-.13.129-.26.218-.389.267a.888.888 0 00-.364.194l-.291.243a.873.873 0 00-.437.097 4.308 4.308 0 00-.389.194 1.89 1.89 0 01-.51.17c-.162.032-.324.09-.486.17h-.17a.262.262 0 01-.145-.049 1.42 1.42 0 01-.194.17 1.617 1.617 0 01-.268.049c-.226.097-.356.146-.388.146a2.397 2.397 0 01-.194-.122c-.146.081-.276.13-.389.146h-.316a1.03 1.03 0 00-.315 0 .648.648 0 00-.292.073 1.61 1.61 0 01-.267-.049.261.261 0 00-.146-.048c-.032-.017-.08-.017-.145 0a2.278 2.278 0 00-.292.145l-.242-.048a1.267 1.267 0 01-.195-.122 2.896 2.896 0 01-.631-.121 1.564 1.564 0 01-.51-.34.46.46 0 01-.146-.024.261.261 0 00-.145-.049c-.13.016-.211 0-.243-.048a.304.304 0 00-.073-.122 1.63 1.63 0 01-.219-.073c-.016-.016-.089-.008-.218.025-.195-.13-.292-.21-.292-.243s-.089-.033-.267 0a.815.815 0 00-.17-.292.823.823 0 00-.218-.194 1.128 1.128 0 00-.219-.17.844.844 0 01-.17-.267l-.388-.146a8.712 8.712 0 00-.365-.145.694.694 0 010-.365 1.309 1.309 0 01-.145-.34c0-.08-.09-.162-.268-.242.033-.098.041-.17.025-.219a.3.3 0 00-.049-.17 1.344 1.344 0 00-.073-.17 1.021 1.021 0 01-.024-.243 1.541 1.541 0 01-.194-.583c0-.194-.016-.331-.049-.412a1.008 1.008 0 00-.145-.195c-.049-.048-.065-.13-.049-.242a1.587 1.587 0 00-.097-.17.958.958 0 00-.122-.146 1.078 1.078 0 00-.315-.729.826.826 0 00.097-.218c.016-.081-.032-.146-.146-.194v-.22a.36.36 0 01.097-.17 1.676 1.676 0 00-.048-.193c0-.049.024-.114.073-.195-.033-.178-.073-.3-.122-.364v-.194l.097-.194a.481.481 0 00-.048-.219c-.017-.08.008-.162.073-.243a2.203 2.203 0 01-.025-.728l.097-.729a.615.615 0 01.122.364c0 .13-.016.243-.049.34-.113-.097-.154-.21-.121-.34a4.37 4.37 0 01.121-.437 5.67 5.67 0 00.122-.412.934.934 0 01.097-.219c-.032-.113-.025-.202.024-.267a.946.946 0 00.121-.219c-.064-.13-.088-.226-.072-.291a.893.893 0 01.17-.219c.032-.275.097-.542.194-.801s.17-.526.218-.801c.146-.162.26-.284.34-.365.081-.097.146-.259.195-.485.13-.13.202-.219.218-.267.017-.049.065-.098.146-.146a.482.482 0 00.17-.146.289.289 0 01.194-.145.538.538 0 00.073-.17l.097-.195c.146 0 .251-.032.316-.097.194-.243.34-.38.437-.413.097-.032.186-.145.267-.34.146-.032.243-.08.291-.145a.52.52 0 01.292-.17c.016-.049.057-.122.121-.219.21 0 .38-.048.51-.146.146-.097.316-.153.51-.17.13-.08.251-.145.364-.194a.769.769 0 01.389-.097c.081-.048.194-.089.34-.121.146-.049.3-.081.461-.098.162-.032.316-.048.462-.048.162 0 .283.016.364.049.081-.065.138-.081.17-.05a.345.345 0 00.194.05.598.598 0 00.267-.098.728.728 0 01.389-.121c.097 0 .17.016.218.049a.569.569 0 01.146.097l.146.097a.398.398 0 00.218.048c.162 0 .3-.024.413-.073.13-.048.26.009.389.17zm3.57 7.334l.072-.17a.806.806 0 01-.121-.097l-.097-.146c0-.21-.04-.404-.122-.583a2.211 2.211 0 01-.17-.582c-.064-.033-.105-.073-.121-.122l-.049-.194a6.654 6.654 0 00-.291-.316.427.427 0 01-.121-.315c-.049.032-.114-.033-.195-.195a2.095 2.095 0 00-.145-.315.65.65 0 00-.122-.17 1.596 1.596 0 01-.097-.17l-.243-.097a.395.395 0 01-.17-.195.697.697 0 01-.364-.17c0-.13-.04-.226-.121-.291a.51.51 0 01-.17-.267.604.604 0 01-.267-.146c-.017-.065-.041-.105-.073-.121a.521.521 0 01-.122-.097.55.55 0 01-.34-.146c-.08-.081-.194-.09-.34-.024-.097-.065-.153-.13-.17-.195-.113-.032-.194-.04-.243-.024a.392.392 0 01-.17-.049c-.145-.145-.267-.226-.364-.242a.713.713 0 00-.267-.049c-.08.097-.21.13-.389.097a.95.95 0 01-.218.122c-.065.016-.138 0-.219-.049a.471.471 0 01-.242.097.714.714 0 01-.267-.048.713.713 0 00-.268-.049c-.113 0-.226.016-.34.049a1.37 1.37 0 01-.364 0 .462.462 0 01-.437.145c-.08.097-.162.154-.243.17a.949.949 0 00-.194.073c-.049.016-.097.065-.146.146a1.204 1.204 0 00-.146.364.734.734 0 00-.242-.073c-.049-.016-.09-.008-.122.024-.016.017-.048.05-.097.098a.526.526 0 01-.194.097l-.097.243a1.13 1.13 0 00-.364.315.736.736 0 01-.365.292.814.814 0 01-.17.291 3.67 3.67 0 00-.218.243c0 .08-.04.178-.122.291-.016.097-.065.162-.145.195-.033.13-.057.267-.073.412 0 .13-.04.26-.122.389a1.597 1.597 0 00-.097.17.713.713 0 00-.024.17c.032.162.032.267 0 .316l-.049.145a.338.338 0 00-.024.146c.016.049.057.138.122.267h-.268v.194c.016.065-.016.13-.097.195 0 .064.008.13.024.194a.631.631 0 01.025.194c-.049.049-.073.09-.073.122 0 .016-.016.048-.049.097.033.097.04.202.025.315v.34c-.13.162-.178.373-.146.632-.016.162-.049.275-.097.34-.033.194-.04.307-.024.34a.555.555 0 01.097.218.42.42 0 01.024.243c0 .065.008.138.024.219a.93.93 0 01.219.607c.016.21.064.364.145.461l.146.194c.065.049.081.114.049.195.08.097.121.17.121.218v.122c0 .032.016.064.049.097.032.016.113.048.243.097l-.122.121a.305.305 0 00-.073.122.217.217 0 01.122.145c.016.049.056.09.121.122.049.178.073.356.073.534.194.081.308.202.34.364a.914.914 0 00.316.413c.08-.016.17.024.267.122.048.08.105.121.17.121a.714.714 0 01.17-.024l-.025.242c.308.114.543.211.705.292.178.065.404.073.68.024.08.097.145.162.194.194.048.017.089.017.121 0a2.33 2.33 0 01.17-.048 1.02 1.02 0 01.243-.024c.097.113.178.161.243.145a.678.678 0 01.437-.024.459.459 0 00.146.024c.08.017.153-.016.218-.097.081-.097.21-.089.389.024a.766.766 0 01.413-.12c.162-.017.315-.017.461 0 .178-.179.397-.292.656-.34.275-.066.526-.122.753-.17.129-.147.323-.236.582-.268a1.01 1.01 0 01.316-.219c.113-.064.235-.13.364-.194.033-.08.065-.154.097-.218l.097-.243c.276-.243.478-.47.608-.68.145-.21.267-.437.364-.68a.563.563 0 00.145-.073c.017-.032.041-.073.073-.121.049-.21.065-.397.049-.559.08-.178.146-.3.194-.364.065-.065.057-.203-.024-.413.178-.113.267-.243.267-.389.016-.161.024-.331.024-.51.098-.161.154-.283.17-.364.017-.08.008-.21-.024-.388.097-.195.13-.43.097-.704a14.17 14.17 0 01-.024-.778c0-.08-.024-.129-.073-.145-.032-.033-.048-.081-.048-.146z" fill="#292929" stroke="#000" stroke-width="2" mask="url(#a)"/>
</svg>
