<?xml version="1.0" encoding="UTF-8"?>
<!DOCTYPE svg PUBLIC "-//W3C//DTD SVG 1.1//EN" "http://www.w3.org/Graphics/SVG/1.1/DTD/svg11.dtd">
<!-- Creator: CorelDRAW 2018 (64-Bit) -->
<svg xmlns="http://www.w3.org/2000/svg" xml:space="preserve" width="270px" height="55px" version="1.1" style="shape-rendering:geometricPrecision; text-rendering:geometricPrecision; image-rendering:optimizeQuality; fill-rule:evenodd; clip-rule:evenodd"
viewBox="0 0 270 55"
 xmlns:xlink="http://www.w3.org/1999/xlink">
 <defs>
  <style type="text/css">
   <![CDATA[
    .str1 {stroke:black;stroke-width:1.25;stroke-miterlimit:22.9256}
    .str0 {stroke:black;stroke-width:2.08;stroke-miterlimit:22.9256}
    .fil1 {fill:none;fill-rule:nonzero}
    .fil0 {fill:#FFFF34;fill-rule:nonzero}
   ]]>
  </style>
    <clipPath id="id0">
     <path d="M63.99 3.27l50.01 0 0 51.33 -50.01 0 0 -51.33z"/>
    </clipPath>
    <clipPath id="id1">
     <path d="M118.13 2.07l92.37 0 0 53.08 -92.37 0 0 -53.08z"/>
    </clipPath>
 </defs>
 <g id="Layer_x0020_1">
  <metadata id="CorelCorpID_0Corel-Layer"/>
  <g id="_1720699071456">
  </g>
  <path class="fil0" d="M62.47 50.28l0 -48.28 12.51 0c2.99,0 5.59,0.68 7.78,2.04 2.21,1.35 3.31,3.53 3.31,6.5l0 6.7c0,3.39 -2.07,5.77 -6.19,7.16 4.35,1.08 6.53,3.41 6.53,6.98l0 9.37c0,3.18 -1.04,5.57 -3.12,7.15 -2.08,1.58 -4.56,2.38 -7.44,2.38l-13.38 0zm13.59 -31.32l0 -8.22c0,-1.69 -0.99,-2.53 -2.96,-2.53l0 13.31c1.97,0 2.96,-0.85 2.96,-2.56zm0 22.55l0 -12.22c0,-1.69 -0.99,-2.53 -2.96,-2.53l0 17.31c1.97,0 2.96,-0.85 2.96,-2.56z"/>
  <polygon id="1" class="fil0" points="109.43,50.28 88.67,50.28 88.67,2 109.29,2 109.29,8.21 99.29,8.21 99.29,21.24 108.31,21.24 108.31,27.11 99.29,27.11 99.29,44.07 109.43,44.07 "/>
  <path id="2" class="fil1 str0" d="M62.47 50.28l0 -48.28 12.51 0c2.99,0 5.59,0.68 7.78,2.04 2.21,1.35 3.31,3.53 3.31,6.5l0 6.7c0,3.39 -2.07,5.77 -6.19,7.16 4.35,1.08 6.53,3.41 6.53,6.98l0 9.37c0,3.18 -1.04,5.57 -3.12,7.15 -2.08,1.58 -4.56,2.38 -7.44,2.38l-13.38 0zm13.59 -31.32l0 -8.22c0,-1.69 -0.99,-2.53 -2.96,-2.53l0 13.31c1.97,0 2.96,-0.85 2.96,-2.56zm0 22.55l0 -12.22c0,-1.69 -0.99,-2.53 -2.96,-2.53l0 17.31c1.97,0 2.96,-0.85 2.96,-2.56z"/>
  <polygon id="3" class="fil1 str0" points="109.43,50.28 88.67,50.28 88.67,2 109.29,2 109.29,8.21 99.29,8.21 99.29,21.24 108.31,21.24 108.31,27.11 99.29,27.11 99.29,44.07 109.43,44.07 "/>
  <g id="_1720705712912">
     </g>
  <path class="fil0" d="M135.44 21.67l-4.8 0 0 -15.64c0,-0.6 -0.27,-0.9 -0.82,-0.9 -0.56,0 -0.84,0.29 -0.84,0.86l0 15.68 -4.8 0 0 -15.71c0,-0.6 -0.27,-0.89 -0.82,-0.89 -0.55,0 -0.83,0.28 -0.83,0.86l0 15.74 -4.8 0 0 -19.57 4.8 0 0 0.69c0.66,-0.56 1.65,-0.83 2.98,-0.83 1.11,0 2.12,0.44 3.03,1.33 0.84,-0.89 2,-1.33 3.46,-1.33 0.83,0 1.61,0.25 2.34,0.75 0.74,0.5 1.1,1.19 1.1,2.08l0 16.88z"/>
  <path id="1" class="fil0" d="M149.09 21.67l-4.24 0 0 -0.76c-0.36,0.69 -1.39,1.04 -3.08,1.04 -2.62,0 -3.93,-1.03 -3.93,-3.07l0 -3.93c0,-0.88 0.31,-1.64 0.95,-2.3 0.63,-0.65 1.91,-1.47 3.83,-2.45 1.11,-0.56 1.67,-1.01 1.67,-1.34l0 -2.9c0,-0.64 -0.27,-0.96 -0.83,-0.96 -0.63,0 -0.94,0.78 -0.94,2.34 0,0.28 0.01,0.7 0.05,1.25 0.04,0.55 0.06,0.96 0.06,1.25l-4.62 0 0 -3.92c0,-2.64 1.91,-3.96 5.72,-3.96 3.58,0 5.36,1.37 5.36,4.13l0 15.58zm-4.8 -3.65l0 -5.05c-1.1,0.27 -1.66,0.77 -1.66,1.49l0 3.56c0,0.59 0.29,0.89 0.87,0.89 0.53,0 0.79,-0.3 0.79,-0.89z"/>
  <polygon id="2" class="fil0" points="164.3,21.67 159.01,21.67 157.36,16.36 155.81,21.67 151.01,21.67 154.76,11.32 151.11,2.1 156.18,2.1 157.81,7.17 159.11,2.1 163.68,2.1 160.46,11.56 "/>
  <polygon id="3" class="fil0" points="170.54,21.67 166.16,21.67 166.16,18.15 170.54,18.15 "/>
  <polygon id="4" class="fil0" points="129.84,27.89 123.22,48.61 117.48,48.61 124.13,27.82 117.87,27.82 117.87,24.44 129.84,24.44 "/>
  <path id="5" class="fil0" d="M131.9 44.47l0 -15.54c0,-3.13 2.07,-4.7 6.21,-4.7 4.05,0 6.08,1.56 6.08,4.66l0 15.55c0,1.39 -0.56,2.46 -1.71,3.23 -1.14,0.77 -2.61,1.14 -4.41,1.14 -1.85,0 -3.33,-0.37 -4.47,-1.12 -1.13,-0.76 -1.7,-1.83 -1.7,-3.22zm6.98 0.24l0 -16.44c0,-0.48 -0.27,-0.72 -0.81,-0.72 -0.57,0 -0.85,0.24 -0.85,0.72l0 16.44c0,0.48 0.28,0.72 0.85,0.72 0.54,0 0.81,-0.24 0.81,-0.72z"/>
  <path id="6" class="fil0" d="M146.54 44.47l0 -15.54c0,-3.13 2.06,-4.7 6.2,-4.7 4.06,0 6.09,1.56 6.09,4.66l0 15.55c0,1.39 -0.57,2.46 -1.72,3.23 -1.14,0.77 -2.61,1.14 -4.41,1.14 -1.84,0 -3.33,-0.37 -4.47,-1.12 -1.13,-0.76 -1.69,-1.83 -1.69,-3.22zm6.97 0.24l0 -16.44c0,-0.48 -0.27,-0.72 -0.81,-0.72 -0.57,0 -0.85,0.24 -0.85,0.72l0 16.44c0,0.48 0.28,0.72 0.85,0.72 0.54,0 0.81,-0.24 0.81,-0.72z"/>
  <path id="7" class="fil0" d="M161.17 44.47l0 -15.54c0,-3.13 2.06,-4.7 6.2,-4.7 4.06,0 6.09,1.56 6.09,4.66l0 15.55c0,1.39 -0.57,2.46 -1.72,3.23 -1.14,0.77 -2.61,1.14 -4.4,1.14 -1.85,0 -3.34,-0.37 -4.48,-1.12 -1.13,-0.76 -1.69,-1.83 -1.69,-3.22zm6.97 0.24l0 -16.44c0,-0.48 -0.27,-0.72 -0.8,-0.72 -0.57,0 -0.86,0.24 -0.86,0.72l0 16.44c0,0.48 0.29,0.72 0.86,0.72 0.53,0 0.8,-0.24 0.8,-0.72z"/>
  <polygon id="8" class="fil0" points="194.11,48.61 188.46,48.61 185.55,41.57 185.55,48.61 180.75,48.61 180.75,24.44 185.55,24.44 185.55,35.29 187.99,29.03 192.94,29.03 189.48,37.6 "/>
  <path id="9" class="fil0" d="M196.94 52.75l0 -2.86 3.89 0c1.13,0 1.7,-0.58 1.7,-1.73 -0.62,0.48 -1.61,0.72 -2.97,0.72 -0.94,0 -1.76,-0.24 -2.45,-0.74 -0.69,-0.5 -1.03,-1.16 -1.03,-1.97l0 -14.07c0,-2.14 1.27,-3.21 3.82,-3.21 0.68,0 1.57,0.29 2.67,0.87l0.63 -0.73 4.13 0 0 19.3c0,1.27 -0.25,2.33 -0.75,3.17 -0.5,0.83 -2.06,1.25 -4.66,1.25l-4.98 0zm5.59 -7.59l0 -12.33c0,-0.6 -0.27,-0.9 -0.81,-0.9 -0.56,0 -0.84,0.3 -0.84,0.9l0 12.29c0,0.6 0.28,0.9 0.84,0.9 0.54,0 0.81,-0.29 0.81,-0.86z"/>
  <path id="10" class="fil1 str1" d="M135.44 21.67l-4.8 0 0 -15.64c0,-0.6 -0.27,-0.9 -0.82,-0.9 -0.56,0 -0.84,0.29 -0.84,0.86l0 15.68 -4.8 0 0 -15.71c0,-0.6 -0.27,-0.89 -0.82,-0.89 -0.55,0 -0.83,0.28 -0.83,0.86l0 15.74 -4.8 0 0 -19.57 4.8 0 0 0.69c0.66,-0.56 1.65,-0.83 2.98,-0.83 1.11,0 2.12,0.44 3.03,1.33 0.84,-0.89 2,-1.33 3.46,-1.33 0.83,0 1.61,0.25 2.34,0.75 0.74,0.5 1.1,1.19 1.1,2.08l0 16.88z"/>
  <path id="11" class="fil1 str1" d="M149.09 21.67l-4.24 0 0 -0.76c-0.36,0.69 -1.39,1.04 -3.08,1.04 -2.62,0 -3.93,-1.03 -3.93,-3.07l0 -3.93c0,-0.88 0.31,-1.64 0.95,-2.3 0.63,-0.65 1.91,-1.47 3.83,-2.45 1.11,-0.56 1.67,-1.01 1.67,-1.34l0 -2.9c0,-0.64 -0.27,-0.96 -0.83,-0.96 -0.63,0 -0.94,0.78 -0.94,2.34 0,0.28 0.01,0.7 0.05,1.25 0.04,0.55 0.06,0.96 0.06,1.25l-4.62 0 0 -3.92c0,-2.64 1.91,-3.96 5.72,-3.96 3.58,0 5.36,1.37 5.36,4.13l0 15.58zm-4.8 -3.65l0 -5.05c-1.1,0.27 -1.66,0.77 -1.66,1.49l0 3.56c0,0.59 0.29,0.89 0.87,0.89 0.53,0 0.79,-0.3 0.79,-0.89z"/>
  <polygon id="12" class="fil1 str1" points="164.3,21.67 159.01,21.67 157.36,16.36 155.81,21.67 151.01,21.67 154.76,11.32 151.11,2.1 156.18,2.1 157.81,7.17 159.11,2.1 163.68,2.1 160.46,11.56 "/>
  <polygon id="13" class="fil1 str1" points="170.54,21.67 166.16,21.67 166.16,18.15 170.54,18.15 "/>
  <polygon id="14" class="fil1 str1" points="129.84,27.89 123.22,48.61 117.48,48.61 124.13,27.82 117.87,27.82 117.87,24.44 129.84,24.44 "/>
  <path id="15" class="fil1 str1" d="M131.9 44.47l0 -15.54c0,-3.13 2.07,-4.7 6.21,-4.7 4.05,0 6.08,1.56 6.08,4.66l0 15.55c0,1.39 -0.56,2.46 -1.71,3.23 -1.14,0.77 -2.61,1.14 -4.41,1.14 -1.85,0 -3.33,-0.37 -4.47,-1.12 -1.13,-0.76 -1.7,-1.83 -1.7,-3.22zm6.98 0.24l0 -16.44c0,-0.48 -0.27,-0.72 -0.81,-0.72 -0.57,0 -0.85,0.24 -0.85,0.72l0 16.44c0,0.48 0.28,0.72 0.85,0.72 0.54,0 0.81,-0.24 0.81,-0.72z"/>
  <path id="16" class="fil1 str1" d="M146.54 44.47l0 -15.54c0,-3.13 2.06,-4.7 6.2,-4.7 4.06,0 6.09,1.56 6.09,4.66l0 15.55c0,1.39 -0.57,2.46 -1.72,3.23 -1.14,0.77 -2.61,1.14 -4.41,1.14 -1.84,0 -3.33,-0.37 -4.47,-1.12 -1.13,-0.76 -1.69,-1.83 -1.69,-3.22zm6.97 0.24l0 -16.44c0,-0.48 -0.27,-0.72 -0.81,-0.72 -0.57,0 -0.85,0.24 -0.85,0.72l0 16.44c0,0.48 0.28,0.72 0.85,0.72 0.54,0 0.81,-0.24 0.81,-0.72z"/>
  <path id="17" class="fil1 str1" d="M161.17 44.47l0 -15.54c0,-3.13 2.06,-4.7 6.2,-4.7 4.06,0 6.09,1.56 6.09,4.66l0 15.55c0,1.39 -0.57,2.46 -1.72,3.23 -1.14,0.77 -2.61,1.14 -4.4,1.14 -1.85,0 -3.34,-0.37 -4.48,-1.12 -1.13,-0.76 -1.69,-1.83 -1.69,-3.22zm6.97 0.24l0 -16.44c0,-0.48 -0.27,-0.72 -0.8,-0.72 -0.57,0 -0.86,0.24 -0.86,0.72l0 16.44c0,0.48 0.29,0.72 0.86,0.72 0.53,0 0.8,-0.24 0.8,-0.72z"/>
  <polygon id="18" class="fil1 str1" points="194.11,48.61 188.46,48.61 185.55,41.57 185.55,48.61 180.75,48.61 180.75,24.44 185.55,24.44 185.55,35.29 187.99,29.03 192.94,29.03 189.48,37.6 "/>
  <path id="19" class="fil1 str1" d="M196.94 52.75l0 -2.86 3.89 0c1.13,0 1.7,-0.58 1.7,-1.73 -0.62,0.48 -1.61,0.72 -2.97,0.72 -0.94,0 -1.76,-0.24 -2.45,-0.74 -0.69,-0.5 -1.03,-1.16 -1.03,-1.97l0 -14.07c0,-2.14 1.27,-3.21 3.82,-3.21 0.68,0 1.57,0.29 2.67,0.87l0.63 -0.73 4.13 0 0 19.3c0,1.27 -0.25,2.33 -0.75,3.17 -0.5,0.83 -2.06,1.25 -4.66,1.25l-4.98 0zm5.59 -7.59l0 -12.33c0,-0.6 -0.27,-0.9 -0.81,-0.9 -0.56,0 -0.84,0.3 -0.84,0.9l0 12.29c0,0.6 0.28,0.9 0.84,0.9 0.54,0 0.81,-0.29 0.81,-0.86z"/>
 </g>
</svg>
