<?xml version="1.0" encoding="UTF-8"?>
<!DOCTYPE svg PUBLIC "-//W3C//DTD SVG 1.1//EN" "http://www.w3.org/Graphics/SVG/1.1/DTD/svg11.dtd">
<!-- Creator: CorelDRAW 2018 (64-Bit) -->
<svg xmlns="http://www.w3.org/2000/svg" xml:space="preserve" width="270px" height="55px" version="1.1" style="shape-rendering:geometricPrecision; text-rendering:geometricPrecision; image-rendering:optimizeQuality; fill-rule:evenodd; clip-rule:evenodd"
viewBox="0 0 270 55"
 xmlns:xlink="http://www.w3.org/1999/xlink">
 <defs>
  <style type="text/css">
   <![CDATA[
    .str0 {stroke:black;stroke-width:1.25;stroke-miterlimit:22.9256}
    .str1 {stroke:black;stroke-width:2.08;stroke-miterlimit:22.9256}
    .fil1 {fill:none;fill-rule:nonzero}
    .fil0 {fill:#FFFF34;fill-rule:nonzero}
   ]]>
  </style>
    <clipPath id="id0">
     <path d="M35.34 1.77l106.58 0 0 52.55 -106.58 0 0 -52.55z"/>
    </clipPath>
    <clipPath id="id1">
     <path d="M146.96 1.77l93.68 0 0 53.04 -93.68 0 0 -53.04z"/>
    </clipPath>
 </defs>
 <g id="Layer_x0020_1">
  <metadata id="CorelCorpID_0Corel-Layer"/>
  <g id="_1720682961552">
   
  </g>
  <path class="fil0" d="M47.65 32.89l-5.65 0 0 -5.56c0,-0.46 -0.29,-0.69 -0.87,-0.69 -0.6,0 -0.9,0.23 -0.9,0.69l0 19.52c0,0.46 0.3,0.69 0.9,0.69 0.58,0 0.87,-0.23 0.87,-0.69l0 -6.98 5.65 0 0 7.18c0,1.34 -0.66,2.42 -1.98,3.23 -1.31,0.81 -2.8,1.21 -4.46,1.21 -4.8,0 -7.2,-1.69 -7.2,-5.07l0 -18.17c0,-3.65 2.4,-5.48 7.2,-5.48 4.29,0 6.44,1.66 6.44,5l0 5.12z"/>
  <path id="1" class="fil0" d="M50.39 46.42l0 -18.17c0,-3.65 2.36,-5.48 7.1,-5.48 4.68,0 7.02,1.81 7.02,5.44l0 18.17c0,1.64 -0.66,2.9 -1.96,3.79 -1.3,0.88 -3,1.32 -5.09,1.32 -4.71,0 -7.07,-1.69 -7.07,-5.07zm8.06 0.27l0 -19.2c0,-0.57 -0.33,-0.85 -0.98,-0.85 -0.69,0 -1.03,0.28 -1.03,0.85l0 19.2c0,0.57 0.34,0.85 1.03,0.85 0.65,0 0.98,-0.28 0.98,-0.85z"/>
  <path id="2" class="fil0" d="M67.19 51.25l0 -28.24 7.73 0c1.68,0 3.18,0.46 4.5,1.37 1.31,0.91 1.97,2.31 1.97,4.2l0 17.1c0,1.76 -0.61,3.12 -1.84,4.11 -1.23,0.97 -2.76,1.46 -4.59,1.46l-7.77 0zm7.99 -5.13l0 -18c0,-0.99 -0.6,-1.48 -1.78,-1.48l0 20.98c1.18,0 1.78,-0.5 1.78,-1.5z"/>
  <path id="3" class="fil0" d="M84.48 30.56l10.6 0 0 12.57c0,1.08 0.57,1.62 1.74,1.62 1.14,0 1.72,-0.54 1.72,-1.61l0 -14.66c-0.78,0.82 -2.22,1.24 -4.34,1.24 -2.86,0 -5.2,-0.7 -7.01,-2.09 -1.8,-1.39 -2.71,-3.32 -2.71,-5.79l0 -11.49c0,-2.88 1.13,-5.08 3.39,-6.63 2.27,-1.54 5.23,-2.32 8.89,-2.32 3.69,0 6.68,0.77 8.95,2.31 2.27,1.54 3.42,3.73 3.42,6.58l0 31.82c0,6.38 -4.15,9.56 -12.44,9.56 -8.13,0 -12.21,-3.17 -12.21,-9.52l0 -11.59zm14.06 -9.02l0 -11.76c0,-1.07 -0.58,-1.6 -1.72,-1.6 -1.17,0 -1.74,0.53 -1.74,1.6l0 11.76c0,1.07 0.57,1.61 1.74,1.61 1.14,0 1.72,-0.54 1.72,-1.61z"/>
  <path id="4" class="fil0" d="M138.32 15.95l-10.59 0 0.21 -3.97c0,-2.53 -0.66,-3.8 -1.99,-3.8 -1.21,0 -1.82,0.54 -1.82,1.61l0 9.62c0.8,-1.09 2.53,-1.63 5.16,-1.63 2.63,0 4.78,0.66 6.48,1.97 1.7,1.3 2.55,3.09 2.55,5.36l0 17.62c0,2.86 -1.14,5.07 -3.42,6.63 -2.3,1.54 -5.28,2.31 -8.95,2.31 -8.27,0 -12.41,-2.96 -12.41,-8.88l0 -31.79c0,-6.4 4.15,-9.6 12.47,-9.6 8.2,0 12.31,3.18 12.31,9.55l0 5zm-10.59 27.19l0 -16.08c0,-1.1 -0.59,-1.65 -1.78,-1.65 -1.21,0 -1.82,0.55 -1.82,1.65l0 16.08c0,1.07 0.61,1.61 1.82,1.61 1.19,0 1.78,-0.54 1.78,-1.61z"/>
  <path id="5" class="fil1 str0" d="M47.65 32.89l-5.65 0 0 -5.56c0,-0.46 -0.29,-0.69 -0.87,-0.69 -0.6,0 -0.9,0.23 -0.9,0.69l0 19.52c0,0.46 0.3,0.69 0.9,0.69 0.58,0 0.87,-0.23 0.87,-0.69l0 -6.98 5.65 0 0 7.18c0,1.34 -0.66,2.42 -1.98,3.23 -1.31,0.81 -2.8,1.21 -4.46,1.21 -4.8,0 -7.2,-1.69 -7.2,-5.07l0 -18.17c0,-3.65 2.4,-5.48 7.2,-5.48 4.29,0 6.44,1.66 6.44,5l0 5.12z"/>
  <path id="6" class="fil1 str0" d="M50.39 46.42l0 -18.17c0,-3.65 2.36,-5.48 7.1,-5.48 4.68,0 7.02,1.81 7.02,5.44l0 18.17c0,1.64 -0.66,2.9 -1.96,3.79 -1.3,0.88 -3,1.32 -5.09,1.32 -4.71,0 -7.07,-1.69 -7.07,-5.07zm8.06 0.27l0 -19.2c0,-0.57 -0.33,-0.85 -0.98,-0.85 -0.69,0 -1.03,0.28 -1.03,0.85l0 19.2c0,0.57 0.34,0.85 1.03,0.85 0.65,0 0.98,-0.28 0.98,-0.85z"/>
  <path id="7" class="fil1 str0" d="M67.19 51.25l0 -28.24 7.73 0c1.68,0 3.18,0.46 4.5,1.37 1.31,0.91 1.97,2.31 1.97,4.2l0 17.1c0,1.76 -0.61,3.12 -1.84,4.11 -1.23,0.97 -2.76,1.46 -4.59,1.46l-7.77 0zm7.99 -5.13l0 -18c0,-0.99 -0.6,-1.48 -1.78,-1.48l0 20.98c1.18,0 1.78,-0.5 1.78,-1.5z"/>
  <path id="8" class="fil1 str1" d="M84.48 30.56l10.6 0 0 12.57c0,1.08 0.57,1.62 1.74,1.62 1.14,0 1.72,-0.54 1.72,-1.61l0 -14.66c-0.78,0.82 -2.22,1.24 -4.34,1.24 -2.86,0 -5.2,-0.7 -7.01,-2.09 -1.8,-1.39 -2.71,-3.32 -2.71,-5.79l0 -11.49c0,-2.88 1.13,-5.08 3.39,-6.63 2.27,-1.54 5.23,-2.32 8.89,-2.32 3.69,0 6.68,0.77 8.95,2.31 2.27,1.54 3.42,3.73 3.42,6.58l0 31.82c0,6.38 -4.15,9.56 -12.44,9.56 -8.13,0 -12.21,-3.17 -12.21,-9.52l0 -11.59zm14.06 -9.02l0 -11.76c0,-1.07 -0.58,-1.6 -1.72,-1.6 -1.17,0 -1.74,0.53 -1.74,1.6l0 11.76c0,1.07 0.57,1.61 1.74,1.61 1.14,0 1.72,-0.54 1.72,-1.61z"/>
  <path id="9" class="fil1 str1" d="M138.32 15.95l-10.59 0 0.21 -3.97c0,-2.53 -0.66,-3.8 -1.99,-3.8 -1.21,0 -1.82,0.54 -1.82,1.61l0 9.62c0.8,-1.09 2.53,-1.63 5.16,-1.63 2.63,0 4.78,0.66 6.48,1.97 1.7,1.3 2.55,3.09 2.55,5.36l0 17.62c0,2.86 -1.14,5.07 -3.42,6.63 -2.3,1.54 -5.28,2.31 -8.95,2.31 -8.27,0 -12.41,-2.96 -12.41,-8.88l0 -31.79c0,-6.4 4.15,-9.6 12.47,-9.6 8.2,0 12.31,3.18 12.31,9.55l0 5zm-10.59 27.19l0 -16.08c0,-1.1 -0.59,-1.65 -1.78,-1.65 -1.21,0 -1.82,0.55 -1.82,1.65l0 16.08c0,1.07 0.61,1.61 1.82,1.61 1.19,0 1.78,-0.54 1.78,-1.61z"/>
  <g id="_1720682960560">
   
  </g>
  <path class="fil0" d="M164.4 20.89l-4.8 0 0 -15.63c0,-0.59 -0.27,-0.89 -0.82,-0.89 -0.55,0 -0.84,0.28 -0.84,0.85l0 15.67 -4.79 0 0 -15.7c0,-0.59 -0.27,-0.89 -0.82,-0.89 -0.56,0 -0.84,0.29 -0.84,0.86l0 15.73 -4.79 0 0 -19.56 4.79 0 0 0.69c0.66,-0.55 1.66,-0.83 2.98,-0.83 1.12,0 2.13,0.45 3.04,1.34 0.84,-0.89 1.99,-1.34 3.45,-1.34 0.83,0 1.61,0.25 2.34,0.75 0.73,0.5 1.1,1.2 1.1,2.08l0 16.87z"/>
  <path id="1" class="fil0" d="M178.04 20.89l-4.24 0 0 -0.76c-0.36,0.69 -1.39,1.04 -3.08,1.04 -2.62,0 -3.93,-1.02 -3.93,-3.07l0 -3.93c0,-0.87 0.32,-1.64 0.96,-2.29 0.63,-0.65 1.91,-1.47 3.83,-2.45 1.11,-0.56 1.66,-1.01 1.66,-1.34l0 -2.9c0,-0.64 -0.27,-0.96 -0.82,-0.96 -0.64,0 -0.95,0.78 -0.95,2.34 0,0.28 0.01,0.7 0.05,1.25 0.04,0.55 0.07,0.96 0.07,1.25l-4.62 0 0 -3.92c0,-2.63 1.9,-3.96 5.72,-3.96 3.57,0 5.35,1.38 5.35,4.13l0 15.57zm-4.8 -3.65l0 -5.04c-1.1,0.27 -1.65,0.76 -1.65,1.48l0 3.56c0,0.59 0.29,0.89 0.86,0.89 0.53,0 0.79,-0.3 0.79,-0.89z"/>
  <polygon id="2" class="fil0" points="193.24,20.89 187.95,20.89 186.3,15.59 184.75,20.89 179.95,20.89 183.71,10.55 180.06,1.33 185.12,1.33 186.76,6.4 188.06,1.33 192.62,1.33 189.4,10.78 "/>
  <polygon id="3" class="fil0" points="199.47,20.89 195.09,20.89 195.09,17.37 199.47,17.37 "/>
  <path id="4" class="fil0" d="M161.22 44.7l-2.62 0 0 3.11 -5.17 0 0 -3.11 -7.18 0 0 -3.42 5.2 -17.62 7.15 0 0 17.42 2.62 0 0 3.62zm-7.79 -3.62l0 -9.51 -2.41 9.51 2.41 0z"/>
  <path id="5" class="fil0" d="M175.11 47.81l-12.11 0 0 -3.21 5.96 -10.94c0.65,-1.18 0.98,-2.81 0.98,-4.87 0,-1.07 -0.36,-1.61 -1.07,-1.61 -0.74,0 -1.1,0.33 -1.1,1l0 4.14 -4.77 0 0 -4.21c0,-3.11 2,-4.66 6,-4.66 2.47,0 4.11,0.57 4.91,1.71 0.8,1.14 1.2,3 1.2,5.61 0,1.02 -0.17,1.86 -0.52,2.52l-5.96 11.41 6.48 0 0 3.11z"/>
  <path id="6" class="fil0" d="M189.45 23.66l-0.83 3.65 -6.01 0 -0.23 4.97c0.53,-0.53 1.45,-0.79 2.76,-0.79 2.78,0 4.17,1.19 4.17,3.58l0 8.57c0,1.39 -0.55,2.46 -1.66,3.23 -1.11,0.76 -2.57,1.14 -4.38,1.14 -4.04,0 -6.06,-1.45 -6.06,-4.35l0 -6.02 5.17 0 0 6.2c0,0.53 0.3,0.79 0.89,0.79 0.58,0 0.87,-0.26 0.87,-0.78l0 -8.02c0,-0.57 -0.32,-0.86 -0.97,-0.86 -0.6,0 -0.9,0.5 -0.93,1.49l-4.97 -0.14 0.28 -12.66 11.9 0z"/>
  <path id="7" class="fil0" d="M191.51 43.67l0 -15.53c0,-3.13 2.06,-4.69 6.2,-4.69 4.05,0 6.08,1.55 6.08,4.66l0 15.53c0,1.39 -0.57,2.46 -1.71,3.23 -1.14,0.76 -2.61,1.14 -4.41,1.14 -1.84,0 -3.33,-0.37 -4.46,-1.12 -1.14,-0.76 -1.7,-1.83 -1.7,-3.22zm6.97 0.24l0 -16.42c0,-0.49 -0.27,-0.73 -0.81,-0.73 -0.56,0 -0.85,0.24 -0.85,0.73l0 16.42c0,0.48 0.29,0.72 0.85,0.72 0.54,0 0.81,-0.24 0.81,-0.72z"/>
  <polygon id="8" class="fil0" points="224.44,47.81 218.78,47.81 215.88,40.77 215.88,47.81 211.08,47.81 211.08,23.66 215.88,23.66 215.88,34.5 218.31,28.25 223.26,28.25 219.81,36.81 "/>
  <path id="9" class="fil0" d="M227.26 51.95l0 -2.87 3.88 0c1.14,0 1.71,-0.57 1.71,-1.72 -0.63,0.48 -1.62,0.72 -2.97,0.72 -0.94,0 -1.76,-0.24 -2.45,-0.74 -0.69,-0.51 -1.04,-1.16 -1.04,-1.97l0 -14.06c0,-2.13 1.28,-3.2 3.83,-3.2 0.67,0 1.56,0.29 2.66,0.86l0.63 -0.72 4.13 0 0 19.28c0,1.27 -0.25,2.32 -0.75,3.16 -0.5,0.84 -2.05,1.26 -4.66,1.26l-4.97 0zm5.59 -7.59l0 -12.32c0,-0.6 -0.27,-0.9 -0.82,-0.9 -0.56,0 -0.84,0.3 -0.84,0.9l0 12.28c0,0.6 0.28,0.9 0.84,0.9 0.55,0 0.82,-0.29 0.82,-0.86z"/>
  <path id="10" class="fil1 str0" d="M164.4 20.89l-4.8 0 0 -15.63c0,-0.59 -0.27,-0.89 -0.82,-0.89 -0.55,0 -0.84,0.28 -0.84,0.85l0 15.67 -4.79 0 0 -15.7c0,-0.59 -0.27,-0.89 -0.82,-0.89 -0.56,0 -0.84,0.29 -0.84,0.86l0 15.73 -4.79 0 0 -19.56 4.79 0 0 0.69c0.66,-0.55 1.66,-0.83 2.98,-0.83 1.12,0 2.13,0.45 3.04,1.34 0.84,-0.89 1.99,-1.34 3.45,-1.34 0.83,0 1.61,0.25 2.34,0.75 0.73,0.5 1.1,1.2 1.1,2.08l0 16.87z"/>
  <path id="11" class="fil1 str0" d="M178.04 20.89l-4.24 0 0 -0.76c-0.36,0.69 -1.39,1.04 -3.08,1.04 -2.62,0 -3.93,-1.02 -3.93,-3.07l0 -3.93c0,-0.87 0.32,-1.64 0.96,-2.29 0.63,-0.65 1.91,-1.47 3.83,-2.45 1.11,-0.56 1.66,-1.01 1.66,-1.34l0 -2.9c0,-0.64 -0.27,-0.96 -0.82,-0.96 -0.64,0 -0.95,0.78 -0.95,2.34 0,0.28 0.01,0.7 0.05,1.25 0.04,0.55 0.07,0.96 0.07,1.25l-4.62 0 0 -3.92c0,-2.63 1.9,-3.96 5.72,-3.96 3.57,0 5.35,1.38 5.35,4.13l0 15.57zm-4.8 -3.65l0 -5.04c-1.1,0.27 -1.65,0.76 -1.65,1.48l0 3.56c0,0.59 0.29,0.89 0.86,0.89 0.53,0 0.79,-0.3 0.79,-0.89z"/>
  <polygon id="12" class="fil1 str0" points="193.24,20.89 187.95,20.89 186.3,15.59 184.75,20.89 179.95,20.89 183.71,10.55 180.06,1.33 185.12,1.33 186.76,6.4 188.06,1.33 192.62,1.33 189.4,10.78 "/>
  <polygon id="13" class="fil1 str0" points="199.47,20.89 195.09,20.89 195.09,17.37 199.47,17.37 "/>
  <path id="14" class="fil1 str0" d="M161.22 44.7l-2.62 0 0 3.11 -5.17 0 0 -3.11 -7.18 0 0 -3.42 5.2 -17.62 7.15 0 0 17.42 2.62 0 0 3.62zm-7.79 -3.62l0 -9.51 -2.41 9.51 2.41 0z"/>
  <path id="15" class="fil1 str0" d="M175.11 47.81l-12.11 0 0 -3.21 5.96 -10.94c0.65,-1.18 0.98,-2.81 0.98,-4.87 0,-1.07 -0.36,-1.61 -1.07,-1.61 -0.74,0 -1.1,0.33 -1.1,1l0 4.14 -4.77 0 0 -4.21c0,-3.11 2,-4.66 6,-4.66 2.47,0 4.11,0.57 4.91,1.71 0.8,1.14 1.2,3 1.2,5.61 0,1.02 -0.17,1.86 -0.52,2.52l-5.96 11.41 6.48 0 0 3.11z"/>
  <path id="16" class="fil1 str0" d="M189.45 23.66l-0.83 3.65 -6.01 0 -0.23 4.97c0.53,-0.53 1.45,-0.79 2.76,-0.79 2.78,0 4.17,1.19 4.17,3.58l0 8.57c0,1.39 -0.55,2.46 -1.66,3.23 -1.11,0.76 -2.57,1.14 -4.38,1.14 -4.04,0 -6.06,-1.45 -6.06,-4.35l0 -6.02 5.17 0 0 6.2c0,0.53 0.3,0.79 0.89,0.79 0.58,0 0.87,-0.26 0.87,-0.78l0 -8.02c0,-0.57 -0.32,-0.86 -0.97,-0.86 -0.6,0 -0.9,0.5 -0.93,1.49l-4.97 -0.14 0.28 -12.66 11.9 0z"/>
  <path id="17" class="fil1 str0" d="M191.51 43.67l0 -15.53c0,-3.13 2.06,-4.69 6.2,-4.69 4.05,0 6.08,1.55 6.08,4.66l0 15.53c0,1.39 -0.57,2.46 -1.71,3.23 -1.14,0.76 -2.61,1.14 -4.41,1.14 -1.84,0 -3.33,-0.37 -4.46,-1.12 -1.14,-0.76 -1.7,-1.83 -1.7,-3.22zm6.97 0.24l0 -16.42c0,-0.49 -0.27,-0.73 -0.81,-0.73 -0.56,0 -0.85,0.24 -0.85,0.73l0 16.42c0,0.48 0.29,0.72 0.85,0.72 0.54,0 0.81,-0.24 0.81,-0.72z"/>
  <polygon id="18" class="fil1 str0" points="224.44,47.81 218.78,47.81 215.88,40.77 215.88,47.81 211.08,47.81 211.08,23.66 215.88,23.66 215.88,34.5 218.31,28.25 223.26,28.25 219.81,36.81 "/>
  <path id="19" class="fil1 str0" d="M227.26 51.95l0 -2.87 3.88 0c1.14,0 1.71,-0.57 1.71,-1.72 -0.63,0.48 -1.62,0.72 -2.97,0.72 -0.94,0 -1.76,-0.24 -2.45,-0.74 -0.69,-0.51 -1.04,-1.16 -1.04,-1.97l0 -14.06c0,-2.13 1.28,-3.2 3.83,-3.2 0.67,0 1.56,0.29 2.66,0.86l0.63 -0.72 4.13 0 0 19.28c0,1.27 -0.25,2.32 -0.75,3.16 -0.5,0.84 -2.05,1.26 -4.66,1.26l-4.97 0zm5.59 -7.59l0 -12.32c0,-0.6 -0.27,-0.9 -0.82,-0.9 -0.56,0 -0.84,0.3 -0.84,0.9l0 12.28c0,0.6 0.28,0.9 0.84,0.9 0.55,0 0.82,-0.29 0.82,-0.86z"/>
 </g>
</svg>
