<svg xmlns="http://www.w3.org/2000/svg" width="270" height="55" fill="none" viewBox="0 0 270 55">
  <g clip-path="url(#clip0_611_322)">
    <path fill="#FFFF34" d="M41 52.32V4.04h12.51c2.99 0 5.59.68 7.78 2.04 2.21 1.35 3.31 3.53 3.31 6.5v6.7c0 3.39-2.07 5.77-6.19 7.16 4.35 1.08 6.53 3.41 6.53 6.98v9.37c0 3.18-1.04 5.57-3.12 7.15s-4.56 2.38-7.44 2.38H41zM54.59 21v-8.22c0-1.69-.99-2.53-2.96-2.53v13.31c1.97 0 2.96-.85 2.96-2.56zm0 22.55V31.33c0-1.69-.99-2.53-2.96-2.53v17.31c1.97 0 2.96-.85 2.96-2.56zM87.96 52.32H67.2V4.04h20.62v6.21h-10v13.03h9.02v5.87h-9.02v16.96h10.14v6.21z"/>
    <path stroke="#000" stroke-miterlimit="22.926" stroke-width="2.08" d="M41 52.32V4.04h12.51c2.99 0 5.59.68 7.78 2.04 2.21 1.35 3.31 3.53 3.31 6.5v6.7c0 3.39-2.07 5.77-6.19 7.16 4.35 1.08 6.53 3.41 6.53 6.98v9.37c0 3.18-1.04 5.57-3.12 7.15s-4.56 2.38-7.44 2.38H41v0zM54.59 21v-8.22c0-1.69-.99-2.53-2.96-2.53v13.31c1.97 0 2.96-.85 2.96-2.56v0zm0 22.55V31.33c0-1.69-.99-2.53-2.96-2.53v17.31c1.97 0 2.96-.85 2.96-2.56zM87.96 52.32H67.2V4.04h20.62v6.21h-10v13.03h9.02v5.87h-9.02v16.96h10.14v6.21z"/>
    <path fill="#FFFF34" d="M113.97 23.71h-4.8V8.07c0-.6-.27-.9-.82-.9-.56 0-.84.29-.84.86v15.68h-4.8V8c0-.6-.27-.89-.82-.89-.55 0-.83.28-.83.86v15.74h-4.8V4.14h4.8v.69c.66-.56 1.65-.83 2.98-.83 1.11 0 2.12.44 3.03 1.33.84-.89 2-1.33 3.46-1.33.83 0 1.61.25 2.34.75.74.5 1.1 1.19 1.1 2.08v16.88zM127.62 23.71h-4.24v-.76c-.36.69-1.39 1.04-3.08 1.04-2.62 0-3.93-1.03-3.93-3.07v-3.93c0-.88.31-1.64.95-2.3.63-.65 1.91-1.47 3.83-2.45 1.11-.56 1.67-1.01 1.67-1.34V8c0-.64-.27-.96-.83-.96-.63 0-.94.78-.94 2.34 0 .28.01.7.05 1.25s.06.96.06 1.25h-4.62V7.96c0-2.64 1.91-3.96 5.72-3.96 3.58 0 5.36 1.37 5.36 4.13v15.58zm-4.8-3.65v-5.05c-1.1.27-1.66.77-1.66 1.49v3.56c0 .59.29.89.87.89.53 0 .79-.3.79-.89zM142.83 23.71h-5.29l-1.65-5.31-1.55 5.31h-4.8l3.75-10.35-3.65-9.22h5.07l1.63 5.07 1.3-5.07h4.57l-3.22 9.46 3.84 10.11zM149.07 23.71h-4.38v-3.52h4.38v3.52zM108.37 29.93l-6.62 20.72h-5.74l6.65-20.79H96.4v-3.38h11.97v3.45zM110.43 46.51V30.97c0-3.13 2.07-4.7 6.21-4.7 4.05 0 6.08 1.56 6.08 4.66v15.55c0 1.39-.56 2.46-1.71 3.23-1.14.77-2.61 1.14-4.41 1.14-1.85 0-3.33-.37-4.47-1.12-1.13-.76-1.7-1.83-1.7-3.22zm6.98.24V30.31c0-.48-.27-.72-.81-.72-.57 0-.85.24-.85.72v16.44c0 .48.28.72.85.72.54 0 .81-.24.81-.72zM125.07 46.51V30.97c0-3.13 2.06-4.7 6.2-4.7 4.06 0 6.09 1.56 6.09 4.66v15.55c0 1.39-.57 2.46-1.72 3.23-1.14.77-2.61 1.14-4.41 1.14-1.84 0-3.33-.37-4.47-1.12-1.13-.76-1.69-1.83-1.69-3.22zm6.97.24V30.31c0-.48-.27-.72-.81-.72-.57 0-.85.24-.85.72v16.44c0 .48.28.72.85.72.54 0 .81-.24.81-.72zM139.7 46.51V30.97c0-3.13 2.06-4.7 6.2-4.7 4.06 0 6.09 1.56 6.09 4.66v15.55c0 1.39-.57 2.46-1.72 3.23-1.14.77-2.61 1.14-4.4 1.14-1.85 0-3.34-.37-4.48-1.12-1.13-.76-1.69-1.83-1.69-3.22zm6.97.24V30.31c0-.48-.27-.72-.8-.72-.57 0-.86.24-.86.72v16.44c0 .48.29.72.86.72.53 0 .8-.24.8-.72zM172.64 50.65h-5.65l-2.91-7.04v7.04h-4.8V26.48h4.8v10.85l2.44-6.26h4.95l-3.46 8.57 4.63 11.01zM175.47 54.79v-2.86h3.89c1.13 0 1.7-.58 1.7-1.73-.62.48-1.61.72-2.97.72-.94 0-1.76-.24-2.45-.74-.69-.5-1.03-1.16-1.03-1.97V34.14c0-2.14 1.27-3.21 3.82-3.21.68 0 1.57.29 2.67.87l.63-.73h4.13v19.3c0 1.27-.25 2.33-.75 3.17-.5.83-2.06 1.25-4.66 1.25h-4.98zm5.59-7.59V34.87c0-.6-.27-.9-.81-.9-.56 0-.84.3-.84.9v12.29c0 .6.28.9.84.9.54 0 .81-.29.81-.86z"/>
    <path stroke="#000" stroke-miterlimit="22.926" stroke-width="1.25" d="M113.97 23.71h-4.8V8.07c0-.6-.27-.9-.82-.9-.56 0-.84.29-.84.86v15.68h-4.8V8c0-.6-.27-.89-.82-.89-.55 0-.83.28-.83.86v15.74h-4.8V4.14h4.8v.69c.66-.56 1.65-.83 2.98-.83 1.11 0 2.12.44 3.03 1.33.84-.89 2-1.33 3.46-1.33.83 0 1.61.25 2.34.75.74.5 1.1 1.19 1.1 2.08v16.88zM127.62 23.71h-4.24v-.76c-.36.69-1.39 1.04-3.08 1.04-2.62 0-3.93-1.03-3.93-3.07v-3.93c0-.88.31-1.64.95-2.3.63-.65 1.91-1.47 3.83-2.45 1.11-.56 1.67-1.01 1.67-1.34V8c0-.64-.27-.96-.83-.96-.63 0-.94.78-.94 2.34 0 .28.01.7.05 1.25s.06.96.06 1.25h-4.62V7.96c0-2.64 1.91-3.96 5.72-3.96 3.58 0 5.36 1.37 5.36 4.13v15.58zm-4.8-3.65v-5.05c-1.1.27-1.66.77-1.66 1.49v3.56c0 .59.29.89.87.89.53 0 .79-.3.79-.89zM142.83 23.71h-5.29l-1.65-5.31-1.55 5.31h-4.8l3.75-10.35-3.65-9.22h5.07l1.63 5.07 1.3-5.07h4.57l-3.22 9.46 3.84 10.11zM149.07 23.71h-4.38v-3.52h4.38v3.52zM108.37 29.93l-6.62 20.72h-5.74l6.65-20.79H96.4v-3.38h11.97v3.45zM110.43 46.51V30.97c0-3.13 2.07-4.7 6.21-4.7 4.05 0 6.08 1.56 6.08 4.66v15.55c0 1.39-.56 2.46-1.71 3.23-1.14.77-2.61 1.14-4.41 1.14-1.85 0-3.33-.37-4.47-1.12-1.13-.76-1.7-1.83-1.7-3.22v0zm6.98.24V30.31c0-.48-.27-.72-.81-.72-.57 0-.85.24-.85.72v16.44c0 .48.28.72.85.72.54 0 .81-.24.81-.72zM125.07 46.51V30.97c0-3.13 2.06-4.7 6.2-4.7 4.06 0 6.09 1.56 6.09 4.66v15.55c0 1.39-.57 2.46-1.72 3.23-1.14.77-2.61 1.14-4.41 1.14-1.84 0-3.33-.37-4.47-1.12-1.13-.76-1.69-1.83-1.69-3.22zm6.97.24V30.31c0-.48-.27-.72-.81-.72-.57 0-.85.24-.85.72v16.44c0 .48.28.72.85.72.54 0 .81-.24.81-.72zM139.7 46.51V30.97c0-3.13 2.06-4.7 6.2-4.7 4.06 0 6.09 1.56 6.09 4.66v15.55c0 1.39-.57 2.46-1.72 3.23-1.14.77-2.61 1.14-4.4 1.14-1.85 0-3.34-.37-4.48-1.12-1.13-.76-1.69-1.83-1.69-3.22zm6.97.24V30.31c0-.48-.27-.72-.8-.72-.57 0-.86.24-.86.72v16.44c0 .48.29.72.86.72.53 0 .8-.24.8-.72zM172.64 50.65h-5.65l-2.91-7.04v7.04h-4.8V26.48h4.8v10.85l2.44-6.26h4.95l-3.46 8.57 4.63 11.01zM175.47 54.79v-2.86h3.89c1.13 0 1.7-.58 1.7-1.73-.62.48-1.61.72-2.97.72-.94 0-1.76-.24-2.45-.74-.69-.5-1.03-1.16-1.03-1.97V34.14c0-2.14 1.27-3.21 3.82-3.21.68 0 1.57.29 2.67.87l.63-.73h4.13v19.3c0 1.27-.25 2.33-.75 3.17-.5.83-2.06 1.25-4.66 1.25h-4.98v0zm5.59-7.59V34.87c0-.6-.27-.9-.81-.9-.56 0-.84.3-.84.9v12.29c0 .6.28.9.84.9.54 0 .81-.29.81-.86z"/>
  </g>
  <defs>
    <clipPath id="clip0_611_322">
      <path fill="#fff" d="M0 0h270v55H0z"/>
    </clipPath>
  </defs>
</svg>
