<svg xmlns="http://www.w3.org/2000/svg" xmlns:xlink="http://www.w3.org/1999/xlink" width="1440" height="186" fill="none" viewBox="0 0 1440 186">
  <path stroke="#000" stroke-width="30" d="M0 164.107h33.906l37.894 4.354 4.877.528c9.272 1.005 13.909 1.507 18.565 1.576 4.656.07 9.305-.295 18.603-1.023l13.8-1.081 19.945-4.354 23.933-4.353 14.959-4.353 20.941-7.981 26.926-13.785 30.914-16.688 30.914-13.785 30.914-10.883 27.922-6.53 38.892-7.98 12.611-1.967c7.652-1.193 11.478-1.789 15.335-2.088 3.856-.299 7.729-.299 15.473-.299h15.418l32.908 4.353 29.917 7.981 25.928 10.158 18.947 7.255 87.756 39.179 32.909 13.06 34.903 8.706 2.928.4c14.144 1.929 21.216 2.894 30.061 2.844 1.66-.01 4.951-.116 6.609-.213 8.829-.518 12.964-1.355 21.233-3.031v0c2.719-.55 5.737-1.251 8.81-2.014 9.803-2.434 14.705-3.652 21.68-6.554 6.976-2.901 12.586-6.303 23.806-13.105l14.512-8.799 29.917-12.334s18.323-6.266 30.914-7.981c14.929-2.034 38.892 0 38.892 0l33.906 3.627s23.632 3.563 38.892 4.354c.95.049 1.94.091 2.95.127 12.17.428 18.25.643 27.56-.787 9.3-1.43 17.06-4.176 32.57-9.668l7.72-2.732 30.92-12.334 25.92-18.138 32.91-21.041 36.9-21.766 39.89-12.334L1275.45 19h21.94l19.95 3.628 25.93 12.334 22.93 11.608 16.96 10.158 13.96 9.432 15.95 7.255 15.96 4.353h9.97"/>
  <path stroke="#fff" stroke-dasharray="10 10" stroke-width="2" d="M-1 164.107h33.953l37.947 4.354 4.935.534c9.26 1.002 13.89 1.503 18.54 1.572 4.649.069 9.291-.295 18.577-1.021l13.871-1.085 19.972-4.354 23.967-4.353 14.979-4.353 20.971-7.981 26.962-13.785 30.957-16.688 30.957-13.785 30.957-10.883 27.962-6.53 38.946-7.98 12.669-1.973c7.642-1.19 11.463-1.785 15.315-2.083 3.851-.298 7.718-.298 15.452-.298h15.482l32.954 4.353 29.958 7.981 25.964 10.158 18.974 7.255 87.878 39.179 32.954 13.06 34.952 8.706 2.938.401c11.25 1.532 16.875 2.299 22.523 2.553 4.322.194 8.65.164 12.969-.09 5.644-.332 11.258-1.176 22.485-2.864v0l5.101-1.347c13.903-3.673 20.854-5.51 27.45-8.309 6.596-2.799 12.747-6.523 25.048-13.971l11.306-6.845 29.958-12.334s18.348-6.266 30.957-7.981c14.95-2.034 38.946 0 38.946 0l33.953 3.627 38.941 4.354v0c16.76 0 25.14 0 33.37-1.381.23-.039.46-.078.68-.118 8.22-1.439 16.12-4.231 31.92-9.816l4.94-1.745 30.95-12.334 25.97-18.138 32.95-21.041 36.95-21.766 39.95-12.334L1276.23 19h21.97l19.97 3.628 25.96 12.334 22.97 11.608 16.98 10.158 13.98 9.432 15.98 7.255 15.97 4.353h9.99"/>
  <g filter="url(#filter0_f_85_261)">
    <rect width="125.766" height="57.528" fill="#FFED00" rx="25" transform="matrix(.9949 .10082 -.29333 .95601 1079.87 23)"/>
  </g>
  <g filter="url(#filter1_d_85_261)">
    <rect width="114.144" height="63.917" fill="url(#pattern0)" rx="14" transform="matrix(.9949 .10082 -.29333 .95601 1091.75 17)"/>
  </g>
  <defs>
    <filter id="filter0_f_85_261" width="179.464" height="112.904" x="1044.27" y=".386" color-interpolation-filters="sRGB" filterUnits="userSpaceOnUse">
      <feFlood flood-opacity="0" result="BackgroundImageFix"/>
      <feBlend in="SourceGraphic" in2="BackgroundImageFix" result="shape"/>
      <feGaussianBlur result="effect1_foregroundBlur_85_261" stdDeviation="12.5"/>
    </filter>
    <filter id="filter1_d_85_261" width="133.291" height="77.941" x="1072.51" y="18.336" color-interpolation-filters="sRGB" filterUnits="userSpaceOnUse">
      <feFlood flood-opacity="0" result="BackgroundImageFix"/>
      <feColorMatrix in="SourceAlpha" result="hardAlpha" values="0 0 0 0 0 0 0 0 0 0 0 0 0 0 0 0 0 0 127 0"/>
      <feOffset dy="4"/>
      <feGaussianBlur stdDeviation="2"/>
      <feColorMatrix values="0 0 0 0 0 0 0 0 0 0 0 0 0 0 0 0 0 0 0.25 0"/>
      <feBlend in2="BackgroundImageFix" result="effect1_dropShadow_85_261"/>
      <feBlend in="SourceGraphic" in2="effect1_dropShadow_85_261" result="shape"/>
    </filter>
    <pattern id="pattern0" width="1" height="1" patternContentUnits="objectBoundingBox">
      <use transform="matrix(.00095 0 0 .0017 0 -.064)" xlink:href="#image0_85_261"/>
    </pattern>
  </defs>
</svg>
