<svg xmlns="http://www.w3.org/2000/svg" width="402" height="270" fill="none" viewBox="0 0 402 270">
  <g filter="url(#filter0_f_514_290)">
    <rect width="40.957" height="40.514" x="71.925" y="164.115" fill="#FFED00" rx="20.257"/>
  </g>
  <g filter="url(#filter1_f_514_290)">
    <rect width="40.957" height="40.514" x="307.679" y="98.897" fill="#FFED00" rx="20.257"/>
  </g>
  <g filter="url(#filter2_f_514_290)">
    <rect width="40.957" height="40.514" x="169.823" y="67.277" fill="#FFED00" rx="20.257"/>
  </g>
  <path stroke="#000" stroke-width="25" d="M42.955 252.796h41.368c6.895 1.678 23.395 4.845 34.236 4.09 13.552-.944 25.32-9.437 31.383-13.841 6.062-4.404 33.522-37.434 41.368-41.523 7.845-4.089 35.305-18.874 42.438-22.02 7.132-3.145 22.823-9.122 32.096-9.437 9.272-.314 35.662 2.832 43.151 3.775 7.489.944 14.621 5.977 21.04 8.808 6.42 2.831 30.313 14.156 34.949 18.874 3.709 3.775 14.622 11.22 19.614 14.47"/>
  <path stroke="#FFFF38" stroke-dasharray="8 8" stroke-width="2" d="M384.598 215.992c-4.992-3.25-15.905-10.695-19.614-14.47-4.636-4.718-28.53-16.043-34.949-18.874-6.419-2.831-13.551-7.864-21.04-8.808-7.49-.943-33.88-4.089-43.152-3.775-9.272.315-24.963 6.292-32.096 9.437-7.132 3.146-34.592 17.931-42.437 22.02-7.846 4.089-35.306 37.119-41.369 41.523-6.062 4.404-17.831 12.897-31.382 13.841-4.984.347-19.378-3.492-34.147-4.333m0 0c-17.358-.987-35.235.907-38.96 0h38.96z"/>
  <g filter="url(#filter3_d_514_290)">
    <path fill="#FFFF38" d="M55.27 131.791h-3.845v-17.505h3.845v17.505zm8.997-8.301h-3.48v-3.076c0-.432-.199-.647-.597-.647-.4 0-.598.207-.598.622v11.402h-3.48v-14.173h3.48v.476c.463-.382 1.18-.573 2.148-.573.692 0 1.286.187 1.782.561.497.366.745.85.745 1.453v3.955zm8.874 8.301h-3.076v-.55c-.26.497-1.005.745-2.234.745-1.896 0-2.844-.741-2.844-2.222v-2.844c0-.635.228-1.188.684-1.66.463-.472 1.391-1.062 2.783-1.77.806-.407 1.208-.733 1.208-.977v-2.099c0-.464-.2-.696-.598-.696-.456 0-.683.565-.683 1.697 0 .203.012.504.036.903.033.399.049.7.049.903h-3.357v-2.832c0-1.912 1.384-2.868 4.15-2.868 2.588 0 3.882.996 3.882 2.99v11.28zm-3.479-2.649v-3.65c-.797.195-1.196.553-1.196 1.074v2.576c0 .431.208.647.623.647.382 0 .573-.216.573-.647zm11.194 2.649H78.66c-1.57 0-2.51-.236-2.82-.708-.31-.472-.464-1.38-.464-2.723v-8.642h-1.55v-2.1h1.55v-2.856h3.48v2.856h1.88v2.1h-1.88v8.618c0 .415.121.696.365.842.253.139.798.208 1.636.208v2.405zm10.376 0h-4.09l-2.135-5.127v5.127H81.54v-17.505h3.466v7.849l1.783-4.517h3.6l-2.526 6.201 3.37 7.972zm.464-2.796v-8.484c0-1.994 1.38-2.99 4.138-2.99 1.066 0 2.002.231 2.808.695.814.464 1.22 1.188 1.22 2.173v8.728c0 1.913-1.342 2.869-4.028 2.869-2.759 0-4.138-.997-4.138-2.991zm4.688.098v-8.679c0-.464-.2-.696-.599-.696-.407 0-.61.232-.61.696v8.679c0 .48.203.72.61.72.4 0 .599-.24.599-.72zm12.487 2.698h-8.349v-1.954l3.943-9.948h-3.724v-2.271h7.752v1.917l-4.004 10.009h4.382v2.247zm8.826 0h-3.076v-.55c-.261.497-1.005.745-2.234.745-1.896 0-2.844-.741-2.844-2.222v-2.844c0-.635.228-1.188.683-1.66.464-.472 1.392-1.062 2.783-1.77.806-.407 1.209-.733 1.209-.977v-2.099c0-.464-.199-.696-.598-.696-.456 0-.684.565-.684 1.697 0 .203.012.504.037.903.032.399.049.7.049.903h-3.357v-2.832c0-1.912 1.383-2.868 4.15-2.868 2.588 0 3.882.996 3.882 2.99v11.28zm-3.479-2.649v-3.65c-.798.195-1.196.553-1.196 1.074v2.576c0 .431.207.647.622.647.383 0 .574-.216.574-.647zm1.685-14.856l-1.453 2.258h-1.917l.745-2.258h2.625zm2.612 11.804h3.467v3.003c0 .48.195.72.586.72.39 0 .585-.46.585-1.379 0-1.197-.24-1.97-.72-2.32-1.814-.952-2.909-1.615-3.283-1.989-.375-.383-.562-.953-.562-1.709v-1.905c0-1.994 1.351-2.99 4.053-2.99 2.628 0 3.943.956 3.943 2.868v2.796h-3.394l.073-1.697c0-1.18-.215-1.77-.647-1.77-.431 0-.647.37-.647 1.111 0 .765.094 1.342.281 1.733.195.391 1.262 1.062 3.198 2.014.806.578 1.209 1.343 1.209 2.295v2.124c0 1.994-1.371 2.991-4.114 2.991-2.685 0-4.028-.956-4.028-2.869v-3.027z"/>
    <path fill="#000" d="M55.27 131.791v.5h.5v-.5h-.5zm-3.845 0h-.5v.5h.5v-.5zm0-17.505v-.5h-.5v.5h.5zm3.845 0h.5v-.5h-.5v.5zm0 17.005h-3.845v1h3.845v-1zm-3.345.5v-17.505h-1v17.505h1zm-.5-17.005h3.845v-1h-3.845v1zm3.345-.5v17.505h1v-17.505h-1zm9.497 9.204v.5h.5v-.5h-.5zm-3.48 0h-.5v.5h.5v-.5zm-1.195 8.301v.5h.5v-.5h-.5zm-3.48 0h-.5v.5h.5v-.5zm0-14.173v-.5h-.5v.5h.5zm3.48 0h.5v-.5h-.5v.5zm0 .476h-.5v1.061l.818-.675-.318-.386zm3.93-.012l-.3.399.003.003.297-.402zm.745 4.908h-3.48v1h3.48v-1zm-2.98.5v-3.076h-1v3.076h1zm0-3.076c0-.284-.064-.59-.282-.825-.224-.243-.528-.322-.815-.322v1c.056 0 .083.007.092.01.006.002-.002 0-.01-.009-.02-.02.016-.002.016.146h1zm-1.097-1.147c-.282 0-.584.074-.81.309-.222.231-.288.533-.288.813h1c0-.135.032-.144.01-.12-.01.01-.018.012-.01.009a.307.307 0 01.098-.011v-1zm-1.098 1.122v11.402h1v-11.402h-1zm.5 10.902h-3.48v1h3.48v-1zm-2.98.5v-14.173h-1v14.173h1zm-.5-13.673h3.48v-1h-3.48v1zm2.98-.5v.476h1v-.476h-1zm.818.862c.334-.275.911-.459 1.83-.459v-1c-1.018 0-1.873.198-2.467.687l.637.772zm1.83-.459c.596 0 1.081.159 1.481.46l.602-.798c-.593-.447-1.296-.662-2.083-.662v1zm1.485.463c.373.275.542.612.542 1.051h1c0-.766-.328-1.398-.948-1.855l-.594.804zm.542 1.051v3.955h1v-3.955h-1zm9.374 12.256v.5h.5v-.5h-.5zm-3.076 0h-.5v.5h.5v-.5zm0-.55h.5l-.943-.232.443.232zm-4.394-5.981l-.357-.351-.003.003.36.348zm2.783-1.77l-.226-.447v.001l.226.446zm-.037-1.172l-.499.03v.011l.5-.041zm.049.903v.5h.5v-.5h-.5zm-3.357 0h-.5v.5h.5v-.5zm4.553 2.271h.5v-.638l-.619.152.12.486zm3.48 5.799h-3.077v1h3.076v-1zm-2.577.5v-.55h-1v.55h1zm-.943-.782c-.05.095-.17.217-.469.316-.3.101-.734.161-1.322.161v1c.642 0 1.195-.064 1.638-.212.446-.148.828-.399 1.039-.801l-.886-.464zm-1.79.477c-.897 0-1.478-.178-1.826-.45-.325-.253-.519-.646-.519-1.272h-1c0 .855.28 1.574.903 2.06.6.469 1.442.662 2.441.662v-1zm-2.345-1.722v-2.844h-1v2.844h1zm0-2.844c0-.501.174-.931.543-1.313l-.72-.695c-.541.562-.823 1.239-.823 2.008h1zm.54-1.31c.401-.408 1.262-.967 2.653-1.675l-.453-.891c-1.392.708-2.386 1.329-2.913 1.865l.713.701zm2.652-1.674c.415-.209.754-.411.995-.607.121-.097.235-.207.321-.329a.847.847 0 00.167-.487h-1c0-.078.032-.112.016-.09a.74.74 0 01-.132.129c-.161.13-.427.294-.818.491l.451.893zm1.483-1.423v-2.099h-1v2.099h1zm0-2.099c0-.292-.06-.605-.27-.848-.222-.258-.53-.348-.828-.348v1c.053 0 .076.008.081.009.002.001-.005-.002-.011-.009-.01-.012.028.024.028.196h1zm-1.098-1.196a.955.955 0 00-.618.221 1.27 1.27 0 00-.358.516c-.15.373-.207.875-.207 1.46h1c0-.547.057-.894.134-1.086.037-.092.067-.118.069-.12l-.004.002-.009.005c-.008.002-.011.002-.007.002v-1zm-1.183 2.197c0 .219.013.532.037.933l.998-.061a15.718 15.718 0 01-.035-.872h-1zm.038.944c.032.395.047.68.047.862h1c0-.224-.018-.542-.05-.944l-.997.082zm.547.362h-3.357v1h3.357v-1zm-2.857.5v-2.832h-1v2.832h1zm0-2.832c0-.818.285-1.369.822-1.74.57-.394 1.487-.628 2.829-.628v-1c-1.426 0-2.584.243-3.398.805-.847.586-1.253 1.469-1.253 2.563h1zm3.65-2.368c1.244 0 2.085.241 2.607.643.496.383.775.967.775 1.847h1c0-1.114-.368-2.025-1.165-2.639-.772-.595-1.872-.851-3.216-.851v1zm3.382 2.49v11.28h1v-11.28h-1zm-2.479 8.631v-3.65h-1v3.65h1zm-.619-4.136c-.44.108-.827.273-1.112.529a1.35 1.35 0 00-.465 1.031h1c0-.114.036-.2.133-.287.114-.103.325-.214.682-.302l-.238-.971zm-1.577 1.56v2.576h1v-2.576h-1zm0 2.576c0 .288.069.596.295.832.23.238.538.315.828.315v-1c-.126 0-.13-.032-.107-.009.019.02-.016.005-.016-.138h-1zm1.123 1.147c.285 0 .585-.084.804-.33.209-.236.27-.538.27-.817h-1c0 .152-.036.173-.018.153.01-.011.02-.015.019-.015-.004.001-.026.009-.075.009v1zm11.767 1.502v.5h.5v-.5h-.5zm-5.017-.708l-.418.274.418-.274zm-.464-11.365h.5v-.5h-.5v.5zm-1.55 0h-.5v.5h.5v-.5zm0-2.1v-.5h-.5v.5h.5zm1.55 0v.5h.5v-.5h-.5zm0-2.856v-.5h-.5v.5h.5zm3.48 0h.5v-.5h-.5v.5zm0 2.856h-.5v.5h.5v-.5zm1.88 0h.5v-.5h-.5v.5zm0 2.1v.5h.5v-.5h-.5zm-1.88 0v-.5h-.5v.5h.5zm.365 9.46l-.257.429.009.005.008.005.24-.439zm1.636.208h.5v-.5h-.5v.5zm0 1.905H78.66v1h2.197v-1zm-2.197 0c-.766 0-1.348-.059-1.761-.162-.43-.108-.59-.243-.64-.32l-.837.548c.258.394.722.613 1.233.741.527.133 1.2.193 2.005.193v-1zm-2.402-.482c-.1-.154-.2-.422-.273-.845-.07-.417-.109-.949-.109-1.604h-1c0 .688.04 1.281.123 1.772.083.484.214.906.423 1.225l.836-.548zm-.382-2.449v-8.642h-1v8.642h1zm-.5-9.142h-1.55v1h1.55v-1zm-1.05.5v-2.1h-1v2.1h1zm-.5-1.6h1.55v-1h-1.55v1zm2.05-.5v-2.856h-1v2.856h1zm-.5-2.356h3.48v-1h-3.48v1zm2.98-.5v2.856h1v-2.856h-1zm.5 3.356h1.88v-1h-1.88v1zm1.38-.5v2.1h1v-2.1h-1zm.5 1.6h-1.88v1h1.88v-1zm-2.38.5v8.618h1v-8.618h-1zm0 8.618c0 .503.15.997.608 1.271l.515-.858c-.031-.018-.124-.086-.124-.413h-1zm.625 1.281c.21.115.487.176.776.213.3.038.67.056 1.1.056v-1c-.408 0-.73-.017-.974-.048-.257-.033-.38-.076-.421-.098l-.481.877zm1.376-.231v2.405h1v-2.405h-1zm10.876 2.405v.5h.754l-.293-.695-.46.195zm-4.09 0l-.46.192.127.308h.334v-.5zm-2.135-5.127l.461-.193-.962.193h.5zm0 5.127v.5h.5v-.5h-.5zm-3.467 0h-.5v.5h.5v-.5zm0-17.505v-.5h-.5v.5h.5zm3.466 0h.5v-.5h-.5v.5zm0 7.849h-.5l.966.183-.465-.183zm1.783-4.517v-.5h-.34l-.125.317.465.183zm3.6 0l.464.189.28-.689h-.743v.5zm-2.526 6.201l-.463-.188-.078.192.08.191.461-.195zm3.37 7.472h-4.09v1h4.09v-1zm-3.629.307l-2.136-5.127-.923.385 2.136 5.127.923-.385zm-3.097-4.934v5.127h1v-5.127h-1zm.5 4.627H81.54v1h3.466v-1zm-2.967.5v-17.505h-1v17.505h1zm-.5-17.005h3.466v-1H81.54v1zm2.966-.5v7.849h1v-7.849h-1zm.966 8.032l1.782-4.516-.93-.367-1.783 4.516.93.367zm1.317-4.2h3.6v-1h-3.6v1zm3.138-.689l-2.527 6.202.926.377 2.527-6.201-.926-.378zm-2.525 6.585l3.37 7.971.92-.389-3.368-7.971-.922.389zm11.24-5.798l-.25.434.002.001.248-.435zm-6.446 10.779v-8.484h-1v8.484h1zm0-8.484c0-.868.291-1.45.827-1.838.567-.409 1.477-.652 2.811-.652v-1c-1.425 0-2.583.254-3.396.842-.844.609-1.242 1.522-1.242 2.648h1zm3.638-2.49c.992 0 1.84.215 2.558.629l.5-.867c-.893-.514-1.917-.762-3.058-.762v1zm2.56.63c.648.369.968.922.968 1.738h1c0-1.153-.493-2.049-1.473-2.607l-.495.869zm.968 1.738v8.728h1v-8.728h-1zm0 8.728c0 .824-.28 1.376-.797 1.744-.548.391-1.432.625-2.73.625v1c1.386 0 2.516-.244 3.31-.81.826-.588 1.217-1.471 1.217-2.559h-1zm-3.528 2.369c-1.334 0-2.244-.244-2.81-.653-.537-.388-.828-.97-.828-1.838h-1c0 1.126.398 2.039 1.242 2.648.813.588 1.971.843 3.396.843v-1zm1.05-2.393v-8.679h-1v8.679h1zm0-8.679c0-.292-.062-.605-.27-.848-.223-.258-.53-.348-.829-.348v1c.053 0 .076.008.081.009.002.001-.005-.002-.011-.009-.01-.012.028.024.028.196h1zm-1.099-1.196c-.298 0-.609.088-.833.344-.214.244-.277.557-.277.852h1c0-.17.039-.204.028-.193-.006.007-.012.009-.007.008a.261.261 0 01.09-.011v-1zm-1.11 1.196v8.679h1v-8.679h-1zm0 8.679c0 .299.062.616.271.863.223.263.535.357.84.357v-1a.26.26 0 01-.085-.01c-.002-.001.003.001.008.007.006.007-.034-.036-.034-.217h-1zm1.11 1.22c.304 0 .614-.096.834-.361.205-.247.264-.562.264-.859h-1c0 .183-.04.227-.034.22.005-.006.012-.009.012-.009-.004.001-.025.009-.076.009v1zm13.086 1.478v.5h.5v-.5h-.5zm-8.349 0h-.5v.5h.5v-.5zm0-1.954l-.465-.184-.035.089v.095h.5zm3.943-9.948l.464.184.272-.684h-.736v.5zm-3.724 0h-.5v.5h.5v-.5zm0-2.271v-.5h-.5v.5h.5zm7.752 0h.5v-.5h-.5v.5zm0 1.917l.464.185.036-.089v-.096h-.5zm-4.004 10.009l-.464-.185-.275.685h.739v-.5zm4.382 0h.5v-.5h-.5v.5zm0 1.747h-8.349v1h8.349v-1zm-7.849.5v-1.954h-1v1.954h1zm-.036-1.769l3.943-9.949-.929-.369-3.943 9.949.929.369zm3.479-10.633h-3.724v1h3.724v-1zm-3.224.5v-2.271h-1v2.271h1zm-.5-1.771h7.752v-1h-7.752v1zm7.252-.5v1.917h1v-1.917h-1zm.036 1.731l-4.004 10.01.928.371 4.004-10.01-.928-.371zm-3.54 10.695h4.382v-1h-4.382v1zm3.882-.5v2.247h1v-2.247h-1zm9.326 2.247v.5h.5v-.5h-.5zm-3.076 0h-.5v.5h.5v-.5zm0-.55h.5l-.943-.232.443.232zm-4.395-5.981l-.356-.351-.003.003.359.348zm2.783-1.77l-.225-.447-.001.001.226.446zm-.036-1.172l-.499.03v.011l.499-.041zm.049.903v.5h.5v-.5h-.5zm-3.357 0h-.5v.5h.5v-.5zm4.553 2.271h.5v-.638l-.619.152.119.486zm1.685-11.206l.42.27.496-.77h-.916v.5zm-1.453 2.258v.5h.273l.147-.23-.42-.27zm-1.917 0l-.474-.157-.217.657h.691v-.5zm.745-2.258v-.5h-.362l-.113.343.475.157zm4.419 17.005h-3.076v1h3.076v-1zm-2.576.5v-.55h-1v.55h1zm-.943-.782c-.05.095-.17.217-.469.316-.301.101-.735.161-1.322.161v1c.641 0 1.194-.064 1.638-.212.446-.148.828-.399 1.039-.801l-.886-.464zm-1.791.477c-.897 0-1.477-.178-1.825-.45-.325-.253-.519-.646-.519-1.272h-1c0 .855.28 1.574.903 2.06.6.469 1.441.662 2.441.662v-1zm-2.344-1.722v-2.844h-1v2.844h1zm0-2.844c0-.501.174-.931.543-1.313l-.719-.695c-.543.562-.824 1.239-.824 2.008h1zm.54-1.31c.401-.408 1.262-.967 2.653-1.675l-.453-.891c-1.392.708-2.387 1.329-2.913 1.865l.713.701zm2.652-1.674c.415-.209.753-.411.995-.607.121-.097.234-.207.321-.329a.85.85 0 00.167-.487h-1c0-.078.031-.112.016-.09a.734.734 0 01-.132.129c-.161.13-.427.294-.818.491l.451.893zm1.483-1.423v-2.099h-1v2.099h1zm0-2.099c0-.292-.061-.605-.27-.848-.222-.258-.53-.348-.828-.348v1c.052 0 .076.008.081.009.002.001-.005-.002-.012-.009-.01-.012.029.024.029.196h1zm-1.098-1.196a.956.956 0 00-.618.221 1.271 1.271 0 00-.359.516c-.15.373-.207.875-.207 1.46h1c0-.547.057-.894.135-1.086.037-.092.067-.118.068-.12l-.003.002-.009.005c-.008.002-.012.002-.007.002v-1zm-1.184 2.197c0 .219.013.532.038.933l.998-.061a15.997 15.997 0 01-.036-.872h-1zm.038.944c.033.395.048.68.048.862h1c0-.224-.018-.542-.051-.944l-.997.082zm.548.362h-3.357v1h3.357v-1zm-2.857.5v-2.832h-1v2.832h1zm0-2.832c0-.818.285-1.369.822-1.74.57-.394 1.487-.628 2.828-.628v-1c-1.425 0-2.583.243-3.397.805-.847.586-1.253 1.469-1.253 2.563h1zm3.65-2.368c1.244 0 2.085.241 2.606.643.497.383.776.967.776 1.847h1c0-1.114-.368-2.025-1.165-2.639-.773-.595-1.873-.851-3.217-.851v1zm3.382 2.49v11.28h1v-11.28h-1zm-2.479 8.631v-3.65h-1v3.65h1zm-.619-4.136c-.44.108-.828.273-1.112.529-.302.27-.465.624-.465 1.031h1c0-.114.036-.2.133-.287.114-.103.324-.214.682-.302l-.238-.971zm-1.577 1.56v2.576h1v-2.576h-1zm0 2.576c0 .288.069.596.295.832.23.238.538.315.827.315v-1c-.125 0-.129-.032-.106-.009.018.02-.016.005-.016-.138h-1zm1.122 1.147c.285 0 .586-.084.805-.33.208-.236.269-.538.269-.817h-1c0 .152-.035.173-.018.153.01-.011.02-.015.019-.015-.003.001-.025.009-.075.009v1zm1.838-16.274l-1.453 2.258.841.541 1.453-2.258-.841-.541zm-1.032 2.029h-1.917v1h1.917v-1zm-1.442.657l.745-2.259-.95-.313-.744 2.258.949.314zm.27-1.915h2.625v-1h-2.625v1zm5.237 11.304v-.5h-.5v.5h.5zm3.467 0h.5v-.5h-.5v.5zm.451.024l.295-.404-.03-.021-.032-.018-.233.443zm-3.283-1.989l-.358.349.004.004.354-.353zm7.434-.94v.5h.5v-.5h-.5zm-3.394 0l-.499-.022-.023.522h.522v-.5zm.073-1.697l.5.021V121.488h-.5zm-1.013 1.074l-.451.216.004.008.447-.224zm3.198 2.014l.292-.406-.034-.024-.037-.019-.221.449zm-6.933 2.014h3.467v-1h-3.467v1zm2.967-.5v3.003h1v-3.003h-1zm0 3.003c0 .295.058.609.258.855.217.267.525.365.828.365v-1a.171.171 0 01-.067-.008l.006.004a.082.082 0 01.009.008c.005.007-.034-.039-.034-.224h-1zm1.086 1.22a.906.906 0 00.565-.193c.158-.124.263-.289.334-.456.138-.324.186-.75.186-1.23h-1c0 .439-.048.703-.106.839-.027.062-.044.07-.032.06a.103.103 0 01.053-.02v1zm1.085-1.879c0-.627-.062-1.174-.202-1.626-.141-.452-.37-.84-.723-1.098l-.589.808c.126.093.257.266.357.587.1.321.157.759.157 1.329h1zm-.987-2.763a41.427 41.427 0 01-2.156-1.196c-.547-.332-.867-.564-1.007-.704l-.707.707c.234.234.649.521 1.196.852.56.339 1.297.749 2.209 1.227l.465-.886zm-3.159-1.896c-.251-.256-.419-.679-.419-1.359h-1c0 .833.206 1.549.704 2.058l.715-.699zm-.419-1.359v-1.905h-1v1.905h1zm0-1.905c0-.872.287-1.455.81-1.84.551-.407 1.439-.65 2.743-.65v-1c-1.398 0-2.537.255-3.337.845-.828.611-1.216 1.523-1.216 2.645h1zm3.553-2.49c1.268 0 2.129.233 2.663.621.504.367.78.919.78 1.747h1c0-1.084-.381-1.966-1.192-2.556-.781-.568-1.891-.812-3.251-.812v1zm3.443 2.368v2.796h1v-2.796h-1zm.5 2.296h-3.394v1h3.394v-1zm-2.894.521l.073-1.697-.999-.043-.073 1.697.999.043zm.073-1.718c0-.607-.053-1.12-.192-1.499a1.303 1.303 0 00-.335-.53.906.906 0 00-.62-.241v1a.094.094 0 01-.053-.02c-.001 0 .007.007.021.029.013.022.03.056.048.105.077.211.131.582.131 1.156h1zm-1.147-2.27c-.392 0-.719.186-.917.526-.174.299-.23.682-.23 1.085h1c0-.339.053-.51.094-.582.017-.028.025-.029.019-.026-.006.004 0-.003.034-.003v-1zm-1.147 1.611c0 .79.095 1.458.33 1.949l.902-.432c-.139-.29-.232-.778-.232-1.517h-1zm.334 1.957c.096.191.263.36.435.504.182.153.415.317.692.492.554.349 1.323.764 2.298 1.243l.441-.898c-.962-.472-1.695-.869-2.206-1.192a5.226 5.226 0 01-.581-.41 1.368 1.368 0 01-.145-.137c-.034-.037-.042-.053-.04-.05l-.894.448zm3.354 2.196c.681.489 1 1.106 1 1.889h1c0-1.121-.487-2.034-1.417-2.701l-.583.812zm1 1.889v2.124h1v-2.124h-1zm0 2.124c0 .869-.29 1.452-.823 1.839-.561.408-1.465.652-2.791.652v1c1.417 0 2.57-.255 3.379-.843.839-.61 1.235-1.523 1.235-2.648h-1zm-3.614 2.491c-1.298 0-2.183-.234-2.731-.625-.517-.368-.797-.92-.797-1.744h-1c0 1.088.391 1.971 1.217 2.559.794.566 1.924.81 3.311.81v-1zm-3.528-2.369v-3.027h-1v3.027h1z"/>
  </g>
  <g filter="url(#filter4_d_514_290)">
    <path fill="#FFFF38" d="M161.406 10.993h3.504v4.016c0 .399.24.598.72.598.464 0 .696-.199.696-.598v-2.075c0-.635-.424-1.38-1.27-2.234-1.636-1.587-2.653-2.653-3.052-3.198a2.978 2.978 0 01-.598-1.794V3.742c0-2.27 1.481-3.406 4.443-3.406 2.653 0 3.98 1.034 3.98 3.101v3.027h-3.503V3.242c0-.35-.192-.525-.574-.525-.448 0-.672.338-.672 1.013l.074 1.135c0 .651.431 1.408 1.294 2.27 1.603 1.539 2.62 2.613 3.051 3.223.44.61.66 1.303.66 2.076v2.234c0 2.327-1.486 3.49-4.456 3.49-2.865 0-4.297-1.057-4.297-3.173v-3.992zm12.964-7.947h-3.479V.496h3.479v2.55zm0 14.954h-3.479V3.828h3.479V18zm10.449 0h-4.089l-2.136-5.127V18h-3.467V.495h3.467v7.85l1.782-4.517h3.601l-2.527 6.2L184.819 18zm8.679-6.006h-4.675v3.308c0 .48.204.72.61.72.399 0 .599-.24.599-.72v-2.856h3.466v2.88c0 1.913-1.363 2.87-4.089 2.87-2.702 0-4.053-.998-4.053-2.991V6.72c0-1.994 1.351-2.991 4.053-2.991 2.726 0 4.089.956 4.089 2.869v5.395zm-3.466-2.124V6.623c0-.464-.2-.696-.599-.696-.406 0-.61.232-.61.696V9.87h1.209zm12.5-.17h-3.479V6.622c0-.431-.2-.647-.599-.647-.398 0-.598.208-.598.623V18h-3.479V3.828h3.479v.476c.464-.383 1.18-.574 2.149-.574.692 0 1.286.187 1.782.562.496.366.745.85.745 1.452V9.7zm8.813 2.294h-4.675v3.308c0 .48.203.72.61.72.399 0 .598-.24.598-.72v-2.856h3.467v2.88c0 1.913-1.363 2.87-4.089 2.87-2.702 0-4.053-.998-4.053-2.991V6.72c0-1.994 1.351-2.991 4.053-2.991 2.726 0 4.089.956 4.089 2.869v5.395zm-3.467-2.124V6.623c0-.464-.199-.696-.598-.696-.407 0-.61.232-.61.696V9.87h1.208zm4.248 2.43h3.467v3.002c0 .48.195.72.586.72.391 0 .586-.46.586-1.379 0-1.196-.24-1.97-.72-2.32-1.815-.951-2.91-1.615-3.284-1.989-.374-.383-.561-.952-.561-1.709V6.721c0-1.994 1.351-2.991 4.052-2.991 2.629 0 3.943.956 3.943 2.869v2.795h-3.393l.073-1.697c0-1.18-.216-1.77-.647-1.77-.431 0-.647.37-.647 1.111 0 .765.094 1.343.281 1.733.195.391 1.261 1.063 3.198 2.015.806.577 1.208 1.342 1.208 2.295v2.124c0 1.993-1.371 2.99-4.113 2.99-2.686 0-4.029-.956-4.029-2.868v-3.028zm-70.068 26.694h-4.675v3.308c0 .48.203.72.61.72.399 0 .598-.24.598-.72v-2.856h3.467v2.88c0 1.913-1.363 2.87-4.089 2.87-2.702 0-4.053-.998-4.053-2.991V33.72c0-1.994 1.351-2.991 4.053-2.991 2.726 0 4.089.956 4.089 2.869v5.395zm-3.467-2.124v-3.247c0-.464-.199-.696-.598-.696-.407 0-.61.232-.61.696v3.247h1.208zm7.764 8.13h-3.479V27.495h3.479V45zm13.635 0h-3.467V33.672c0-.431-.199-.647-.598-.647-.407 0-.61.207-.61.623V45h-3.467V33.648c0-.432-.199-.648-.598-.648-.407 0-.61.208-.61.623V45h-3.467V30.828h3.467v.5c.48-.399 1.2-.598 2.16-.598.806 0 1.538.321 2.197.964.611-.643 1.445-.964 2.503-.964.602 0 1.168.183 1.697.55.529.357.793.858.793 1.5V45zm8.948-6.006h-4.675v3.308c0 .48.203.72.61.72.399 0 .598-.24.598-.72v-2.856h3.467v2.88c0 1.913-1.363 2.87-4.089 2.87-2.702 0-4.053-.998-4.053-2.991V33.72c0-1.994 1.351-2.991 4.053-2.991 2.726 0 4.089.956 4.089 2.869v5.395zm-3.467-2.124v-3.247c0-.464-.199-.696-.598-.696-.407 0-.61.232-.61.696v3.247h1.208zm1.733-9.375l-1.452 2.258h-1.917l.745-2.258h2.624zM173.235 45h-3.479V27.495h3.479V45zm8.935-6.006h-4.675v3.308c0 .48.203.72.61.72.399 0 .598-.24.598-.72v-2.856h3.467v2.88c0 1.913-1.363 2.87-4.089 2.87-2.702 0-4.053-.998-4.053-2.991V33.72c0-1.994 1.351-2.991 4.053-2.991 2.726 0 4.089.956 4.089 2.869v5.395zm-3.467-2.124v-3.247c0-.464-.199-.696-.598-.696-.407 0-.61.232-.61.696v3.247h1.208zM189.849 45h-2.198c-1.57 0-2.51-.236-2.82-.708-.309-.472-.463-1.38-.463-2.722v-8.643h-1.551v-2.1h1.551v-2.856h3.479v2.857h1.879v2.1h-1.879v8.617c0 .415.122.696.366.843.252.138.797.207 1.636.207V45zm4.077-14.954h-3.479v-2.55h3.479v2.55zm0 14.954h-3.479V30.828h3.479V45zm14.196-14.172L205.571 45h-4.199l-2.551-14.172h3.503l1.196 8.374 1.172-8.374h3.43zm3.894-.782h-3.479v-2.55h3.479v2.55zm0 14.954h-3.479V30.828h3.479V45zm9.021 0h-8.349v-1.953l3.943-9.949h-3.723v-2.27h7.751v1.916l-4.004 10.01h4.382V45zm.611-5.7h3.467v3.002c0 .48.195.72.586.72.39 0 .586-.46.586-1.379 0-1.196-.241-1.97-.721-2.32-1.814-.951-2.909-1.615-3.283-1.989-.375-.383-.562-.952-.562-1.709v-1.904c0-1.994 1.351-2.991 4.053-2.991 2.628 0 3.943.956 3.943 2.869v2.795h-3.394l.073-1.697c0-1.18-.215-1.77-.647-1.77-.431 0-.647.37-.647 1.111 0 .765.094 1.343.281 1.734.195.39 1.262 1.062 3.198 2.014.806.577 1.209 1.342 1.209 2.295v2.124c0 1.993-1.371 2.99-4.114 2.99-2.685 0-4.028-.956-4.028-2.868v-3.028zm9.485 8.703v-2.05h2.82c.821 0 1.232-.428 1.232-1.283-.455.35-1.171.525-2.148.525-.684 0-1.278-.179-1.782-.537-.497-.366-.745-.842-.745-1.428V33.05c0-1.547.924-2.32 2.771-2.32.488 0 1.131.207 1.929.622l.452-.524h2.99v13.977c0 .92-.183 1.68-.549 2.282-.358.61-1.481.916-3.369.916h-3.601zm4.052-5.53v-8.899c0-.431-.199-.647-.598-.647-.407 0-.61.216-.61.647v8.875c0 .431.203.647.61.647.399 0 .598-.208.598-.623zM247.637 45h-3.077v-.55c-.26.497-1.005.745-2.233.745-1.897 0-2.845-.74-2.845-2.221v-2.845c0-.634.228-1.188.684-1.66.464-.472 1.392-1.062 2.783-1.77.806-.407 1.209-.732 1.209-.976v-2.1c0-.464-.2-.696-.599-.696-.455 0-.683.566-.683 1.697 0 .203.012.505.036.903.033.4.049.7.049.904h-3.357v-2.832c0-1.913 1.384-2.869 4.151-2.869 2.588 0 3.882.997 3.882 2.99V45zm-3.479-2.649v-3.65c-.798.196-1.197.554-1.197 1.074v2.576c0 .431.208.647.623.647.382 0 .574-.216.574-.647z"/>
    <path fill="#000" d="M161.406 10.993v-.5h-.5v.5h.5zm3.504 0h.5v-.5h-.5v.5zm.146-.293l.355-.352-.007-.007-.348.36zm-3.052-3.198l-.403.295.403-.295zm7.825-1.038v.5h.5v-.5h-.5zm-3.503 0h-.5v.5h.5v-.5zM165.08 3.73h-.5v.016l.001.016.499-.032zm.074 1.135h.5V4.85l-.001-.016-.499.032zm1.294 2.27l-.354.354.007.008.347-.361zm3.051 3.223l-.408.289.003.004.405-.293zm-8.093 1.135h3.504v-1h-3.504v1zm3.004-.5v4.016h1v-4.016h-1zm0 4.016c0 .304.095.614.36.833.247.206.563.265.86.265v-1c-.184 0-.228-.04-.221-.034.006.005.01.012.01.012a.202.202 0 01-.009-.076h-1zm1.22 1.098c.292 0 .604-.06.848-.27.257-.222.348-.53.348-.828h-1a.234.234 0 01-.01.081c-.001.002.002-.005.01-.011.011-.01-.024.028-.196.028v1zm1.196-1.098v-2.075h-1v2.075h1zm0-2.075c0-.843-.549-1.712-1.415-2.586l-.71.704c.827.835 1.125 1.456 1.125 1.882h1zm-1.422-2.593c-1.643-1.594-2.627-2.63-2.996-3.134l-.807.59c.428.586 1.479 1.683 3.107 3.262l.696-.718zm-2.996-3.134a2.472 2.472 0 01-.502-1.5h-1c0 .762.236 1.463.695 2.09l.807-.59zm-.502-1.5V3.743h-1v1.966h1zm0-1.965c0-1.017.325-1.705.915-2.157.615-.472 1.597-.749 3.028-.749v-1c-1.53 0-2.77.291-3.636.955-.891.683-1.307 1.698-1.307 2.951h1zm3.943-2.906c1.276 0 2.14.251 2.678.67.514.4.802 1.012.802 1.931h1c0-1.149-.375-2.087-1.188-2.72-.789-.615-1.914-.88-3.292-.88v1zm3.48 2.601v3.027h1V3.437h-1zm.5 2.527h-3.503v1h3.503v-1zm-3.003.5V3.242h-1v3.222h1zm0-3.222c0-.264-.075-.55-.306-.763-.224-.204-.51-.262-.768-.262v1c.059 0 .091.007.105.01.012.004.003.004-.012-.01a.094.094 0 01-.025-.034s.006.015.006.059h1zm-1.074-1.025c-.371 0-.705.152-.92.477-.192.289-.252.659-.252 1.036h1c0-.298.053-.435.085-.484.012-.017.018-.02.018-.02a.159.159 0 01.069-.01v-1zm-1.171 1.545l.074 1.135.998-.064-.074-1.135-.998.064zm.073 1.103c0 .86.557 1.741 1.44 2.624l.707-.707c-.842-.842-1.147-1.475-1.147-1.917h-1zm1.447 2.632c1.609 1.543 2.591 2.585 2.99 3.15l.817-.577c-.464-.656-1.517-1.762-3.114-3.295l-.693.722zm2.993 3.154c.376.522.565 1.111.565 1.783h1a3.96 3.96 0 00-.754-2.368l-.811.585zm.565 1.783v2.234h1v-2.234h-1zm0 2.234c0 1.05-.329 1.76-.923 2.224-.616.484-1.599.767-3.033.767v1c1.537 0 2.782-.299 3.65-.98.892-.698 1.306-1.734 1.306-3.011h-1zm-3.956 2.99c-1.385 0-2.334-.258-2.926-.695-.563-.416-.871-1.045-.871-1.978h-1c0 1.183.409 2.14 1.277 2.782.841.621 2.041.892 3.52.892v-1zm-3.797-2.673v-3.992h-1v3.992h1zM174.37 3.046v.5h.5v-.5h-.5zm-3.479 0h-.5v.5h.5v-.5zm0-2.55v-.5h-.5v.5h.5zm3.479 0h.5v-.5h-.5v.5zm0 17.504v.5h.5V18h-.5zm-3.479 0h-.5v.5h.5V18zm0-14.172v-.5h-.5v.5h.5zm3.479 0h.5v-.5h-.5v.5zm0-1.282h-3.479v1h3.479v-1zm-2.979.5V.496h-1v2.55h1zm-.5-2.05h3.479v-1h-3.479v1zm2.979-.5v2.55h1V.496h-1zm.5 17.004h-3.479v1h3.479v-1zm-2.979.5V3.828h-1V18h1zm-.5-13.672h3.479v-1h-3.479v1zm2.979-.5V18h1V3.828h-1zM184.819 18v.5h.754l-.293-.695-.461.195zm-4.089 0l-.462.192.129.308h.333V18zm-2.136-5.127l.461-.192-.961.192h.5zm0 5.127v.5h.5V18h-.5zm-3.467 0h-.5v.5h.5V18zm0-17.505v-.5h-.5v.5h.5zm3.467 0h.5v-.5h-.5v.5zm0 7.85h-.5l.965.183-.465-.184zm1.782-4.517v-.5h-.34l-.125.316.465.184zm3.601 0l.463.188.281-.688h-.744v.5zm-2.527 6.2l-.463-.188-.078.192.081.191.46-.194zm3.369 7.472h-4.089v1h4.089v-1zm-3.628.308l-2.136-5.127-.923.384 2.136 5.127.923-.384zm-3.097-4.935V18h1v-5.127h-1zm.5 4.627h-3.467v1h3.467v-1zm-2.967.5V.495h-1V18h1zm-.5-17.005h3.467v-1h-3.467v1zm2.967-.5v7.85h1V.494h-1zm.965 8.033l1.782-4.517-.93-.367-1.782 4.517.93.367zm1.317-4.2h3.601v-1h-3.601v1zm3.138-.689l-2.527 6.201.926.377 2.527-6.2-.926-.378zm-2.524 6.585l3.369 7.97.921-.389-3.369-7.97-.921.388zm12.508 1.77v.5h.5v-.5h-.5zm-4.675 0v-.5h-.5v.5h.5zm1.209.452v-.5h-.5v.5h.5zm3.466 0h.5v-.5h-.5v.5zm-3.466-2.576v.5h.5v-.5h-.5zm-1.209 0h-.5v.5h.5v-.5zm4.675 1.624h-4.675v1h4.675v-1zm-5.175.5v3.308h1v-3.308h-1zm0 3.308c0 .299.062.616.271.864.223.263.535.357.839.357v-1a.248.248 0 01-.084-.01c-.002-.002.003 0 .008.006.006.007-.034-.035-.034-.217h-1zm1.11 1.22c.304 0 .614-.095.834-.36.205-.247.265-.563.265-.86h-1c0 .184-.04.228-.035.221a.04.04 0 01.012-.01.218.218 0 01-.076.01v1zm1.099-1.22v-2.856h-1v2.856h1zm-.5-2.356h3.466v-1h-3.466v1zm2.966-.5v2.88h1v-2.88h-1zm0 2.88c0 .822-.282 1.373-.809 1.743-.559.392-1.46.626-2.78.626v1c1.406 0 2.55-.244 3.354-.808.837-.586 1.235-1.47 1.235-2.56h-1zm-3.589 2.37c-1.304 0-2.191-.244-2.743-.65-.522-.386-.81-.97-.81-1.841h-1c0 1.122.389 2.034 1.217 2.645.799.59 1.938.845 3.336.845v-1zm-3.553-2.491V6.72h-1v8.484h1zm0-8.484c0-.872.288-1.455.81-1.841.552-.407 1.439-.65 2.743-.65v-1c-1.398 0-2.537.255-3.336.845-.828.611-1.217 1.524-1.217 2.646h1zm3.553-2.491c1.32 0 2.221.234 2.78.626.527.37.809.921.809 1.743h1c0-1.092-.398-1.975-1.235-2.561-.804-.564-1.948-.808-3.354-.808v1zm3.589 2.369v5.395h1V6.6h-1zm-2.466 3.271V6.623h-1V9.87h1zm0-3.247c0-.292-.062-.604-.271-.848-.221-.258-.53-.348-.828-.348v1c.053 0 .076.008.081.01.002 0-.005-.002-.011-.01-.01-.011.029.024.029.196h1zm-1.099-1.196c-.298 0-.609.088-.833.344-.214.244-.277.558-.277.852h1c0-.17.039-.204.029-.192-.007.007-.012.009-.008.007a.269.269 0 01.089-.01v-1zm-1.11 1.196V9.87h1V6.623h-1zm.5 3.747h1.209v-1h-1.209v1zm13.709-.67v.5h.5v-.5h-.5zm-3.479 0h-.5v.5h.5v-.5zm-1.197 8.3v.5h.5V18h-.5zm-3.479 0h-.5v.5h.5V18zm0-14.172v-.5h-.5v.5h.5zm3.479 0h.5v-.5h-.5v.5zm0 .476h-.5v1.06l.818-.675-.318-.385zm3.931-.013l-.301.4.004.003.297-.402zm.745 4.908h-3.479v1h3.479v-1zm-2.979.5V6.623h-1V9.7h1zm0-3.076c0-.283-.065-.59-.283-.825-.224-.242-.529-.322-.816-.322v1a.3.3 0 01.093.01c.005.003-.002.001-.011-.009-.018-.02.017-.002.017.146h1zm-1.099-1.147c-.281 0-.583.074-.809.31-.222.23-.289.533-.289.813h1c0-.136.033-.145.01-.12-.01.01-.017.011-.009.008a.31.31 0 01.097-.01v-1zM197.356 6.6V18h1V6.599h-1zm.5 10.901h-3.479v1h3.479v-1zm-2.979.5V3.828h-1V18h1zm-.5-13.672h3.479v-1h-3.479v1zm2.979-.5v.476h1v-.476h-1zm.818.861c.334-.275.912-.459 1.831-.459v-1c-1.019 0-1.873.198-2.467.688l.636.771zm1.831-.459c.596 0 1.081.16 1.481.46l.602-.798c-.593-.447-1.296-.662-2.083-.662v1zm1.485.464c.372.275.542.611.542 1.05h1c0-.765-.328-1.397-.948-1.855l-.594.805zm.542 1.05V9.7h1V5.744h-1zm9.313 6.25v.5h.5v-.5h-.5zm-4.675 0v-.5h-.5v.5h.5zm1.208.452v-.5h-.5v.5h.5zm3.467 0h.5v-.5h-.5v.5zm-3.467-2.576v.5h.5v-.5h-.5zm-1.208 0h-.5v.5h.5v-.5zm4.675 1.624h-4.675v1h4.675v-1zm-5.175.5v3.308h1v-3.308h-1zm0 3.308c0 .299.061.616.271.864.223.263.535.357.839.357v-1a.248.248 0 01-.084-.01c-.003-.002.003 0 .008.006.006.007-.034-.035-.034-.217h-1zm1.11 1.22c.304 0 .613-.095.833-.36.206-.247.265-.563.265-.86h-1c0 .184-.04.228-.034.221a.04.04 0 01.012-.01c-.004.002-.025.01-.076.01v1zm1.098-1.22v-2.856h-1v2.856h1zm-.5-2.356h3.467v-1h-3.467v1zm2.967-.5v2.88h1v-2.88h-1zm0 2.88c0 .822-.283 1.373-.809 1.743-.56.392-1.46.626-2.78.626v1c1.406 0 2.55-.244 3.354-.808.836-.586 1.235-1.47 1.235-2.56h-1zm-3.589 2.37c-1.304 0-2.192-.244-2.743-.65-.523-.386-.81-.97-.81-1.841h-1c0 1.122.388 2.034 1.216 2.645.8.59 1.939.845 3.337.845v-1zm-3.553-2.491V6.72h-1v8.484h1zm0-8.484c0-.872.287-1.455.81-1.841.551-.407 1.439-.65 2.743-.65v-1c-1.398 0-2.537.255-3.337.845-.828.611-1.216 1.524-1.216 2.646h1zm3.553-2.491c1.32 0 2.22.234 2.78.626.526.37.809.921.809 1.743h1c0-1.092-.399-1.975-1.235-2.561-.804-.564-1.948-.808-3.354-.808v1zm3.589 2.369v5.395h1V6.6h-1zm-2.467 3.271V6.623h-1V9.87h1zm0-3.247c0-.292-.061-.604-.27-.848-.222-.258-.53-.348-.828-.348v1c.053 0 .076.008.081.01.002 0-.005-.002-.011-.01-.01-.011.028.024.028.196h1zm-1.098-1.196c-.299 0-.609.088-.833.344-.214.244-.277.558-.277.852h1c0-.17.038-.204.028-.192-.006.007-.012.009-.007.007a.263.263 0 01.089-.01v-1zm-1.11 1.196V9.87h1V6.623h-1zm.5 3.747h1.208v-1h-1.208v1zm5.456 1.93v-.5h-.5v.5h.5zm3.467 0h.5v-.5h-.5v.5zm.452.024l.294-.404-.029-.022-.033-.017-.232.443zm-3.284-1.99l-.357.35.004.004.353-.354zm7.434-.94v.5h.5v-.5h-.5zm-3.393 0l-.5-.022-.022.522h.522v-.5zm.073-1.697l.499.022.001-.011v-.01h-.5zm-1.013 1.074l-.451.217.003.007.448-.224zm3.198 2.015l.291-.407-.033-.024-.037-.018-.221.449zm-6.934 2.013h3.467v-1h-3.467v1zm2.967-.5v3.003h1V12.3h-1zm0 3.003c0 .295.058.61.259.856.217.266.524.364.827.364v-1c-.047 0-.066-.007-.067-.007 0 0 .003 0 .007.004a.03.03 0 01.008.008c.006.007-.034-.04-.034-.225h-1zm1.086 1.22a.903.903 0 00.565-.192c.159-.125.264-.29.335-.457.137-.324.186-.75.186-1.23h-1c0 .44-.049.703-.107.84-.026.062-.043.07-.031.06a.1.1 0 01.052-.02v1zm1.086-1.879c0-.627-.062-1.174-.203-1.625-.14-.453-.369-.84-.723-1.098l-.589.808c.127.092.258.266.357.586.1.322.158.76.158 1.33h1zm-.988-2.762a41.818 41.818 0 01-2.155-1.196c-.548-.332-.867-.565-1.007-.705l-.707.707c.234.235.649.521 1.196.853.559.339 1.297.748 2.209 1.227l.464-.886zm-3.159-1.897c-.25-.256-.418-.678-.418-1.359h-1c0 .833.206 1.55.704 2.059l.714-.7zm-.418-1.359V6.721h-1v1.904h1zm0-1.904c0-.872.287-1.455.81-1.841.551-.407 1.438-.65 2.742-.65v-1c-1.397 0-2.536.255-3.336.845-.828.611-1.216 1.524-1.216 2.646h1zm3.552-2.491c1.269 0 2.13.233 2.663.621.504.367.78.92.78 1.748h1c0-1.084-.381-1.967-1.191-2.556-.781-.568-1.892-.813-3.252-.813v1zm3.443 2.369v2.795h1V6.599h-1zm.5 2.295h-3.393v1h3.393v-1zm-2.894.522l.073-1.697-.999-.043-.073 1.696.999.044zm.074-1.719c0-.606-.054-1.12-.192-1.499a1.33 1.33 0 00-.335-.53.909.909 0 00-.62-.24v1a.098.098 0 01-.054-.02c0-.001.008.006.021.028a.56.56 0 01.049.105c.077.211.131.583.131 1.156h1zm-1.147-2.27c-.392 0-.719.186-.917.526-.174.299-.23.683-.23 1.085h1c0-.338.052-.51.094-.581.016-.029.024-.03.018-.026-.006.003 0-.004.035-.004v-1zm-1.147 1.611c0 .791.094 1.458.33 1.95l.902-.433c-.139-.29-.232-.778-.232-1.517h-1zm.333 1.957c.096.191.264.36.435.505.182.153.415.317.692.491.555.35 1.324.764 2.298 1.243l.442-.897c-.963-.473-1.695-.87-2.207-1.192a5.442 5.442 0 01-.581-.41 1.519 1.519 0 01-.145-.138c-.033-.037-.041-.053-.039-.05l-.895.448zm3.355 2.197c.681.488.999 1.105.999 1.889h1c0-1.121-.486-2.034-1.417-2.702l-.582.813zm.999 1.889v2.124h1V13.08h-1zm0 2.124c0 .868-.29 1.451-.822 1.838-.562.409-1.466.652-2.791.652v1c1.417 0 2.57-.255 3.379-.843.839-.61 1.234-1.523 1.234-2.647h-1zm-3.613 2.49c-1.299 0-2.183-.234-2.732-.624-.517-.368-.797-.92-.797-1.744h-1c0 1.088.392 1.97 1.217 2.558.795.566 1.925.81 3.312.81v-1zm-3.529-2.368v-3.028h-1v3.028h1zm-70.568 23.667v.5h.5v-.5h-.5zm-4.675 0v-.5h-.5v.5h.5zm1.208.452v-.5h-.5v.5h.5zm3.467 0h.5v-.5h-.5v.5zm-3.467-2.576v.5h.5v-.5h-.5zm-1.208 0h-.5v.5h.5v-.5zm4.675 1.624h-4.675v1h4.675v-1zm-5.175.5v3.308h1v-3.308h-1zm0 3.308c0 .299.061.616.271.864.223.263.535.357.839.357v-1a.243.243 0 01-.084-.01c-.003-.002.003 0 .008.006.006.007-.034-.035-.034-.217h-1zm1.11 1.22c.303 0 .613-.095.833-.36.205-.247.265-.563.265-.86h-1c0 .184-.04.228-.034.221.005-.006.012-.01.011-.01a.208.208 0 01-.075.01v1zm1.098-1.22v-2.856h-1v2.856h1zm-.5-2.356h3.467v-1h-3.467v1zm2.967-.5v2.88h1v-2.88h-1zm0 2.88c0 .822-.283 1.373-.809 1.743-.56.392-1.46.626-2.78.626v1c1.406 0 2.55-.243 3.354-.807.836-.587 1.235-1.47 1.235-2.561h-1zm-3.589 2.37c-1.304 0-2.192-.244-2.743-.65-.523-.386-.81-.97-.81-1.841h-1c0 1.122.388 2.034 1.216 2.645.8.59 1.939.845 3.337.845v-1zm-3.553-2.491V33.72h-1v8.484h1zm0-8.484c0-.872.287-1.455.81-1.841.551-.407 1.439-.65 2.743-.65v-1c-1.398 0-2.537.255-3.337.845-.828.611-1.216 1.524-1.216 2.646h1zm3.553-2.491c1.32 0 2.22.234 2.78.627.526.369.809.92.809 1.742h1c0-1.092-.399-1.974-1.235-2.561-.804-.564-1.948-.808-3.354-.808v1zm3.589 2.369v5.395h1V33.6h-1zm-2.467 3.271v-3.247h-1v3.247h1zm0-3.247c0-.292-.061-.604-.27-.848-.222-.258-.53-.348-.828-.348v1c.052 0 .076.008.081.01.002 0-.005-.002-.012-.01-.009-.011.029.024.029.196h1zm-1.098-1.196c-.299 0-.609.088-.834.345-.213.243-.276.557-.276.851h1c0-.17.038-.204.028-.192-.006.007-.012.009-.007.007a.265.265 0 01.089-.01v-1zm-1.11 1.196v3.247h1v-3.247h-1zm.5 3.747h1.208v-1h-1.208v1zm8.972 7.63v.5h.5V45h-.5zm-3.479 0h-.5v.5h.5V45zm0-17.505v-.5h-.5v.5h.5zm3.479 0h.5v-.5h-.5v.5zm0 17.005h-3.479v1h3.479v-1zm-2.979.5V27.495h-1V45h1zm-.5-17.005h3.479v-1h-3.479v1zm2.979-.5V45h1V27.495h-1zM159.99 45v.5h.5V45h-.5zm-3.467 0h-.5v.5h.5V45zm-1.208 0v.5h.5V45h-.5zm-3.467 0h-.5v.5h.5V45zm-1.208 0v.5h.5V45h-.5zm-3.467 0h-.5v.5h.5V45zm0-14.172v-.5h-.5v.5h.5zm3.467 0h.5v-.5h-.5v.5zm0 .5h-.5v1.065l.819-.68-.319-.385zm4.357.366l-.349.358.363.354.349-.367-.363-.345zm4.2-.415l-.285.411.004.003.281-.414zm.793 13.221h-3.467v1h3.467v-1zm-2.967.5V33.672h-1V45h1zm0-11.328c0-.283-.064-.59-.282-.825-.225-.243-.529-.322-.816-.322v1c.056 0 .084.008.092.01.006.003-.001 0-.01-.009-.019-.02.016-.002.016.146h1zm-1.098-1.147c-.283 0-.586.073-.815.306-.226.23-.295.534-.295.816h1c0-.132.032-.14.009-.116-.024.025-.023-.006.101-.006v-1zm-1.11 1.123V45h1V33.648h-1zm.5 10.852h-3.467v1h3.467v-1zm-2.967.5V33.648h-1V45h1zm0-11.352c0-.284-.065-.59-.282-.825-.225-.243-.529-.322-.816-.322v1a.29.29 0 01.092.01c.006.002-.002 0-.011-.01-.018-.02.017-.001.017.147h1zM151.25 32.5c-.283 0-.587.073-.815.306-.226.231-.295.535-.295.817h1c0-.133.032-.14.009-.117-.025.025-.023-.005.101-.005v-1zm-1.11 1.123V45h1V33.623h-1zm.5 10.877h-3.467v1h3.467v-1zm-2.967.5V30.828h-1V45h1zm-.5-13.672h3.467v-1h-3.467v1zm2.967-.5v.5h1v-.5h-1zm.819.885c.353-.294.938-.483 1.841-.483v-1c-1.017 0-1.873.21-2.48.713l.639.77zm1.841-.483c.657 0 1.268.256 1.848.822l.699-.716c-.739-.72-1.592-1.106-2.547-1.106v1zm2.56.809c.498-.525 1.19-.809 2.14-.809v-1c-1.167 0-2.142.359-2.865 1.12l.725.689zm2.14-.809c.493 0 .961.148 1.412.46l.569-.822a3.424 3.424 0 00-1.981-.638v1zm1.416.463c.391.265.574.61.574 1.088h1c0-.808-.346-1.464-1.013-1.916l-.561.828zm.574 1.088V45h1V32.78h-1zm9.448 6.213v.5h.5v-.5h-.5zm-4.675 0v-.5h-.5v.5h.5zm1.208.452v-.5h-.5v.5h.5zm3.467 0h.5v-.5h-.5v.5zm-3.467-2.576v.5h.5v-.5h-.5zm-1.208 0h-.5v.5h.5v-.5zm2.941-9.375l.421.27.496-.77h-.917v.5zm-1.452 2.258v.5h.273l.147-.23-.42-.27zm-1.917 0l-.475-.156-.216.656h.691v-.5zm.745-2.258v-.5h-.362l-.113.343.475.157zm4.358 11h-4.675v1h4.675v-1zm-5.175.5v3.307h1v-3.308h-1zm0 3.307c0 .299.061.616.271.864.223.263.535.357.839.357v-1a.243.243 0 01-.084-.01c-.003-.002.003 0 .008.006.006.007-.034-.035-.034-.217h-1zm1.11 1.22c.303 0 .613-.095.833-.36.205-.247.265-.563.265-.86h-1c0 .184-.04.228-.034.221.005-.006.012-.01.011-.01a.214.214 0 01-.075.01v1zm1.098-1.22v-2.856h-1v2.856h1zm-.5-2.356h3.467v-1h-3.467v1zm2.967-.5v2.88h1v-2.88h-1zm0 2.88c0 .822-.283 1.373-.81 1.743-.559.392-1.46.626-2.779.626v1c1.406 0 2.55-.243 3.354-.807.836-.587 1.235-1.47 1.235-2.561h-1zm-3.589 2.37c-1.305 0-2.192-.244-2.743-.65-.523-.386-.81-.97-.81-1.841h-1c0 1.122.388 2.034 1.216 2.645.8.59 1.939.845 3.337.845v-1zm-3.553-2.491V33.72h-1v8.484h1zm0-8.484c0-.872.287-1.455.81-1.841.551-.407 1.438-.65 2.743-.65v-1c-1.398 0-2.537.255-3.337.845-.828.611-1.216 1.524-1.216 2.646h1zm3.553-2.491c1.319 0 2.22.234 2.779.627.527.369.81.92.81 1.742h1c0-1.092-.399-1.974-1.235-2.561-.804-.564-1.948-.808-3.354-.808v1zm3.589 2.369v5.395h1V33.6h-1zm-2.467 3.271v-3.247h-1v3.247h1zm0-3.247c0-.292-.061-.604-.27-.848-.222-.258-.53-.348-.828-.348v1c.052 0 .076.008.081.01.002 0-.005-.002-.012-.01-.009-.011.029.024.029.196h1zm-1.098-1.196c-.299 0-.609.088-.834.345-.213.243-.276.557-.276.851h1c0-.17.038-.204.028-.192-.006.007-.012.009-.007.007a.265.265 0 01.089-.01v-1zm-1.11 1.196v3.247h1v-3.247h-1zm.5 3.747h1.208v-1h-1.208v1zm2.521-10.145l-1.453 2.258.841.54 1.453-2.257-.841-.541zm-1.032 2.028h-1.917v1h1.917v-1zm-1.442.657l.745-2.258-.95-.314-.745 2.259.95.313zm.27-1.915h2.624v-1h-2.624v1zM173.235 45v.5h.5V45h-.5zm-3.479 0h-.5v.5h.5V45zm0-17.505v-.5h-.5v.5h.5zm3.479 0h.5v-.5h-.5v.5zm0 17.005h-3.479v1h3.479v-1zm-2.979.5V27.495h-1V45h1zm-.5-17.005h3.479v-1h-3.479v1zm2.979-.5V45h1V27.495h-1zm9.435 11.5v.5h.5v-.5h-.5zm-4.675 0v-.5h-.5v.5h.5zm1.208.45v-.5h-.5v.5h.5zm3.467 0h.5v-.5h-.5v.5zm-3.467-2.575v.5h.5v-.5h-.5zm-1.208 0h-.5v.5h.5v-.5zm4.675 1.624h-4.675v1h4.675v-1zm-5.175.5v3.308h1v-3.308h-1zm0 3.308c0 .299.062.616.271.864.223.263.535.357.839.357v-1a.248.248 0 01-.084-.01c-.002-.002.003 0 .008.006.006.007-.034-.035-.034-.217h-1zm1.11 1.22c.304 0 .614-.095.834-.36.205-.247.264-.563.264-.86h-1c0 .184-.039.228-.034.221a.04.04 0 01.012-.01c-.004.002-.025.01-.076.01v1zm1.098-1.22v-2.856h-1v2.856h1zm-.5-2.356h3.467v-1h-3.467v1zm2.967-.5v2.88h1v-2.88h-1zm0 2.88c0 .822-.282 1.373-.809 1.743-.559.392-1.46.626-2.78.626v1c1.406 0 2.55-.243 3.354-.807.836-.587 1.235-1.47 1.235-2.561h-1zm-3.589 2.37c-1.304 0-2.191-.244-2.743-.65-.523-.386-.81-.97-.81-1.841h-1c0 1.122.388 2.034 1.217 2.645.799.59 1.938.845 3.336.845v-1zm-3.553-2.491V33.72h-1v8.484h1zm0-8.484c0-.872.287-1.455.81-1.841.552-.407 1.439-.65 2.743-.65v-1c-1.398 0-2.537.255-3.336.845-.829.611-1.217 1.524-1.217 2.646h1zm3.553-2.491c1.32 0 2.221.234 2.78.627.527.369.809.92.809 1.742h1c0-1.092-.399-1.974-1.235-2.561-.804-.564-1.948-.808-3.354-.808v1zm3.589 2.369v5.395h1V33.6h-1zm-2.467 3.271v-3.247h-1v3.247h1zm0-3.247c0-.292-.061-.604-.27-.848-.222-.258-.53-.348-.828-.348v1c.053 0 .076.008.081.01.002 0-.005-.002-.011-.01-.01-.011.028.024.028.196h1zm-1.098-1.196c-.298 0-.609.088-.833.345-.214.243-.277.557-.277.851h1c0-.17.039-.204.028-.192-.006.007-.012.009-.007.007a.265.265 0 01.089-.01v-1zm-1.11 1.196v3.247h1v-3.247h-1zm.5 3.747h1.208v-1h-1.208v1zM189.849 45v.5h.5V45h-.5zm-5.018-.708l-.418.274.418-.274zm-.463-11.365h.5v-.5h-.5v.5zm-1.551 0h-.5v.5h.5v-.5zm0-2.1v-.5h-.5v.5h.5zm1.551 0v.5h.5v-.5h-.5zm0-2.856v-.5h-.5v.5h.5zm3.479 0h.5v-.5h-.5v.5zm0 2.857h-.5v.5h.5v-.5zm1.879 0h.5v-.5h-.5v.5zm0 2.1v.5h.5v-.5h-.5zm-1.879 0v-.5h-.5v.5h.5zm.366 9.46l-.257.428.008.005.008.005.241-.438zm1.636.207h.5v-.5h-.5v.5zm0 1.905h-2.198v1h2.198v-1zm-2.198 0c-.766 0-1.348-.058-1.761-.162-.429-.108-.589-.242-.64-.32l-.837.548c.259.394.722.614 1.234.742.526.132 1.2.192 2.004.192v-1zm-2.401-.482c-.101-.153-.201-.421-.274-.845-.071-.416-.108-.948-.108-1.603h-1c0 .688.039 1.28.123 1.771.082.484.213.906.422 1.225l.837-.548zm-.382-2.448v-8.643h-1v8.643h1zm-.5-9.143h-1.551v1h1.551v-1zm-1.051.5v-2.1h-1v2.1h1zm-.5-1.6h1.551v-1h-1.551v1zm2.051-.5v-2.856h-1v2.857h1zm-.5-2.356h3.479v-1h-3.479v1zm2.979-.5v2.857h1V27.97h-1zm.5 3.357h1.879v-1h-1.879v1zm1.379-.5v2.1h1v-2.1h-1zm.5 1.6h-1.879v1h1.879v-1zm-2.379.5v8.617h1v-8.618h-1zm0 8.617c0 .503.151.997.609 1.271l.514-.857c-.031-.019-.123-.086-.123-.414h-1zm.625 1.281c.211.116.487.177.776.213.301.039.67.056 1.101.056v-1c-.408 0-.731-.017-.975-.048-.257-.032-.379-.075-.421-.098l-.481.877zm1.377-.23V45h1v-2.405h-1zm4.577-12.55v.5h.5v-.5h-.5zm-3.479 0h-.5v.5h.5v-.5zm0-2.55v-.5h-.5v.5h.5zm3.479 0h.5v-.5h-.5v.5zm0 17.504v.5h.5V45h-.5zm-3.479 0h-.5v.5h.5V45zm0-14.172v-.5h-.5v.5h.5zm3.479 0h.5v-.5h-.5v.5zm0-1.282h-3.479v1h3.479v-1zm-2.979.5v-2.55h-1v2.55h1zm-.5-2.05h3.479v-1h-3.479v1zm2.979-.5v2.55h1v-2.55h-1zm.5 17.004h-3.479v1h3.479v-1zm-2.979.5V30.828h-1V45h1zm-.5-13.672h3.479v-1h-3.479v1zm2.979-.5V45h1V30.828h-1zm14.696 0l.493.088.105-.588h-.598v.5zM205.571 45v.5h.418l.074-.411-.492-.089zm-4.199 0l-.492.089.074.411h.418V45zm-2.551-14.172v-.5h-.598l.106.588.492-.088zm3.503 0l.495-.071-.061-.43h-.434v.5zm1.196 8.374l-.495.07.991-.001-.496-.07zm1.172-8.374v-.5h-.435l-.06.43.495.07zm2.938-.089l-2.551 14.172.984.178 2.552-14.173-.985-.177zM205.571 44.5h-4.199v1h4.199v-1zm-3.707.411l-2.551-14.172-.984.177 2.551 14.173.984-.178zm-3.043-13.583h3.503v-1h-3.503v1zm3.008-.43l1.196 8.374.99-.141-1.196-8.374-.99.141zm2.187 8.373l1.171-8.374-.99-.139-1.172 8.374.991.139zm.676-7.943h3.43v-1h-3.43v1zm7.324-1.282v.5h.5v-.5h-.5zm-3.479 0h-.5v.5h.5v-.5zm0-2.55v-.5h-.5v.5h.5zm3.479 0h.5v-.5h-.5v.5zm0 17.504v.5h.5V45h-.5zm-3.479 0h-.5v.5h.5V45zm0-14.172v-.5h-.5v.5h.5zm3.479 0h.5v-.5h-.5v.5zm0-1.282h-3.479v1h3.479v-1zm-2.979.5v-2.55h-1v2.55h1zm-.5-2.05h3.479v-1h-3.479v1zm2.979-.5v2.55h1v-2.55h-1zm.5 17.004h-3.479v1h3.479v-1zm-2.979.5V30.828h-1V45h1zm-.5-13.672h3.479v-1h-3.479v1zm2.979-.5V45h1V30.828h-1zM221.037 45v.5h.5V45h-.5zm-8.349 0h-.5v.5h.5V45zm0-1.953l-.465-.184-.035.088v.096h.5zm3.943-9.949l.465.184.271-.684h-.736v.5zm-3.723 0h-.5v.5h.5v-.5zm0-2.27v-.5h-.5v.5h.5zm7.751 0h.5v-.5h-.5v.5zm0 1.916l.464.186.036-.09v-.096h-.5zm-4.004 10.01l-.464-.186-.274.686h.738v-.5zm4.382 0h.5v-.5h-.5v.5zm0 1.746h-8.349v1h8.349v-1zm-7.849.5v-1.953h-1V45h1zm-.035-1.769l3.943-9.949-.93-.368-3.943 9.949.93.368zm3.478-10.633h-3.723v1h3.723v-1zm-3.223.5v-2.27h-1v2.27h1zm-.5-1.77h7.751v-1h-7.751v1zm7.251-.5v1.916h1v-1.916h-1zm.036 1.73l-4.004 10.01.928.372 4.004-10.01-.928-.372zm-3.54 10.696h4.382v-1h-4.382v1zm3.882-.5V45h1v-2.246h-1zm1.111-3.455v-.5h-.5v.5h.5zm3.467 0h.5v-.5h-.5v.5zm.451.025l.295-.404-.03-.022-.032-.017-.233.443zm-3.283-1.99l-.358.35.004.004.354-.354zm7.434-.94v.5h.5v-.5h-.5zm-3.394 0l-.499-.021-.023.521h.522v-.5zm.073-1.697l.5.022v-.022h-.5zm-1.013 1.075l-.451.216.004.007.447-.223zm3.198 2.014l.292-.407-.034-.024-.037-.018-.221.449zm-6.933 2.013h3.467v-1h-3.467v1zm2.967-.5v3.003h1V39.3h-1zm0 3.003c0 .295.058.61.258.856.217.266.525.364.828.364v-1c-.048 0-.066-.007-.067-.007 0 0 .002 0 .006.004l.009.008c.005.006-.034-.04-.034-.225h-1zm1.086 1.22a.905.905 0 00.565-.192c.158-.125.263-.29.334-.457.138-.324.187-.75.187-1.23h-1c0 .44-.049.703-.107.84-.027.062-.044.07-.032.06a.103.103 0 01.053-.02v1zm1.086-1.879c0-.627-.063-1.174-.203-1.625-.141-.453-.37-.84-.723-1.098l-.589.808c.126.092.257.266.357.586.1.322.158.76.158 1.33h1zm-.988-2.762a41.916 41.916 0 01-2.156-1.196c-.547-.332-.867-.565-1.007-.705l-.707.708c.234.234.649.52 1.196.852.56.339 1.297.748 2.209 1.227l.465-.886zm-3.159-1.897c-.251-.256-.419-.678-.419-1.359h-1c0 .833.206 1.55.704 2.059l.715-.7zm-.419-1.359v-1.904h-1v1.904h1zm0-1.904c0-.872.287-1.455.81-1.841.551-.407 1.439-.65 2.743-.65v-1c-1.398 0-2.537.255-3.337.845-.828.611-1.216 1.524-1.216 2.646h1zm3.553-2.491c1.268 0 2.129.233 2.663.622.504.366.78.918.78 1.747h1c0-1.084-.381-1.966-1.192-2.556-.781-.568-1.891-.813-3.251-.813v1zm3.443 2.369v2.795h1v-2.795h-1zm.5 2.295h-3.394v1h3.394v-1zm-2.894.522l.073-1.697-.999-.043-.073 1.697.999.043zm.073-1.719c0-.606-.053-1.12-.192-1.499a1.31 1.31 0 00-.335-.53.905.905 0 00-.62-.24v1a.095.095 0 01-.053-.02c-.001-.001.007.006.021.028.013.022.03.056.048.105.077.211.131.583.131 1.156h1zm-1.147-2.27c-.392 0-.719.186-.917.526-.174.299-.23.683-.23 1.085h1c0-.338.053-.51.094-.581.017-.029.025-.03.019-.026-.006.003 0-.004.034-.004v-1zm-1.147 1.611c0 .791.095 1.458.33 1.95l.902-.433c-.139-.29-.232-.778-.232-1.517h-1zm.334 1.957c.096.191.263.36.435.505.182.153.415.317.692.491.554.35 1.323.764 2.298 1.243l.441-.897c-.962-.473-1.695-.87-2.206-1.192a5.344 5.344 0 01-.581-.41 1.397 1.397 0 01-.145-.138c-.034-.037-.041-.053-.04-.05l-.894.448zm3.354 2.197c.681.488 1 1.105 1 1.889h1c0-1.121-.487-2.035-1.417-2.702l-.583.813zm1 1.889v2.124h1V40.08h-1zm0 2.124c0 .869-.29 1.451-.823 1.838-.561.409-1.465.652-2.791.652v1c1.417 0 2.57-.255 3.379-.843.839-.61 1.235-1.523 1.235-2.647h-1zm-3.614 2.49c-1.298 0-2.183-.234-2.731-.624-.517-.368-.797-.92-.797-1.744h-1c0 1.088.391 1.97 1.217 2.558.794.566 1.924.81 3.311.81v-1zm-3.528-2.368v-3.028h-1v3.028h1zm8.985 5.676h-.5v.5h.5v-.5zm0-2.05v-.5h-.5v.5h.5zm4.052-1.283h.5v-1.014l-.804.618.304.396zm-3.93-.012l-.297.403.007.005.29-.408zm3.955-13.306l-.231.444.351.183.259-.3-.379-.326zm.452-.524v-.5h-.23l-.149.174.379.326zm2.99 0h.5v-.5h-.5v.5zm-.549 16.26l-.427-.26-.004.006.431.253zm-6.47.915v-2.05h-1v2.05h1zm-.5-1.55h2.82v-1h-2.82v1zm2.82 0c.493 0 .953-.13 1.285-.475.328-.34.447-.808.447-1.308h-1c0 .355-.085.529-.168.615-.08.083-.236.167-.564.167v1zm.928-2.18c-.326.251-.908.422-1.844.422v1c1.017 0 1.867-.178 2.453-.628l-.609-.793zm-1.844.422c-.591 0-1.082-.153-1.493-.445l-.579.816c.598.424 1.296.63 2.072.63v-1zm-1.485-.44c-.377-.277-.542-.607-.542-1.025h-1c0 .754.332 1.376.948 1.83l.594-.804zm-.542-1.025V33.05h-1v10.18h1zm0-10.18c0-.671.196-1.09.514-1.357.335-.28.891-.463 1.757-.463v-1c-.981 0-1.81.203-2.399.696-.606.508-.872 1.247-.872 2.123h1zm2.271-1.82c.366 0 .921.162 1.698.566l.462-.887c-.819-.426-1.549-.679-2.16-.679v1zm2.308.449l.452-.525-.758-.652-.452.524.758.653zm.073-.351h2.99v-1h-2.99v1zm2.49-.5v13.977h1V30.828h-1zm0 13.977c0 .855-.17 1.52-.476 2.023l.854.52c.426-.702.622-1.56.622-2.543h-1zm-.48 2.03c-.082.138-.299.317-.811.456-.501.137-1.204.212-2.127.212v1c.964 0 1.767-.077 2.389-.246.611-.166 1.134-.445 1.411-.917l-.862-.506zm-2.938.668h-3.601v1h3.601v-1zm.951-5.03v-8.899h-1v8.9h1zm0-8.899c0-.283-.064-.589-.282-.824-.225-.243-.529-.323-.816-.323v1c.056 0 .084.008.092.011.006.002-.001 0-.01-.01-.019-.02.016-.002.016.146h1zm-1.098-1.147c-.288 0-.594.078-.821.319-.222.235-.289.542-.289.828h1c0-.145.035-.162.016-.142-.008.01-.014.01-.006.007a.313.313 0 01.1-.012v-1zm-1.11 1.147v8.875h1v-8.875h-1zm0 8.875c0 .285.067.593.289.828.227.24.533.319.821.319v-1a.313.313 0 01-.1-.012c-.008-.003-.002-.002.006.007.019.02-.016.003-.016-.142h-1zm1.11 1.147c.282 0 .584-.075.809-.31.223-.23.289-.533.289-.813h-1c0 .136-.032.144-.01.12.01-.01.018-.011.01-.009a.314.314 0 01-.098.012v1zM247.637 45v.5h.5V45h-.5zm-3.077 0h-.5v.5h.5V45zm0-.55h.5l-.942-.232.442.233zm-4.394-5.98l-.357-.351-.003.003.36.347zm2.783-1.77l-.225-.447h-.002l.227.446zm-.037-1.173l-.499.03.001.011.498-.04zm.049.904v.5h.5v-.5h-.5zm-3.357 0h-.5v.5h.5v-.5zm4.554 2.27h.5v-.637l-.619.151.119.486zm3.479 5.799h-3.077v1h3.077v-1zm-2.577.5v-.55h-1V45h1zm-.942-.782c-.05.095-.17.217-.469.317-.301.1-.735.16-1.322.16v1c.641 0 1.194-.064 1.638-.212.445-.148.827-.398 1.038-.8l-.885-.465zm-1.791.477c-.897 0-1.478-.177-1.826-.45-.325-.253-.519-.645-.519-1.271h-1c0 .855.28 1.573.904 2.06.599.468 1.441.661 2.441.661v-1zm-2.345-1.721v-2.845h-1v2.845h1zm0-2.845c0-.5.175-.93.544-1.313l-.72-.694c-.542.562-.824 1.238-.824 2.007h1zm.541-1.31c.401-.407 1.262-.966 2.653-1.674l-.454-.891c-1.392.708-2.386 1.329-2.913 1.865l.714.7zm2.652-1.674c.414-.209.753-.41.995-.606.121-.098.234-.207.32-.33a.842.842 0 00.168-.486h-1c0-.078.031-.112.016-.09a.711.711 0 01-.133.128c-.161.13-.426.294-.817.492l.451.892zm1.483-1.422v-2.1h-1v2.1h1zm0-2.1c0-.292-.062-.604-.271-.848-.221-.258-.53-.348-.828-.348v1c.053 0 .076.008.081.01.002 0-.005-.002-.011-.01-.01-.011.029.024.029.196h1zm-1.099-1.196a.953.953 0 00-.617.221c-.169.14-.282.325-.359.517-.15.373-.207.875-.207 1.459h1c0-.547.057-.893.135-1.086a.315.315 0 01.068-.12l-.003.003a.059.059 0 01-.01.004c-.007.003-.011.002-.007.002v-1zm-1.183 2.197c0 .22.013.533.037.934l.999-.061a15.028 15.028 0 01-.036-.873h-1zm.038.944c.032.396.047.68.047.863h1c0-.225-.017-.542-.05-.944l-.997.081zm.547.363h-3.357v1h3.357v-1zm-2.857.5v-2.832h-1v2.832h1zm0-2.832c0-.818.286-1.37.822-1.74.57-.394 1.487-.629 2.829-.629v-1c-1.426 0-2.584.244-3.397.806-.847.585-1.254 1.468-1.254 2.563h1zm3.651-2.369c1.243 0 2.084.242 2.606.644.497.383.776.967.776 1.847h1c0-1.114-.369-2.025-1.166-2.64-.772-.595-1.872-.851-3.216-.851v1zm3.382 2.49V45h1V33.72h-1zm-2.479 8.631v-3.65h-1v3.65h1zm-.619-4.136c-.44.108-.828.273-1.113.53-.301.27-.465.623-.465 1.03h1c0-.114.036-.2.133-.287.114-.102.325-.214.683-.301l-.238-.971zm-1.578 1.56v2.576h1v-2.576h-1zm0 2.576c0 .288.069.597.296.832.229.239.537.315.827.315v-1c-.126 0-.129-.031-.107-.008.019.02-.016.004-.016-.139h-1zm1.123 1.147c.285 0 .585-.083.804-.33.209-.235.27-.538.27-.817h-1c0 .153-.035.173-.018.154a.064.064 0 01.019-.015c-.004 0-.025.008-.075.008v1z"/>
  </g>
  <g filter="url(#filter5_d_514_290)">
    <path fill="#FFFF38" d="M300.969 37.578h3.504v4.016c0 .399.24.598.72.598.464 0 .696-.199.696-.598V39.52c0-.635-.423-1.38-1.27-2.234-1.635-1.587-2.653-2.653-3.051-3.198a2.973 2.973 0 01-.599-1.795v-1.965c0-2.27 1.482-3.406 4.444-3.406 2.653 0 3.979 1.034 3.979 3.101v3.027h-3.503v-3.222c0-.35-.191-.525-.574-.525-.447 0-.671.338-.671 1.013l.073 1.135c0 .651.431 1.408 1.294 2.27 1.603 1.539 2.62 2.613 3.052 3.223.439.61.659 1.302.659 2.076v2.233c0 2.328-1.485 3.492-4.456 3.492-2.864 0-4.297-1.058-4.297-3.174v-3.992zm12.964-7.947h-3.479v-2.55h3.479v2.55zm0 14.954h-3.479V30.413h3.479v14.172zm10.45 0h-4.09l-2.136-5.127v5.127h-3.467V27.08h3.467v7.85l1.782-4.517h3.601l-2.527 6.2 3.37 7.972zm8.679-6.006h-4.676v3.308c0 .48.204.72.611.72.399 0 .598-.24.598-.72v-2.856h3.467v2.88c0 1.913-1.363 2.87-4.09 2.87-2.701 0-4.052-.998-4.052-2.991v-8.484c0-1.994 1.351-2.991 4.052-2.991 2.727 0 4.09.956 4.09 2.869v5.395zm-3.467-2.124v-3.247c0-.464-.199-.696-.598-.696-.407 0-.611.232-.611.696v3.247h1.209zm12.5-.17h-3.479v-3.077c0-.431-.199-.647-.598-.647-.399 0-.598.208-.598.623v11.401h-3.479V30.413h3.479v.476c.463-.383 1.18-.574 2.148-.574.692 0 1.286.187 1.782.561.497.367.745.85.745 1.453v3.955zm8.813 2.294h-4.675v3.308c0 .48.204.72.61.72.399 0 .599-.24.599-.72v-2.856h3.466v2.88c0 1.913-1.363 2.87-4.089 2.87-2.702 0-4.053-.998-4.053-2.991v-8.484c0-1.994 1.351-2.991 4.053-2.991 2.726 0 4.089.956 4.089 2.869v5.395zm-3.466-2.124v-3.247c0-.464-.2-.696-.599-.696-.406 0-.61.232-.61.696v3.247h1.209zm4.248 2.43h3.466v3.002c0 .48.196.72.586.72.391 0 .586-.46.586-1.379 0-1.196-.24-1.97-.72-2.32-1.815-.952-2.909-1.615-3.284-1.99-.374-.382-.561-.951-.561-1.708v-1.904c0-1.994 1.351-2.991 4.053-2.991 2.628 0 3.942.956 3.942 2.869v2.795h-3.393l.073-1.697c0-1.18-.215-1.77-.647-1.77-.431 0-.647.37-.647 1.111 0 .765.094 1.343.281 1.733.195.391 1.261 1.063 3.198 2.015.806.577 1.209 1.342 1.209 2.294v2.125c0 1.993-1.372 2.99-4.114 2.99-2.686 0-4.028-.956-4.028-2.868v-3.028zm-87.537 35.703v-2.05h2.82c.822 0 1.233-.428 1.233-1.283-.456.35-1.172.525-2.149.525-.683 0-1.277-.179-1.782-.537-.496-.366-.745-.842-.745-1.428v-10.18c0-1.547.924-2.32 2.771-2.32.489 0 1.132.208 1.929.623l.452-.525h2.991V71.39c0 .92-.184 1.68-.55 2.282-.358.61-1.481.916-3.369.916h-3.601zm4.053-5.53V60.16c0-.431-.2-.647-.598-.647-.407 0-.611.216-.611.647v8.875c0 .431.204.647.611.647.398 0 .598-.208.598-.623zm13.415-11.645l-2.697 14.099c-.277 1.44-.652 2.31-1.124 2.612-.463.31-1.11.464-1.94.464h-2.43v-1.904c.912 0 1.477-.045 1.697-.135.22-.09.33-.354.33-.793 0-.44-.501-2.73-1.502-6.873l-1.806-7.47h3.479l1.452 7.495 1.148-7.495h3.393zm8.704 14.172h-3.076v-.55c-.261.497-1.005.745-2.234.745-1.896 0-2.844-.74-2.844-2.221v-2.845c0-.634.227-1.188.683-1.66.464-.472 1.392-1.062 2.783-1.77.806-.407 1.209-.732 1.209-.976v-2.1c0-.464-.199-.696-.598-.696-.456 0-.684.566-.684 1.697 0 .203.012.505.037.903.032.4.049.7.049.904h-3.357v-2.832c0-1.913 1.383-2.87 4.15-2.87 2.588 0 3.882.998 3.882 2.992v11.279zm-3.479-2.649v-3.65c-.798.195-1.196.553-1.196 1.074v2.576c0 .431.207.647.622.647.383 0 .574-.216.574-.647zm14.026 2.649h-4.09l-2.136-5.127v5.127h-3.467V54.08h3.467v7.85l1.782-4.517h3.601l-2.526 6.2 3.369 7.972zm.464-2.795v-8.484c0-1.994 1.379-2.991 4.138-2.991 1.066 0 2.002.232 2.807.696.814.464 1.221 1.188 1.221 2.173v8.728c0 1.912-1.343 2.868-4.028 2.868-2.759 0-4.138-.997-4.138-2.99zm4.687.097v-8.679c0-.464-.199-.696-.598-.696-.407 0-.61.232-.61.696v8.68c0 .48.203.72.61.72.399 0 .598-.24.598-.72zm12.439-5.603h-3.479v-3.076c0-.431-.199-.647-.598-.647-.399 0-.598.208-.598.623v11.401h-3.479V57.413h3.479v.476c.464-.383 1.18-.574 2.148-.574.692 0 1.286.187 1.782.562.497.366.745.85.745 1.452v3.955zm4.175 8.301h-3.479V54.08h3.479v17.505zm8.996 0h-3.076v-.55c-.26.497-1.005.745-2.234.745-1.896 0-2.844-.74-2.844-2.221v-2.845c0-.634.228-1.188.684-1.66.464-.472 1.391-1.062 2.783-1.77.806-.407 1.208-.732 1.208-.976v-2.1c0-.464-.199-.696-.598-.696-.455 0-.683.566-.683 1.697 0 .203.012.505.036.903.033.4.049.7.049.904h-3.357v-2.832c0-1.913 1.384-2.87 4.151-2.87 2.588 0 3.881.998 3.881 2.992v11.279zm-3.479-2.649v-3.65c-.797.195-1.196.553-1.196 1.074v2.576c0 .431.208.647.623.647.382 0 .573-.216.573-.647zm11.194 2.649h-2.197c-1.571 0-2.511-.236-2.82-.708-.309-.472-.464-1.38-.464-2.722v-8.643h-1.55v-2.1h1.55v-2.856h3.479v2.857h1.88v2.1h-1.88v8.617c0 .415.122.696.367.843.252.138.797.207 1.635.207v2.405zm4.077-14.954h-3.479v-2.55h3.479v2.55zm0 14.954h-3.479V57.413h3.479v14.172zm14.197-14.172l-2.551 14.172h-4.199l-2.551-14.172h3.503l1.196 8.374 1.172-8.374h3.43zm3.894-.782h-3.479v-2.55h3.479v2.55zm0 14.954h-3.479V57.413h3.479v14.172zm9.021 0h-8.349v-1.953l3.943-9.949h-3.724v-2.27h7.752v1.916l-4.004 10.01h4.382v2.246zm.611-5.7h3.466v3.002c0 .48.196.72.586.72.391 0 .586-.46.586-1.379 0-1.196-.24-1.97-.72-2.32-1.815-.951-2.909-1.615-3.284-1.99-.374-.382-.561-.951-.561-1.708v-1.904c0-1.994 1.351-2.991 4.053-2.991 2.628 0 3.943.956 3.943 2.869v2.795h-3.394l.073-1.697c0-1.18-.215-1.77-.647-1.77-.431 0-.647.37-.647 1.111 0 .765.094 1.343.281 1.733.195.391 1.261 1.063 3.198 2.015.806.577 1.209 1.342 1.209 2.294v2.125c0 1.993-1.372 2.99-4.114 2.99-2.686 0-4.028-.956-4.028-2.868v-3.028zm9.485 8.703v-2.05h2.819c.822 0 1.233-.428 1.233-1.283-.455.35-1.172.525-2.148.525-.684 0-1.278-.179-1.782-.537-.497-.366-.745-.842-.745-1.428v-10.18c0-1.547.924-2.32 2.771-2.32.488 0 1.131.208 1.929.623l.451-.525h2.991V71.39c0 .92-.183 1.68-.549 2.282-.358.61-1.481.916-3.369.916h-3.601zm4.052-5.53V60.16c0-.431-.199-.647-.598-.647-.407 0-.61.216-.61.647v8.875c0 .431.203.647.61.647.399 0 .598-.208.598-.623zm12.451 2.527h-3.076v-.55c-.26.497-1.005.745-2.234.745-1.896 0-2.844-.74-2.844-2.221v-2.845c0-.634.228-1.188.684-1.66.464-.472 1.391-1.062 2.783-1.77.806-.407 1.208-.732 1.208-.976v-2.1c0-.464-.199-.696-.598-.696-.455 0-.683.566-.683 1.697 0 .203.012.505.036.903.033.4.049.7.049.904h-3.357v-2.832c0-1.913 1.384-2.87 4.151-2.87 2.587 0 3.881.998 3.881 2.992v11.279zm-3.479-2.649v-3.65c-.797.195-1.196.553-1.196 1.074v2.576c0 .431.208.647.623.647.382 0 .573-.216.573-.647z"/>
    <path fill="#000" d="M300.969 37.578v-.5h-.5v.5h.5zm3.504 0h.5v-.5h-.5v.5zm.146-.293l.356-.352-.008-.007-.348.36zm-3.051-3.198l-.404.295.404-.295zm7.824-1.038v.5h.5v-.5h-.5zm-3.503 0h-.5v.5h.5v-.5zm-1.245-2.734h-.5v.016l.001.016.499-.032zm.073 1.135h.5v-.016l-.001-.016-.499.032zm1.294 2.27l-.354.354.008.008.346-.361zm3.052 3.223l-.409.289.003.004.406-.293zm-8.094 1.135h3.504v-1h-3.504v1zm3.004-.5v4.016h1v-4.016h-1zm0 4.016c0 .304.096.614.36.834.247.205.563.264.86.264v-1c-.183 0-.228-.04-.221-.034.006.005.01.012.01.012-.001-.004-.009-.025-.009-.076h-1zm1.22 1.098c.292 0 .604-.06.848-.27.258-.222.348-.53.348-.828h-1a.234.234 0 01-.01.081c-.001.002.003-.005.01-.011.011-.01-.024.028-.196.028v1zm1.196-1.098V39.52h-1v2.075h1zm0-2.075c0-.843-.549-1.712-1.414-2.586l-.711.704c.828.835 1.125 1.456 1.125 1.882h1zm-1.422-2.593c-1.643-1.594-2.627-2.63-2.996-3.134l-.807.59c.429.586 1.479 1.683 3.107 3.262l.696-.718zm-2.996-3.134a2.478 2.478 0 01-.502-1.5h-1c0 .762.236 1.463.695 2.09l.807-.59zm-.502-1.5v-1.965h-1v1.965h1zm0-1.965c0-1.017.325-1.705.915-2.157.616-.472 1.597-.749 3.029-.749v-1c-1.531 0-2.771.291-3.637.955-.891.683-1.307 1.698-1.307 2.951h1zm3.944-2.906c1.275 0 2.14.251 2.677.67.514.4.802 1.012.802 1.931h1c0-1.149-.375-2.087-1.187-2.72-.789-.615-1.915-.88-3.292-.88v1zm3.479 2.601v3.027h1v-3.027h-1zm.5 2.527h-3.503v1h3.503v-1zm-3.003.5v-3.222h-1v3.222h1zm0-3.222c0-.264-.074-.55-.306-.763-.223-.204-.51-.262-.768-.262v1c.059 0 .092.007.105.01.012.004.003.004-.012-.01a.133.133 0 01-.018-.021c-.005-.007-.006-.012-.007-.013 0 0 .006.015.006.059h1zm-1.074-1.025c-.371 0-.705.152-.92.477-.192.289-.251.659-.251 1.036h1c0-.298.052-.435.084-.484.012-.017.018-.02.018-.02a.158.158 0 01.069-.01v-1zm-1.17 1.545l.073 1.135.998-.064-.073-1.135-.998.064zm.072 1.103c0 .86.557 1.741 1.44 2.624l.707-.707c-.842-.842-1.147-1.475-1.147-1.917h-1zm1.448 2.631c1.609 1.544 2.59 2.586 2.989 3.15l.817-.576c-.463-.656-1.516-1.763-3.114-3.295l-.692.721zm2.992 3.154c.376.523.565 1.112.565 1.784h1a3.96 3.96 0 00-.754-2.368l-.811.584zm.565 1.784v2.233h1V39.02h-1zm0 2.233c0 1.05-.329 1.76-.922 2.225-.617.484-1.6.767-3.034.767v1c1.537 0 2.782-.3 3.65-.98.892-.698 1.306-1.734 1.306-3.012h-1zm-3.956 2.992c-1.385 0-2.333-.259-2.925-.696-.564-.416-.872-1.045-.872-1.978h-1c0 1.183.409 2.14 1.278 2.782.84.621 2.04.892 3.519.892v-1zm-3.797-2.674v-3.992h-1v3.992h1zm12.464-11.939v.5h.5v-.5h-.5zm-3.479 0h-.5v.5h.5v-.5zm0-2.55v-.5h-.5v.5h.5zm3.479 0h.5v-.5h-.5v.5zm0 17.504v.5h.5v-.5h-.5zm-3.479 0h-.5v.5h.5v-.5zm0-14.172v-.5h-.5v.5h.5zm3.479 0h.5v-.5h-.5v.5zm0-1.282h-3.479v1h3.479v-1zm-2.979.5v-2.55h-1v2.55h1zm-.5-2.05h3.479v-1h-3.479v1zm2.979-.5v2.55h1v-2.55h-1zm.5 17.004h-3.479v1h3.479v-1zm-2.979.5V30.413h-1v14.172h1zm-.5-13.672h3.479v-1h-3.479v1zm2.979-.5v14.172h1V30.413h-1zm10.95 14.172v.5h.754l-.294-.695-.46.195zm-4.09 0l-.461.192.128.308h.333v-.5zm-2.136-5.127l.461-.192-.961.192h.5zm0 5.127v.5h.5v-.5h-.5zm-3.467 0h-.5v.5h.5v-.5zm0-17.505v-.5h-.5v.5h.5zm3.467 0h.5v-.5h-.5v.5zm0 7.85h-.5l.965.183-.465-.184zm1.782-4.517v-.5h-.34l-.125.316.465.184zm3.601 0l.463.188.281-.688h-.744v.5zm-2.527 6.2l-.463-.188-.078.192.081.191.46-.194zm3.37 7.472h-4.09v1h4.09v-1zm-3.628.308l-2.137-5.127-.923.384 2.137 5.127.923-.384zm-3.098-4.935v5.127h1v-5.127h-1zm.5 4.627h-3.467v1h3.467v-1zm-2.967.5V27.08h-1v17.505h1zm-.5-17.005h3.467v-1h-3.467v1zm2.967-.5v7.85h1v-7.85h-1zm.965 8.033l1.782-4.517-.93-.367-1.782 4.517.93.367zm1.317-4.2h3.601v-1h-3.601v1zm3.138-.69l-2.527 6.202.926.377 2.527-6.2-.926-.378zm-2.524 6.585l3.369 7.972.921-.39-3.369-7.97-.921.388zm12.509 1.771v.5h.5v-.5h-.5zm-4.676 0v-.5h-.5v.5h.5zm1.209.452v-.5h-.5v.5h.5zm3.467 0h.5v-.5h-.5v.5zm-3.467-2.576v.5h.5v-.5h-.5zm-1.209 0h-.5v.5h.5v-.5zm4.676 1.624h-4.676v1h4.676v-1zm-5.176.5v3.308h1V38.58h-1zm0 3.308c0 .299.062.616.272.864.223.263.535.356.839.356v-1a.244.244 0 01-.084-.01c-.003-.001.003.001.007.007.007.007-.034-.035-.034-.217h-1zm1.111 1.22c.303 0 .613-.095.833-.36.205-.247.265-.563.265-.86h-1c0 .184-.04.228-.034.22a.044.044 0 01.011-.009.22.22 0 01-.075.01v1zm1.098-1.22v-2.856h-1v2.856h1zm-.5-2.356h3.467v-1h-3.467v1zm2.967-.5v2.88h1v-2.88h-1zm0 2.88c0 .822-.283 1.373-.81 1.743-.559.392-1.46.626-2.78.626v1c1.407 0 2.551-.244 3.355-.808.836-.586 1.235-1.47 1.235-2.56h-1zm-3.59 2.37c-1.304 0-2.191-.244-2.742-.65-.523-.387-.81-.97-.81-1.841h-1c0 1.121.388 2.034 1.216 2.645.8.59 1.939.845 3.336.845v-1zm-3.552-2.491v-8.484h-1v8.484h1zm0-8.484c0-.872.287-1.455.81-1.841.551-.407 1.438-.65 2.742-.65v-1c-1.397 0-2.536.255-3.336.845-.828.611-1.216 1.524-1.216 2.646h1zm3.552-2.491c1.32 0 2.221.234 2.78.626.527.37.81.921.81 1.743h1c0-1.092-.399-1.974-1.235-2.561-.804-.564-1.948-.808-3.355-.808v1zm3.59 2.369v5.395h1v-5.395h-1zm-2.467 3.271v-3.247h-1v3.247h1zm0-3.247c0-.292-.061-.604-.27-.848-.222-.258-.53-.348-.828-.348v1c.052 0 .076.008.081.01.002 0-.005-.002-.012-.01-.01-.011.029.024.029.196h1zm-1.098-1.196c-.299 0-.609.088-.834.344-.213.244-.277.558-.277.852h1c0-.17.039-.204.029-.192-.006.007-.012.009-.008.007a.27.27 0 01.09-.01v-1zm-1.111 1.196v3.247h1v-3.247h-1zm.5 3.747h1.209v-1h-1.209v1zm13.709-.67v.5h.5v-.5h-.5zm-3.479 0h-.5v.5h.5v-.5zm-1.196 8.3v.5h.5v-.5h-.5zm-3.479 0h-.5v.5h.5v-.5zm0-14.172v-.5h-.5v.5h.5zm3.479 0h.5v-.5h-.5v.5zm0 .476h-.5v1.06l.818-.675-.318-.385zm3.93-.012l-.301.399.004.003.297-.402zm.745 4.907h-3.479v1h3.479v-1zm-2.979.5v-3.076h-1v3.076h1zm0-3.076c0-.283-.065-.59-.282-.825-.225-.242-.529-.322-.816-.322v1c.056 0 .083.008.092.01.006.003-.002 0-.011-.009-.018-.02.017-.002.017.146h1zm-1.098-1.147c-.282 0-.584.074-.809.31-.222.23-.289.533-.289.813h1c0-.136.032-.145.01-.12-.01.01-.018.011-.01.008a.314.314 0 01.098-.011v-1zm-1.098 1.123v11.401h1V33.184h-1zm.5 10.901h-3.479v1h3.479v-1zm-2.979.5V30.413h-1v14.172h1zm-.5-13.672h3.479v-1h-3.479v1zm2.979-.5v.476h1v-.476h-1zm.818.861c.334-.275.911-.46 1.83-.46v-1c-1.018 0-1.873.2-2.466.689l.636.771zm1.83-.46c.596 0 1.081.16 1.481.462l.602-.799c-.593-.447-1.295-.662-2.083-.662v1zm1.485.465c.373.274.542.611.542 1.05h1c0-.765-.327-1.397-.948-1.855l-.594.805zm.542 1.05v3.955h1V32.33h-1zm9.313 6.25v.5h.5v-.5h-.5zm-4.675 0v-.5h-.5v.5h.5zm1.209.452v-.5h-.5v.5h.5zm3.466 0h.5v-.5h-.5v.5zm-3.466-2.576v.5h.5v-.5h-.5zm-1.209 0h-.5v.5h.5v-.5zm4.675 1.624h-4.675v1h4.675v-1zm-5.175.5v3.308h1V38.58h-1zm0 3.308c0 .299.062.616.271.864.223.263.535.356.839.356v-1a.25.25 0 01-.084-.01c-.002-.001.003.001.008.007.006.007-.034-.035-.034-.217h-1zm1.11 1.22c.304 0 .614-.095.834-.36.205-.247.265-.563.265-.86h-1c0 .184-.04.228-.035.22a.04.04 0 01.012-.009.222.222 0 01-.076.01v1zm1.099-1.22v-2.856h-1v2.856h1zm-.5-2.356h3.466v-1h-3.466v1zm2.966-.5v2.88h1v-2.88h-1zm0 2.88c0 .822-.282 1.373-.809 1.743-.559.392-1.46.626-2.78.626v1c1.406 0 2.55-.244 3.354-.808.837-.586 1.235-1.47 1.235-2.56h-1zm-3.589 2.37c-1.304 0-2.191-.244-2.743-.65-.522-.387-.81-.97-.81-1.841h-1c0 1.121.389 2.034 1.217 2.645.799.59 1.938.845 3.336.845v-1zm-3.553-2.491v-8.484h-1v8.484h1zm0-8.484c0-.872.288-1.455.81-1.841.552-.407 1.439-.65 2.743-.65v-1c-1.398 0-2.537.255-3.336.845-.828.611-1.217 1.524-1.217 2.646h1zm3.553-2.491c1.32 0 2.221.234 2.78.626.527.37.809.921.809 1.743h1c0-1.092-.398-1.974-1.235-2.561-.804-.564-1.948-.808-3.354-.808v1zm3.589 2.369v5.395h1v-5.395h-1zm-2.466 3.271v-3.247h-1v3.247h1zm0-3.247c0-.292-.062-.604-.271-.848-.221-.258-.53-.348-.828-.348v1c.053 0 .076.008.081.01.002 0-.005-.002-.011-.01-.01-.011.029.024.029.196h1zm-1.099-1.196c-.298 0-.609.088-.833.344-.214.244-.277.558-.277.852h1c0-.17.039-.204.029-.192-.007.007-.012.009-.008.007a.267.267 0 01.089-.01v-1zm-1.11 1.196v3.247h1v-3.247h-1zm.5 3.747h1.209v-1h-1.209v1zm5.457 1.93v-.5h-.5v.5h.5zm3.466 0h.5v-.5h-.5v.5zm.452.024l.295-.404-.03-.022-.033-.017-.232.443zm-3.284-1.99l-.357.35.004.004.353-.354zm7.434-.94v.5h.5v-.5h-.5zm-3.393 0l-.5-.022-.022.522h.522v-.5zm.073-1.697l.5.022V34.283h-.5zm-1.013 1.074l-.451.216.004.008.447-.224zm3.198 2.015l.292-.407-.034-.024-.037-.018-.221.449zm-6.933 2.013h3.466v-1h-3.466v1zm2.966-.5v3.003h1v-3.003h-1zm0 3.003c0 .295.058.61.259.856.217.266.525.364.827.364v-1a.184.184 0 01-.066-.007c-.001 0 .002 0 .006.004l.009.008c.005.006-.035-.04-.035-.225h-1zm1.086 1.22a.9.9 0 00.565-.192c.159-.125.264-.29.335-.457.138-.324.186-.75.186-1.23h-1c0 .44-.049.703-.106.84-.027.062-.044.07-.032.06a.1.1 0 01.052-.02v1zm1.086-1.879c0-.627-.062-1.174-.202-1.625-.141-.453-.37-.84-.723-1.098l-.589.808c.126.092.257.266.357.586.1.322.157.76.157 1.329h1zm-.988-2.762a41.742 41.742 0 01-2.155-1.197c-.547-.331-.867-.564-1.007-.704l-.707.708c.234.234.649.52 1.196.852.56.339 1.297.748 2.209 1.227l.464-.886zm-3.158-1.897c-.251-.256-.419-.678-.419-1.359h-1c0 .833.206 1.55.704 2.059l.715-.7zm-.419-1.359v-1.904h-1v1.904h1zm0-1.904c0-.872.287-1.455.81-1.841.551-.407 1.439-.65 2.743-.65v-1c-1.398 0-2.537.255-3.337.845-.828.611-1.216 1.524-1.216 2.646h1zm3.553-2.491c1.268 0 2.129.233 2.663.621.503.367.779.92.779 1.748h1c0-1.084-.381-1.967-1.191-2.556-.781-.568-1.891-.813-3.251-.813v1zm3.442 2.369v2.795h1v-2.795h-1zm.5 2.295h-3.393v1h3.393v-1zm-2.894.522l.074-1.697-.999-.043-.074 1.696.999.044zm.074-1.719c0-.606-.053-1.12-.192-1.499a1.309 1.309 0 00-.335-.53.905.905 0 00-.62-.24v1a.099.099 0 01-.054-.02c0-.001.008.006.021.028a.563.563 0 01.049.105c.077.211.131.583.131 1.156h1zm-1.147-2.27c-.392 0-.719.186-.917.526-.174.299-.23.683-.23 1.085h1c0-.338.052-.51.094-.581.016-.029.025-.03.019-.026-.006.003 0-.004.034-.004v-1zm-1.147 1.611c0 .79.095 1.458.33 1.95l.902-.433c-.139-.29-.232-.778-.232-1.517h-1zm.334 1.957c.095.191.263.36.435.505.182.153.415.317.692.491.554.35 1.323.764 2.298 1.243l.441-.897c-.962-.473-1.695-.87-2.207-1.192a5.314 5.314 0 01-.58-.41 1.451 1.451 0 01-.146-.138c-.033-.037-.041-.053-.039-.05l-.894.448zm3.354 2.197c.681.488 1 1.105 1 1.889h1c0-1.121-.487-2.035-1.417-2.702l-.583.813zm1 1.889v2.124h1v-2.124h-1zm0 2.124c0 .868-.29 1.451-.823 1.838-.562.409-1.465.652-2.791.652v1c1.417 0 2.57-.255 3.379-.843.839-.61 1.235-1.523 1.235-2.647h-1zm-3.614 2.49c-1.299 0-2.183-.234-2.731-.624-.517-.368-.797-.92-.797-1.744h-1c0 1.088.391 1.97 1.217 2.558.794.566 1.924.81 3.311.81v-1zm-3.528-2.368v-3.028h-1v3.028h1zm-88.037 32.676h-.5v.5h.5v-.5zm0-2.05v-.5h-.5v.5h.5zm4.053-1.283h.5v-1.014l-.805.618.305.396zm-3.931-.012l-.297.403.008.005.289-.408zm3.955-13.305l-.231.443.352.183.258-.3-.379-.327zm.452-.525v-.5h-.23l-.149.174.379.326zm2.991 0h.5v-.5h-.5v.5zm-.55 16.26l-.427-.26-.004.006.431.253zm-6.47.915v-2.05h-1v2.05h1zm-.5-1.55h2.82v-1h-2.82v1zm2.82 0c.493 0 .953-.13 1.285-.475.328-.34.448-.808.448-1.308h-1c0 .355-.086.529-.169.615-.079.083-.235.167-.564.167v1zm.928-2.18c-.326.25-.908.422-1.844.422v1c1.017 0 1.868-.178 2.453-.628l-.609-.793zm-1.844.422c-.591 0-1.081-.153-1.493-.445l-.578.816c.598.424 1.295.63 2.071.63v-1zm-1.485-.44c-.377-.277-.542-.608-.542-1.025h-1c0 .754.332 1.376.948 1.83l.594-.804zm-.542-1.025v-10.18h-1v10.18h1zm0-10.18c0-.671.196-1.09.514-1.357.335-.28.891-.463 1.757-.463v-1c-.981 0-1.81.203-2.399.696-.606.508-.872 1.247-.872 2.123h1zm2.271-1.82c.366 0 .922.162 1.698.566l.462-.887c-.818-.426-1.549-.68-2.16-.68v1zm2.308.449l.452-.525-.758-.652-.452.524.758.653zm.073-.351h2.991v-1h-2.991v1zm2.491-.5V71.39h1V57.413h-1zm0 13.977c0 .855-.171 1.52-.477 2.023l.854.52c.427-.702.623-1.56.623-2.543h-1zm-.481 2.03c-.081.138-.298.317-.811.456-.5.137-1.203.212-2.127.212v1c.965 0 1.767-.077 2.39-.246.61-.166 1.134-.445 1.411-.917l-.863-.506zm-2.938.668h-3.601v1h3.601v-1zm.952-5.03V60.16h-1v8.9h1zm0-8.899c0-.283-.065-.589-.283-.825-.224-.242-.528-.322-.815-.322v1a.29.29 0 01.092.011c.005.002-.002 0-.011-.01-.018-.02.017-.002.017.146h1zm-1.098-1.147c-.289 0-.595.078-.822.319-.222.235-.289.542-.289.828h1c0-.145.035-.162.017-.142-.009.01-.015.01-.007.007a.322.322 0 01.101-.012v-1zm-1.111 1.147v8.875h1v-8.875h-1zm0 8.875c0 .285.067.593.289.828.227.24.533.319.822.319v-1a.322.322 0 01-.101-.012c-.008-.003-.002-.002.007.007.018.02-.017.003-.017-.142h-1zm1.111 1.147c.281 0 .583-.075.809-.31.222-.23.289-.533.289-.813h-1c0 .135-.033.144-.01.12.01-.01.017-.011.009-.009a.31.31 0 01-.097.012v1zm14.013-12.768l.491.094.114-.594h-.605v.5zm-2.697 14.099l.491.094-.491-.094zm-1.124 2.612l-.268-.422-.009.006.277.416zm-4.37.464h-.5v.5h.5v-.5zm0-1.904v-.5h-.5v.5h.5zm.525-7.8l.486-.118-.486.117zm-1.806-7.471v-.5h-.636l.15.617.486-.117zm3.479 0l.491-.095-.079-.405h-.412v.5zm1.452 7.495l-.491.095.986-.02-.495-.075zm1.148-7.495v-.5h-.43l-.065.424.495.076zm2.902-.094l-2.698 14.099.983.188 2.697-14.1-.982-.187zm-2.697 14.098c-.135.702-.29 1.241-.457 1.63-.172.401-.333.585-.444.656l.537.843c.361-.23.623-.633.826-1.103.207-.482.378-1.098.52-1.837l-.982-.189zm-.91 2.291c-.351.234-.887.38-1.663.38v1c.883 0 1.641-.163 2.218-.548l-.555-.832zm-1.663.38h-2.43v1h2.43v-1zm-1.93.5v-1.904h-1v1.904h1zm-.5-1.404c.462 0 .846-.012 1.148-.035.282-.023.549-.06.738-.137l-.377-.926-.009.003a1.301 1.301 0 01-.117.026 3.604 3.604 0 01-.314.037c-.265.02-.619.032-1.069.032v1zm1.886-.172c.533-.217.641-.795.641-1.256h-1a.96.96 0 01-.044.336c-.015.036-.013.01.026-.006l.377.926zm.641-1.256c0-.164-.041-.435-.102-.767-.064-.35-.16-.813-.285-1.388-.252-1.15-.628-2.763-1.129-4.835l-.972.235c.5 2.07.875 3.674 1.124 4.814.125.57.217 1.021.278 1.354.064.35.086.53.086.587h1zm-1.516-6.99l-1.806-7.47-.972.234 1.806 7.47.972-.234zm-2.292-6.853h3.479v-1h-3.479v1zm2.988-.405l1.452 7.495.982-.19-1.452-7.495-.982.19zm2.438 7.475l1.147-7.495-.989-.151-1.147 7.495.989.151zm.653-7.07h3.393v-1h-3.393v1zm12.097 13.672v.5h.5v-.5h-.5zm-3.076 0h-.5v.5h.5v-.5zm0-.55h.5l-.943-.232.443.233zm-4.395-5.98l-.356-.351-.003.003.359.347zm2.783-1.77l-.225-.447h-.001l.226.446zm-.036-1.173l-.499.03v.011l.499-.04zm.049.904v.5h.5v-.5h-.5zm-3.357 0h-.5v.5h.5v-.5zm4.553 2.27h.5v-.637l-.619.151.119.486zm3.479 5.799h-3.076v1h3.076v-1zm-2.576.5v-.55h-1v.55h1zm-.943-.782c-.05.095-.17.217-.469.317-.301.1-.735.16-1.322.16v1c.641 0 1.194-.064 1.638-.212.445-.148.828-.398 1.039-.8l-.886-.465zm-1.791.477c-.897 0-1.477-.177-1.826-.45-.324-.253-.518-.645-.518-1.271h-1c0 .855.28 1.573.903 2.06.6.468 1.441.661 2.441.661v-1zm-2.344-1.721v-2.845h-1v2.845h1zm0-2.845c0-.5.174-.93.543-1.313l-.719-.694c-.543.562-.824 1.238-.824 2.007h1zm.54-1.31c.401-.407 1.262-.966 2.653-1.674l-.453-.891c-1.392.708-2.387 1.329-2.913 1.865l.713.7zm2.652-1.673c.415-.21.753-.412.995-.607a1.71 1.71 0 00.321-.33.849.849 0 00.167-.486h-1c0-.078.031-.112.016-.09a.73.73 0 01-.132.128c-.161.13-.427.295-.818.492l.451.892zm1.483-1.423v-2.1h-1v2.1h1zm0-2.1c0-.292-.061-.604-.27-.848-.222-.258-.53-.348-.828-.348v1c.052 0 .076.008.081.01.002 0-.005-.002-.012-.01-.01-.011.029.024.029.196h1zm-1.098-1.196a.956.956 0 00-.618.221c-.169.14-.282.326-.359.517-.15.373-.207.875-.207 1.459h1c0-.547.057-.893.135-1.086.037-.091.067-.118.068-.12l-.003.003a.184.184 0 01-.009.004c-.008.003-.012.002-.007.002v-1zm-1.184 2.197c0 .22.013.533.038.934l.998-.061a15.997 15.997 0 01-.036-.873h-1zm.038.944c.033.395.048.68.048.863h1c0-.225-.018-.542-.051-.944l-.997.081zm.548.363h-3.357v1h3.357v-1zm-2.857.5v-2.832h-1v2.832h1zm0-2.832c0-.819.285-1.37.822-1.74.569-.395 1.487-.63 2.828-.63v-1c-1.426 0-2.583.245-3.397.807-.847.585-1.253 1.468-1.253 2.563h1zm3.65-2.37c1.244 0 2.085.243 2.606.645.497.383.776.967.776 1.847h1c0-1.114-.368-2.025-1.165-2.64-.773-.595-1.873-.851-3.217-.851v1zm3.382 2.492v11.279h1v-11.28h-1zm-2.479 8.63v-3.65h-1v3.65h1zm-.619-4.136c-.44.108-.828.273-1.112.53a1.35 1.35 0 00-.465 1.03h1c0-.114.035-.2.133-.287.114-.102.324-.214.682-.301l-.238-.972zm-1.577 1.56v2.576h1V66.36h-1zm0 2.576c0 .288.069.597.295.832.23.239.538.315.827.315v-1c-.125 0-.129-.032-.106-.008.018.02-.016.004-.016-.139h-1zm1.122 1.147c.285 0 .586-.083.805-.33.208-.236.269-.538.269-.817h-1c0 .152-.035.173-.018.153.01-.01.02-.015.019-.014a.229.229 0 01-.075.008v1zm14.6 1.502v.5h.754l-.294-.695-.46.195zm-4.09 0l-.461.192.128.308h.333v-.5zm-2.136-5.127l.462-.192-.962.192h.5zm0 5.127v.5h.5v-.5h-.5zm-3.467 0h-.5v.5h.5v-.5zm0-17.505v-.5h-.5v.5h.5zm3.467 0h.5v-.5h-.5v.5zm0 7.85h-.5l.965.183-.465-.184zm1.782-4.517v-.5h-.34l-.125.316.465.184zm3.601 0l.464.188.28-.688h-.744v.5zm-2.526 6.2l-.463-.188-.079.192.081.191.461-.194zm3.369 7.472h-4.09v1h4.09v-1zm-3.628.308l-2.136-5.127-.923.384 2.136 5.127.923-.384zm-3.098-4.935v5.127h1v-5.127h-1zm.5 4.627h-3.467v1h3.467v-1zm-2.967.5V54.08h-1v17.505h1zm-.5-17.005h3.467v-1h-3.467v1zm2.967-.5v7.85h1v-7.85h-1zm.965 8.033l1.783-4.517-.931-.367-1.782 4.517.93.367zm1.317-4.2h3.601v-1h-3.601v1zm3.138-.69l-2.526 6.202.926.377 2.527-6.2-.927-.378zm-2.524 6.585l3.369 7.972.921-.39-3.369-7.97-.921.388zm11.239-5.797l-.249.433.002.001.247-.434zm-6.445 10.779v-8.484h-1v8.484h1zm0-8.484c0-.868.291-1.45.827-1.838.566-.41 1.477-.653 2.811-.653v-1c-1.425 0-2.583.255-3.397.842-.843.61-1.241 1.523-1.241 2.649h1zm3.638-2.491c.991 0 1.839.215 2.558.63l.499-.868c-.892-.513-1.917-.762-3.057-.762v1zm2.56.63c.648.37.968.922.968 1.739h1c0-1.153-.494-2.05-1.473-2.608l-.495.87zm.968 1.739v8.728h1v-8.728h-1zm0 8.728c0 .824-.28 1.375-.797 1.744-.548.39-1.433.624-2.731.624v1c1.387 0 2.517-.244 3.311-.81.826-.588 1.217-1.47 1.217-2.558h-1zm-3.528 2.368c-1.334 0-2.245-.243-2.811-.653-.536-.387-.827-.97-.827-1.837h-1c0 1.126.398 2.038 1.241 2.648.814.587 1.972.842 3.397.842v-1zm1.049-2.393v-8.679h-1v8.68h1zm0-8.679c0-.292-.061-.604-.27-.848-.222-.258-.53-.348-.828-.348v1c.052 0 .076.008.081.01.002 0-.005-.002-.012-.01-.009-.011.029.024.029.196h1zm-1.098-1.196c-.299 0-.609.088-.834.344-.213.244-.276.558-.276.852h1c0-.17.038-.204.028-.192-.006.007-.012.009-.007.007a.262.262 0 01.089-.01v-1zm-1.11 1.196v8.68h1v-8.68h-1zm0 8.68c0 .298.061.615.271.863.223.263.535.356.839.356v-1a.244.244 0 01-.084-.01c-.003-.001.003.001.008.007.006.007-.034-.035-.034-.217h-1zm1.11 1.22c.303 0 .613-.096.833-.361.205-.247.265-.563.265-.86h-1c0 .183-.04.228-.034.22l.011-.009a.213.213 0 01-.075.01v1zm13.037-6.824v.5h.5v-.5h-.5zm-3.479 0h-.5v.5h.5v-.5zm-1.196 8.301v.5h.5v-.5h-.5zm-3.479 0h-.5v.5h.5v-.5zm0-14.172v-.5h-.5v.5h.5zm3.479 0h.5v-.5h-.5v.5zm0 .476h-.5v1.06l.818-.675-.318-.385zm3.93-.013l-.301.4.005.003.296-.403zm.745 4.908h-3.479v1h3.479v-1zm-2.979.5v-3.076h-1v3.076h1zm0-3.076c0-.283-.065-.59-.282-.825-.225-.242-.529-.322-.816-.322v1c.056 0 .084.008.092.01.006.003-.002 0-.011-.009-.018-.02.017-.002.017.146h1zm-1.098-1.147c-.282 0-.584.074-.809.31-.222.23-.289.533-.289.813h1c0-.136.033-.145.01-.12-.01.01-.018.011-.01.008a.32.32 0 01.098-.011v-1zm-1.098 1.123v11.401h1V60.184h-1zm.5 10.901h-3.479v1h3.479v-1zm-2.979.5V57.413h-1v14.172h1zm-.5-13.672h3.479v-1h-3.479v1zm2.979-.5v.476h1v-.476h-1zm.818.861c.334-.275.912-.46 1.83-.46v-1c-1.018 0-1.872.2-2.466.689l.636.771zm1.83-.46c.596 0 1.081.16 1.481.462l.603-.799c-.593-.447-1.296-.662-2.084-.662v1zm1.486.465c.372.274.541.611.541 1.05h1c0-.765-.327-1.397-.948-1.855l-.593.805zm.541 1.05v3.955h1V59.33h-1zm4.675 12.256v.5h.5v-.5h-.5zm-3.479 0h-.5v.5h.5v-.5zm0-17.505v-.5h-.5v.5h.5zm3.479 0h.5v-.5h-.5v.5zm0 17.005h-3.479v1h3.479v-1zm-2.979.5V54.08h-1v17.505h1zm-.5-17.005h3.479v-1h-3.479v1zm2.979-.5v17.505h1V54.08h-1zm9.496 17.505v.5h.5v-.5h-.5zm-3.076 0h-.5v.5h.5v-.5zm0-.55h.5l-.942-.232.442.233zm-4.394-5.98l-.357-.351-.003.003.36.347zm2.783-1.77l-.225-.447h-.002l.227.446zm-.037-1.173l-.499.03.001.011.498-.04zm.049.904v.5h.5v-.5h-.5zm-3.357 0h-.5v.5h.5v-.5zm4.553 2.27h.5v-.637l-.618.151.118.486zm3.479 5.799h-3.076v1h3.076v-1zm-2.576.5v-.55h-1v.55h1zm-.942-.782c-.05.095-.17.217-.47.317-.301.1-.734.16-1.322.16v1c.642 0 1.195-.064 1.639-.212.445-.148.827-.398 1.038-.8l-.885-.465zm-1.792.477c-.896 0-1.477-.177-1.825-.45-.325-.253-.519-.645-.519-1.271h-1c0 .855.28 1.573.903 2.06.6.468 1.442.661 2.441.661v-1zm-2.344-1.721v-2.845h-1v2.845h1zm0-2.845c0-.5.174-.93.543-1.313l-.719-.694c-.542.562-.824 1.238-.824 2.007h1zm.54-1.31c.402-.407 1.263-.966 2.654-1.674l-.454-.891c-1.392.708-2.386 1.329-2.913 1.865l.713.7zm2.652-1.673c.415-.21.754-.412.996-.607.121-.098.234-.207.32-.33a.842.842 0 00.167-.486h-1c0-.078.032-.112.017-.09a.752.752 0 01-.133.128c-.161.13-.427.295-.817.492l.45.892zm1.483-1.423v-2.1h-1v2.1h1zm0-2.1c0-.292-.061-.604-.27-.848-.222-.258-.53-.348-.828-.348v1c.053 0 .076.008.081.01.002 0-.005-.002-.011-.01-.01-.011.028.024.028.196h1zm-1.098-1.196a.953.953 0 00-.617.221c-.17.14-.282.326-.359.517-.15.373-.207.875-.207 1.459h1c0-.547.057-.893.134-1.086a.32.32 0 01.069-.12l-.003.003-.01.004c-.008.003-.011.002-.007.002v-1zm-1.183 2.197c0 .22.013.533.037.934l.998-.061a15.75 15.75 0 01-.035-.873h-1zm.038.944c.032.395.047.68.047.863h1c0-.225-.017-.542-.05-.944l-.997.081zm.547.363h-3.357v1h3.357v-1zm-2.857.5v-2.832h-1v2.832h1zm0-2.832c0-.819.286-1.37.822-1.74.57-.395 1.487-.63 2.829-.63v-1c-1.426 0-2.584.245-3.397.807-.847.585-1.254 1.468-1.254 2.563h1zm3.651-2.37c1.243 0 2.084.243 2.606.645.497.383.775.967.775 1.847h1c0-1.114-.368-2.025-1.165-2.64-.772-.595-1.872-.851-3.216-.851v1zm3.381 2.492v11.279h1v-11.28h-1zm-2.479 8.63v-3.65h-1v3.65h1zm-.618-4.136c-.44.108-.828.273-1.113.53-.301.27-.465.623-.465 1.03h1c0-.114.036-.2.133-.287.114-.102.325-.214.682-.301l-.237-.972zm-1.578 1.56v2.576h1V66.36h-1zm0 2.576c0 .288.069.597.296.832.229.239.537.315.827.315v-1c-.126 0-.129-.032-.107-.008.019.02-.016.004-.016-.139h-1zm1.123 1.147c.285 0 .585-.083.804-.33.209-.236.269-.538.269-.817h-1c0 .152-.035.173-.017.153a.067.067 0 01.019-.014c-.004 0-.025.008-.075.008v1zm11.767 1.502v.5h.5v-.5h-.5zm-5.017-.708l-.418.274.418-.274zm-.464-11.365h.5v-.5h-.5v.5zm-1.55 0h-.5v.5h.5v-.5zm0-2.1v-.5h-.5v.5h.5zm1.55 0v.5h.5v-.5h-.5zm0-2.856v-.5h-.5v.5h.5zm3.479 0h.5v-.5h-.5v.5zm0 2.857h-.5v.5h.5v-.5zm1.88 0h.5v-.5h-.5v.5zm0 2.1v.5h.5v-.5h-.5zm-1.88 0v-.5h-.5v.5h.5zm.367 9.46l-.258.428.009.005.008.005.241-.438zm1.635.207h.5v-.5h-.5v.5zm0 1.905h-2.197v1h2.197v-1zm-2.197 0c-.766 0-1.348-.058-1.761-.162-.429-.108-.59-.242-.641-.32l-.836.548c.258.394.722.614 1.233.742.527.132 1.201.192 2.005.192v-1zm-2.402-.482c-.1-.153-.201-.421-.273-.845-.071-.416-.109-.948-.109-1.603h-1c0 .688.04 1.28.123 1.771.083.484.214.906.423 1.225l.836-.548zm-.382-2.448v-8.643h-1v8.643h1zm-.5-9.143h-1.55v1h1.55v-1zm-1.05.5v-2.1h-1v2.1h1zm-.5-1.6h1.55v-1h-1.55v1zm2.05-.5v-2.856h-1v2.857h1zm-.5-2.356h3.479v-1h-3.479v1zm2.979-.5v2.857h1v-2.857h-1zm.5 3.357h1.88v-1h-1.88v1zm1.38-.5v2.1h1v-2.1h-1zm.5 1.6h-1.88v1h1.88v-1zm-2.38.5v8.617h1v-8.618h-1zm0 8.617c0 .503.152.997.609 1.271l.515-.857c-.031-.019-.124-.086-.124-.414h-1zm.626 1.281c.211.116.487.177.776.213.301.038.67.056 1.1.056v-1c-.407 0-.73-.017-.974-.048-.257-.032-.38-.075-.421-.098l-.481.877zm1.376-.23v2.404h1V69.18h-1zm4.577-12.55v.5h.5v-.5h-.5zm-3.479 0h-.5v.5h.5v-.5zm0-2.55v-.5h-.5v.5h.5zm3.479 0h.5v-.5h-.5v.5zm0 17.504v.5h.5v-.5h-.5zm-3.479 0h-.5v.5h.5v-.5zm0-14.172v-.5h-.5v.5h.5zm3.479 0h.5v-.5h-.5v.5zm0-1.282h-3.479v1h3.479v-1zm-2.979.5v-2.55h-1v2.55h1zm-.5-2.05h3.479v-1h-3.479v1zm2.979-.5v2.55h1v-2.55h-1zm.5 17.004h-3.479v1h3.479v-1zm-2.979.5V57.413h-1v14.172h1zm-.5-13.672h3.479v-1h-3.479v1zm2.979-.5v14.172h1V57.413h-1zm14.697 0l.492.088.106-.588h-.598v.5zm-2.551 14.172v.5h.418l.074-.411-.492-.089zm-4.199 0l-.492.089.074.411h.418v-.5zm-2.551-14.172v-.5h-.599l.106.588.493-.088zm3.503 0l.495-.071-.061-.43h-.434v.5zm1.196 8.374l-.495.07.99-.001-.495-.07zm1.172-8.374v-.5h-.435l-.06.43.495.07zm2.938-.089l-2.551 14.172.984.178 2.551-14.173-.984-.177zm-2.059 13.761h-4.199v1h4.199v-1zm-3.707.411l-2.551-14.172-.985.177 2.552 14.173.984-.178zm-3.043-13.583h3.503v-1h-3.503v1zm3.008-.43l1.196 8.374.99-.141-1.196-8.374-.99.141zm2.186 8.373l1.172-8.374-.99-.139-1.172 8.374.99.139zm.677-7.943h3.43v-1h-3.43v1zm7.324-1.282v.5h.5v-.5h-.5zm-3.479 0h-.5v.5h.5v-.5zm0-2.55v-.5h-.5v.5h.5zm3.479 0h.5v-.5h-.5v.5zm0 17.504v.5h.5v-.5h-.5zm-3.479 0h-.5v.5h.5v-.5zm0-14.172v-.5h-.5v.5h.5zm3.479 0h.5v-.5h-.5v.5zm0-1.282h-3.479v1h3.479v-1zm-2.979.5v-2.55h-1v2.55h1zm-.5-2.05h3.479v-1h-3.479v1zm2.979-.5v2.55h1v-2.55h-1zm.5 17.004h-3.479v1h3.479v-1zm-2.979.5V57.413h-1v14.172h1zm-.5-13.672h3.479v-1h-3.479v1zm2.979-.5v14.172h1V57.413h-1zm9.521 14.172v.5h.5v-.5h-.5zm-8.349 0h-.5v.5h.5v-.5zm0-1.953l-.465-.184-.035.088v.096h.5zm3.943-9.949l.464.184.272-.684h-.736v.5zm-3.724 0h-.5v.5h.5v-.5zm0-2.27v-.5h-.5v.5h.5zm7.752 0h.5v-.5h-.5v.5zm0 1.916l.464.186.036-.09v-.096h-.5zm-4.004 10.01l-.464-.186-.275.686h.739v-.5zm4.382 0h.5v-.5h-.5v.5zm0 1.746h-8.349v1h8.349v-1zm-7.849.5v-1.953h-1v1.953h1zm-.035-1.769l3.942-9.949-.929-.368-3.943 9.949.93.368zm3.478-10.633h-3.724v1h3.724v-1zm-3.224.5v-2.27h-1v2.27h1zm-.5-1.77h7.752v-1h-7.752v1zm7.252-.5v1.916h1v-1.916h-1zm.036 1.73l-4.004 10.01.928.372 4.004-10.01-.928-.372zm-3.54 10.696h4.382v-1h-4.382v1zm3.882-.5v2.246h1v-2.246h-1zm1.111-3.455v-.5h-.5v.5h.5zm3.466 0h.5v-.5h-.5v.5zm.452.025l.295-.404-.03-.022-.033-.017-.232.443zm-3.284-1.99l-.357.35.004.003.353-.353zm7.435-.94v.5h.5v-.5h-.5zm-3.394 0l-.5-.022-.022.522h.522v-.5zm.073-1.697l.5.022V61.283h-.5zm-1.013 1.074l-.451.216.004.008.447-.224zm3.198 2.015l.292-.407-.034-.024-.037-.018-.221.449zm-6.933 2.013h3.466v-1h-3.466v1zm2.966-.5v3.003h1v-3.003h-1zm0 3.003c0 .295.058.61.259.856.217.266.525.364.827.364v-1a.184.184 0 01-.066-.007c-.001 0 .002 0 .006.004l.009.008c.005.006-.035-.04-.035-.225h-1zm1.086 1.22a.9.9 0 00.565-.192c.159-.125.264-.29.335-.457.138-.324.186-.75.186-1.23h-1c0 .44-.049.703-.106.84-.027.062-.044.07-.032.06a.1.1 0 01.052-.02v1zm1.086-1.879c0-.627-.062-1.174-.202-1.625-.141-.453-.37-.84-.723-1.098l-.589.808c.126.092.257.266.357.586.1.322.157.76.157 1.329h1zm-.988-2.762a41.742 41.742 0 01-2.155-1.197c-.547-.331-.867-.564-1.007-.704l-.707.707c.234.235.649.521 1.196.853.56.339 1.297.748 2.209 1.227l.464-.886zm-3.158-1.897c-.251-.256-.419-.678-.419-1.359h-1c0 .833.206 1.55.704 2.059l.715-.7zm-.419-1.359v-1.904h-1v1.904h1zm0-1.904c0-.872.287-1.455.81-1.841.551-.407 1.439-.65 2.743-.65v-1c-1.398 0-2.537.255-3.337.845-.828.611-1.216 1.524-1.216 2.646h1zm3.553-2.491c1.268 0 2.129.233 2.663.621.503.367.78.92.78 1.748h1c0-1.084-.382-1.967-1.192-2.556-.781-.568-1.891-.813-3.251-.813v1zm3.443 2.369v2.795h1v-2.795h-1zm.5 2.295h-3.394v1h3.394v-1zm-2.895.522l.074-1.697-.999-.043-.074 1.696.999.044zm.074-1.719c0-.606-.053-1.12-.192-1.499a1.309 1.309 0 00-.335-.53.905.905 0 00-.62-.24v1a.099.099 0 01-.054-.02c0-.001.008.006.021.028a.563.563 0 01.049.105c.077.211.131.583.131 1.156h1zm-1.147-2.27c-.392 0-.719.186-.917.526-.174.299-.23.683-.23 1.085h1c0-.338.052-.51.094-.581.017-.029.025-.03.019-.026-.006.003 0-.004.034-.004v-1zm-1.147 1.611c0 .79.095 1.458.33 1.95l.902-.433c-.139-.29-.232-.778-.232-1.517h-1zm.334 1.957c.095.191.263.36.435.505.182.153.415.317.692.491.554.35 1.323.764 2.298 1.243l.441-.897c-.962-.473-1.695-.87-2.206-1.192a5.246 5.246 0 01-.581-.41 1.451 1.451 0 01-.146-.138c-.033-.037-.041-.053-.039-.05l-.894.448zm3.354 2.197c.681.488 1 1.105 1 1.888h1c0-1.12-.487-2.034-1.417-2.7l-.583.812zm1 1.888v2.125h1v-2.125h-1zm0 2.125c0 .868-.29 1.451-.823 1.838-.562.409-1.465.652-2.791.652v1c1.417 0 2.57-.255 3.379-.843.839-.61 1.235-1.523 1.235-2.647h-1zm-3.614 2.49c-1.299 0-2.183-.234-2.731-.624-.517-.369-.797-.92-.797-1.744h-1c0 1.088.391 1.97 1.217 2.558.794.566 1.924.81 3.311.81v-1zm-3.528-2.368v-3.028h-1v3.028h1zm8.985 5.676h-.5v.5h.5v-.5zm0-2.05v-.5h-.5v.5h.5zm4.052-1.283h.5v-1.014l-.804.618.304.396zm-3.93-.012l-.297.403.007.005.29-.408zm3.955-13.305l-.231.443.351.183.259-.3-.379-.327zm.451-.525v-.5h-.229l-.15.174.379.326zm2.991 0h.5v-.5h-.5v.5zm-.549 16.26l-.428-.26-.004.006.432.253zm-6.47.915v-2.05h-1v2.05h1zm-.5-1.55h2.819v-1h-2.819v1zm2.819 0c.493 0 .954-.13 1.285-.475.328-.34.448-.808.448-1.308h-1c0 .355-.085.529-.168.615-.08.083-.236.167-.565.167v1zm.929-2.18c-.326.25-.908.422-1.844.422v1c1.017 0 1.867-.178 2.453-.628l-.609-.793zm-1.844.422c-.591 0-1.082-.153-1.493-.445l-.579.816c.598.424 1.296.63 2.072.63v-1zm-1.486-.44c-.376-.277-.541-.608-.541-1.025h-1c0 .754.331 1.376.948 1.83l.593-.804zm-.541-1.025v-10.18h-1v10.18h1zm0-10.18c0-.671.196-1.09.514-1.357.334-.28.891-.463 1.757-.463v-1c-.981 0-1.81.203-2.399.696-.606.508-.872 1.247-.872 2.123h1zm2.271-1.82c.366 0 .921.162 1.698.566l.461-.887c-.818-.426-1.548-.68-2.159-.68v1zm2.308.449l.451-.525-.758-.652-.451.524.758.653zm.072-.351h2.991v-1h-2.991v1zm2.491-.5V71.39h1V57.413h-1zm0 13.977c0 .855-.17 1.52-.476 2.023l.854.52c.426-.702.622-1.56.622-2.543h-1zm-.481 2.03c-.081.138-.298.317-.81.456-.501.137-1.204.212-2.127.212v1c.964 0 1.767-.077 2.389-.246.611-.166 1.134-.445 1.411-.917l-.863-.506zm-2.937.668h-3.601v1h3.601v-1zm.951-5.03V60.16h-1v8.9h1zm0-8.899c0-.283-.064-.589-.282-.825-.225-.242-.529-.322-.816-.322v1c.056 0 .084.008.092.011.006.002-.001 0-.01-.01-.019-.02.016-.002.016.146h1zm-1.098-1.147c-.288 0-.594.078-.821.319-.222.235-.289.542-.289.828h1c0-.145.035-.162.016-.142-.009.01-.015.01-.006.007a.313.313 0 01.1-.012v-1zm-1.11 1.147v8.875h1v-8.875h-1zm0 8.875c0 .285.067.593.289.828.227.24.533.319.821.319v-1a.313.313 0 01-.1-.012c-.009-.003-.003-.002.006.007.019.02-.016.003-.016-.142h-1zm1.11 1.147c.282 0 .584-.075.809-.31.222-.23.289-.533.289-.813h-1c0 .135-.033.144-.01.12.01-.01.018-.011.01-.009a.314.314 0 01-.098.012v1zm13.049 1.404v.5h.5v-.5h-.5zm-3.076 0h-.5v.5h.5v-.5zm0-.55h.5l-.943-.232.443.233zm-4.394-5.98l-.357-.351-.003.003.36.347zm2.783-1.77l-.225-.447h-.002l.227.446zm-.037-1.173l-.499.03.001.011.498-.04zm.049.904v.5h.5v-.5h-.5zm-3.357 0h-.5v.5h.5v-.5zm4.553 2.27h.5v-.637l-.619.151.119.486zm3.479 5.799h-3.076v1h3.076v-1zm-2.576.5v-.55h-1v.55h1zm-.943-.782c-.049.095-.169.217-.469.317-.301.1-.734.16-1.322.16v1c.642 0 1.195-.064 1.639-.212.445-.148.827-.398 1.038-.8l-.886-.465zm-1.791.477c-.896 0-1.477-.177-1.825-.45-.325-.253-.519-.645-.519-1.271h-1c0 .855.28 1.573.903 2.06.6.468 1.442.661 2.441.661v-1zm-2.344-1.721v-2.845h-1v2.845h1zm0-2.845c0-.5.174-.93.543-1.313l-.719-.694c-.542.562-.824 1.238-.824 2.007h1zm.54-1.31c.401-.407 1.263-.966 2.654-1.674l-.454-.891c-1.392.708-2.386 1.329-2.913 1.865l.713.7zm2.652-1.673c.415-.21.754-.412.996-.607.121-.098.234-.207.32-.33a.842.842 0 00.167-.486h-1c0-.078.032-.112.017-.09a.793.793 0 01-.133.128c-.161.13-.427.295-.817.492l.45.892zm1.483-1.423v-2.1h-1v2.1h1zm0-2.1c0-.292-.061-.604-.27-.848-.222-.258-.53-.348-.828-.348v1c.053 0 .076.008.081.01.002 0-.005-.002-.011-.01-.01-.011.028.024.028.196h1zm-1.098-1.196a.956.956 0 00-.618.221c-.169.14-.281.326-.358.517-.151.373-.207.875-.207 1.459h1c0-.547.057-.893.134-1.086a.32.32 0 01.069-.12l-.004.003a.031.031 0 01-.009.004c-.008.003-.011.002-.007.002v-1zm-1.183 2.197c0 .22.013.533.037.934l.998-.061a15.75 15.75 0 01-.035-.873h-1zm.038.944c.032.395.047.68.047.863h1c0-.225-.018-.542-.05-.944l-.997.081zm.547.363h-3.357v1h3.357v-1zm-2.857.5v-2.832h-1v2.832h1zm0-2.832c0-.819.286-1.37.822-1.74.57-.395 1.487-.63 2.829-.63v-1c-1.426 0-2.584.245-3.397.807-.847.585-1.254 1.468-1.254 2.563h1zm3.651-2.37c1.243 0 2.084.243 2.606.645.497.383.775.967.775 1.847h1c0-1.114-.368-2.025-1.165-2.64-.772-.595-1.872-.851-3.216-.851v1zm3.381 2.492v11.279h1v-11.28h-1zm-2.479 8.63v-3.65h-1v3.65h1zm-.619-4.136c-.439.108-.827.273-1.112.53-.301.27-.465.623-.465 1.03h1c0-.114.036-.2.133-.287.114-.102.325-.214.682-.301l-.238-.972zm-1.577 1.56v2.576h1V66.36h-1zm0 2.576c0 .288.069.597.295.832.23.239.538.315.828.315v-1c-.126 0-.129-.032-.107-.008.019.02-.016.004-.016-.139h-1zm1.123 1.147c.285 0 .585-.083.804-.33.209-.236.269-.538.269-.817h-1c0 .152-.035.173-.017.153a.054.054 0 01.019-.014c-.004 0-.025.008-.075.008v1z"/>
  </g>
  <g filter="url(#filter6_d_514_290)">
    <path fill="#000" fill-rule="evenodd" d="M90.448 177.31c-2.088 0-3.787 1.584-3.787 3.533 0 1.947 1.699 3.529 3.787 3.529 2.089 0 3.788-1.582 3.788-3.529 0-1.949-1.699-3.533-3.788-3.533m0 10.088c-3.878 0-7.034-2.94-7.034-6.555 0-3.617 3.156-6.559 7.034-6.559 3.879 0 7.035 2.942 7.035 6.559 0 3.615-3.156 6.555-7.035 6.555" clip-rule="evenodd"/>
    <mask id="a" width="37" height="40" x="72" y="164" maskUnits="userSpaceOnUse" style="mask-type:alpha">
      <path fill="#fff" fill-rule="evenodd" d="M72.591 164.197h35.712v39.34H72.591v-39.34z" clip-rule="evenodd"/>
    </mask>
    <g mask="url(#a)">
      <path fill="#000" fill-rule="evenodd" d="M90.446 167.223c-8.055 0-14.61 6.168-14.61 13.745 0 9.642 12.173 19.035 14.61 19.535 2.438-.502 14.61-9.895 14.61-19.535 0-7.577-6.554-13.745-14.61-13.745zm0 36.314c-3.882 0-17.856-11.2-17.856-22.569 0-9.248 8.01-16.771 17.856-16.771 9.846 0 17.857 7.523 17.857 16.771 0 11.369-13.974 22.569-17.857 22.569z" clip-rule="evenodd"/>
    </g>
  </g>
  <g filter="url(#filter7_d_514_290)">
    <path fill="#000" fill-rule="evenodd" d="M328.2 112.093c-2.089 0-3.788 1.584-3.788 3.533 0 1.946 1.699 3.528 3.788 3.528 2.088 0 3.788-1.582 3.788-3.528 0-1.949-1.7-3.533-3.788-3.533m0 10.087c-3.879 0-7.034-2.939-7.034-6.554 0-3.618 3.155-6.559 7.034-6.559 3.878 0 7.034 2.941 7.034 6.559 0 3.615-3.156 6.554-7.034 6.554" clip-rule="evenodd"/>
    <mask id="b" width="37" height="41" x="310" y="98" maskUnits="userSpaceOnUse" style="mask-type:alpha">
      <path fill="#fff" fill-rule="evenodd" d="M310.343 98.98h35.711v39.34h-35.711V98.98z" clip-rule="evenodd"/>
    </mask>
    <g mask="url(#b)">
      <path fill="#000" fill-rule="evenodd" d="M328.198 102.006c-8.056 0-14.61 6.167-14.61 13.745 0 9.641 12.173 19.034 14.61 19.535 2.437-.503 14.61-9.896 14.61-19.535 0-7.578-6.554-13.745-14.61-13.745zm0 36.314c-3.883 0-17.856-11.201-17.856-22.569 0-9.248 8.01-16.771 17.856-16.771 9.846 0 17.856 7.523 17.856 16.771 0 11.368-13.973 22.569-17.856 22.569z" clip-rule="evenodd"/>
    </g>
  </g>
  <g filter="url(#filter8_d_514_290)">
    <path fill="#000" fill-rule="evenodd" d="M192.342 76.52c-2.089 0-3.788 1.584-3.788 3.532 0 1.947 1.699 3.53 3.788 3.53 2.089 0 3.788-1.583 3.788-3.53 0-1.948-1.699-3.532-3.788-3.532m0 10.087c-3.879 0-7.034-2.94-7.034-6.555 0-3.617 3.155-6.558 7.034-6.558s7.034 2.941 7.034 6.558c0 3.616-3.155 6.555-7.034 6.555" clip-rule="evenodd"/>
    <mask id="c" width="37" height="40" x="174" y="63" maskUnits="userSpaceOnUse" style="mask-type:alpha">
      <path fill="#fff" fill-rule="evenodd" d="M174.485 63.407h35.711v39.34h-35.711v-39.34z" clip-rule="evenodd"/>
    </mask>
    <g mask="url(#c)">
      <path fill="#000" fill-rule="evenodd" d="M192.34 66.433c-8.056 0-14.61 6.167-14.61 13.745 0 9.641 12.173 19.034 14.61 19.535 2.437-.503 14.61-9.896 14.61-19.535 0-7.578-6.554-13.745-14.61-13.745zm0 36.314c-3.883 0-17.856-11.201-17.856-22.57 0-9.247 8.01-16.77 17.856-16.77 9.846 0 17.856 7.523 17.856 16.77 0 11.369-13.973 22.57-17.856 22.57z" clip-rule="evenodd"/>
    </g>
  </g>
  <path fill="#2D6B8A" stroke="#2D6B8A" d="M214.137 143.089l-65.9 35.926-2.454-4.239 2.288-11.147 2.92-3.766 42.245-23.931 14.541 3.723 6.36 3.434z"/>
  <ellipse fill="#8092A0" rx="10.049" ry="9.184" transform="matrix(.87008 -.49291 .50106 .86541 164.36 193.1)"/>
  <ellipse fill="#8092A0" rx="10.049" ry="9.184" transform="matrix(.87008 -.49291 .50106 .86541 235.682 152.695)"/>
  <path fill="#000" d="M173.861 188.29c.233.402.427.816.6 1.235 2.088 4.993.07 10.915-4.908 13.736-5.115 2.898-11.504 1.473-14.727-3.12-.177-.254-.351-.51-.508-.783-3.018-5.212-1.091-11.913 4.307-14.971 5.397-3.054 12.219-1.309 15.236 3.903zm-16.299 8.17l2.808-1.591a3.584 3.584 0 01-.126-1.031l-3.109-.795a6.617 6.617 0 00.427 3.417zm3.711 3.725l.882-3.073a3.685 3.685 0 01-.836-.611l-2.808 1.591a6.795 6.795 0 002.762 2.093zm3.787-2.741a3.955 3.955 0 01-1.04.146l-.876 3.046a7.118 7.118 0 003.491-.472l-1.575-2.72zm-5.207-8.994a7.023 7.023 0 00-2.194 2.76l3.103.794c.18-.305.399-.585.663-.837l-1.573-2.716.001-.001zm7.071-.955l-.878 3.055c.305.168.586.377.833.63l2.81-1.592a6.758 6.758 0 00-2.765-2.093zm-3.806 2.714c.353-.097.71-.142 1.065-.142l.877-3.048a7.183 7.183 0 00-3.515.477l1.573 2.713zm7.388 6.256l-3.098-.793c-.174.297-.4.567-.655.812l1.576 2.722a6.97 6.97 0 002.177-2.741zm.141-5.247l-2.83 1.603c.088.336.129.678.122 1.018l3.112.798a6.661 6.661 0 00-.404-3.419zM246.199 147.309c.233.403.429.816.6 1.235 2.088 4.994.07 10.916-4.907 13.736-5.115 2.898-11.503 1.473-14.726-3.12-.178-.254-.352-.51-.51-.782-3.018-5.212-1.091-11.913 4.308-14.972 5.397-3.054 12.218-1.308 15.235 3.903zm-16.3 8.171l2.809-1.591a3.66 3.66 0 01-.126-1.031l-3.109-.796a6.63 6.63 0 00.426 3.418zm3.711 3.725l.882-3.072a3.66 3.66 0 01-.836-.612l-2.808 1.591a6.801 6.801 0 002.762 2.093zm3.788-2.742a3.915 3.915 0 01-1.04.147l-.875 3.045a7.114 7.114 0 003.49-.471l-1.575-2.721zm-5.207-8.993a7.015 7.015 0 00-2.192 2.759l3.101.794c.18-.304.399-.584.663-.836l-1.573-2.716.001-.001zm7.071-.955l-.879 3.055c.305.168.586.377.834.63l2.809-1.592a6.733 6.733 0 00-2.764-2.093zm-3.806 2.713c.353-.097.71-.141 1.065-.141l.878-3.05a7.178 7.178 0 00-3.516.477l1.573 2.714zm7.388 6.257l-3.097-.794c-.175.297-.4.567-.656.812l1.576 2.723a6.975 6.975 0 002.177-2.741zm.14-5.247l-2.83 1.603c.09.335.129.679.122 1.018l3.112.798a6.65 6.65 0 00-.404-3.419z"/>
  <path fill="#000" d="M254.715 135.886l2.25 6.436c.51 1.456-.124 3.086-1.508 3.87l-5.613 3.18a12.97 12.97 0 00-1.342-3.364c-3.723-6.429-12.168-8.591-18.823-4.821-6.657 3.771-9.046 12.071-5.323 18.5.193.334.407.65.627.964.483.69 1.028 1.318 1.618 1.887l-49.098 27.814a12.851 12.851 0 00-1.342-3.362c-3.722-6.428-12.167-8.592-18.823-4.821-6.656 3.771-9.044 12.071-5.322 18.499.193.333.407.65.626.965.486.691 1.03 1.318 1.621 1.888l-1.425.807s-6.79-6.16-7.918-10.068c-.88-3.046.195-5.098.195-5.098s-2.426-3.822-2.585-9.108c-.034-1.122.827-7.894 3.516-15.684 1.229-3.562 2.788-5.338 6.119-7.237 9.433-5.376 31.126-17.725 36.303-20.551 3.445-1.88 5.704-2.478 9.658-2.451.392.002.733.242.833.609a.848.848 0 01-.412.953l-.193.109 14.829 3.631s3.796-2.126 5.086-2.791c6.417-3.303 18.215-8.799 27.969-7.639a4.858 4.858 0 013.292 1.85c1.027 1.336 1.981 2.918 1.981 2.918 1.442-.067 2.74.789 3.204 2.115zm-92.666 20.481l-9.901 5.61a5.604 5.604 0 00-2.397 2.663c-1.307 3.06-2.008 6.015-2.376 8.479-.075.5.145.991.568 1.269.422.281.974.3 1.428.052l17.562-9.635-4.884-8.438zm5.275-2.988l-.672.381 4.922 8.499.677-.37-4.927-8.51zm40.816-11.182l-14.719-3.604-21.494 12.177 4.963 8.571 22.97-12.602c-.075-.103-.153-.199-.218-.312-.853-1.472-.454-3.285.891-4.047 1.348-.763 3.129-.186 3.982 1.287.077.135.134.274.192.413l3.433-1.883z"/>
  <path fill="#FFFF38" d="M187.673 164.186l.881 2.38-2.18 1.235.927 2.495 2.156-1.222.861 2.381-2.164 1.226.872 2.365-2.172 1.23-.872-2.364-2.286 1.295.871 2.365-2.179 1.234-.872-2.364-2.164 1.226-.853-2.386 2.141-1.213-.904-2.508-2.148 1.217-.881-2.38 2.164-1.226-.871-2.365 2.179-1.234.864 2.369 2.287-1.295-.864-2.37 2.172-1.23.871 2.365 2.164-1.226zm-3.478 4.849l-2.287 1.296.927 2.495 2.271-1.287-.911-2.504zm14.328.63l-1.154.655-.662-.424c-.26.767-.686 1.318-1.277 1.653-.576.327-1.166.465-1.77.417-.601-.057-1.09-.41-1.465-1.059l-4.122-7.119c-.82-1.415-.322-2.636 1.493-3.664 1.723-.977 2.958-.821 3.704.467l1.171 2.024-2.179 1.234-1.278-2.206c-.102-.177-.274-.198-.513-.062-.24.136-.308.292-.205.47l4.381 7.568c.103.177.274.198.514.062.24-.135.308-.292.205-.469l-1.18-2.039-.497.282-.969-1.674 2.677-1.516 3.126 5.4zm.535-5.636l2.325 4.016-2.347 1.33-6.315-10.907 2.531-1.434c1.004-.569 1.822-.864 2.453-.885.636-.023 1.18.355 1.632 1.136l1.753 3.027c.414.715.509 1.335.285 1.859-.228.52-1 1.139-2.317 1.858zm-.434-2.592l-1.515-2.617c-.223-.385-.603-.426-1.138-.123l2.184 3.773c.536-.303.692-.648.469-1.033zm5.244 2.726l-4.065-7.021c-.819-1.414-.306-2.645 1.54-3.69 1.82-1.031 3.137-.844 3.95.56l4.065 7.021c.367.634.395 1.267.085 1.901-.308.626-.87 1.17-1.686 1.632-1.835 1.039-3.132.905-3.889-.403zm3.209-1.667l-4.302-7.431c-.127-.218-.32-.253-.58-.106-.27.153-.342.339-.216.557l4.303 7.431c.126.218.324.25.594.097.26-.147.327-.33.201-.548z"/>
  <path fill="#FFFF38" stroke="#FFFF38" d="M241.827 133.031l3.292-1.865 1.097-.622 1.04.537 1.039.537.736 1.272.737 1.271-.549.311-4.938 2.797-.736-1.271-1.718-2.967z"/>
  <path fill="#ED542B" stroke="#ED542B" d="M152.34 154.643l1.023 1.766 5.486-3.108-1.023-1.766-2.697-1.756-2.954 1.674.165 3.19z"/>
  <defs>
    <filter id="filter0_f_514_290" width="90.957" height="90.514" x="46.925" y="139.115" color-interpolation-filters="sRGB" filterUnits="userSpaceOnUse">
      <feFlood flood-opacity="0" result="BackgroundImageFix"/>
      <feBlend in="SourceGraphic" in2="BackgroundImageFix" result="shape"/>
      <feGaussianBlur result="effect1_foregroundBlur_514_290" stdDeviation="12.5"/>
    </filter>
    <filter id="filter1_f_514_290" width="90.957" height="90.514" x="282.679" y="73.897" color-interpolation-filters="sRGB" filterUnits="userSpaceOnUse">
      <feFlood flood-opacity="0" result="BackgroundImageFix"/>
      <feBlend in="SourceGraphic" in2="BackgroundImageFix" result="shape"/>
      <feGaussianBlur result="effect1_foregroundBlur_514_290" stdDeviation="12.5"/>
    </filter>
    <filter id="filter2_f_514_290" width="90.957" height="90.514" x="144.823" y="42.277" color-interpolation-filters="sRGB" filterUnits="userSpaceOnUse">
      <feFlood flood-opacity="0" result="BackgroundImageFix"/>
      <feBlend in="SourceGraphic" in2="BackgroundImageFix" result="shape"/>
      <feGaussianBlur result="effect1_foregroundBlur_514_290" stdDeviation="12.5"/>
    </filter>
    <filter id="filter3_d_514_290" width="83.232" height="25.7" x="47.425" y="114.286" color-interpolation-filters="sRGB" filterUnits="userSpaceOnUse">
      <feFlood flood-opacity="0" result="BackgroundImageFix"/>
      <feColorMatrix in="SourceAlpha" result="hardAlpha" values="0 0 0 0 0 0 0 0 0 0 0 0 0 0 0 0 0 0 127 0"/>
      <feOffset dy="4"/>
      <feGaussianBlur stdDeviation="2"/>
      <feColorMatrix values="0 0 0 0 0 0 0 0 0 0 0 0 0 0 0 0 0 0 0.25 0"/>
      <feBlend in2="BackgroundImageFix" result="effect1_dropShadow_514_290"/>
      <feBlend in="SourceGraphic" in2="effect1_dropShadow_514_290" result="shape"/>
    </filter>
    <filter id="filter4_d_514_290" width="121.721" height="55.666" x="129.916" y=".336" color-interpolation-filters="sRGB" filterUnits="userSpaceOnUse">
      <feFlood flood-opacity="0" result="BackgroundImageFix"/>
      <feColorMatrix in="SourceAlpha" result="hardAlpha" values="0 0 0 0 0 0 0 0 0 0 0 0 0 0 0 0 0 0 127 0"/>
      <feOffset dy="4"/>
      <feGaussianBlur stdDeviation="2"/>
      <feColorMatrix values="0 0 0 0 0 0 0 0 0 0 0 0 0 0 0 0 0 0 0.25 0"/>
      <feBlend in2="BackgroundImageFix" result="effect1_dropShadow_514_290"/>
      <feBlend in="SourceGraphic" in2="effect1_dropShadow_514_290" result="shape"/>
    </filter>
    <filter id="filter5_d_514_290" width="141.606" height="55.666" x="259.531" y="26.921" color-interpolation-filters="sRGB" filterUnits="userSpaceOnUse">
      <feFlood flood-opacity="0" result="BackgroundImageFix"/>
      <feColorMatrix in="SourceAlpha" result="hardAlpha" values="0 0 0 0 0 0 0 0 0 0 0 0 0 0 0 0 0 0 127 0"/>
      <feOffset dy="4"/>
      <feGaussianBlur stdDeviation="2"/>
      <feColorMatrix values="0 0 0 0 0 0 0 0 0 0 0 0 0 0 0 0 0 0 0.25 0"/>
      <feBlend in2="BackgroundImageFix" result="effect1_dropShadow_514_290"/>
      <feBlend in="SourceGraphic" in2="effect1_dropShadow_514_290" result="shape"/>
    </filter>
    <filter id="filter6_d_514_290" width="59.946" height="56.419" x="59.933" y="160.162" color-interpolation-filters="sRGB" filterUnits="userSpaceOnUse">
      <feFlood flood-opacity="0" result="BackgroundImageFix"/>
      <feColorMatrix in="SourceAlpha" result="hardAlpha" values="0 0 0 0 0 0 0 0 0 0 0 0 0 0 0 0 0 0 127 0"/>
      <feOffset dy="4"/>
      <feGaussianBlur stdDeviation="2"/>
      <feComposite in2="hardAlpha" operator="out"/>
      <feColorMatrix values="0 0 0 0 0 0 0 0 0 0 0 0 0 0 0 0 0 0 0.25 0"/>
      <feBlend in2="BackgroundImageFix" result="effect1_dropShadow_514_290"/>
      <feBlend in="SourceGraphic" in2="effect1_dropShadow_514_290" result="shape"/>
    </filter>
    <filter id="filter7_d_514_290" width="59.946" height="56.419" x="297.685" y="94.945" color-interpolation-filters="sRGB" filterUnits="userSpaceOnUse">
      <feFlood flood-opacity="0" result="BackgroundImageFix"/>
      <feColorMatrix in="SourceAlpha" result="hardAlpha" values="0 0 0 0 0 0 0 0 0 0 0 0 0 0 0 0 0 0 127 0"/>
      <feOffset dy="4"/>
      <feGaussianBlur stdDeviation="2"/>
      <feComposite in2="hardAlpha" operator="out"/>
      <feColorMatrix values="0 0 0 0 0 0 0 0 0 0 0 0 0 0 0 0 0 0 0.25 0"/>
      <feBlend in2="BackgroundImageFix" result="effect1_dropShadow_514_290"/>
      <feBlend in="SourceGraphic" in2="effect1_dropShadow_514_290" result="shape"/>
    </filter>
    <filter id="filter8_d_514_290" width="59.946" height="56.419" x="161.827" y="59.372" color-interpolation-filters="sRGB" filterUnits="userSpaceOnUse">
      <feFlood flood-opacity="0" result="BackgroundImageFix"/>
      <feColorMatrix in="SourceAlpha" result="hardAlpha" values="0 0 0 0 0 0 0 0 0 0 0 0 0 0 0 0 0 0 127 0"/>
      <feOffset dy="4"/>
      <feGaussianBlur stdDeviation="2"/>
      <feComposite in2="hardAlpha" operator="out"/>
      <feColorMatrix values="0 0 0 0 0 0 0 0 0 0 0 0 0 0 0 0 0 0 0.25 0"/>
      <feBlend in2="BackgroundImageFix" result="effect1_dropShadow_514_290"/>
      <feBlend in="SourceGraphic" in2="effect1_dropShadow_514_290" result="shape"/>
    </filter>
  </defs>
</svg>
