<svg xmlns="http://www.w3.org/2000/svg" xmlns:xlink="http://www.w3.org/1999/xlink" width="1440" height="239" fill="none" viewBox="0 0 1440 239">
  <g filter="url(#filter0_f_510_254)">
    <rect width="41" height="41" x="544" y="84" fill="#FFFF38" rx="20.5"/>
  </g>
  <g filter="url(#filter1_f_510_254)">
    <rect width="41" height="41" x="838" y="115" fill="#FFFF38" rx="20.5"/>
  </g>
  <g filter="url(#filter2_f_510_254)">
    <rect width="125.766" height="57.528" fill="#FFFF38" rx="25" transform="matrix(.9949 .10082 -.29333 .95601 1079.87 76)"/>
  </g>
  <g filter="url(#filter3_f_510_254)">
    <rect width="41" height="41" x="254" y="107" fill="#FFFF38" rx="20.5"/>
  </g>
  <g filter="url(#filter4_d_510_254)">
    <path fill="#FFFF38" d="M241.363 41h-3.845V23.495h3.845V41zm8.997-8.3h-3.479v-3.077c0-.431-.2-.647-.598-.647-.399 0-.598.208-.598.623V41h-3.48V26.828h3.48v.476c.463-.383 1.18-.574 2.148-.574.692 0 1.286.187 1.782.561.497.367.745.85.745 1.453V32.7zm8.874 8.3h-3.076v-.55c-.26.497-1.005.745-2.234.745-1.896 0-2.844-.74-2.844-2.221v-2.845c0-.634.228-1.188.684-1.66.463-.472 1.391-1.062 2.783-1.77.805-.407 1.208-.732 1.208-.976v-2.1c0-.464-.199-.696-.598-.696-.456 0-.683.566-.683 1.697 0 .204.012.505.036.903.033.4.049.7.049.904h-3.357v-2.832c0-1.913 1.384-2.869 4.15-2.869 2.588 0 3.882.997 3.882 2.99V41zm-3.479-2.649v-3.65c-.797.196-1.196.554-1.196 1.074v2.576c0 .431.208.647.623.647.382 0 .573-.216.573-.647zM266.949 41h-2.197c-1.571 0-2.511-.236-2.82-.708-.309-.472-.464-1.38-.464-2.722v-8.643h-1.55v-2.1h1.55v-2.856h3.479v2.857h1.88v2.1h-1.88v8.617c0 .415.122.696.366.843.253.138.798.207 1.636.207V41zm10.376 0h-4.089l-2.136-5.127V41h-3.467V23.495h3.467v7.85l1.782-4.517h3.601l-2.527 6.2L277.325 41zm.464-2.795V29.72c0-1.994 1.379-2.991 4.138-2.991 1.066 0 2.002.232 2.808.696.814.464 1.22 1.188 1.22 2.173v8.728c0 1.912-1.342 2.868-4.028 2.868-2.759 0-4.138-.997-4.138-2.99zm4.687.097v-8.679c0-.464-.199-.696-.598-.696-.407 0-.61.232-.61.696v8.68c0 .48.203.72.61.72.399 0 .598-.24.598-.72zM294.964 41h-8.349v-1.953l3.943-9.949h-3.724v-2.27h7.752v1.916l-4.004 10.01h4.382V41zm8.826 0h-3.076v-.55c-.261.497-1.005.745-2.234.745-1.896 0-2.844-.74-2.844-2.221v-2.845c0-.634.228-1.188.683-1.66.464-.472 1.392-1.062 2.783-1.77.806-.407 1.209-.732 1.209-.976v-2.1c0-.464-.199-.696-.598-.696-.456 0-.684.566-.684 1.697 0 .204.012.505.037.903.032.4.049.7.049.904h-3.357v-2.832c0-1.913 1.383-2.869 4.15-2.869 2.588 0 3.882.997 3.882 2.99V41zm-3.479-2.649v-3.65c-.798.196-1.196.554-1.196 1.074v2.576c0 .431.207.647.622.647.383 0 .574-.216.574-.647zm1.685-14.856l-1.453 2.258h-1.917l.745-2.258h2.625zm2.612 11.804h3.467v3.003c0 .48.195.72.586.72.39 0 .586-.46.586-1.379 0-1.196-.241-1.97-.721-2.32-1.814-.951-2.909-1.615-3.283-1.989-.375-.383-.562-.952-.562-1.709v-1.904c0-1.994 1.351-2.991 4.053-2.991 2.628 0 3.943.956 3.943 2.869v2.795h-3.394l.073-1.697c0-1.18-.215-1.77-.647-1.77-.431 0-.647.37-.647 1.111 0 .765.094 1.343.281 1.733.196.391 1.262 1.063 3.198 2.015.806.577 1.209 1.342 1.209 2.295v2.124c0 1.993-1.371 2.99-4.114 2.99-2.685 0-4.028-.956-4.028-2.868v-3.028z"/>
    <path fill="#000" d="M241.363 41v.5h.5V41h-.5zm-3.845 0h-.5v.5h.5V41zm0-17.505v-.5h-.5v.5h.5zm3.845 0h.5v-.5h-.5v.5zm0 17.005h-3.845v1h3.845v-1zm-3.345.5V23.495h-1V41h1zm-.5-17.005h3.845v-1h-3.845v1zm3.345-.5V41h1V23.495h-1zm9.497 9.204v.5h.5v-.5h-.5zm-3.479 0h-.5v.5h.5v-.5zM245.685 41v.5h.5V41h-.5zm-3.48 0h-.5v.5h.5V41zm0-14.172v-.5h-.5v.5h.5zm3.48 0h.5v-.5h-.5v.5zm0 .476h-.5v1.06l.818-.675-.318-.385zm3.93-.012l-.301.399.004.003.297-.402zm.745 4.907h-3.479v1h3.479v-1zm-2.979.5v-3.076h-1v3.076h1zm0-3.076c0-.283-.065-.59-.283-.825-.224-.242-.528-.322-.815-.322v1a.29.29 0 01.092.01c.005.003-.002 0-.011-.009-.018-.02.017-.002.017.146h1zm-1.098-1.147c-.282 0-.584.074-.81.31-.222.23-.288.533-.288.813h1c0-.136.032-.145.01-.12-.011.01-.018.011-.01.008a.314.314 0 01.098-.01v-1zm-1.098 1.123V41h1V29.599h-1zm.5 10.901h-3.48v1h3.48v-1zm-2.98.5V26.828h-1V41h1zm-.5-13.672h3.48v-1h-3.48v1zm2.98-.5v.476h1v-.476h-1zm.818.861c.333-.275.911-.459 1.83-.459v-1c-1.018 0-1.873.198-2.467.688l.637.771zm1.83-.459c.596 0 1.081.16 1.481.46l.602-.798c-.593-.447-1.296-.662-2.083-.662v1zm1.485.464c.373.274.542.611.542 1.05h1c0-.765-.327-1.397-.948-1.855l-.594.805zm.542 1.05V32.7h1v-3.955h-1zM259.234 41v.5h.5V41h-.5zm-3.076 0h-.5v.5h.5V41zm0-.55h.5l-.943-.232.443.233zm-4.394-5.98l-.357-.351-.003.003.36.347zm2.783-1.77l-.226-.447h-.001l.227.446zm-.037-1.173l-.499.03.001.011.498-.04zm.049.904v.5h.5v-.5h-.5zm-3.357 0h-.5v.5h.5v-.5zm4.553 2.27h.5v-.637l-.619.151.119.486zm3.479 5.799h-3.076v1h3.076v-1zm-2.576.5v-.55h-1V41h1zm-.943-.782c-.049.095-.17.217-.469.317-.301.1-.734.16-1.322.16v1c.642 0 1.195-.064 1.638-.212.446-.148.828-.398 1.039-.8l-.886-.465zm-1.791.477c-.896 0-1.477-.177-1.825-.45-.325-.253-.519-.645-.519-1.271h-1c0 .855.28 1.573.903 2.06.6.468 1.442.661 2.441.661v-1zm-2.344-1.721v-2.845h-1v2.845h1zm0-2.845c0-.5.174-.93.543-1.313l-.719-.694c-.542.562-.824 1.238-.824 2.007h1zm.54-1.31c.401-.407 1.262-.966 2.654-1.674l-.454-.891c-1.392.708-2.386 1.329-2.913 1.865l.713.7zm2.652-1.674c.415-.209.754-.41.995-.606.121-.098.235-.207.321-.33a.849.849 0 00.167-.486h-1c0-.078.032-.112.017-.09a.79.79 0 01-.133.128c-.161.13-.427.295-.818.492l.451.892zm1.483-1.422v-2.1h-1v2.1h1zm0-2.1c0-.292-.061-.604-.27-.848-.222-.258-.53-.348-.828-.348v1c.053 0 .076.008.081.01.002 0-.005-.002-.011-.01-.01-.011.028.024.028.196h1zm-1.098-1.196a.955.955 0 00-.618.221c-.169.14-.281.326-.358.517-.151.373-.207.875-.207 1.459h1c0-.547.057-.893.134-1.086a.323.323 0 01.069-.12l-.004.003a.03.03 0 01-.009.004c-.008.003-.011.002-.007.002v-1zm-1.183 2.197c0 .22.013.533.037.934l.998-.061a15.757 15.757 0 01-.035-.873h-1zm.038.944c.032.395.047.68.047.863h1c0-.225-.018-.542-.05-.944l-.997.081zm.547.363h-3.357v1h3.357v-1zm-2.857.5v-2.832h-1v2.832h1zm0-2.832c0-.819.285-1.37.822-1.74.57-.394 1.487-.629 2.828-.629v-1c-1.425 0-2.583.244-3.397.806-.847.585-1.253 1.468-1.253 2.563h1zm3.65-2.369c1.244 0 2.085.242 2.607.644.496.383.775.967.775 1.847h1c0-1.114-.368-2.025-1.165-2.64-.772-.595-1.872-.851-3.217-.851v1zm3.382 2.49V41h1V29.72h-1zm-2.479 8.631v-3.65h-1v3.65h1zm-.619-4.136c-.44.108-.827.273-1.112.53-.301.27-.465.623-.465 1.03h1c0-.114.036-.2.133-.287.114-.102.325-.214.682-.301l-.238-.971zm-1.577 1.56v2.576h1v-2.576h-1zm0 2.576c0 .288.069.597.295.832.23.239.538.315.828.315v-1c-.126 0-.129-.031-.107-.008.019.02-.016.004-.016-.139h-1zm1.123 1.147c.284 0 .585-.083.804-.33.209-.235.269-.538.269-.817h-1c0 .153-.035.173-.017.154a.053.053 0 01.019-.015.244.244 0 01-.075.008v1zM266.949 41v.5h.5V41h-.5zm-5.017-.708l-.418.274.418-.274zm-.464-11.365h.5v-.5h-.5v.5zm-1.55 0h-.5v.5h.5v-.5zm0-2.1v-.5h-.5v.5h.5zm1.55 0v.5h.5v-.5h-.5zm0-2.856v-.5h-.5v.5h.5zm3.479 0h.5v-.5h-.5v.5zm0 2.857h-.5v.5h.5v-.5zm1.88 0h.5v-.5h-.5v.5zm0 2.1v.5h.5v-.5h-.5zm-1.88 0v-.5h-.5v.5h.5zm.366 9.46l-.257.428.008.005.009.005.24-.438zm1.636.207h.5v-.5h-.5v.5zm0 1.905h-2.197v1h2.197v-1zm-2.197 0c-.766 0-1.348-.058-1.761-.162-.429-.108-.59-.242-.641-.32l-.836.548c.258.394.722.614 1.233.742.527.132 1.201.192 2.005.192v-1zm-2.402-.482c-.1-.153-.201-.421-.273-.845-.071-.416-.109-.948-.109-1.603h-1c0 .688.04 1.28.123 1.771.083.484.214.906.423 1.225l.836-.548zm-.382-2.448v-8.643h-1v8.643h1zm-.5-9.143h-1.55v1h1.55v-1zm-1.05.5v-2.1h-1v2.1h1zm-.5-1.6h1.55v-1h-1.55v1zm2.05-.5v-2.856h-1v2.857h1zm-.5-2.356h3.479v-1h-3.479v1zm2.979-.5v2.857h1V23.97h-1zm.5 3.357h1.88v-1h-1.88v1zm1.38-.5v2.1h1v-2.1h-1zm.5 1.6h-1.88v1h1.88v-1zm-2.38.5v8.617h1v-8.618h-1zm0 8.617c0 .503.152.997.609 1.271l.515-.857c-.031-.019-.124-.086-.124-.414h-1zm.626 1.281c.211.116.487.177.776.213.301.039.67.056 1.1.056v-1c-.408 0-.731-.017-.975-.048-.256-.032-.379-.075-.42-.098l-.481.877zm1.376-.23V41h1v-2.405h-1zM277.325 41v.5h.754l-.293-.695-.461.195zm-4.089 0l-.462.192.128.308h.334V41zm-2.136-5.127l.461-.192-.961.192h.5zm0 5.127v.5h.5V41h-.5zm-3.467 0h-.5v.5h.5V41zm0-17.505v-.5h-.5v.5h.5zm3.467 0h.5v-.5h-.5v.5zm0 7.85h-.5l.965.183-.465-.184zm1.782-4.517v-.5h-.34l-.125.316.465.184zm3.601 0l.463.188.281-.688h-.744v.5zm-2.527 6.2l-.463-.188-.078.192.08.192.461-.195zm3.369 7.472h-4.089v1h4.089v-1zm-3.628.308l-2.136-5.127-.923.384 2.136 5.127.923-.384zm-3.097-4.935V41h1v-5.127h-1zm.5 4.627h-3.467v1h3.467v-1zm-2.967.5V23.495h-1V41h1zm-.5-17.005h3.467v-1h-3.467v1zm2.967-.5v7.85h1v-7.85h-1zm.965 8.033l1.782-4.517-.93-.367-1.783 4.517.931.367zm1.317-4.2h3.601v-1h-3.601v1zm3.138-.689l-2.527 6.201.926.377 2.527-6.2-.926-.378zm-2.525 6.585l3.37 7.97.921-.389-3.369-7.97-.922.389zm11.24-5.798l-.25.433.002.001.248-.434zm-6.446 10.779V29.72h-1v8.484h1zm0-8.484c0-.868.291-1.45.827-1.838.567-.41 1.477-.653 2.811-.653v-1c-1.424 0-2.583.255-3.396.842-.844.61-1.242 1.523-1.242 2.649h1zm3.638-2.491c.992 0 1.839.215 2.558.63l.499-.867c-.892-.514-1.916-.763-3.057-.763v1zm2.56.63c.648.37.968.922.968 1.739h1c0-1.153-.493-2.05-1.473-2.608l-.495.87zm.968 1.739v8.728h1v-8.728h-1zm0 8.728c0 .824-.279 1.376-.797 1.744-.548.39-1.432.624-2.731.624v1c1.387 0 2.517-.244 3.311-.81.826-.587 1.217-1.47 1.217-2.558h-1zm-3.528 2.368c-1.334 0-2.244-.243-2.811-.653-.536-.387-.827-.97-.827-1.837h-1c0 1.126.398 2.038 1.242 2.648.813.588 1.972.842 3.396.842v-1zm1.049-2.393v-8.679h-1v8.68h1zm0-8.679c0-.292-.061-.604-.27-.848-.222-.258-.53-.348-.828-.348v1c.053 0 .076.008.081.01.002 0-.005-.002-.011-.01-.01-.011.028.024.028.196h1zm-1.098-1.196c-.298 0-.609.088-.833.345-.214.243-.277.557-.277.851h1c0-.17.039-.204.028-.192-.006.007-.012.009-.007.007a.265.265 0 01.089-.01v-1zm-1.11 1.196v8.68h1v-8.68h-1zm0 8.68c0 .298.062.615.271.863.223.263.535.357.839.357v-1a.248.248 0 01-.084-.01c-.002-.002.003 0 .008.006.006.007-.034-.035-.034-.217h-1zm1.11 1.22c.304 0 .614-.096.834-.361.205-.247.264-.563.264-.86h-1c0 .184-.039.228-.034.221a.04.04 0 01.012-.01c-.004.002-.025.01-.076.01v1zM294.964 41v.5h.5V41h-.5zm-8.349 0h-.5v.5h.5V41zm0-1.953l-.465-.184-.035.088v.096h.5zm3.943-9.949l.464.184.272-.684h-.736v.5zm-3.724 0h-.5v.5h.5v-.5zm0-2.27v-.5h-.5v.5h.5zm7.752 0h.5v-.5h-.5v.5zm0 1.916l.464.186.036-.09v-.096h-.5zm-4.004 10.01l-.464-.186-.275.686h.739v-.5zm4.382 0h.5v-.5h-.5v.5zm0 1.746h-8.349v1h8.349v-1zm-7.849.5v-1.953h-1V41h1zm-.035-1.769l3.942-9.949-.929-.368-3.943 9.949.93.368zm3.478-10.633h-3.724v1h3.724v-1zm-3.224.5v-2.27h-1v2.27h1zm-.5-1.77h7.752v-1h-7.752v1zm7.252-.5v1.916h1v-1.916h-1zm.036 1.73l-4.004 10.01.928.372 4.004-10.01-.928-.372zm-3.54 10.696h4.382v-1h-4.382v1zm3.882-.5V41h1v-2.246h-1zM303.79 41v.5h.5V41h-.5zm-3.076 0h-.5v.5h.5V41zm0-.55h.5l-.943-.232.443.233zm-4.395-5.98l-.356-.351-.003.003.359.347zm2.783-1.77l-.225-.447h-.001l.226.446zm-.036-1.173l-.499.03.001.011.498-.04zm.049.904v.5h.5v-.5h-.5zm-3.357 0h-.5v.5h.5v-.5zm4.553 2.27h.5v-.637l-.619.151.119.486zm1.685-11.206l.42.27.496-.77h-.916v.5zm-1.453 2.258v.5h.273l.147-.23-.42-.27zm-1.917 0l-.474-.156-.217.656h.691v-.5zm.745-2.258v-.5h-.362l-.113.343.475.157zM303.79 40.5h-3.076v1h3.076v-1zm-2.576.5v-.55h-1V41h1zm-.943-.782c-.05.095-.17.217-.469.317-.301.1-.735.16-1.322.16v1c.641 0 1.194-.064 1.638-.212.446-.148.828-.398 1.039-.8l-.886-.465zm-1.791.477c-.897 0-1.477-.177-1.825-.45-.325-.253-.519-.645-.519-1.271h-1c0 .855.28 1.573.903 2.06.6.468 1.441.661 2.441.661v-1zm-2.344-1.721v-2.845h-1v2.845h1zm0-2.845c0-.5.174-.93.543-1.313l-.719-.694c-.543.562-.824 1.238-.824 2.007h1zm.54-1.31c.401-.407 1.262-.966 2.653-1.674l-.453-.891c-1.392.708-2.387 1.329-2.913 1.865l.713.7zm2.652-1.674c.415-.209.753-.41.995-.606.121-.098.234-.207.321-.33a.849.849 0 00.167-.486h-1c0-.078.031-.112.016-.09a.726.726 0 01-.132.128c-.161.13-.427.295-.818.492l.451.892zm1.483-1.422v-2.1h-1v2.1h1zm0-2.1c0-.292-.061-.604-.27-.848-.222-.258-.53-.348-.828-.348v1c.052 0 .076.008.081.01.002 0-.005-.002-.012-.01-.01-.011.029.024.029.196h1zm-1.098-1.196a.955.955 0 00-.618.221c-.169.14-.282.326-.359.517-.15.373-.207.875-.207 1.459h1c0-.547.057-.893.135-1.086.037-.091.067-.118.068-.12l-.003.003-.009.004c-.008.003-.012.002-.007.002v-1zm-1.184 2.197c0 .22.013.533.038.934l.998-.061a16.004 16.004 0 01-.036-.873h-1zm.039.944c.032.395.047.68.047.863h1c0-.225-.018-.542-.051-.944l-.996.081zm.547.363h-3.357v1h3.357v-1zm-2.857.5v-2.832h-1v2.832h1zm0-2.832c0-.819.285-1.37.822-1.74.57-.394 1.487-.629 2.828-.629v-1c-1.425 0-2.583.244-3.397.806-.847.585-1.253 1.468-1.253 2.563h1zm3.65-2.369c1.244 0 2.085.242 2.606.644.497.383.776.967.776 1.847h1c0-1.114-.368-2.025-1.165-2.64-.773-.595-1.873-.851-3.217-.851v1zm3.382 2.49V41h1V29.72h-1zm-2.479 8.631v-3.65h-1v3.65h1zm-.619-4.136c-.44.108-.828.273-1.112.53a1.35 1.35 0 00-.465 1.03h1c0-.114.036-.2.133-.287.114-.102.324-.214.682-.301l-.238-.971zm-1.577 1.56v2.576h1v-2.576h-1zm0 2.576c0 .288.069.597.295.832.23.239.538.315.827.315v-1c-.125 0-.129-.031-.106-.008.018.02-.016.004-.016-.139h-1zm1.122 1.147c.285 0 .586-.083.805-.33.208-.235.269-.538.269-.817h-1c0 .153-.035.173-.018.154.01-.011.02-.016.019-.015a.23.23 0 01-.075.008v1zm1.838-16.273l-1.453 2.258.841.54 1.453-2.257-.841-.541zm-1.032 2.028h-1.917v1h1.917v-1zm-1.442.657l.745-2.258-.95-.314-.744 2.259.949.313zm.27-1.915h2.625v-1h-2.625v1zm5.237 11.304v-.5h-.5v.5h.5zm3.467 0h.5v-.5h-.5v.5zm.451.025l.295-.404-.03-.022-.032-.017-.233.443zm-3.283-1.99l-.358.35.004.004.354-.354zm7.434-.94v.5h.5v-.5h-.5zm-3.394 0l-.499-.021-.023.521h.522v-.5zm.073-1.697l.5.022v-.022h-.5zm-1.013 1.075l-.451.216.004.007.447-.224zm3.198 2.014l.292-.407-.034-.024-.037-.018-.221.449zm-6.933 2.013h3.467v-1h-3.467v1zm2.967-.5v3.003h1V35.3h-1zm0 3.003c0 .295.058.61.258.856.217.266.525.364.828.364v-1c-.048 0-.066-.007-.067-.007 0 0 .002 0 .006.004l.009.008c.005.006-.034-.04-.034-.225h-1zm1.086 1.22a.905.905 0 00.565-.192c.158-.125.263-.29.334-.457.138-.324.187-.75.187-1.23h-1c0 .44-.049.703-.107.84-.027.062-.044.07-.032.06a.103.103 0 01.053-.02v1zm1.086-1.879c0-.627-.063-1.174-.203-1.625-.141-.453-.37-.84-.723-1.098l-.589.808c.126.092.257.266.357.586.1.322.158.76.158 1.33h1zm-.988-2.762a41.916 41.916 0 01-2.156-1.196c-.547-.332-.867-.565-1.007-.705l-.707.708c.234.234.649.52 1.196.852.56.339 1.297.748 2.209 1.227l.465-.886zm-3.159-1.897c-.251-.256-.419-.678-.419-1.359h-1c0 .833.206 1.55.704 2.059l.715-.7zm-.419-1.359v-1.904h-1v1.904h1zm0-1.904c0-.872.287-1.455.81-1.841.551-.407 1.439-.65 2.743-.65v-1c-1.398 0-2.537.255-3.337.845-.828.611-1.216 1.524-1.216 2.646h1zm3.553-2.491c1.268 0 2.129.233 2.663.622.504.366.78.918.78 1.747h1c0-1.084-.381-1.966-1.192-2.556-.781-.568-1.891-.813-3.251-.813v1zm3.443 2.369v2.795h1v-2.795h-1zm.5 2.295h-3.394v1h3.394v-1zm-2.894.522l.073-1.697-.999-.043-.073 1.697.999.043zm.073-1.719c0-.606-.053-1.12-.192-1.499a1.31 1.31 0 00-.335-.53.905.905 0 00-.62-.24v1a.095.095 0 01-.053-.02c-.001-.001.007.006.021.028.013.022.03.056.048.105.077.211.131.583.131 1.156h1zm-1.147-2.27c-.392 0-.719.186-.917.526-.174.299-.23.683-.23 1.085h1c0-.338.053-.51.094-.581.017-.029.025-.03.019-.026-.006.003 0-.004.034-.004v-1zm-1.147 1.611c0 .791.095 1.458.33 1.95l.902-.433c-.139-.29-.232-.778-.232-1.517h-1zm.334 1.957c.096.191.263.36.435.505.182.153.415.317.692.491.554.35 1.323.764 2.298 1.243l.441-.897c-.962-.473-1.695-.87-2.206-1.192a5.344 5.344 0 01-.581-.41 1.397 1.397 0 01-.145-.138c-.034-.037-.041-.053-.04-.05l-.894.448zm3.354 2.197c.681.488 1 1.105 1 1.889h1c0-1.121-.487-2.035-1.417-2.702l-.583.813zm1 1.889v2.124h1V36.08h-1zm0 2.124c0 .869-.29 1.451-.823 1.838-.561.409-1.465.652-2.791.652v1c1.417 0 2.57-.255 3.38-.843.838-.61 1.234-1.523 1.234-2.647h-1zm-3.614 2.49c-1.298 0-2.183-.234-2.731-.624-.517-.368-.797-.92-.797-1.744h-1c0 1.088.391 1.97 1.217 2.558.794.566 1.924.81 3.311.81v-1zm-3.528-2.368v-3.028h-1v3.028h1z"/>
  </g>
  <g filter="url(#filter5_d_510_254)">
    <path fill="#FFFF38" d="M534.605 10.993h3.504v4.016c0 .399.24.598.72.598.464 0 .696-.199.696-.598v-2.075c0-.635-.423-1.38-1.27-2.234-1.635-1.587-2.653-2.653-3.051-3.198a2.973 2.973 0 01-.599-1.794V3.742c0-2.27 1.482-3.406 4.444-3.406 2.653 0 3.979 1.034 3.979 3.101v3.027h-3.503V3.242c0-.35-.191-.525-.574-.525-.447 0-.671.338-.671 1.013l.073 1.135c0 .651.431 1.408 1.294 2.27 1.603 1.539 2.62 2.613 3.052 3.223.439.61.659 1.303.659 2.076v2.234c0 2.327-1.485 3.49-4.456 3.49-2.864 0-4.297-1.057-4.297-3.173v-3.992zm12.964-7.947h-3.479V.496h3.479v2.55zm0 14.954h-3.479V3.828h3.479V18zm10.45 0h-4.09l-2.136-5.127V18h-3.467V.495h3.467v7.85l1.782-4.517h3.601l-2.527 6.2 3.37 7.972zm8.679-6.006h-4.676v3.308c0 .48.204.72.611.72.399 0 .598-.24.598-.72v-2.856h3.467v2.88c0 1.913-1.363 2.87-4.09 2.87-2.701 0-4.052-.998-4.052-2.991V6.72c0-1.994 1.351-2.991 4.052-2.991 2.727 0 4.09.956 4.09 2.869v5.395zm-3.467-2.124V6.623c0-.464-.199-.696-.598-.696-.407 0-.611.232-.611.696V9.87h1.209zm12.5-.17h-3.479V6.622c0-.431-.199-.647-.598-.647-.399 0-.598.208-.598.623V18h-3.479V3.828h3.479v.476c.464-.383 1.18-.574 2.148-.574.692 0 1.286.187 1.782.562.497.366.745.85.745 1.452V9.7zm8.813 2.294h-4.675v3.308c0 .48.204.72.61.72.399 0 .599-.24.599-.72v-2.856h3.466v2.88c0 1.913-1.363 2.87-4.089 2.87-2.702 0-4.053-.998-4.053-2.991V6.72c0-1.994 1.351-2.991 4.053-2.991 2.726 0 4.089.956 4.089 2.869v5.395zm-3.466-2.124V6.623c0-.464-.2-.696-.599-.696-.406 0-.61.232-.61.696V9.87h1.209zm4.248 2.43h3.466v3.002c0 .48.196.72.586.72.391 0 .586-.46.586-1.379 0-1.196-.24-1.97-.72-2.32-1.815-.951-2.909-1.615-3.284-1.989-.374-.383-.561-.952-.561-1.709V6.721c0-1.994 1.351-2.991 4.053-2.991 2.628 0 3.943.956 3.943 2.869v2.795h-3.394l.073-1.697c0-1.18-.215-1.77-.647-1.77-.431 0-.647.37-.647 1.111 0 .765.094 1.343.281 1.733.195.391 1.261 1.063 3.198 2.015.806.577 1.209 1.342 1.209 2.295v2.124c0 1.993-1.371 2.99-4.114 2.99-2.686 0-4.028-.956-4.028-2.868v-3.028zm-70.069 26.694h-4.675v3.308c0 .48.203.72.61.72.399 0 .599-.24.599-.72v-2.856h3.466v2.88c0 1.913-1.363 2.87-4.089 2.87-2.702 0-4.053-.998-4.053-2.991V33.72c0-1.994 1.351-2.991 4.053-2.991 2.726 0 4.089.956 4.089 2.869v5.395zm-3.466-2.124v-3.247c0-.464-.2-.696-.599-.696-.407 0-.61.232-.61.696v3.247h1.209zm7.763 8.13h-3.479V27.495h3.479V45zm13.635 0h-3.466V33.672c0-.431-.2-.647-.598-.647-.407 0-.611.207-.611.623V45h-3.467V33.648c0-.432-.199-.648-.598-.648-.407 0-.61.208-.61.623V45h-3.467V30.828h3.467v.5c.48-.399 1.2-.598 2.161-.598.805 0 1.538.321 2.197.964.61-.643 1.444-.964 2.502-.964.602 0 1.168.183 1.697.55.529.357.793.858.793 1.5V45zm8.948-6.006h-4.675v3.308c0 .48.203.72.61.72.399 0 .598-.24.598-.72v-2.856h3.467v2.88c0 1.913-1.363 2.87-4.089 2.87-2.702 0-4.053-.998-4.053-2.991V33.72c0-1.994 1.351-2.991 4.053-2.991 2.726 0 4.089.956 4.089 2.869v5.395zm-3.467-2.124v-3.247c0-.464-.199-.696-.598-.696-.407 0-.61.232-.61.696v3.247h1.208zm1.734-9.375l-1.453 2.258h-1.916l.744-2.258h2.625zM546.434 45h-3.479V27.495h3.479V45zm8.936-6.006h-4.676v3.308c0 .48.204.72.611.72.398 0 .598-.24.598-.72v-2.856h3.467v2.88c0 1.913-1.363 2.87-4.09 2.87-2.702 0-4.052-.998-4.052-2.991V33.72c0-1.994 1.35-2.991 4.052-2.991 2.727 0 4.09.956 4.09 2.869v5.395zm-3.467-2.124v-3.247c0-.464-.2-.696-.598-.696-.407 0-.611.232-.611.696v3.247h1.209zM563.048 45h-2.197c-1.571 0-2.511-.236-2.82-.708-.309-.472-.464-1.38-.464-2.722v-8.643h-1.55v-2.1h1.55v-2.856h3.479v2.857h1.88v2.1h-1.88v8.617c0 .415.122.696.366.843.252.138.798.207 1.636.207V45zm4.077-14.954h-3.479v-2.55h3.479v2.55zm0 14.954h-3.479V30.828h3.479V45zm14.197-14.172L578.771 45h-4.2l-2.551-14.172h3.503l1.197 8.374 1.172-8.374h3.43zm3.894-.782h-3.479v-2.55h3.479v2.55zm0 14.954h-3.479V30.828h3.479V45zm9.021 0h-8.35v-1.953l3.943-9.949h-3.723v-2.27h7.751v1.916l-4.004 10.01h4.383V45zm.61-5.7h3.467v3.002c0 .48.195.72.586.72.391 0 .586-.46.586-1.379 0-1.196-.24-1.97-.72-2.32-1.815-.951-2.91-1.615-3.284-1.989-.374-.383-.562-.952-.562-1.709v-1.904c0-1.994 1.351-2.991 4.053-2.991 2.629 0 3.943.956 3.943 2.869v2.795h-3.394l.074-1.697c0-1.18-.216-1.77-.647-1.77-.432 0-.647.37-.647 1.111 0 .765.093 1.343.281 1.734.195.39 1.261 1.062 3.198 2.014.805.577 1.208 1.342 1.208 2.295v2.124c0 1.993-1.371 2.99-4.114 2.99-2.685 0-4.028-.956-4.028-2.868v-3.028zm9.485 8.703v-2.05h2.82c.822 0 1.233-.428 1.233-1.283-.456.35-1.172.525-2.149.525-.683 0-1.277-.179-1.782-.537-.496-.366-.745-.842-.745-1.428V33.05c0-1.547.924-2.32 2.771-2.32.489 0 1.132.207 1.929.622l.452-.524h2.991v13.977c0 .92-.184 1.68-.55 2.282-.358.61-1.481.916-3.369.916h-3.601zm4.053-5.53v-8.899c0-.431-.2-.647-.598-.647-.407 0-.611.216-.611.647v8.875c0 .431.204.647.611.647.398 0 .598-.208.598-.623zM620.836 45h-3.076v-.55c-.261.497-1.005.745-2.234.745-1.896 0-2.844-.74-2.844-2.221v-2.845c0-.634.228-1.188.683-1.66.464-.472 1.392-1.062 2.783-1.77.806-.407 1.209-.732 1.209-.976v-2.1c0-.464-.199-.696-.598-.696-.456 0-.684.566-.684 1.697 0 .203.012.505.037.903.032.4.049.7.049.904h-3.357v-2.832c0-1.913 1.383-2.869 4.15-2.869 2.588 0 3.882.997 3.882 2.99V45zm-3.479-2.649v-3.65c-.798.196-1.196.554-1.196 1.074v2.576c0 .431.207.647.622.647.383 0 .574-.216.574-.647z"/>
    <path fill="#000" d="M534.605 10.993v-.5h-.5v.5h.5zm3.504 0h.5v-.5h-.5v.5zm.146-.293l.356-.352-.007-.007-.349.36zm-3.051-3.198l-.404.295.404-.295zm7.824-1.038v.5h.5v-.5h-.5zm-3.503 0h-.5v.5h.5v-.5zM538.28 3.73h-.5v.016l.001.016.499-.032zm.073 1.135h.5V4.85l-.001-.016-.499.032zm1.294 2.27l-.354.354.008.008.346-.361zm3.052 3.223l-.409.289.003.004.406-.293zm-8.094 1.135h3.504v-1h-3.504v1zm3.004-.5v4.016h1v-4.016h-1zm0 4.016c0 .304.096.614.36.833.248.206.563.265.86.265v-1c-.183 0-.228-.04-.221-.034.006.005.01.012.01.012-.001-.004-.009-.025-.009-.076h-1zm1.22 1.098c.292 0 .605-.06.848-.27.258-.222.348-.53.348-.828h-1a.234.234 0 01-.01.081c-.001.002.003-.005.01-.011.011-.01-.024.028-.196.028v1zm1.196-1.098v-2.075h-1v2.075h1zm0-2.075c0-.843-.549-1.712-1.414-2.586l-.711.704c.828.835 1.125 1.456 1.125 1.882h1zm-1.421-2.593c-1.644-1.594-2.628-2.63-2.997-3.134l-.807.59c.429.586 1.479 1.683 3.107 3.262l.697-.718zm-2.997-3.134a2.478 2.478 0 01-.502-1.5h-1c0 .762.236 1.463.695 2.09l.807-.59zm-.502-1.5V3.743h-1v1.966h1zm0-1.965c0-1.017.325-1.705.915-2.157.616-.472 1.598-.749 3.029-.749v-1c-1.531 0-2.771.291-3.637.955-.891.683-1.307 1.698-1.307 2.951h1zm3.944-2.906c1.275 0 2.14.251 2.677.67.514.4.802 1.012.802 1.931h1c0-1.149-.375-2.087-1.187-2.72-.789-.615-1.915-.88-3.292-.88v1zm3.479 2.601v3.027h1V3.437h-1zm.5 2.527h-3.503v1h3.503v-1zm-3.003.5V3.242h-1v3.222h1zm0-3.222c0-.264-.074-.55-.306-.763-.223-.204-.51-.262-.768-.262v1c.059 0 .092.007.105.01.012.004.003.004-.012-.01a.13.13 0 01-.018-.021l-.007-.013s.006.015.006.059h1zm-1.074-1.025c-.371 0-.705.152-.92.477-.192.289-.251.659-.251 1.036h1c0-.298.052-.435.084-.484.012-.017.018-.02.018-.02a.164.164 0 01.069-.01v-1zm-1.17 1.545l.073 1.135.998-.064-.073-1.135-.998.064zm.072 1.103c0 .86.557 1.741 1.44 2.624l.708-.707c-.843-.842-1.148-1.475-1.148-1.917h-1zm1.448 2.632c1.609 1.543 2.59 2.585 2.989 3.15l.817-.577c-.463-.656-1.516-1.762-3.114-3.295l-.692.722zm2.992 3.154c.376.522.565 1.111.565 1.783h1a3.96 3.96 0 00-.754-2.368l-.811.585zm.565 1.783v2.234h1v-2.234h-1zm0 2.234c0 1.05-.329 1.76-.922 2.224-.617.484-1.6.767-3.034.767v1c1.537 0 2.782-.299 3.65-.98.892-.698 1.306-1.734 1.306-3.011h-1zm-3.956 2.99c-1.385 0-2.333-.258-2.925-.695-.564-.416-.872-1.045-.872-1.978h-1c0 1.183.409 2.14 1.278 2.782.84.621 2.04.892 3.519.892v-1zm-3.797-2.673v-3.992h-1v3.992h1zm12.464-11.939v.5h.5v-.5h-.5zm-3.479 0h-.5v.5h.5v-.5zm0-2.55v-.5h-.5v.5h.5zm3.479 0h.5v-.5h-.5v.5zm0 17.504v.5h.5V18h-.5zm-3.479 0h-.5v.5h.5V18zm0-14.172v-.5h-.5v.5h.5zm3.479 0h.5v-.5h-.5v.5zm0-1.282h-3.479v1h3.479v-1zm-2.979.5V.496h-1v2.55h1zm-.5-2.05h3.479v-1h-3.479v1zm2.979-.5v2.55h1V.496h-1zm.5 17.004h-3.479v1h3.479v-1zm-2.979.5V3.828h-1V18h1zm-.5-13.672h3.479v-1h-3.479v1zm2.979-.5V18h1V3.828h-1zM558.019 18v.5h.754l-.294-.695-.46.195zm-4.09 0l-.461.192.128.308h.333V18zm-2.136-5.127l.462-.192-.962.192h.5zm0 5.127v.5h.5V18h-.5zm-3.467 0h-.5v.5h.5V18zm0-17.505v-.5h-.5v.5h.5zm3.467 0h.5v-.5h-.5v.5zm0 7.85h-.5l.965.183-.465-.184zm1.782-4.517v-.5h-.34l-.125.316.465.184zm3.601 0l.463.188.281-.688h-.744v.5zm-2.527 6.2l-.463-.188-.078.192.081.191.46-.194zm3.37 7.472h-4.09v1h4.09v-1zm-3.628.308l-2.136-5.127-.924.384 2.137 5.127.923-.384zm-3.098-4.935V18h1v-5.127h-1zm.5 4.627h-3.467v1h3.467v-1zm-2.967.5V.495h-1V18h1zm-.5-17.005h3.467v-1h-3.467v1zm2.967-.5v7.85h1V.494h-1zm.965 8.033l1.782-4.517-.93-.367-1.782 4.517.93.367zm1.317-4.2h3.601v-1h-3.601v1zm3.138-.689l-2.527 6.201.926.377 2.527-6.2-.926-.378zm-2.524 6.585l3.369 7.97.921-.389-3.369-7.97-.921.388zm12.509 1.77v.5h.5v-.5h-.5zm-4.676 0v-.5h-.5v.5h.5zm1.209.452v-.5h-.5v.5h.5zm3.467 0h.5v-.5h-.5v.5zm-3.467-2.576v.5h.5v-.5h-.5zm-1.209 0h-.5v.5h.5v-.5zm4.676 1.624h-4.676v1h4.676v-1zm-5.176.5v3.308h1v-3.308h-1zm0 3.308c0 .299.062.616.272.864.223.263.535.357.839.357v-1a.243.243 0 01-.084-.01c-.003-.002.003 0 .007.006.007.007-.034-.035-.034-.217h-1zm1.111 1.22c.303 0 .613-.095.833-.36.205-.247.265-.563.265-.86h-1c0 .184-.04.228-.034.221.005-.006.012-.01.011-.01a.214.214 0 01-.075.01v1zm1.098-1.22v-2.856h-1v2.856h1zm-.5-2.356h3.467v-1h-3.467v1zm2.967-.5v2.88h1v-2.88h-1zm0 2.88c0 .822-.283 1.373-.81 1.743-.559.392-1.46.626-2.78.626v1c1.407 0 2.551-.244 3.355-.808.836-.586 1.235-1.47 1.235-2.56h-1zm-3.59 2.37c-1.304 0-2.191-.244-2.742-.65-.523-.386-.81-.97-.81-1.841h-1c0 1.122.388 2.034 1.216 2.645.8.59 1.939.845 3.336.845v-1zm-3.552-2.491V6.72h-1v8.484h1zm0-8.484c0-.872.287-1.455.81-1.841.551-.407 1.438-.65 2.742-.65v-1c-1.397 0-2.536.255-3.336.845-.828.611-1.216 1.524-1.216 2.646h1zm3.552-2.491c1.32 0 2.221.234 2.78.626.527.37.81.921.81 1.743h1c0-1.092-.399-1.975-1.235-2.561-.804-.564-1.948-.808-3.355-.808v1zm3.59 2.369v5.395h1V6.6h-1zm-2.467 3.271V6.623h-1V9.87h1zm0-3.247c0-.292-.061-.604-.27-.848-.222-.258-.53-.348-.828-.348v1c.052 0 .076.008.081.01.002 0-.005-.002-.012-.01-.01-.011.029.024.029.196h1zm-1.098-1.196c-.299 0-.609.088-.834.344-.213.244-.277.558-.277.852h1c0-.17.039-.204.029-.192-.006.007-.012.009-.008.007a.272.272 0 01.09-.01v-1zm-1.111 1.196V9.87h1V6.623h-1zm.5 3.747h1.209v-1h-1.209v1zm13.709-.67v.5h.5v-.5h-.5zm-3.479 0h-.5v.5h.5v-.5zm-1.196 8.3v.5h.5V18h-.5zm-3.479 0h-.5v.5h.5V18zm0-14.172v-.5h-.5v.5h.5zm3.479 0h.5v-.5h-.5v.5zm0 .476h-.5v1.06l.818-.675-.318-.385zm3.93-.013l-.301.4.005.003.296-.402zm.745 4.908h-3.479v1h3.479v-1zm-2.979.5V6.623h-1V9.7h1zm0-3.076c0-.283-.065-.59-.282-.825-.225-.242-.529-.322-.816-.322v1a.29.29 0 01.092.01c.006.003-.002.001-.011-.009-.018-.02.017-.002.017.146h1zm-1.098-1.147c-.282 0-.584.074-.809.31-.222.23-.289.533-.289.813h1c0-.136.032-.145.01-.12-.01.01-.018.011-.01.008a.313.313 0 01.098-.01v-1zM570.556 6.6V18h1V6.599h-1zm.5 10.901h-3.479v1h3.479v-1zm-2.979.5V3.828h-1V18h1zm-.5-13.672h3.479v-1h-3.479v1zm2.979-.5v.476h1v-.476h-1zm.818.861c.334-.275.912-.459 1.83-.459v-1c-1.018 0-1.873.198-2.466.688l.636.771zm1.83-.459c.596 0 1.081.16 1.481.46l.602-.798c-.593-.447-1.295-.662-2.083-.662v1zm1.486.464c.372.275.541.611.541 1.05h1c0-.765-.327-1.397-.948-1.855l-.593.805zm.541 1.05V9.7h1V5.744h-1zm9.313 6.25v.5h.5v-.5h-.5zm-4.675 0v-.5h-.5v.5h.5zm1.209.452v-.5h-.5v.5h.5zm3.466 0h.5v-.5h-.5v.5zm-3.466-2.576v.5h.5v-.5h-.5zm-1.209 0h-.5v.5h.5v-.5zm4.675 1.624h-4.675v1h4.675v-1zm-5.175.5v3.308h1v-3.308h-1zm0 3.308c0 .299.062.616.271.864.223.263.535.357.839.357v-1a.248.248 0 01-.084-.01c-.002-.002.003 0 .008.006.006.007-.034-.035-.034-.217h-1zm1.11 1.22c.304 0 .614-.095.834-.36.205-.247.265-.563.265-.86h-1c0 .184-.04.228-.035.221a.04.04 0 01.012-.01.218.218 0 01-.076.01v1zm1.099-1.22v-2.856h-1v2.856h1zm-.5-2.356h3.466v-1h-3.466v1zm2.966-.5v2.88h1v-2.88h-1zm0 2.88c0 .822-.282 1.373-.809 1.743-.559.392-1.46.626-2.78.626v1c1.406 0 2.55-.244 3.354-.808.837-.586 1.235-1.47 1.235-2.56h-1zm-3.589 2.37c-1.304 0-2.191-.244-2.743-.65-.522-.386-.81-.97-.81-1.841h-1c0 1.122.389 2.034 1.217 2.645.799.59 1.938.845 3.336.845v-1zm-3.553-2.491V6.72h-1v8.484h1zm0-8.484c0-.872.288-1.455.81-1.841.552-.407 1.439-.65 2.743-.65v-1c-1.398 0-2.537.255-3.336.845-.828.611-1.217 1.524-1.217 2.646h1zm3.553-2.491c1.32 0 2.221.234 2.78.626.527.37.809.921.809 1.743h1c0-1.092-.398-1.975-1.235-2.561-.804-.564-1.948-.808-3.354-.808v1zm3.589 2.369v5.395h1V6.6h-1zm-2.466 3.271V6.623h-1V9.87h1zm0-3.247c0-.292-.062-.604-.271-.848-.221-.258-.53-.348-.828-.348v1c.053 0 .076.008.081.01.002 0-.005-.002-.011-.01-.01-.011.029.024.029.196h1zm-1.099-1.196c-.298 0-.609.088-.833.344-.214.244-.277.558-.277.852h1c0-.17.039-.204.029-.192-.007.007-.012.009-.008.007a.269.269 0 01.089-.01v-1zm-1.11 1.196V9.87h1V6.623h-1zm.5 3.747h1.209v-1h-1.209v1zm5.457 1.93v-.5h-.5v.5h.5zm3.466 0h.5v-.5h-.5v.5zm.452.024l.295-.404-.03-.022-.033-.017-.232.443zm-3.284-1.99l-.357.35.004.004.353-.354zm7.435-.94v.5h.5v-.5h-.5zm-3.394 0l-.5-.022-.022.522h.522v-.5zm.073-1.697l.5.022V7.698h-.5zm-1.013 1.074l-.451.217.004.007.447-.224zm3.198 2.015l.292-.407-.034-.024-.037-.018-.221.449zm-6.933 2.013h3.466v-1h-3.466v1zm2.966-.5v3.003h1V12.3h-1zm0 3.003c0 .295.058.61.259.856.217.266.525.364.827.364v-1a.187.187 0 01-.066-.007c-.001 0 .002 0 .006.004l.009.008c.005.007-.035-.04-.035-.225h-1zm1.086 1.22a.9.9 0 00.565-.192c.159-.125.264-.29.335-.457.138-.324.186-.75.186-1.23h-1c0 .44-.049.703-.106.84-.027.062-.044.07-.032.06a.1.1 0 01.052-.02v1zm1.086-1.879c0-.627-.062-1.174-.202-1.625-.141-.453-.37-.84-.723-1.098l-.589.808c.126.092.257.266.357.586.1.322.157.76.157 1.33h1zm-.988-2.762a41.818 41.818 0 01-2.155-1.196c-.547-.332-.867-.565-1.007-.705l-.707.707c.234.235.649.521 1.196.853.56.339 1.297.748 2.209 1.227l.464-.886zm-3.158-1.897c-.251-.256-.419-.678-.419-1.359h-1c0 .833.206 1.55.704 2.059l.715-.7zm-.419-1.359V6.721h-1v1.904h1zm0-1.904c0-.872.287-1.455.81-1.841.551-.407 1.439-.65 2.743-.65v-1c-1.398 0-2.537.255-3.337.845-.828.611-1.216 1.524-1.216 2.646h1zm3.553-2.491c1.268 0 2.129.233 2.663.621.504.367.78.92.78 1.748h1c0-1.084-.382-1.967-1.192-2.556-.781-.568-1.891-.813-3.251-.813v1zm3.443 2.369v2.795h1V6.599h-1zm.5 2.295h-3.394v1h3.394v-1zm-2.894.522l.073-1.697-.999-.043-.074 1.696 1 .044zm.073-1.719c0-.606-.053-1.12-.192-1.499a1.309 1.309 0 00-.335-.53.905.905 0 00-.62-.24v1a.098.098 0 01-.054-.02c0-.001.008.006.021.028a.56.56 0 01.049.105c.077.211.131.583.131 1.156h1zm-1.147-2.27c-.392 0-.719.186-.917.526-.174.299-.23.683-.23 1.085h1c0-.338.052-.51.094-.581.017-.029.025-.03.019-.026-.006.003 0-.004.034-.004v-1zm-1.147 1.611c0 .791.095 1.458.33 1.95l.902-.433c-.139-.29-.232-.778-.232-1.517h-1zm.334 1.957c.095.191.263.36.435.505.182.153.415.317.692.491.554.35 1.323.764 2.298 1.243l.441-.897c-.962-.473-1.695-.87-2.206-1.192a5.242 5.242 0 01-.581-.41 1.436 1.436 0 01-.146-.138c-.033-.037-.041-.053-.039-.05l-.894.448zm3.354 2.197c.681.488 1 1.105 1 1.889h1c0-1.121-.487-2.034-1.417-2.702l-.583.813zm1 1.889v2.124h1V13.08h-1zm0 2.124c0 .868-.29 1.451-.823 1.838-.562.409-1.465.652-2.791.652v1c1.417 0 2.57-.255 3.379-.843.839-.61 1.235-1.523 1.235-2.647h-1zm-3.614 2.49c-1.299 0-2.183-.234-2.731-.624-.517-.368-.797-.92-.797-1.744h-1c0 1.088.391 1.97 1.217 2.558.794.566 1.924.81 3.311.81v-1zm-3.528-2.368v-3.028h-1v3.028h1zm-70.569 23.667v.5h.5v-.5h-.5zm-4.675 0v-.5h-.5v.5h.5zm1.209.452v-.5h-.5v.5h.5zm3.466 0h.5v-.5h-.5v.5zm-3.466-2.576v.5h.5v-.5h-.5zm-1.209 0h-.5v.5h.5v-.5zm4.675 1.624h-4.675v1h4.675v-1zm-5.175.5v3.308h1v-3.308h-1zm0 3.308c0 .299.062.616.271.864.223.263.535.357.839.357v-1a.248.248 0 01-.084-.01c-.002-.002.003 0 .008.006.006.007-.034-.035-.034-.217h-1zm1.11 1.22c.304 0 .614-.095.834-.36.205-.247.265-.563.265-.86h-1c0 .184-.04.228-.035.221a.04.04 0 01.012-.01.218.218 0 01-.076.01v1zm1.099-1.22v-2.856h-1v2.856h1zm-.5-2.356h3.466v-1h-3.466v1zm2.966-.5v2.88h1v-2.88h-1zm0 2.88c0 .822-.282 1.373-.809 1.743-.559.392-1.46.626-2.78.626v1c1.406 0 2.55-.243 3.354-.807.836-.587 1.235-1.47 1.235-2.561h-1zm-3.589 2.37c-1.304 0-2.191-.244-2.743-.65-.523-.386-.81-.97-.81-1.841h-1c0 1.122.388 2.034 1.217 2.645.799.59 1.938.845 3.336.845v-1zm-3.553-2.491V33.72h-1v8.484h1zm0-8.484c0-.872.287-1.455.81-1.841.552-.407 1.439-.65 2.743-.65v-1c-1.398 0-2.537.255-3.336.845-.829.611-1.217 1.524-1.217 2.646h1zm3.553-2.491c1.32 0 2.221.234 2.78.627.527.369.809.92.809 1.742h1c0-1.092-.399-1.974-1.235-2.561-.804-.564-1.948-.808-3.354-.808v1zm3.589 2.369v5.395h1V33.6h-1zm-2.466 3.271v-3.247h-1v3.247h1zm0-3.247c0-.292-.062-.604-.271-.848-.222-.258-.53-.348-.828-.348v1c.053 0 .076.008.081.01.002 0-.005-.002-.011-.01-.01-.011.029.024.029.196h1zm-1.099-1.196c-.298 0-.609.088-.833.345-.214.243-.277.557-.277.851h1c0-.17.039-.204.028-.192-.006.007-.012.009-.007.007a.265.265 0 01.089-.01v-1zm-1.11 1.196v3.247h1v-3.247h-1zm.5 3.747h1.209v-1h-1.209v1zm8.972 7.63v.5h.5V45h-.5zm-3.479 0h-.5v.5h.5V45zm0-17.505v-.5h-.5v.5h.5zm3.479 0h.5v-.5h-.5v.5zm0 17.005h-3.479v1h3.479v-1zm-2.979.5V27.495h-1V45h1zm-.5-17.005h3.479v-1h-3.479v1zm2.979-.5V45h1V27.495h-1zM533.189 45v.5h.5V45h-.5zm-3.466 0h-.5v.5h.5V45zm-1.209 0v.5h.5V45h-.5zm-3.467 0h-.5v.5h.5V45zm-1.208 0v.5h.5V45h-.5zm-3.467 0h-.5v.5h.5V45zm0-14.172v-.5h-.5v.5h.5zm3.467 0h.5v-.5h-.5v.5zm0 .5h-.5v1.065l.819-.68-.319-.385zm4.358.366l-.349.358.362.354.349-.367-.362-.345zm4.199-.415l-.285.411.005.003.28-.414zm.793 13.221h-3.466v1h3.466v-1zm-2.966.5V33.672h-1V45h1zm0-11.328c0-.283-.065-.59-.283-.825-.224-.243-.529-.322-.815-.322v1c.055 0 .083.008.092.01.005.003-.002 0-.011-.009-.018-.02.017-.002.017.146h1zm-1.098-1.147c-.284 0-.587.073-.815.306-.227.23-.296.534-.296.816h1c0-.132.033-.14.01-.116-.025.025-.023-.006.101-.006v-1zm-1.111 1.123V45h1V33.648h-1zm.5 10.852h-3.467v1h3.467v-1zm-2.967.5V33.648h-1V45h1zm0-11.352c0-.284-.064-.59-.282-.825-.225-.243-.529-.322-.816-.322v1c.056 0 .084.007.092.01.006.002-.001 0-.01-.01-.019-.02.016-.001.016.147h1zm-1.098-1.148c-.283 0-.586.073-.815.306-.226.231-.295.535-.295.817h1c0-.133.032-.14.009-.117-.024.025-.023-.005.101-.005v-1zm-1.11 1.123V45h1V33.623h-1zm.5 10.877h-3.467v1h3.467v-1zm-2.967.5V30.828h-1V45h1zm-.5-13.672h3.467v-1h-3.467v1zm2.967-.5v.5h1v-.5h-1zm.819.885c.353-.294.938-.483 1.842-.483v-1c-1.018 0-1.873.21-2.481.713l.639.77zM526 31.23c.656 0 1.267.256 1.848.822l.698-.716c-.738-.72-1.592-1.106-2.546-1.106v1zm2.559.809c.498-.525 1.191-.809 2.14-.809v-1c-1.166 0-2.142.359-2.865 1.12l.725.689zm2.14-.809c.494 0 .961.148 1.412.46l.57-.822a3.43 3.43 0 00-1.982-.638v1zm1.417.463c.39.265.573.61.573 1.088h1c0-.808-.345-1.464-1.013-1.916l-.56.828zm.573 1.088V45h1V32.78h-1zm9.448 6.213v.5h.5v-.5h-.5zm-4.675 0v-.5h-.5v.5h.5zm1.208.452v-.5h-.5v.5h.5zm3.467 0h.5v-.5h-.5v.5zm-3.467-2.576v.5h.5v-.5h-.5zm-1.208 0h-.5v.5h.5v-.5zm2.942-9.375l.42.27.496-.77h-.916v.5zm-1.453 2.258v.5h.273l.148-.23-.421-.27zm-1.916 0l-.475-.156-.217.656h.692v-.5zm.744-2.258v-.5h-.361l-.114.343.475.157zm4.358 11h-4.675v1h4.675v-1zm-5.175.5v3.307h1v-3.308h-1zm0 3.307c0 .299.061.616.271.864.223.263.535.357.839.357v-1a.248.248 0 01-.084-.01c-.003-.002.003 0 .008.006.006.007-.034-.035-.034-.217h-1zm1.11 1.22c.304 0 .614-.095.834-.36.205-.247.264-.563.264-.86h-1c0 .184-.04.228-.034.221a.04.04 0 01.012-.01c-.004.002-.025.01-.076.01v1zm1.098-1.22v-2.856h-1v2.856h1zm-.5-2.356h3.467v-1h-3.467v1zm2.967-.5v2.88h1v-2.88h-1zm0 2.88c0 .822-.282 1.373-.809 1.743-.559.392-1.46.626-2.78.626v1c1.406 0 2.55-.243 3.354-.807.836-.587 1.235-1.47 1.235-2.561h-1zm-3.589 2.37c-1.304 0-2.192-.244-2.743-.65-.523-.386-.81-.97-.81-1.841h-1c0 1.122.388 2.034 1.216 2.645.8.59 1.939.845 3.337.845v-1zm-3.553-2.491V33.72h-1v8.484h1zm0-8.484c0-.872.287-1.455.81-1.841.551-.407 1.439-.65 2.743-.65v-1c-1.398 0-2.537.255-3.337.845-.828.611-1.216 1.524-1.216 2.646h1zm3.553-2.491c1.32 0 2.221.234 2.78.627.527.369.809.92.809 1.742h1c0-1.092-.399-1.974-1.235-2.561-.804-.564-1.948-.808-3.354-.808v1zm3.589 2.369v5.395h1V33.6h-1zm-2.467 3.271v-3.247h-1v3.247h1zm0-3.247c0-.292-.061-.604-.27-.848-.222-.258-.53-.348-.828-.348v1c.053 0 .076.008.081.01.002 0-.005-.002-.011-.01-.01-.011.028.024.028.196h1zm-1.098-1.196c-.299 0-.609.088-.833.345-.214.243-.277.557-.277.851h1c0-.17.039-.204.028-.192-.006.007-.012.009-.007.007a.265.265 0 01.089-.01v-1zm-1.11 1.196v3.247h1v-3.247h-1zm.5 3.747h1.208v-1h-1.208v1zm2.521-10.145l-1.452 2.258.841.54 1.452-2.257-.841-.541zm-1.032 2.028h-1.916v1h1.916v-1zm-1.441.657l.744-2.258-.95-.314-.744 2.259.95.313zm.269-1.915h2.625v-1h-2.625v1zM546.434 45v.5h.5V45h-.5zm-3.479 0h-.5v.5h.5V45zm0-17.505v-.5h-.5v.5h.5zm3.479 0h.5v-.5h-.5v.5zm0 17.005h-3.479v1h3.479v-1zm-2.979.5V27.495h-1V45h1zm-.5-17.005h3.479v-1h-3.479v1zm2.979-.5V45h1V27.495h-1zm9.436 11.5v.5h.5v-.5h-.5zm-4.676 0v-.5h-.5v.5h.5zm1.209.45v-.5h-.5v.5h.5zm3.467 0h.5v-.5h-.5v.5zm-3.467-2.575v.5h.5v-.5h-.5zm-1.209 0h-.5v.5h.5v-.5zm4.676 1.624h-4.676v1h4.676v-1zm-5.176.5v3.308h1v-3.308h-1zm0 3.308c0 .299.062.616.271.864.223.263.535.357.84.357v-1a.243.243 0 01-.084-.01c-.003-.002.003 0 .007.006.007.007-.034-.035-.034-.217h-1zm1.111 1.22c.303 0 .613-.095.833-.36.205-.247.265-.563.265-.86h-1c0 .184-.04.228-.034.221a.043.043 0 01.011-.01.214.214 0 01-.075.01v1zm1.098-1.22v-2.856h-1v2.856h1zm-.5-2.356h3.467v-1h-3.467v1zm2.967-.5v2.88h1v-2.88h-1zm0 2.88c0 .822-.283 1.373-.81 1.743-.559.392-1.46.626-2.78.626v1c1.407 0 2.55-.243 3.354-.807.837-.587 1.236-1.47 1.236-2.561h-1zm-3.59 2.37c-1.304 0-2.191-.244-2.742-.65-.523-.386-.81-.97-.81-1.841h-1c0 1.122.388 2.034 1.216 2.645.799.59 1.939.845 3.336.845v-1zm-3.552-2.491V33.72h-1v8.484h1zm0-8.484c0-.872.287-1.455.81-1.841.551-.407 1.438-.65 2.742-.65v-1c-1.397 0-2.537.255-3.336.845-.828.611-1.216 1.524-1.216 2.646h1zm3.552-2.491c1.32 0 2.221.234 2.78.627.527.369.81.92.81 1.742h1c0-1.092-.399-1.974-1.236-2.561-.804-.564-1.947-.808-3.354-.808v1zm3.59 2.369v5.395h1V33.6h-1zm-2.467 3.271v-3.247h-1v3.247h1zm0-3.247c0-.292-.061-.604-.271-.848-.221-.258-.529-.348-.827-.348v1c.052 0 .076.008.081.01.002 0-.005-.002-.012-.01-.01-.011.029.024.029.196h1zm-1.098-1.196c-.299 0-.609.088-.834.345-.214.243-.277.557-.277.851h1c0-.17.039-.204.029-.192-.006.007-.012.009-.008.007a.273.273 0 01.09-.01v-1zm-1.111 1.196v3.247h1v-3.247h-1zm.5 3.747h1.209v-1h-1.209v1zM563.048 45v.5h.5V45h-.5zm-5.017-.708l-.418.274.418-.274zm-.464-11.365h.5v-.5h-.5v.5zm-1.55 0h-.5v.5h.5v-.5zm0-2.1v-.5h-.5v.5h.5zm1.55 0v.5h.5v-.5h-.5zm0-2.856v-.5h-.5v.5h.5zm3.479 0h.5v-.5h-.5v.5zm0 2.857h-.5v.5h.5v-.5zm1.88 0h.5v-.5h-.5v.5zm0 2.1v.5h.5v-.5h-.5zm-1.88 0v-.5h-.5v.5h.5zm.366 9.46l-.257.428.008.005.009.005.24-.438zm1.636.207h.5v-.5h-.5v.5zm0 1.905h-2.197v1h2.197v-1zm-2.197 0c-.767 0-1.348-.058-1.762-.162-.428-.108-.589-.242-.64-.32l-.836.548c.258.394.722.614 1.233.742.526.132 1.2.192 2.005.192v-1zm-2.402-.482c-.101-.153-.201-.421-.273-.845-.071-.416-.109-.948-.109-1.603h-1c0 .688.039 1.28.123 1.771.082.484.214.906.423 1.225l.836-.548zm-.382-2.448v-8.643h-1v8.643h1zm-.5-9.143h-1.55v1h1.55v-1zm-1.05.5v-2.1h-1v2.1h1zm-.5-1.6h1.55v-1h-1.55v1zm2.05-.5v-2.856h-1v2.857h1zm-.5-2.356h3.479v-1h-3.479v1zm2.979-.5v2.857h1V27.97h-1zm.5 3.357h1.88v-1h-1.88v1zm1.38-.5v2.1h1v-2.1h-1zm.5 1.6h-1.88v1h1.88v-1zm-2.38.5v8.617h1v-8.618h-1zm0 8.617c0 .503.152.997.609 1.271l.514-.857c-.031-.019-.123-.086-.123-.414h-1zm.626 1.281c.211.116.487.177.775.213.302.039.67.056 1.101.056v-1c-.408 0-.731-.017-.975-.048-.256-.032-.379-.075-.42-.098l-.481.877zm1.376-.23V45h1v-2.405h-1zm4.577-12.55v.5h.5v-.5h-.5zm-3.479 0h-.5v.5h.5v-.5zm0-2.55v-.5h-.5v.5h.5zm3.479 0h.5v-.5h-.5v.5zm0 17.504v.5h.5V45h-.5zm-3.479 0h-.5v.5h.5V45zm0-14.172v-.5h-.5v.5h.5zm3.479 0h.5v-.5h-.5v.5zm0-1.282h-3.479v1h3.479v-1zm-2.979.5v-2.55h-1v2.55h1zm-.5-2.05h3.479v-1h-3.479v1zm2.979-.5v2.55h1v-2.55h-1zm.5 17.004h-3.479v1h3.479v-1zm-2.979.5V30.828h-1V45h1zm-.5-13.672h3.479v-1h-3.479v1zm2.979-.5V45h1V30.828h-1zm14.697 0l.492.088.106-.588h-.598v.5zM578.771 45v.5h.418l.074-.411-.492-.089zm-4.2 0l-.492.089.074.411h.418V45zm-2.551-14.172v-.5h-.598l.106.588.492-.088zm3.503 0l.495-.071-.061-.43h-.434v.5zm1.197 8.374l-.495.07.99-.001-.495-.07zm1.172-8.374v-.5h-.435l-.061.43.496.07zm2.938-.089l-2.552 14.172.985.178 2.551-14.173-.984-.177zM578.771 44.5h-4.2v1h4.2v-1zm-3.708.411l-2.551-14.172-.984.177 2.551 14.173.984-.178zm-3.043-13.583h3.503v-1h-3.503v1zm3.008-.43l1.197 8.374.99-.141-1.197-8.374-.99.141zm2.187 8.373l1.172-8.374-.991-.139-1.171 8.374.99.139zm.677-7.943h3.43v-1h-3.43v1zm7.324-1.282v.5h.5v-.5h-.5zm-3.479 0h-.5v.5h.5v-.5zm0-2.55v-.5h-.5v.5h.5zm3.479 0h.5v-.5h-.5v.5zm0 17.504v.5h.5V45h-.5zm-3.479 0h-.5v.5h.5V45zm0-14.172v-.5h-.5v.5h.5zm3.479 0h.5v-.5h-.5v.5zm0-1.282h-3.479v1h3.479v-1zm-2.979.5v-2.55h-1v2.55h1zm-.5-2.05h3.479v-1h-3.479v1zm2.979-.5v2.55h1v-2.55h-1zm.5 17.004h-3.479v1h3.479v-1zm-2.979.5V30.828h-1V45h1zm-.5-13.672h3.479v-1h-3.479v1zm2.979-.5V45h1V30.828h-1zM594.237 45v.5h.5V45h-.5zm-8.35 0h-.5v.5h.5V45zm0-1.953l-.465-.184-.035.088v.096h.5zm3.943-9.949l.465.184.271-.684h-.736v.5zm-3.723 0h-.5v.5h.5v-.5zm0-2.27v-.5h-.5v.5h.5zm7.751 0h.5v-.5h-.5v.5zm0 1.916l.465.186.035-.09v-.096h-.5zm-4.004 10.01l-.464-.186-.274.686h.738v-.5zm4.383 0h.5v-.5h-.5v.5zm0 1.746h-8.35v1h8.35v-1zm-7.85.5v-1.953h-1V45h1zm-.035-1.769l3.943-9.949-.93-.368-3.943 9.949.93.368zm3.478-10.633h-3.723v1h3.723v-1zm-3.223.5v-2.27h-1v2.27h1zm-.5-1.77h7.751v-1h-7.751v1zm7.251-.5v1.916h1v-1.916h-1zm.036 1.73l-4.004 10.01.929.372 4.004-10.01-.929-.372zm-3.54 10.696h4.383v-1h-4.383v1zm3.883-.5V45h1v-2.246h-1zm1.11-3.455v-.5h-.5v.5h.5zm3.467 0h.5v-.5h-.5v.5zm.452.025l.294-.404-.03-.022-.032-.017-.232.443zm-3.284-1.99l-.357.35.003.004.354-.354zm7.434-.94v.5h.5v-.5h-.5zm-3.394 0l-.499-.021-.023.521h.522v-.5zm.074-1.697l.499.022.001-.01v-.012h-.5zm-1.013 1.075l-.451.216.003.007.448-.223zm3.198 2.014l.291-.407-.033-.024-.038-.018-.22.449zm-6.934 2.013h3.467v-1h-3.467v1zm2.967-.5v3.003h1V39.3h-1zm0 3.003c0 .295.058.61.259.856.216.266.524.364.827.364v-1c-.047 0-.066-.007-.067-.007 0 0 .003 0 .007.004a.03.03 0 01.008.008c.006.006-.034-.04-.034-.225h-1zm1.086 1.22a.903.903 0 00.565-.192c.158-.125.264-.29.335-.457.137-.324.186-.75.186-1.23h-1c0 .44-.049.703-.107.84-.027.062-.043.07-.031.06a.1.1 0 01.052-.02v1zm1.086-1.879c0-.627-.062-1.174-.203-1.625-.14-.453-.369-.84-.723-1.098l-.589.808c.127.092.258.266.357.586.1.322.158.76.158 1.33h1zm-.988-2.762a41.818 41.818 0 01-2.155-1.196c-.548-.332-.868-.565-1.008-.705l-.707.708c.235.234.65.52 1.197.852.559.339 1.297.748 2.208 1.227l.465-.886zm-3.159-1.897c-.25-.256-.419-.678-.419-1.359h-1c0 .833.207 1.55.705 2.059l.714-.7zm-.419-1.359v-1.904h-1v1.904h1zm0-1.904c0-.872.288-1.455.81-1.841.552-.407 1.439-.65 2.743-.65v-1c-1.398 0-2.537.255-3.336.845-.828.611-1.217 1.524-1.217 2.646h1zm3.553-2.491c1.269 0 2.13.233 2.663.622.504.366.78.918.78 1.747h1c0-1.084-.381-1.966-1.192-2.556-.78-.568-1.891-.813-3.251-.813v1zm3.443 2.369v2.795h1v-2.795h-1zm.5 2.295h-3.394v1h3.394v-1zm-2.894.522l.073-1.697-.999-.043-.073 1.697.999.043zm.074-1.719c0-.606-.054-1.12-.192-1.499a1.331 1.331 0 00-.335-.53.909.909 0 00-.62-.24v1a.098.098 0 01-.054-.02c0-.001.008.006.021.028.013.022.03.056.048.105.077.211.132.583.132 1.156h1zm-1.147-2.27c-.392 0-.719.186-.918.526-.174.299-.229.683-.229 1.085h1c0-.338.052-.51.094-.581.016-.029.024-.03.018-.026-.006.003 0-.004.035-.004v-1zm-1.147 1.611c0 .791.094 1.458.33 1.95l.901-.433c-.138-.29-.231-.778-.231-1.517h-1zm.333 1.957c.096.191.264.36.435.505.182.153.415.317.692.491.555.35 1.323.764 2.298 1.243l.441-.897c-.962-.473-1.695-.87-2.206-1.192a5.447 5.447 0 01-.581-.41 1.51 1.51 0 01-.145-.138c-.033-.037-.041-.053-.039-.05l-.895.448zm3.354 2.197c.681.488 1 1.105 1 1.889h1c0-1.121-.487-2.035-1.417-2.702l-.583.813zm1 1.889v2.124h1V40.08h-1zm0 2.124c0 .869-.29 1.451-.822 1.838-.562.409-1.466.652-2.792.652v1c1.417 0 2.57-.255 3.38-.843.839-.61 1.234-1.523 1.234-2.647h-1zm-3.614 2.49c-1.298 0-2.182-.234-2.731-.624-.517-.368-.797-.92-.797-1.744h-1c0 1.088.392 1.97 1.217 2.558.795.566 1.925.81 3.311.81v-1zm-3.528-2.368v-3.028h-1v3.028h1zm8.985 5.676h-.5v.5h.5v-.5zm0-2.05v-.5h-.5v.5h.5zm4.053-1.283h.5v-1.014l-.805.618.305.396zm-3.931-.012l-.297.403.008.005.289-.408zm3.955-13.306l-.231.444.352.183.258-.3-.379-.326zm.452-.524v-.5h-.23l-.149.174.379.326zm2.991 0h.5v-.5h-.5v.5zm-.55 16.26l-.427-.26-.004.006.431.253zm-6.47.915v-2.05h-1v2.05h1zm-.5-1.55h2.82v-1h-2.82v1zm2.82 0c.493 0 .953-.13 1.285-.475.328-.34.448-.808.448-1.308h-1c0 .355-.086.529-.169.615-.079.083-.235.167-.564.167v1zm.928-2.18c-.325.251-.908.422-1.844.422v1c1.017 0 1.868-.178 2.453-.628l-.609-.793zm-1.844.422c-.591 0-1.081-.153-1.493-.444l-.578.815c.598.424 1.295.63 2.071.63v-1zm-1.485-.44c-.377-.277-.542-.607-.542-1.025h-1c0 .754.332 1.376.948 1.83l.594-.804zm-.542-1.025V33.05h-1v10.18h1zm0-10.18c0-.671.196-1.09.514-1.357.335-.28.891-.463 1.757-.463v-1c-.981 0-1.81.203-2.399.696-.606.508-.872 1.247-.872 2.123h1zm2.271-1.82c.366 0 .922.162 1.698.566l.462-.887c-.818-.426-1.549-.679-2.16-.679v1zm2.308.449l.452-.525-.758-.652-.452.524.758.653zm.073-.351h2.991v-1h-2.991v1zm2.491-.5v13.977h1V30.828h-1zm0 13.977c0 .855-.171 1.52-.477 2.023l.854.52c.427-.702.623-1.56.623-2.543h-1zm-.481 2.03c-.081.138-.298.317-.811.456-.5.137-1.203.212-2.127.212v1c.965 0 1.767-.077 2.39-.246.61-.166 1.134-.445 1.411-.917l-.863-.506zm-2.938.668h-3.601v1h3.601v-1zm.952-5.03v-8.899h-1v8.9h1zm0-8.899c0-.283-.065-.589-.283-.824-.224-.243-.528-.323-.815-.323v1c.056 0 .083.008.092.011.005.002-.002 0-.011-.01-.018-.02.017-.002.017.146h1zm-1.098-1.147c-.289 0-.595.078-.822.319-.222.235-.289.542-.289.828h1c0-.145.035-.162.017-.142-.009.01-.015.01-.007.007a.322.322 0 01.101-.012v-1zm-1.111 1.147v8.875h1v-8.875h-1zm0 8.875c0 .285.067.593.289.828.227.24.533.319.822.319v-1a.322.322 0 01-.101-.012c-.008-.003-.002-.002.007.007.018.02-.017.003-.017-.142h-1zm1.111 1.147c.281 0 .583-.075.809-.31.222-.23.289-.533.289-.813h-1c0 .136-.033.144-.01.12.01-.01.017-.011.009-.009a.31.31 0 01-.097.012v1zM620.836 45v.5h.5V45h-.5zm-3.076 0h-.5v.5h.5V45zm0-.55h.5l-.943-.232.443.233zm-4.395-5.98l-.356-.351-.003.003.359.347zm2.783-1.77l-.225-.447h-.001l.226.446zm-.036-1.173l-.499.03v.011l.499-.04zm.049.904v.5h.5v-.5h-.5zm-3.357 0h-.5v.5h.5v-.5zm4.553 2.27h.5v-.637l-.619.151.119.486zm3.479 5.799h-3.076v1h3.076v-1zm-2.576.5v-.55h-1V45h1zm-.943-.782c-.05.095-.17.217-.469.317-.301.1-.735.16-1.322.16v1c.641 0 1.194-.064 1.638-.212.446-.148.828-.398 1.039-.8l-.886-.465zm-1.791.477c-.897 0-1.477-.177-1.826-.45-.324-.253-.518-.645-.518-1.271h-1c0 .855.28 1.573.903 2.06.6.468 1.441.661 2.441.661v-1zm-2.344-1.721v-2.845h-1v2.845h1zm0-2.845c0-.5.174-.93.543-1.313l-.719-.694c-.543.562-.824 1.238-.824 2.007h1zm.54-1.31c.401-.407 1.262-.966 2.653-1.674l-.453-.891c-1.392.708-2.387 1.329-2.913 1.865l.713.7zm2.652-1.674c.415-.209.753-.41.995-.606.121-.098.234-.207.321-.33a.849.849 0 00.167-.486h-1c0-.078.031-.112.016-.09a.726.726 0 01-.132.128c-.161.13-.427.294-.818.492l.451.892zm1.483-1.422v-2.1h-1v2.1h1zm0-2.1c0-.292-.061-.604-.27-.848-.222-.258-.53-.348-.828-.348v1c.052 0 .076.008.081.01.002 0-.005-.002-.012-.01-.01-.011.029.024.029.196h1zm-1.098-1.196a.955.955 0 00-.618.221c-.169.14-.282.325-.359.517-.15.373-.207.875-.207 1.459h1c0-.547.057-.893.135-1.086.037-.091.067-.118.068-.12l-.003.003a.121.121 0 01-.009.004c-.008.003-.012.002-.007.002v-1zm-1.184 2.197c0 .22.013.533.038.934l.998-.061a16.004 16.004 0 01-.036-.873h-1zm.038.944c.033.396.048.68.048.863h1c0-.225-.018-.542-.051-.944l-.997.081zm.548.363h-3.357v1h3.357v-1zm-2.857.5v-2.832h-1v2.832h1zm0-2.832c0-.818.285-1.37.822-1.74.569-.394 1.487-.629 2.828-.629v-1c-1.425 0-2.583.244-3.397.806-.847.585-1.253 1.468-1.253 2.563h1zm3.65-2.369c1.244 0 2.085.242 2.606.644.497.383.776.967.776 1.847h1c0-1.114-.368-2.025-1.165-2.64-.773-.595-1.873-.851-3.217-.851v1zm3.382 2.49V45h1V33.72h-1zm-2.479 8.631v-3.65h-1v3.65h1zm-.619-4.136c-.44.108-.828.273-1.112.53a1.35 1.35 0 00-.465 1.03h1c0-.114.036-.2.133-.287.114-.102.324-.214.682-.301l-.238-.971zm-1.577 1.56v2.576h1v-2.576h-1zm0 2.576c0 .288.069.597.295.832.23.239.538.315.827.315v-1c-.125 0-.129-.031-.106-.008.018.02-.016.004-.016-.139h-1zm1.122 1.147c.285 0 .586-.083.805-.33.208-.235.269-.538.269-.817h-1c0 .153-.035.173-.018.154.01-.011.02-.016.019-.015a.23.23 0 01-.075.008v1z"/>
  </g>
  <g filter="url(#filter6_d_510_254)">
    <path fill="#FFFF38" d="M829.017 27.879h3.503v4.016c0 .399.241.598.721.598.464 0 .695-.2.695-.598V29.82c0-.635-.423-1.38-1.269-2.234-1.636-1.587-2.653-2.653-3.052-3.198a2.972 2.972 0 01-.598-1.795v-1.965c0-2.27 1.481-3.406 4.443-3.406 2.653 0 3.98 1.034 3.98 3.1v3.028h-3.504v-3.223c0-.35-.191-.524-.573-.524-.448 0-.672.337-.672 1.013l.074 1.135c0 .651.431 1.408 1.294 2.27 1.603 1.539 2.62 2.613 3.051 3.223.44.61.659 1.302.659 2.075v2.234c0 2.328-1.485 3.491-4.455 3.491-2.865 0-4.297-1.057-4.297-3.173v-3.992zm12.964-7.947h-3.479v-2.551h3.479v2.551zm0 14.954h-3.479V20.713h3.479v14.173zm10.449 0h-4.089l-2.136-5.127v5.127h-3.467V17.38h3.467v7.849l1.782-4.517h3.601l-2.527 6.202 3.369 7.97zm8.679-6.006h-4.675v3.308c0 .48.203.72.61.72.399 0 .599-.24.599-.72v-2.857h3.466v2.881c0 1.913-1.363 2.87-4.089 2.87-2.702 0-4.053-.998-4.053-2.992v-8.484c0-1.993 1.351-2.99 4.053-2.99 2.726 0 4.089.956 4.089 2.868v5.396zm-3.466-2.124v-3.247c0-.464-.2-.696-.599-.696-.407 0-.61.232-.61.696v3.247h1.209zm12.5-.171h-3.479v-3.076c0-.431-.2-.647-.599-.647-.398 0-.598.207-.598.622v11.402h-3.479V20.713h3.479v.476c.464-.382 1.18-.573 2.149-.573.691 0 1.285.187 1.782.561.496.367.745.85.745 1.453v3.955zm8.813 2.295h-4.675v3.308c0 .48.203.72.61.72.399 0 .598-.24.598-.72v-2.857h3.467v2.881c0 1.913-1.363 2.87-4.089 2.87-2.702 0-4.053-.998-4.053-2.992v-8.484c0-1.993 1.351-2.99 4.053-2.99 2.726 0 4.089.956 4.089 2.868v5.396zm-3.467-2.124v-3.247c0-.464-.199-.696-.598-.696-.407 0-.61.232-.61.696v3.247h1.208zm4.248 2.43h3.467v3.002c0 .48.195.72.586.72.391 0 .586-.46.586-1.38 0-1.195-.24-1.969-.72-2.319-1.815-.952-2.91-1.615-3.284-1.99-.374-.382-.561-.951-.561-1.708v-1.905c0-1.993 1.35-2.99 4.052-2.99 2.629 0 3.943.956 3.943 2.868v2.796h-3.393l.073-1.697c0-1.18-.216-1.77-.647-1.77-.431 0-.647.37-.647 1.11 0 .766.093 1.344.281 1.734.195.39 1.261 1.062 3.198 2.014.806.578 1.208 1.343 1.208 2.295v2.124c0 1.994-1.371 2.991-4.113 2.991-2.686 0-4.029-.956-4.029-2.869v-3.027zm-87.536 35.703v-2.051h2.819c.822 0 1.233-.427 1.233-1.282-.455.35-1.172.525-2.148.525-.684 0-1.278-.179-1.782-.537-.497-.366-.745-.842-.745-1.428v-10.18c0-1.547.924-2.32 2.771-2.32.488 0 1.131.207 1.929.622l.451-.525h2.991V61.69c0 .92-.183 1.68-.549 2.283-.358.61-1.481.916-3.369.916h-3.601zm4.052-5.53V50.46c0-.431-.199-.647-.598-.647-.407 0-.61.216-.61.647v8.874c0 .432.203.647.61.647.399 0 .598-.207.598-.622zm13.416-11.646l-2.698 14.1c-.277 1.44-.651 2.31-1.123 2.612-.464.309-1.111.464-1.941.464h-2.429v-1.905c.911 0 1.477-.044 1.697-.134.219-.09.329-.354.329-.793 0-.44-.5-2.73-1.501-6.873l-1.807-7.47h3.479l1.453 7.495 1.147-7.496h3.394zm8.704 14.173h-3.077v-.55c-.26.497-1.005.745-2.234.745-1.896 0-2.844-.74-2.844-2.222v-2.844c0-.635.228-1.188.684-1.66.464-.472 1.391-1.062 2.783-1.77.806-.407 1.209-.733 1.209-.977v-2.1c0-.463-.2-.695-.599-.695-.455 0-.683.566-.683 1.697 0 .203.012.504.036.903.033.399.049.7.049.903h-3.357v-2.832c0-1.912 1.384-2.868 4.151-2.868 2.588 0 3.882.997 3.882 2.99v11.28zm-3.479-2.65v-3.65c-.798.196-1.197.554-1.197 1.075v2.576c0 .431.208.647.623.647.382 0 .574-.216.574-.647zm14.025 2.65h-4.089l-2.136-5.127v5.127h-3.467V44.38h3.467v7.849l1.782-4.517h3.601l-2.527 6.202 3.369 7.97zm.464-2.796v-8.484c0-1.993 1.38-2.99 4.138-2.99 1.067 0 2.002.232 2.808.696.814.463 1.221 1.188 1.221 2.172v8.728c0 1.913-1.343 2.87-4.029 2.87-2.758 0-4.138-.998-4.138-2.992zm4.688.098v-8.68c0-.463-.2-.695-.598-.695-.407 0-.611.232-.611.696v8.679c0 .48.204.72.611.72.398 0 .598-.24.598-.72zm12.439-5.603h-3.479v-3.076c0-.431-.2-.647-.598-.647-.399 0-.599.207-.599.622v11.402h-3.479V47.713h3.479v.477c.464-.383 1.18-.574 2.149-.574.692 0 1.286.187 1.782.561.497.367.745.85.745 1.453v3.955zm4.175 8.3h-3.479V44.382h3.479v17.505zm8.996 0h-3.076v-.549c-.26.497-1.005.745-2.234.745-1.896 0-2.844-.74-2.844-2.222v-2.844c0-.635.228-1.188.683-1.66.464-.472 1.392-1.062 2.784-1.77.805-.407 1.208-.733 1.208-.977v-2.1c0-.463-.199-.695-.598-.695-.456 0-.684.566-.684 1.697 0 .203.013.504.037.903.033.399.049.7.049.903h-3.357v-2.832c0-1.912 1.383-2.868 4.15-2.868 2.588 0 3.882.997 3.882 2.99v11.28zm-3.479-2.648v-3.65c-.797.195-1.196.553-1.196 1.074v2.576c0 .431.207.647.622.647.383 0 .574-.216.574-.647zm11.194 2.649h-2.197c-1.571 0-2.511-.236-2.82-.708-.309-.472-.464-1.38-.464-2.722v-8.643h-1.55v-2.1h1.55v-2.856h3.479v2.856h1.88v2.1h-1.88v8.618c0 .415.122.696.366.842.252.139.798.208 1.636.208v2.405zm4.077-14.954h-3.479v-2.551h3.479v2.551zm0 14.954h-3.479V47.713h3.479v14.173zm14.197-14.173l-2.551 14.173h-4.2l-2.551-14.173h3.504l1.196 8.374 1.172-8.374h3.43zm3.894-.78h-3.479V44.38h3.479v2.551zm0 14.953h-3.479V47.713h3.479v14.173zm9.021 0h-8.35v-1.953l3.943-9.95h-3.723v-2.27h7.751v1.917l-4.003 10.01h4.382v2.246zm.61-5.7h3.467v3.002c0 .48.195.72.586.72.391 0 .586-.46.586-1.38 0-1.195-.24-1.969-.72-2.319-1.815-.952-2.91-1.615-3.284-1.99-.374-.382-.561-.951-.561-1.708v-1.905c0-1.993 1.35-2.99 4.052-2.99 2.629 0 3.943.956 3.943 2.868v2.796h-3.393l.073-1.697c0-1.18-.216-1.77-.647-1.77-.431 0-.647.37-.647 1.11 0 .766.093 1.344.281 1.734.195.39 1.261 1.062 3.198 2.014.806.578 1.208 1.343 1.208 2.295v2.124c0 1.994-1.371 2.991-4.113 2.991-2.686 0-4.029-.956-4.029-2.869v-3.027zm9.485 8.703v-2.051h2.82c.822 0 1.233-.427 1.233-1.282-.456.35-1.172.525-2.149.525-.683 0-1.277-.179-1.782-.537-.496-.366-.744-.842-.744-1.428v-10.18c0-1.547.923-2.32 2.771-2.32.488 0 1.131.207 1.928.622l.452-.525h2.991V61.69c0 .92-.183 1.68-.55 2.283-.358.61-1.481.916-3.369.916h-3.601zm4.053-5.53V50.46c0-.431-.2-.647-.598-.647-.407 0-.611.216-.611.647v8.874c0 .432.204.647.611.647.398 0 .598-.207.598-.622zm12.451 2.527h-3.076v-.55c-.261.497-1.005.745-2.234.745-1.896 0-2.844-.74-2.844-2.222v-2.844c0-.635.228-1.188.683-1.66.464-.472 1.392-1.062 2.784-1.77.805-.407 1.208-.733 1.208-.977v-2.1c0-.463-.199-.695-.598-.695-.456 0-.684.566-.684 1.697 0 .203.013.504.037.903.032.399.049.7.049.903h-3.357v-2.832c0-1.912 1.383-2.868 4.15-2.868 2.588 0 3.882.997 3.882 2.99v11.28zm-3.479-2.65v-3.65c-.797.196-1.196.554-1.196 1.075v2.576c0 .431.207.647.622.647.383 0 .574-.216.574-.647z"/>
    <path fill="#000" d="M829.017 27.879v-.5h-.5v.5h.5zm3.503 0h.5v-.5h-.5v.5zm.147-.293l.355-.352-.007-.007-.348.359zm-3.052-3.198l-.403.295.403-.295zm7.825-1.038v.5h.5v-.5h-.5zm-3.504 0h-.5v.5h.5v-.5zm-1.245-2.734h-.5v.016l.001.016.499-.032zm.074 1.135h.5v-.016l-.001-.016-.499.032zm1.294 2.27l-.354.354.007.007.347-.36zm3.051 3.223l-.408.289.003.003.405-.292zm-8.093 1.135h3.503v-1h-3.503v1zm3.003-.5v4.016h1v-4.016h-1zm0 4.016c0 .303.096.613.361.833.247.205.563.265.86.265v-1c-.184 0-.228-.04-.221-.034.006.005.01.012.009.012-.001-.004-.009-.025-.009-.076h-1zm1.221 1.098c.292 0 .604-.061.847-.27.258-.222.348-.53.348-.828h-1a.25.25 0 01-.009.08c-.001.003.002-.004.01-.01.011-.01-.025.028-.196.028v1zm1.195-1.098V29.82h-1v2.075h1zm0-2.075c0-.844-.549-1.712-1.414-2.586l-.71.704c.827.835 1.124 1.456 1.124 1.882h1zm-1.421-2.593c-1.643-1.594-2.627-2.63-2.996-3.134l-.807.59c.428.586 1.479 1.683 3.107 3.262l.696-.718zm-2.996-3.134a2.472 2.472 0 01-.502-1.5h-1c0 .762.236 1.462.695 2.09l.807-.59zm-.502-1.5v-1.965h-1v1.965h1zm0-1.965c0-1.017.325-1.705.915-2.158.615-.471 1.597-.748 3.028-.748v-1c-1.531 0-2.77.291-3.636.955-.891.683-1.307 1.698-1.307 2.95h1zm3.943-2.906c1.276 0 2.14.25 2.678.67.514.4.802 1.012.802 1.93h1c0-1.148-.375-2.086-1.188-2.72-.789-.614-1.914-.88-3.292-.88v1zm3.48 2.6v3.028h1v-3.027h-1zm.5 2.528h-3.504v1h3.504v-1zm-3.004.5v-3.223h-1v3.223h1zm0-3.223c0-.264-.074-.55-.305-.762-.224-.204-.51-.262-.768-.262v1c.059 0 .091.006.105.01.012.004.003.003-.012-.01a.074.074 0 01-.018-.021.041.041 0 01-.007-.013c-.001-.001.005.015.005.058h1zm-1.073-1.024c-.371 0-.705.152-.921.477-.191.289-.251.659-.251 1.036h1c0-.299.053-.435.085-.484.012-.018.018-.02.018-.02.002 0 .02-.01.069-.01v-1zm-1.171 1.545l.074 1.135.998-.064-.074-1.136-.998.065zm.073 1.103c0 .86.557 1.741 1.44 2.624l.707-.707c-.842-.842-1.147-1.475-1.147-1.917h-1zm1.447 2.631c1.609 1.544 2.591 2.586 2.99 3.15l.817-.576c-.464-.656-1.517-1.763-3.114-3.295l-.693.721zm2.993 3.154c.376.523.564 1.112.564 1.783h1c0-.874-.25-1.67-.753-2.367l-.811.584zm.564 1.783v2.234h1V29.32h-1zm0 2.234c0 1.05-.328 1.76-.922 2.225-.617.483-1.6.766-3.033.766v1c1.537 0 2.782-.298 3.65-.979.892-.698 1.305-1.734 1.305-3.012h-1zm-3.955 2.991c-1.385 0-2.334-.258-2.926-.695-.563-.416-.871-1.045-.871-1.978h-1c0 1.182.408 2.14 1.277 2.782.841.62 2.041.891 3.52.891v-1zm-3.797-2.673v-3.992h-1v3.992h1zm12.464-11.939v.5h.5v-.5h-.5zm-3.479 0h-.5v.5h.5v-.5zm0-2.551v-.5h-.5v.5h.5zm3.479 0h.5v-.5h-.5v.5zm0 17.505v.5h.5v-.5h-.5zm-3.479 0h-.5v.5h.5v-.5zm0-14.173v-.5h-.5v.5h.5zm3.479 0h.5v-.5h-.5v.5zm0-1.28h-3.479v1h3.479v-1zm-2.979.5V17.38h-1v2.551h1zm-.5-2.052h3.479v-1h-3.479v1zm2.979-.5v2.551h1v-2.551h-1zm.5 17.005h-3.479v1h3.479v-1zm-2.979.5V20.713h-1v14.173h1zm-.5-13.673h3.479v-1h-3.479v1zm2.979-.5v14.173h1V20.713h-1zm10.949 14.173v.5h.754l-.293-.695-.461.195zm-4.089 0l-.462.192.128.308h.334v-.5zm-2.136-5.127l.461-.192-.961.192h.5zm0 5.127v.5h.5v-.5h-.5zm-3.467 0h-.5v.5h.5v-.5zm0-17.505v-.5h-.5v.5h.5zm3.467 0h.5v-.5h-.5v.5zm0 7.849h-.5l.965.183-.465-.183zm1.782-4.517v-.5h-.34l-.125.317.465.183zm3.601 0l.463.19.281-.69h-.744v.5zm-2.527 6.202l-.463-.19-.078.193.08.191.461-.194zm3.369 7.47h-4.089v1h4.089v-1zm-3.628.308l-2.136-5.126-.923.384 2.136 5.127.923-.385zm-3.097-4.934v5.127h1v-5.127h-1zm.5 4.627h-3.467v1h3.467v-1zm-2.967.5V17.38h-1v17.505h1zm-.5-17.005h3.467v-1h-3.467v1zm2.967-.5v7.849h1v-7.85h-1zm.965 8.032l1.782-4.516-.93-.367-1.783 4.517.931.366zm1.317-4.2h3.601v-1h-3.601v1zm3.138-.688l-2.527 6.2.926.378 2.527-6.2-.926-.378zm-2.525 6.584l3.37 7.971.921-.389-3.369-7.971-.922.39zm12.509 1.77v.5h.5v-.5h-.5zm-4.675 0v-.5h-.5v.5h.5zm1.209.452v-.5h-.5v.5h.5zm3.466 0h.5v-.5h-.5v.5zm-3.466-2.575v.5h.5v-.5h-.5zm-1.209 0h-.5v.5h.5v-.5zm4.675 1.624h-4.675v1h4.675v-1zm-5.175.5v3.308h1V28.88h-1zm0 3.308c0 .299.062.616.271.863.223.264.535.357.839.357v-1a.25.25 0 01-.084-.01c-.002-.001.003.001.008.007.006.007-.034-.036-.034-.217h-1zm1.11 1.22c.304 0 .614-.096.834-.36.205-.247.265-.563.265-.86h-1c0 .183-.04.228-.035.22a.04.04 0 01.012-.009.222.222 0 01-.076.01v1zm1.099-1.22v-2.857h-1v2.857h1zm-.5-2.357h3.466v-1h-3.466v1zm2.966-.5v2.881h1v-2.88h-1zm0 2.881c0 .822-.282 1.373-.809 1.743-.559.392-1.46.626-2.78.626v1c1.406 0 2.55-.244 3.354-.808.836-.587 1.235-1.47 1.235-2.56h-1zm-3.589 2.37c-1.304 0-2.191-.244-2.743-.65-.523-.387-.81-.97-.81-1.842h-1c0 1.122.388 2.035 1.217 2.646.799.59 1.938.845 3.336.845v-1zm-3.553-2.492v-8.484h-1v8.484h1zm0-8.484c0-.871.287-1.454.81-1.84.552-.407 1.439-.65 2.743-.65v-1c-1.398 0-2.537.255-3.336.845-.829.611-1.217 1.524-1.217 2.645h1zm3.553-2.49c1.32 0 2.221.234 2.78.626.527.37.809.921.809 1.742h1c0-1.09-.399-1.974-1.235-2.56-.804-.564-1.948-.808-3.354-.808v1zm3.589 2.368v5.396h1v-5.396h-1zm-2.466 3.272v-3.247h-1v3.247h1zm0-3.247c0-.292-.062-.605-.271-.848-.222-.258-.53-.348-.828-.348v1c.053 0 .076.008.081.01.002 0-.005-.003-.011-.01-.01-.012.029.024.029.196h1zm-1.099-1.196c-.298 0-.609.088-.833.344-.214.244-.277.558-.277.852h1c0-.17.039-.204.029-.192-.007.007-.013.009-.008.007a.262.262 0 01.089-.011v-1zm-1.11 1.196v3.247h1v-3.247h-1zm.5 3.747h1.209v-1h-1.209v1zm13.709-.671v.5h.5v-.5h-.5zm-3.479 0h-.5v.5h.5v-.5zm-1.197 8.3v.5h.5v-.5h-.5zm-3.479 0h-.5v.5h.5v-.5zm0-14.172v-.5h-.5v.5h.5zm3.479 0h.5v-.5h-.5v.5zm0 .476h-.5v1.06l.818-.674-.318-.386zm3.931-.012l-.301.4.004.003.297-.403zm.745 4.908h-3.479v1h3.479v-1zm-2.979.5v-3.076h-1v3.076h1zm0-3.076c0-.284-.065-.59-.283-.825-.224-.243-.529-.322-.816-.322v1c.056 0 .084.008.092.01.006.003-.001 0-.01-.009-.018-.02.017-.002.017.146h1zm-1.099-1.147c-.281 0-.583.074-.809.309-.222.231-.289.534-.289.813h1c0-.135.033-.144.01-.12-.01.01-.017.012-.009.01a.31.31 0 01.097-.012v-1zm-1.098 1.122v11.402h1V23.484h-1zm.5 10.902h-3.479v1h3.479v-1zm-2.979.5V20.713h-1v14.173h1zm-.5-13.673h3.479v-1h-3.479v1zm2.979-.5v.476h1v-.476h-1zm.818.862c.334-.275.912-.46 1.831-.46v-1c-1.019 0-1.873.199-2.467.689l.636.771zm1.831-.46c.596 0 1.081.16 1.481.462l.602-.799c-.593-.447-1.296-.662-2.083-.662v1zm1.485.465c.372.274.542.611.542 1.05h1c0-.766-.328-1.397-.948-1.855l-.594.805zm.542 1.05v3.955h1V22.63h-1zm9.313 6.25v.5h.5v-.5h-.5zm-4.675 0v-.5h-.5v.5h.5zm1.208.451v-.5h-.5v.5h.5zm3.467 0h.5v-.5h-.5v.5zm-3.467-2.575v.5h.5v-.5h-.5zm-1.208 0h-.5v.5h.5v-.5zm4.675 1.624h-4.675v1h4.675v-1zm-5.175.5v3.308h1V28.88h-1zm0 3.308c0 .299.061.616.271.863.223.264.535.357.839.357v-1a.244.244 0 01-.084-.01c-.003-.001.003.001.008.007.006.007-.034-.036-.034-.217h-1zm1.11 1.22c.303 0 .613-.096.833-.36.205-.247.265-.563.265-.86h-1c0 .183-.04.228-.034.22a.04.04 0 01.012-.009c-.004.002-.025.01-.076.01v1zm1.098-1.22v-2.857h-1v2.857h1zm-.5-2.357h3.467v-1h-3.467v1zm2.967-.5v2.881h1v-2.88h-1zm0 2.881c0 .822-.283 1.373-.809 1.743-.56.392-1.46.626-2.78.626v1c1.406 0 2.55-.244 3.354-.808.836-.587 1.235-1.47 1.235-2.56h-1zm-3.589 2.37c-1.304 0-2.192-.244-2.743-.65-.523-.387-.81-.97-.81-1.842h-1c0 1.122.388 2.035 1.216 2.646.8.59 1.939.845 3.337.845v-1zm-3.553-2.492v-8.484h-1v8.484h1zm0-8.484c0-.871.287-1.454.81-1.84.551-.407 1.439-.65 2.743-.65v-1c-1.398 0-2.537.255-3.337.845-.828.611-1.216 1.524-1.216 2.645h1zm3.553-2.49c1.32 0 2.22.234 2.78.626.526.37.809.921.809 1.742h1c0-1.09-.399-1.974-1.235-2.56-.804-.564-1.948-.808-3.354-.808v1zm3.589 2.368v5.396h1v-5.396h-1zm-2.467 3.272v-3.247h-1v3.247h1zm0-3.247c0-.292-.061-.605-.27-.848-.222-.258-.53-.348-.828-.348v1c.052 0 .076.008.081.01.002 0-.005-.003-.011-.01-.01-.012.028.024.028.196h1zm-1.098-1.196c-.299 0-.609.088-.834.344-.213.244-.276.558-.276.852h1c0-.17.038-.204.028-.192-.006.007-.012.009-.007.007a.262.262 0 01.089-.011v-1zm-1.11 1.196v3.247h1v-3.247h-1zm.5 3.747h1.208v-1h-1.208v1zm5.456 1.93v-.5h-.5v.5h.5zm3.467 0h.5v-.5h-.5v.5zm.452.023l.294-.404-.029-.021-.033-.017-.232.442zm-3.284-1.99l-.357.35.003.004.354-.353zm7.434-.94v.5h.5v-.5h-.5zm-3.393 0l-.5-.02-.022.52h.522v-.5zm.073-1.696l.499.022.001-.011v-.011h-.5zm-1.013 1.074l-.451.216.003.008.448-.224zm3.198 2.014l.291-.406-.033-.024-.038-.018-.22.448zm-6.934 2.014h3.467v-1h-3.467v1zm2.967-.5v3.003h1v-3.003h-1zm0 3.003c0 .295.058.609.259.856.216.266.524.364.827.364v-1c-.047 0-.066-.007-.067-.008l.007.005a.03.03 0 01.008.008c.006.006-.034-.04-.034-.225h-1zm1.086 1.22a.902.902 0 00.565-.193c.158-.124.264-.289.335-.456.137-.324.186-.75.186-1.23h-1c0 .44-.049.703-.107.839-.026.063-.043.07-.031.06a.101.101 0 01.052-.02v1zm1.086-1.88c0-.626-.062-1.173-.203-1.624-.14-.453-.369-.84-.723-1.099l-.589.808c.127.093.258.267.357.587.1.322.158.76.158 1.329h1zm-.988-2.761a41.818 41.818 0 01-2.155-1.197c-.548-.332-.867-.564-1.007-.704l-.708.707c.235.235.65.521 1.197.852.559.34 1.297.749 2.208 1.227l.465-.885zm-3.159-1.897c-.25-.256-.418-.679-.418-1.36h-1c0 .834.206 1.55.704 2.06l.714-.7zm-.418-1.36v-1.904h-1v1.905h1zm0-1.904c0-.871.287-1.454.81-1.84.551-.407 1.438-.65 2.742-.65v-1c-1.398 0-2.537.255-3.336.845-.828.611-1.216 1.524-1.216 2.645h1zm3.552-2.49c1.269 0 2.13.233 2.663.621.504.367.78.919.78 1.747h1c0-1.084-.381-1.966-1.191-2.555-.781-.569-1.892-.813-3.252-.813v1zm3.443 2.368v2.796h1v-2.796h-1zm.5 2.296h-3.393v1h3.393v-1zm-2.894.521l.073-1.696-.999-.044-.073 1.697.999.043zm.074-1.718c0-.606-.054-1.12-.192-1.5a1.33 1.33 0 00-.335-.529.908.908 0 00-.62-.241v1a.099.099 0 01-.054-.02s.008.007.021.029c.014.022.03.056.048.105.078.211.132.582.132 1.156h1zm-1.147-2.27c-.392 0-.719.186-.917.526-.174.299-.23.682-.23 1.085h1c0-.338.052-.51.094-.582.016-.028.024-.03.018-.026-.006.004 0-.003.035-.003v-1zm-1.147 1.61c0 .792.094 1.459.33 1.95l.902-.432c-.139-.29-.232-.778-.232-1.517h-1zm.333 1.958c.096.191.264.36.435.504.182.153.415.317.692.492.555.35 1.323.764 2.298 1.243l.441-.897c-.962-.473-1.694-.87-2.206-1.192a5.434 5.434 0 01-.581-.41 1.535 1.535 0 01-.145-.138c-.033-.037-.041-.053-.039-.05l-.895.448zm3.354 2.197c.682.488 1 1.105 1 1.888h1c0-1.12-.487-2.034-1.417-2.7l-.583.812zm1 1.888v2.124h1v-2.124h-1zm0 2.124c0 .87-.29 1.452-.822 1.839-.562.408-1.466.652-2.791.652v1c1.417 0 2.57-.255 3.379-.843.839-.61 1.234-1.523 1.234-2.648h-1zm-3.613 2.491c-1.299 0-2.183-.234-2.732-.624-.517-.369-.797-.92-.797-1.745h-1c0 1.089.392 1.971 1.217 2.56.795.565 1.925.81 3.312.81v-1zm-3.529-2.369v-3.027h-1v3.027h1zM792.201 64.89h-.5v.5h.5v-.5zm0-2.051v-.5h-.5v.5h.5zm4.052-1.282h.5v-1.014l-.804.618.304.396zm-3.93-.012l-.297.402.007.006.29-.408zm3.955-13.306l-.231.444.351.183.259-.3-.379-.327zm.451-.525v-.5h-.229l-.15.174.379.326zm2.991 0h.5v-.5h-.5v.5zm-.549 16.26l-.427-.26-.004.007.431.253zm-6.47.916v-2.051h-1v2.05h1zm-.5-1.551h2.819v-1h-2.819v1zm2.819 0c.494 0 .954-.13 1.285-.474.329-.34.448-.808.448-1.308h-1c0 .355-.085.529-.168.615-.08.083-.236.167-.565.167v1zm.929-2.178c-.326.25-.908.421-1.844.421v1c1.017 0 1.867-.178 2.453-.628l-.609-.793zm-1.844.421c-.591 0-1.082-.153-1.493-.445l-.579.816c.598.424 1.296.63 2.072.63v-1zm-1.485-.44c-.377-.277-.542-.608-.542-1.025h-1c0 .754.332 1.376.948 1.83l.594-.804zm-.542-1.025v-10.18h-1v10.18h1zm0-10.18c0-.671.196-1.091.514-1.357.334-.28.891-.463 1.757-.463v-1c-.981 0-1.81.203-2.399.696-.606.507-.872 1.247-.872 2.123h1zm2.271-1.82c.366 0 .921.162 1.698.566l.462-.887c-.819-.426-1.549-.68-2.16-.68v1zm2.308.448l.451-.525-.758-.652-.451.525.758.652zm.072-.35h2.991v-1h-2.991v1zm2.491-.5V61.69h1V47.713h-1zm0 13.976c0 .856-.17 1.52-.476 2.023l.854.52c.426-.701.622-1.559.622-2.543h-1zm-.48 2.03c-.082.139-.299.318-.811.457-.501.136-1.204.212-2.127.212v1c.964 0 1.767-.078 2.389-.247.611-.166 1.134-.444 1.411-.916l-.862-.506zm-2.938.669h-3.601v1h3.601v-1zm.951-5.03V50.46h-1v8.899h1zm0-8.899c0-.284-.064-.59-.282-.825-.225-.243-.529-.322-.816-.322v1c.056 0 .084.008.092.01.006.003-.001 0-.01-.009-.019-.02.016-.002.016.146h1zm-1.098-1.147c-.288 0-.594.078-.821.319-.222.235-.289.542-.289.828h1c0-.146.035-.162.016-.142-.008.009-.015.01-.006.007a.313.313 0 01.1-.012v-1zm-1.11 1.147v8.874h1V50.46h-1zm0 8.874c0 .286.067.593.289.829.227.24.533.318.821.318v-1a.314.314 0 01-.1-.011c-.009-.003-.002-.002.006.007.019.02-.016.003-.016-.142h-1zm1.11 1.147c.282 0 .584-.074.809-.309.222-.23.289-.533.289-.813h-1c0 .135-.032.144-.01.12.01-.01.018-.011.01-.009a.315.315 0 01-.098.011v1zm14.014-12.768l.491.094.114-.594h-.605v.5zm-2.698 14.1l.491.094-.491-.094zm-1.123 2.612l-.269-.422-.008.006.277.416zm-4.37.464h-.5v.5h.5v-.5zm0-1.905v-.5h-.5v.5h.5zm.525-7.8l.486-.117-.486.117zm-1.807-7.47v-.5h-.635l.149.617.486-.118zm3.479 0l.491-.096-.078-.405h-.413v.5zm1.453 7.495l-.491.095.985-.02-.494-.075zm1.147-7.496v-.5h-.429l-.065.425.494.075zm2.903-.094l-2.698 14.1.982.188 2.698-14.1-.982-.188zm-2.698 14.1c-.135.701-.289 1.24-.456 1.63-.173.4-.334.583-.445.654l.538.843c.361-.23.623-.632.825-1.103.207-.481.378-1.098.52-1.836l-.982-.189zm-.909 2.29c-.351.234-.887.38-1.664.38v1c.884 0 1.641-.163 2.218-.548l-.554-.832zm-1.664.38h-2.429v1h2.429v-1zm-1.929.5v-1.905h-1v1.905h1zm-.5-1.405c.462 0 .846-.01 1.147-.035.283-.022.549-.059.738-.136l-.377-.926-.009.003a1.149 1.149 0 01-.116.026 3.683 3.683 0 01-.315.036c-.264.021-.619.032-1.068.032v1zm1.885-.17c.533-.218.641-.796.641-1.257h-1a.936.936 0 01-.044.336c-.015.036-.013.01.026-.006l.377.926zm.641-1.257c0-.164-.041-.435-.102-.767-.064-.35-.159-.813-.285-1.388a235.99 235.99 0 00-1.128-4.835l-.972.234c.5 2.07.874 3.675 1.124 4.815.124.57.217 1.02.278 1.354.064.35.085.53.085.587h1zm-1.515-6.99l-1.807-7.471-.972.235 1.807 7.47.972-.234zm-2.293-6.854h3.479v-1h-3.479v1zm2.988-.404l1.453 7.495.982-.19-1.453-7.496-.982.19zm2.438 7.475l1.148-7.495-.989-.151-1.147 7.495.988.151zm.653-7.07h3.394v-1h-3.394v1zm12.098 13.672v.5h.5v-.5h-.5zm-3.077 0h-.5v.5h.5v-.5zm0-.55h.5l-.942-.232.442.232zm-4.394-5.981l-.357-.35-.003.003.36.347zm2.783-1.77l-.225-.446h-.002l.227.446zm-.037-1.172l-.499.03.001.01.498-.04zm.049.903v.5h.5v-.5h-.5zm-3.357 0h-.5v.5h.5v-.5zm4.554 2.27h.5v-.636l-.619.151.119.486zm3.479 5.8h-3.077v1h3.077v-1zm-2.577.5v-.55h-1v.55h1zm-.942-.782c-.05.095-.17.217-.47.317-.301.1-.734.16-1.322.16v1c.642 0 1.195-.064 1.639-.212.445-.148.827-.398 1.038-.8l-.885-.465zm-1.792.477c-.896 0-1.477-.177-1.825-.45-.325-.253-.519-.646-.519-1.272h-1c0 .855.28 1.574.903 2.06.6.47 1.442.662 2.441.662v-1zm-2.344-1.722v-2.844h-1v2.844h1zm0-2.844c0-.5.174-.93.544-1.313l-.72-.694c-.542.561-.824 1.238-.824 2.007h1zm.54-1.31c.402-.408 1.263-.967 2.654-1.674l-.454-.892c-1.392.709-2.386 1.33-2.913 1.865l.713.701zm2.652-1.674c.415-.21.754-.411.996-.606.121-.098.234-.207.32-.33a.842.842 0 00.168-.487h-1c0-.078.031-.111.016-.09a.753.753 0 01-.133.129c-.161.13-.427.294-.817.492l.45.892zm1.484-1.423v-2.1h-1v2.1h1zm0-2.1c0-.291-.062-.604-.271-.847-.222-.258-.53-.348-.828-.348v1c.053 0 .076.008.081.01.002 0-.005-.003-.011-.01-.01-.012.029.024.029.196h1zm-1.099-1.195a.953.953 0 00-.617.22c-.169.14-.282.326-.359.517-.15.374-.207.875-.207 1.46h1c0-.547.057-.894.134-1.086a.32.32 0 01.069-.12l-.003.002-.01.005c-.008.002-.011.002-.007.002v-1zm-1.183 2.197c0 .219.013.532.037.934l.998-.062a15.754 15.754 0 01-.035-.872h-1zm.038.944c.032.395.047.68.047.862h1c0-.224-.017-.542-.05-.944l-.997.082zm.547.362h-3.357v1h3.357v-1zm-2.857.5v-2.832h-1v2.832h1zm0-2.832c0-.818.286-1.369.822-1.74.57-.394 1.487-.628 2.829-.628v-1c-1.426 0-2.584.243-3.397.806-.847.585-1.254 1.468-1.254 2.562h1zm3.651-2.368c1.243 0 2.084.242 2.606.644.497.382.776.967.776 1.846h1c0-1.114-.369-2.025-1.166-2.639-.772-.595-1.872-.851-3.216-.851v1zm3.382 2.49v11.28h1v-11.28h-1zm-2.479 8.63v-3.65h-1v3.65h1zm-.619-4.135c-.44.108-.828.273-1.113.529-.301.27-.465.624-.465 1.031h1c0-.114.036-.2.133-.287.114-.102.325-.214.682-.301l-.237-.972zm-1.578 1.56v2.576h1V56.66h-1zm0 2.576c0 .288.069.596.296.832.229.238.537.315.827.315v-1c-.126 0-.129-.032-.107-.009.019.02-.016.005-.016-.138h-1zm1.123 1.147c.285 0 .585-.083.804-.33.209-.236.27-.538.27-.817h-1c0 .152-.036.173-.018.153a.064.064 0 01.019-.015c-.004.002-.025.009-.075.009v1zm14.599 1.502v.5h.755l-.294-.695-.461.195zm-4.089 0l-.462.192.129.308h.333v-.5zm-2.136-5.127l.461-.193-.961.193h.5zm0 5.127v.5h.5v-.5h-.5zm-3.467 0h-.5v.5h.5v-.5zm0-17.505v-.5h-.5v.5h.5zm3.467 0h.5v-.5h-.5v.5zm0 7.849h-.5l.965.184-.465-.184zm1.782-4.517v-.5h-.34l-.125.317.465.183zm3.601 0l.463.19.281-.69h-.744v.5zm-2.527 6.202l-.463-.19-.078.193.081.191.46-.194zm3.369 7.47h-4.089v1h4.089v-1zm-3.627.308l-2.137-5.127-.923.385 2.136 5.127.924-.385zm-3.098-4.934v5.127h1v-5.127h-1zm.5 4.627h-3.467v1h3.467v-1zm-2.967.5V44.38h-1v17.505h1zm-.5-17.005h3.467v-1h-3.467v1zm2.967-.5v7.849h1v-7.85h-1zm.965 8.032l1.782-4.516-.93-.367-1.782 4.517.93.367zm1.317-4.2h3.601v-1h-3.601v1zm3.138-.688l-2.527 6.2.926.378 2.527-6.2-.926-.378zm-2.524 6.584l3.369 7.971.921-.389-3.369-7.971-.921.39zm11.239-5.797l-.249.433h.001l.248-.433zm-6.446 10.778v-8.484h-1v8.484h1zm0-8.484c0-.867.292-1.45.828-1.837.566-.41 1.476-.653 2.81-.653v-1c-1.424 0-2.583.254-3.396.842-.843.61-1.242 1.522-1.242 2.648h1zm3.638-2.49c.992 0 1.839.215 2.559.629l.499-.867c-.893-.513-1.917-.762-3.058-.762v1zm2.56.63c.649.37.969.922.969 1.738h1c0-1.153-.494-2.049-1.473-2.607l-.496.869zm.969 1.738v8.728h1v-8.728h-1zm0 8.728c0 .825-.28 1.376-.797 1.745-.549.39-1.433.624-2.732.624v1c1.387 0 2.517-.244 3.312-.81.825-.588 1.217-1.47 1.217-2.559h-1zm-3.529 2.37c-1.334 0-2.244-.245-2.81-.654-.536-.387-.828-.97-.828-1.838h-1c0 1.126.399 2.04 1.242 2.649.813.587 1.972.842 3.396.842v-1zm1.05-2.394v-8.68h-1v8.68h1zm0-8.68c0-.291-.061-.604-.271-.847-.221-.258-.53-.348-.827-.348v1c.052 0 .076.008.081.01.002 0-.006-.003-.012-.01-.01-.012.029.024.029.196h1zm-1.098-1.195c-.299 0-.609.088-.834.344-.214.244-.277.558-.277.852h1c0-.17.039-.204.029-.192-.006.007-.012.009-.008.007a.27.27 0 01.09-.011v-1zm-1.111 1.196v8.679h1v-8.68h-1zm0 8.679c0 .299.062.616.271.863.223.264.535.357.84.357v-1a.239.239 0 01-.084-.01c-.003-.001.002.001.007.007.006.007-.034-.036-.034-.217h-1zm1.111 1.22c.303 0 .613-.096.833-.36.205-.247.265-.563.265-.86h-1c0 .183-.04.228-.034.22a.044.044 0 01.011-.009.22.22 0 01-.075.01v1zm13.037-6.823v.5h.5v-.5h-.5zm-3.479 0h-.5v.5h.5v-.5zm-1.197 8.3v.5h.5v-.5h-.5zm-3.479 0h-.5v.5h.5v-.5zm0-14.172v-.5h-.5v.5h.5zm3.479 0h.5v-.5h-.5v.5zm0 .477h-.5v1.06l.819-.675-.319-.386zm3.931-.013l-.301.4.004.003.297-.403zm.745 4.908h-3.479v1h3.479v-1zm-2.979.5v-3.076h-1v3.076h1zm0-3.076c0-.284-.065-.59-.283-.825-.224-.243-.528-.322-.815-.322v1a.29.29 0 01.092.01c.005.003-.002 0-.011-.009-.018-.02.017-.002.017.146h1zm-1.098-1.147c-.282 0-.584.074-.81.309-.222.231-.289.534-.289.813h1c0-.135.033-.144.011-.12-.011.01-.018.012-.01.01a.314.314 0 01.098-.012v-1zm-1.099 1.122v11.402h1V50.484h-1zm.5 10.902h-3.479v1h3.479v-1zm-2.979.5V47.713h-1v14.173h1zm-.5-13.673h3.479v-1h-3.479v1zm2.979-.5v.477h1v-.477h-1zm.819.862c.333-.275.911-.46 1.83-.46v-1c-1.018 0-1.873.199-2.467.689l.637.771zm1.83-.46c.596 0 1.081.16 1.481.462l.602-.799c-.593-.447-1.296-.662-2.083-.662v1zm1.485.465c.373.274.542.611.542 1.05h1c0-.766-.328-1.397-.948-1.855l-.594.805zm.542 1.05v3.955h1V49.63h-1zm4.675 12.256v.5h.5v-.5h-.5zm-3.479 0h-.5v.5h.5v-.5zm0-17.505v-.5h-.5v.5h.5zm3.479 0h.5v-.5h-.5v.5zm0 17.005h-3.479v1h3.479v-1zm-2.979.5V44.38h-1v17.505h1zm-.5-17.005h3.479v-1h-3.479v1zm2.979-.5v17.505h1V44.38h-1zm9.496 17.505v.5h.5v-.5h-.5zm-3.076 0h-.5v.5h.5v-.5zm0-.55h.5l-.943-.232.443.232zm-4.395-5.981l-.356-.35-.003.003.359.347zm2.784-1.77l-.226-.446h-.001l.227.446zm-.037-1.172l-.499.03.001.01.498-.04zm.049.903v.5h.5v-.5h-.5zm-3.357 0h-.5v.5h.5v-.5zm4.553 2.27h.5v-.636l-.619.151.119.486zm3.479 5.8h-3.076v1h3.076v-1zm-2.576.5v-.55h-1v.55h1zm-.943-.782c-.049.095-.17.217-.469.317-.301.1-.734.16-1.322.16v1c.641 0 1.195-.064 1.638-.212.446-.148.828-.398 1.039-.8l-.886-.465zm-1.791.477c-.897 0-1.477-.177-1.825-.45-.325-.253-.519-.646-.519-1.272h-1c0 .855.28 1.574.903 2.06.6.47 1.442.662 2.441.662v-1zm-2.344-1.722v-2.844h-1v2.844h1zm0-2.844c0-.5.174-.93.543-1.313l-.719-.694c-.543.561-.824 1.238-.824 2.007h1zm.54-1.31c.401-.408 1.262-.967 2.653-1.674l-.453-.892c-1.392.709-2.387 1.33-2.913 1.865l.713.701zm2.652-1.674c.415-.21.753-.411.995-.606.121-.098.234-.207.321-.33a.848.848 0 00.167-.487h-1c0-.078.032-.111.016-.09a.73.73 0 01-.132.129c-.161.13-.427.294-.818.492l.451.892zm1.483-1.423v-2.1h-1v2.1h1zm0-2.1c0-.291-.061-.604-.27-.847-.222-.258-.53-.348-.828-.348v1c.052 0 .076.008.081.01.002 0-.005-.003-.012-.01-.009-.012.029.024.029.196h1zm-1.098-1.195a.955.955 0 00-.618.22c-.169.14-.282.326-.359.517-.15.374-.207.875-.207 1.46h1c0-.547.058-.894.135-1.086a.32.32 0 01.069-.12l-.004.002-.009.005c-.008.002-.011.002-.007.002v-1zm-1.184 2.197c0 .219.013.532.038.934l.998-.062a16.001 16.001 0 01-.036-.872h-1zm.039.944c.032.395.047.68.047.862h1c0-.224-.018-.542-.051-.944l-.996.082zm.547.362h-3.357v1h3.357v-1zm-2.857.5v-2.832h-1v2.832h1zm0-2.832c0-.818.285-1.369.822-1.74.57-.394 1.487-.628 2.828-.628v-1c-1.425 0-2.583.243-3.397.806-.847.585-1.253 1.468-1.253 2.562h1zm3.65-2.368c1.244 0 2.085.242 2.606.644.497.382.776.967.776 1.846h1c0-1.114-.368-2.025-1.165-2.639-.773-.595-1.873-.851-3.217-.851v1zm3.382 2.49v11.28h1v-11.28h-1zm-2.479 8.63v-3.65h-1v3.65h1zm-.619-4.135c-.44.108-.827.273-1.112.529a1.35 1.35 0 00-.465 1.031h1c0-.114.036-.2.133-.287.114-.102.324-.214.682-.301l-.238-.972zm-1.577 1.56v2.576h1V56.66h-1zm0 2.576c0 .288.069.596.295.832.23.238.538.315.827.315v-1c-.125 0-.129-.032-.106-.009.019.02-.016.005-.016-.138h-1zm1.122 1.147c.285 0 .586-.083.805-.33.209-.236.269-.538.269-.817h-1c0 .152-.035.173-.017.153.009-.01.019-.015.018-.015a.229.229 0 01-.075.009v1zm11.768 1.502v.5h.5v-.5h-.5zm-5.017-.708l-.418.274.418-.274zm-.464-11.365h.5v-.5h-.5v.5zm-1.55 0h-.5v.5h.5v-.5zm0-2.1v-.5h-.5v.5h.5zm1.55 0v.5h.5v-.5h-.5zm0-2.856v-.5h-.5v.5h.5zm3.479 0h.5v-.5h-.5v.5zm0 2.856h-.5v.5h.5v-.5zm1.88 0h.5v-.5h-.5v.5zm0 2.1v.5h.5v-.5h-.5zm-1.88 0v-.5h-.5v.5h.5zm.366 9.46l-.257.43.008.004.009.005.24-.439zm1.636.208h.5v-.5h-.5v.5zm0 1.905h-2.197v1h2.197v-1zm-2.197 0c-.767 0-1.348-.058-1.761-.162-.429-.108-.59-.243-.641-.32l-.836.548c.258.394.722.613 1.233.742.527.132 1.2.192 2.005.192v-1zm-2.402-.482c-.1-.154-.201-.421-.273-.845-.071-.416-.109-.949-.109-1.603h-1c0 .688.039 1.28.123 1.771.083.484.214.906.423 1.225l.836-.548zm-.382-2.448v-8.643h-1v8.643h1zm-.5-9.143h-1.55v1h1.55v-1zm-1.05.5v-2.1h-1v2.1h1zm-.5-1.6h1.55v-1h-1.55v1zm2.05-.5v-2.856h-1v2.856h1zm-.5-2.356h3.479v-1h-3.479v1zm2.979-.5v2.856h1v-2.856h-1zm.5 3.356h1.88v-1h-1.88v1zm1.38-.5v2.1h1v-2.1h-1zm.5 1.6h-1.88v1h1.88v-1zm-2.38.5v8.618h1v-8.618h-1zm0 8.618c0 .503.152.997.609 1.271l.514-.857c-.031-.019-.123-.087-.123-.414h-1zm.626 1.28c.211.117.487.178.775.214.302.038.67.056 1.101.056v-1c-.408 0-.731-.017-.975-.048-.256-.032-.379-.075-.42-.098l-.481.877zm1.376-.23v2.405h1V59.48h-1zm4.577-12.549v.5h.5v-.5h-.5zm-3.479 0h-.5v.5h.5v-.5zm0-2.551v-.5h-.5v.5h.5zm3.479 0h.5v-.5h-.5v.5zm0 17.505v.5h.5v-.5h-.5zm-3.479 0h-.5v.5h.5v-.5zm0-14.173v-.5h-.5v.5h.5zm3.479 0h.5v-.5h-.5v.5zm0-1.28h-3.479v1h3.479v-1zm-2.979.5V44.38h-1v2.551h1zm-.5-2.052h3.479v-1h-3.479v1zm2.979-.5v2.551h1v-2.551h-1zm.5 17.005h-3.479v1h3.479v-1zm-2.979.5V47.713h-1v14.173h1zm-.5-13.673h3.479v-1h-3.479v1zm2.979-.5v14.173h1V47.713h-1zm14.697 0l.492.089.106-.589h-.598v.5zm-2.551 14.173v.5h.418l.074-.412-.492-.088zm-4.2 0l-.492.088.074.412h.418v-.5zm-2.551-14.173v-.5h-.598l.106.589.492-.089zm3.504 0l.495-.07-.062-.43h-.433v.5zm1.196 8.374l-.495.071.99-.001-.495-.07zm1.172-8.374v-.5h-.435l-.06.431.495.07zm2.938-.088l-2.551 14.172.984.177 2.551-14.172-.984-.177zm-2.059 13.76h-4.2v1h4.2v-1zm-3.708.412l-2.551-14.172-.984.177 2.551 14.172.984-.177zm-3.043-13.584h3.504v-1h-3.504v1zm3.009-.429l1.196 8.374.99-.141-1.196-8.374-.99.141zm2.186 8.373l1.172-8.374-.99-.139-1.172 8.374.99.139zm.677-7.944h3.43v-1h-3.43v1zm7.324-1.28v.5h.5v-.5h-.5zm-3.479 0h-.5v.5h.5v-.5zm0-2.552v-.5h-.5v.5h.5zm3.479 0h.5v-.5h-.5v.5zm0 17.505v.5h.5v-.5h-.5zm-3.479 0h-.5v.5h.5v-.5zm0-14.173v-.5h-.5v.5h.5zm3.479 0h.5v-.5h-.5v.5zm0-1.28h-3.479v1h3.479v-1zm-2.979.5V44.38h-1v2.551h1zm-.5-2.052h3.479v-1h-3.479v1zm2.979-.5v2.551h1v-2.551h-1zm.5 17.005h-3.479v1h3.479v-1zm-2.979.5V47.713h-1v14.173h1zm-.5-13.673h3.479v-1h-3.479v1zm2.979-.5v14.173h1V47.713h-1zm9.521 14.173v.5h.5v-.5h-.5zm-8.35 0h-.5v.5h.5v-.5zm0-1.953l-.465-.185-.035.09v.095h.5zm3.943-9.95l.465.185.271-.684h-.736v.5zm-3.723 0h-.5v.5h.5v-.5zm0-2.27v-.5h-.5v.5h.5zm7.751 0h.5v-.5h-.5v.5zm0 1.917l.465.186.035-.09v-.096h-.5zm-4.003 10.01l-.465-.186-.274.686h.739v-.5zm4.382 0h.5v-.5h-.5v.5zm0 1.746h-8.35v1h8.35v-1zm-7.85.5v-1.953h-1v1.953h1zm-.035-1.77l3.943-9.948-.93-.368-3.943 9.948.93.369zm3.478-10.632h-3.723v1h3.723v-1zm-3.223.5v-2.27h-1v2.27h1zm-.5-1.77h7.751v-1h-7.751v1zm7.251-.5v1.916h1v-1.917h-1zm.036 1.73l-4.004 10.01.929.371 4.004-10.01-.929-.37zm-3.539 10.696h4.382v-1h-4.382v1zm3.882-.5v2.246h1V59.64h-1zm1.11-3.455v-.5h-.5v.5h.5zm3.467 0h.5v-.5h-.5v.5zm.452.024l.294-.404-.029-.021-.033-.017-.232.442zm-3.284-1.99l-.357.35.003.004.354-.353zm7.434-.94v.5h.5v-.5h-.5zm-3.393 0l-.5-.02-.022.52h.522v-.5zm.073-1.696l.499.022.001-.011v-.011h-.5zm-1.013 1.074l-.451.216.003.008.448-.224zm3.198 2.014l.291-.406-.033-.024-.038-.018-.22.448zm-6.934 2.014h3.467v-1h-3.467v1zm2.967-.5v3.003h1v-3.003h-1zm0 3.003c0 .295.058.609.259.856.216.266.524.364.827.364v-1c-.047 0-.066-.007-.067-.008l.007.005a.03.03 0 01.008.008c.006.006-.034-.04-.034-.225h-1zm1.086 1.22a.902.902 0 00.565-.193c.158-.124.264-.289.335-.456.137-.324.186-.75.186-1.23h-1c0 .44-.049.703-.107.839-.026.063-.043.07-.031.06a.101.101 0 01.052-.02v1zm1.086-1.88c0-.626-.062-1.173-.203-1.624-.14-.453-.369-.84-.723-1.099l-.589.809c.127.092.258.266.357.586.1.322.158.76.158 1.329h1zm-.988-2.761a41.818 41.818 0 01-2.155-1.197c-.548-.332-.867-.564-1.007-.704l-.708.707c.235.235.65.521 1.197.852.559.34 1.297.749 2.208 1.227l.465-.885zm-3.159-1.897c-.25-.256-.418-.679-.418-1.36h-1c0 .834.206 1.55.704 2.06l.714-.7zm-.418-1.36v-1.904h-1v1.905h1zm0-1.904c0-.871.287-1.454.81-1.84.551-.407 1.438-.65 2.742-.65v-1c-1.397 0-2.537.255-3.336.845-.828.611-1.216 1.523-1.216 2.645h1zm3.552-2.49c1.269 0 2.13.233 2.663.621.504.367.78.919.78 1.747h1c0-1.084-.381-1.966-1.191-2.555-.781-.569-1.892-.813-3.252-.813v1zm3.443 2.368v2.796h1v-2.796h-1zm.5 2.296h-3.393v1h3.393v-1zm-2.894.521l.073-1.696-.999-.044-.073 1.697.999.043zm.074-1.718c0-.606-.054-1.12-.192-1.5a1.33 1.33 0 00-.335-.529.908.908 0 00-.62-.241v1a.099.099 0 01-.054-.02s.008.007.021.029c.014.022.03.056.048.105.078.211.132.583.132 1.156h1zm-1.147-2.27c-.392 0-.719.186-.917.526-.174.299-.23.682-.23 1.085h1c0-.338.052-.51.094-.582.016-.028.024-.03.018-.026-.006.004 0-.003.035-.003v-1zm-1.147 1.61c0 .792.094 1.459.33 1.95l.902-.432c-.139-.29-.232-.778-.232-1.517h-1zm.333 1.958c.096.191.264.36.435.504.182.153.415.317.692.492.555.35 1.323.764 2.298 1.243l.441-.897c-.962-.473-1.694-.87-2.206-1.192a5.418 5.418 0 01-.581-.41 1.524 1.524 0 01-.145-.138c-.033-.037-.041-.053-.039-.05l-.895.448zm3.354 2.197c.682.488 1 1.105 1 1.888h1c0-1.12-.487-2.034-1.417-2.7l-.583.812zm1 1.888v2.124h1v-2.124h-1zm0 2.124c0 .87-.29 1.452-.822 1.839-.562.408-1.466.652-2.791.652v1c1.417 0 2.57-.255 3.379-.843.839-.61 1.234-1.523 1.234-2.648h-1zm-3.613 2.491c-1.299 0-2.183-.234-2.732-.624-.517-.369-.797-.92-.797-1.745h-1c0 1.089.392 1.971 1.217 2.56.795.565 1.925.81 3.312.81v-1zm-3.529-2.369v-3.027h-1v3.027h1zm8.985 5.677h-.5v.5h.5v-.5zm0-2.051v-.5h-.5v.5h.5zm4.053-1.282h.5v-1.014l-.805.618.305.396zm-3.931-.012l-.297.402.008.006.289-.408zm3.955-13.306l-.231.444.352.183.258-.3-.379-.327zm.452-.525v-.5h-.229l-.15.174.379.326zm2.991 0h.5v-.5h-.5v.5zm-.55 16.26l-.427-.26-.004.007.431.253zm-6.47.916v-2.051h-1v2.05h1zm-.5-1.551h2.82v-1h-2.82v1zm2.82 0c.493 0 .953-.13 1.285-.474.328-.34.448-.808.448-1.308h-1c0 .355-.086.529-.169.615-.079.083-.235.167-.564.167v1zm.928-2.178c-.325.25-.907.421-1.844.421v1c1.017 0 1.868-.178 2.453-.628l-.609-.793zm-1.844.421c-.591 0-1.081-.153-1.492-.445l-.579.816c.598.424 1.296.63 2.071.63v-1zm-1.485-.44c-.377-.277-.541-.608-.541-1.025h-1c0 .754.331 1.376.947 1.83l.594-.804zm-.541-1.025v-10.18h-1v10.18h1zm0-10.18c0-.671.196-1.091.513-1.357.335-.28.891-.463 1.758-.463v-1c-.982 0-1.811.203-2.4.696-.606.507-.871 1.247-.871 2.123h1zm2.271-1.82c.365 0 .921.162 1.697.566l.462-.887c-.818-.426-1.549-.68-2.159-.68v1zm2.307.448l.452-.525-.758-.652-.452.525.758.652zm.073-.35h2.991v-1h-2.991v1zm2.491-.5V61.69h1V47.713h-1zm0 13.976c0 .856-.171 1.52-.477 2.023l.855.52c.426-.701.622-1.559.622-2.543h-1zm-.481 2.03c-.081.139-.298.318-.811.457-.5.136-1.203.212-2.127.212v1c.965 0 1.767-.078 2.39-.247.61-.166 1.134-.444 1.411-.916l-.863-.506zm-2.938.669h-3.601v1h3.601v-1zm.952-5.03V50.46h-1v8.899h1zm0-8.899c0-.284-.065-.59-.283-.825-.224-.243-.528-.322-.815-.322v1a.29.29 0 01.092.01c.006.003-.002 0-.011-.009-.018-.02.017-.002.017.146h1zm-1.098-1.147c-.288 0-.595.078-.822.319-.222.235-.289.542-.289.828h1c0-.146.035-.162.017-.142-.009.009-.015.01-.007.007a.322.322 0 01.101-.012v-1zm-1.111 1.147v8.874h1V50.46h-1zm0 8.874c0 .286.067.593.289.829.227.24.534.318.822.318v-1a.323.323 0 01-.101-.011c-.008-.003-.002-.002.007.007.018.02-.017.003-.017-.142h-1zm1.111 1.147c.281 0 .583-.074.809-.309.222-.23.289-.533.289-.813h-1c0 .135-.033.144-.01.12.01-.01.017-.011.01-.009a.327.327 0 01-.098.011v1zm13.049 1.405v.5h.5v-.5h-.5zm-3.076 0h-.5v.5h.5v-.5zm0-.55h.5l-.943-.232.443.232zm-4.395-5.981l-.356-.35-.003.003.359.347zm2.784-1.77l-.226-.446h-.001l.227.446zm-.037-1.172l-.499.03.001.01.498-.04zm.049.903v.5h.5v-.5h-.5zm-3.357 0h-.5v.5h.5v-.5zm4.553 2.27h.5v-.636l-.619.151.119.486zm3.479 5.8h-3.076v1h3.076v-1zm-2.576.5v-.55h-1v.55h1zm-.943-.782c-.05.095-.17.217-.469.317-.301.1-.735.16-1.322.16v1c.641 0 1.195-.064 1.638-.212.446-.148.828-.398 1.039-.8l-.886-.465zm-1.791.477c-.897 0-1.477-.177-1.825-.45-.325-.253-.519-.646-.519-1.272h-1c0 .855.28 1.574.903 2.06.6.47 1.442.662 2.441.662v-1zm-2.344-1.722v-2.844h-1v2.844h1zm0-2.844c0-.5.174-.93.543-1.313l-.719-.694c-.543.561-.824 1.238-.824 2.007h1zm.54-1.31c.401-.408 1.262-.967 2.653-1.674l-.453-.892c-1.392.709-2.387 1.33-2.913 1.865l.713.701zm2.652-1.674c.415-.21.753-.411.995-.606.121-.098.234-.207.321-.33a.848.848 0 00.167-.487h-1c0-.078.032-.111.016-.09a.73.73 0 01-.132.129c-.161.13-.427.294-.818.492l.451.892zm1.483-1.423v-2.1h-1v2.1h1zm0-2.1c0-.291-.061-.604-.27-.847-.222-.258-.53-.348-.828-.348v1c.052 0 .076.008.081.01.002 0-.005-.003-.012-.01-.01-.012.029.024.029.196h1zm-1.098-1.195a.955.955 0 00-.618.22c-.169.14-.282.326-.359.517-.15.374-.207.875-.207 1.46h1c0-.547.057-.894.135-1.086a.32.32 0 01.069-.12l-.004.002-.009.005c-.008.002-.012.002-.007.002v-1zm-1.184 2.197c0 .219.013.532.038.934l.998-.062a16.001 16.001 0 01-.036-.872h-1zm.039.944c.032.395.047.68.047.862h1c0-.224-.018-.542-.051-.944l-.996.082zm.547.362h-3.357v1h3.357v-1zm-2.857.5v-2.832h-1v2.832h1zm0-2.832c0-.818.285-1.369.822-1.74.57-.394 1.487-.628 2.828-.628v-1c-1.425 0-2.583.243-3.397.806-.847.585-1.253 1.468-1.253 2.562h1zm3.65-2.368c1.244 0 2.085.242 2.606.644.497.382.776.967.776 1.846h1c0-1.114-.368-2.025-1.165-2.639-.773-.595-1.873-.851-3.217-.851v1zm3.382 2.49v11.28h1v-11.28h-1zm-2.479 8.63v-3.65h-1v3.65h1zm-.619-4.135c-.44.108-.828.273-1.112.529a1.35 1.35 0 00-.465 1.031h1c0-.114.036-.2.133-.287.114-.102.324-.214.682-.301l-.238-.972zm-1.577 1.56v2.576h1V56.66h-1zm0 2.576c0 .288.069.596.295.832.23.238.538.315.827.315v-1c-.125 0-.129-.032-.106-.009.018.02-.016.005-.016-.138h-1zm1.122 1.147c.285 0 .586-.083.805-.33.209-.236.269-.538.269-.817h-1c0 .152-.035.173-.017.153.009-.01.019-.015.018-.015a.229.229 0 01-.075.009v1z"/>
  </g>
  <path stroke="#000" stroke-width="30" d="M0 217.107h33.906l37.894 4.354 4.877.528c9.272 1.005 13.909 1.507 18.565 1.576 4.656.07 9.305-.295 18.603-1.023l13.8-1.081 19.945-4.354 23.933-4.353 14.959-4.353 20.941-7.981 26.926-13.785 30.914-16.688 30.914-13.785 30.914-10.883 27.922-6.53 38.892-7.981 12.611-1.966c7.652-1.193 11.478-1.789 15.335-2.088 3.856-.299 7.729-.299 15.473-.299h15.418l32.908 4.353 29.917 7.981 25.928 10.158 18.947 7.255 87.756 39.179 32.909 13.06 34.903 8.706 2.928.4c14.144 1.929 21.216 2.894 30.061 2.844 1.66-.01 4.951-.116 6.609-.213 8.829-.518 12.964-1.355 21.233-3.031v0c2.719-.55 5.737-1.251 8.81-2.014 9.803-2.434 14.705-3.652 21.68-6.554 6.976-2.901 12.586-6.303 23.806-13.105l14.512-8.799 29.917-12.334s18.323-6.266 30.914-7.981c14.929-2.034 38.892 0 38.892 0l33.906 3.627s23.632 3.563 38.892 4.354c.95.049 1.94.091 2.95.127 12.17.428 18.25.643 27.56-.787 9.3-1.43 17.06-4.176 32.57-9.668l7.72-2.732 30.92-12.334 25.92-18.139 32.91-21.04 36.9-21.766 39.89-12.334L1275.45 72h21.94l19.95 3.628 25.93 12.334 22.93 11.608 16.96 10.158 13.96 9.432 15.95 7.255 15.96 4.353h9.97"/>
  <path stroke="#FFFF38" stroke-dasharray="10 10" stroke-width="2" d="M-1 217.107h33.953l37.947 4.354 4.935.534c9.26 1.002 13.89 1.503 18.54 1.572 4.649.069 9.291-.295 18.577-1.021l13.871-1.085 19.972-4.354 23.967-4.353 14.979-4.353 20.971-7.981 26.962-13.785 30.957-16.688 30.957-13.785 30.957-10.883 27.962-6.53 38.946-7.981 12.669-1.972c7.642-1.19 11.463-1.785 15.315-2.083 3.851-.298 7.718-.298 15.452-.298h15.482l32.954 4.353 29.958 7.981 25.964 10.158 18.974 7.255 87.878 39.179 32.954 13.06 34.952 8.706 2.938.401c11.25 1.532 16.875 2.299 22.523 2.553 4.322.194 8.65.164 12.969-.09 5.644-.332 11.258-1.176 22.485-2.864v0l5.101-1.347c13.903-3.673 20.854-5.51 27.45-8.309 6.596-2.799 12.747-6.523 25.048-13.971l11.306-6.845 29.958-12.334s18.348-6.266 30.957-7.981c14.95-2.034 38.946 0 38.946 0l33.953 3.627 38.941 4.354v0c16.76 0 25.14 0 33.37-1.381.23-.039.46-.078.68-.118 8.22-1.439 16.12-4.231 31.92-9.816l4.94-1.745 30.95-12.334 25.97-18.139 32.95-21.04 36.95-21.766 39.95-12.334L1276.23 72h21.97l19.97 3.628 25.96 12.334 22.97 11.608 16.98 10.158 13.98 9.432 15.98 7.255 15.97 4.353h9.99"/>
  <path fill="#000" fill-rule="evenodd" d="M274.543 116.354c-2.091 0-3.792 1.603-3.792 3.575 0 1.971 1.701 3.571 3.792 3.571 2.091 0 3.792-1.6 3.792-3.571 0-1.972-1.701-3.575-3.792-3.575m0 10.209c-3.883 0-7.042-2.975-7.042-6.634 0-3.66 3.159-6.637 7.042-6.637s7.042 2.977 7.042 6.637c0 3.659-3.159 6.634-7.042 6.634" clip-rule="evenodd"/>
  <mask id="a" width="37" height="40" x="256" y="103" maskUnits="userSpaceOnUse" style="mask-type:alpha">
    <path fill="#fff" fill-rule="evenodd" d="M256.667 103.083h35.749v39.813h-35.749v-39.813z" clip-rule="evenodd"/>
  </mask>
  <g mask="url(#a)">
    <path fill="#000" fill-rule="evenodd" d="M274.541 106.146c-8.065 0-14.625 6.241-14.625 13.91 0 9.757 12.185 19.263 14.625 19.769 2.439-.508 14.625-10.014 14.625-19.769 0-7.669-6.561-13.91-14.625-13.91zm0 36.75c-3.887 0-17.875-11.335-17.875-22.84 0-9.359 8.019-16.973 17.875-16.973s17.875 7.614 17.875 16.973c0 11.505-13.988 22.84-17.875 22.84z" clip-rule="evenodd"/>
  </g>
  <path fill="#000" fill-rule="evenodd" d="M564.543 99.355c-2.091 0-3.792 1.602-3.792 3.574 0 1.971 1.701 3.571 3.792 3.571 2.091 0 3.792-1.6 3.792-3.571 0-1.972-1.701-3.575-3.792-3.575m0 10.209c-3.883 0-7.042-2.975-7.042-6.634 0-3.66 3.159-6.637 7.042-6.637s7.042 2.977 7.042 6.637c0 3.659-3.159 6.634-7.042 6.634" clip-rule="evenodd"/>
  <mask id="b" width="37" height="40" x="546" y="86" maskUnits="userSpaceOnUse" style="mask-type:alpha">
    <path fill="#fff" fill-rule="evenodd" d="M546.667 86.084h35.749v39.812h-35.749V86.083z" clip-rule="evenodd"/>
  </mask>
  <g mask="url(#b)">
    <path fill="#000" fill-rule="evenodd" d="M564.541 89.146c-8.065 0-14.625 6.241-14.625 13.91 0 9.757 12.185 19.263 14.625 19.769 2.439-.508 14.625-10.014 14.625-19.769 0-7.669-6.561-13.91-14.625-13.91zm0 36.75c-3.887 0-17.875-11.335-17.875-22.84 0-9.36 8.019-16.972 17.875-16.972s17.875 7.613 17.875 16.972c0 11.505-13.988 22.84-17.875 22.84z" clip-rule="evenodd"/>
  </g>
  <g>
    <path fill="#000" fill-rule="evenodd" d="M859.543 123.354c-2.091 0-3.792 1.603-3.792 3.575 0 1.971 1.701 3.571 3.792 3.571 2.09 0 3.791-1.6 3.791-3.571 0-1.972-1.701-3.575-3.791-3.575m0 10.209c-3.883 0-7.042-2.975-7.042-6.634 0-3.66 3.159-6.637 7.042-6.637 3.882 0 7.041 2.977 7.041 6.637 0 3.659-3.159 6.634-7.041 6.634" clip-rule="evenodd"/>
    <mask id="c" width="37" height="40" x="841" y="110" maskUnits="userSpaceOnUse" style="mask-type:alpha">
      <path fill="#fff" fill-rule="evenodd" d="M841.667 110.083h35.748v39.813h-35.748v-39.813z" clip-rule="evenodd"/>
    </mask>
    <g mask="url(#c)">
      <path fill="#000" fill-rule="evenodd" d="M859.541 113.146c-8.065 0-14.625 6.241-14.625 13.91 0 9.757 12.185 19.263 14.625 19.769 2.439-.508 14.625-10.014 14.625-19.769 0-7.669-6.561-13.91-14.625-13.91zm0 36.75c-3.887 0-17.875-11.335-17.875-22.84 0-9.359 8.018-16.973 17.875-16.973 9.856 0 17.875 7.614 17.875 16.973 0 11.505-13.988 22.84-17.875 22.84z" clip-rule="evenodd"/>
    </g>
  </g>
  <g filter="url(#filter7_d_510_254)">
    <rect width="114.144" height="63.917" fill="url(#pattern0)" rx="14" transform="matrix(.9949 .10082 -.29333 .95601 1091.75 70)"/>
  </g>
  <g>
    <path fill="#2D6B8A" stroke="#2D6B8A" d="M687.35 158.555l-69.951-27.938 1.758-4.62 10.175-5.384 4.799-.158 45.547 17.331 6.32 13.644 1.352 7.125z"/>
    <ellipse cx="616.618" cy="152.137" fill="#8092A0" rx="10.087" ry="9.269" transform="rotate(20.831 616.618 152.137)"/>
    <ellipse cx="693.515" cy="181.395" fill="#8092A0" rx="10.087" ry="9.269" transform="rotate(20.831 693.515 181.395)"/>
    <path fill="#000" d="M626.413 156.401c-.167.439-.367.855-.585 1.257-2.581 4.822-8.495 7.061-13.863 5.019-5.515-2.098-8.457-7.957-6.91-13.399.086-.301.176-.599.289-.896 2.162-5.682 8.628-8.492 14.449-6.277 5.815 2.217 8.782 8.616 6.62 14.296zm-16.741-7.369l3.027 1.151c.207-.29.453-.542.726-.759l-1.351-2.916a6.763 6.763 0 00-2.402 2.524zm-.558 5.263l2.964-1.29a3.682 3.682 0 01-.053-1.039l-3.027-1.152a6.799 6.799 0 00.116 3.481zm4.549 1.171a3.895 3.895 0 01-.775-.711l-2.939 1.278a7.063 7.063 0 002.586 2.398l1.128-2.965zm3.73-9.802a7.073 7.073 0 00-3.552.074l1.349 2.91a3.902 3.902 0 011.075-.024l1.127-2.961.001.001zm5.237 4.859l-2.947 1.281c.062.344.077.696.036 1.049l3.029 1.153a6.763 6.763 0 00-.118-3.483zm-4.54-1.204c.301.211.562.458.787.733l2.942-1.278a7.122 7.122 0 00-2.605-2.414l-1.124 2.959zm-.204 9.734l-1.346-2.907a3.848 3.848 0 01-1.051.014l-1.129 2.967a7.05 7.05 0 003.526-.074zm4.196-3.259l-3.051-1.161a3.804 3.804 0 01-.719.747l1.352 2.921a6.824 6.824 0 002.418-2.507zM704.407 186.077c-.167.439-.366.856-.585 1.257-2.581 4.822-8.496 7.062-13.862 5.02-5.515-2.099-8.457-7.957-6.91-13.399.085-.301.175-.6.288-.897 2.162-5.681 8.628-8.492 14.45-6.276 5.815 2.216 8.78 8.615 6.619 14.295zm-16.743-7.37l3.029 1.153c.206-.291.454-.543.726-.759l-1.351-2.917a6.78 6.78 0 00-2.404 2.523zm-.557 5.264l2.963-1.29a3.682 3.682 0 01-.052-1.039l-3.028-1.152a6.82 6.82 0 00.117 3.481zm4.55 1.172a3.902 3.902 0 01-.775-.712l-2.939 1.278a7.05 7.05 0 002.586 2.399l1.128-2.965zm3.73-9.803a7.091 7.091 0 00-3.551.074l1.348 2.91a3.941 3.941 0 011.075-.024l1.127-2.961.001.001zm5.237 4.859l-2.949 1.281c.062.343.077.696.037 1.049l3.029 1.153a6.752 6.752 0 00-.117-3.483zm-4.54-1.203c.3.21.561.458.787.733l2.943-1.279a7.106 7.106 0 00-2.605-2.414l-1.125 2.96zm-.204 9.733l-1.345-2.906a3.857 3.857 0 01-1.052.013l-1.129 2.967a7.04 7.04 0 003.526-.074zm4.194-3.26l-3.051-1.16a3.749 3.749 0 01-.719.747l1.352 2.921a6.796 6.796 0 002.418-2.508z"/>
    <path fill="#000" d="M718.752 185.335l-3.607 5.873c-.816 1.329-2.494 1.884-3.986 1.317l-6.051-2.303c.385-.517.746-1.059 1.057-1.641.295-.548.533-1.06.722-1.557 2.667-7.008-1.005-14.932-8.18-17.662-7.177-2.731-15.187.748-17.854 7.756-.138.364-.25.732-.356 1.105a13.066 13.066 0 00-.449 2.463l-52.936-20.142a13.23 13.23 0 001.779-3.197c2.666-7.007-1.004-14.931-8.18-17.662-7.177-2.73-15.187.75-17.853 7.756-.138.363-.25.733-.358 1.104a13.266 13.266 0 00-.448 2.467l-1.535-.585s.508-9.209 2.848-12.591c1.826-2.636 4.113-3.121 4.113-3.121s1.451-4.331 5.485-7.847c.855-.747 6.701-4.428 14.503-7.347 3.566-1.335 5.947-1.269 9.546.09 10.197 3.849 33.632 12.71 39.13 14.903 3.658 1.459 5.561 2.823 8.051 5.901.247.304.276.722.051 1.035a.86.86 0 01-1.006.293l-.208-.08 6.575 13.807s4.074 1.573 5.414 2.145c6.658 2.846 18.449 8.448 23.735 16.741a4.85 4.85 0 01.642 3.735c-.393 1.653-1.025 3.406-1.025 3.406.969 1.074 1.123 2.628.381 3.838zm-74.864-58.566l-10.676-4.062a5.646 5.646 0 00-3.605-.145c-3.224.952-5.981 2.307-8.143 3.603a1.305 1.305 0 00-.631 1.255c.048.506.383.946.866 1.138l18.689 7.407 3.5-9.196zm5.687 2.164l-.724-.276-3.525 9.265.72.286 3.529-9.275zm34.665 24.409l-6.526-13.704-23.174-8.818-3.555 9.342 24.444 9.687c.033-.124.059-.246.106-.368.61-1.606 2.282-2.46 3.732-1.908 1.453.553 2.132 2.301 1.521 3.907-.055.147-.129.28-.201.414l3.653 1.448z"/>
    <path fill="#FFFF38" d="M654.098 151.502l-1.293 2.188-2.341-.891-1.353 2.297 2.316.881-1.307 2.174-2.324-.885-1.287 2.172-2.333-.888 1.287-2.171-2.456-.935-1.287 2.172-2.342-.891 1.287-2.172-2.324-.884 1.315-2.171 2.3.876 1.378-2.288-2.308-.878 1.293-2.188 2.325.885 1.287-2.172 2.341.891-1.296 2.168 2.457.935 1.295-2.169 2.333.888-1.287 2.172 2.324.884zm-5.975.406l-2.456-.934-1.354 2.297 2.44.928 1.37-2.291zm8.588 11.412l-1.24-.472-.09-.777c-.761.287-1.46.31-2.095.068-.619-.235-1.1-.601-1.445-1.095-.337-.498-.372-1.098-.106-1.799l2.926-7.689c.581-1.528 1.847-1.921 3.796-1.179 1.851.704 2.512 1.752 1.983 3.143l-.831 2.185-2.342-.891.907-2.382c.073-.192-.02-.336-.277-.434-.257-.098-.422-.051-.495.14l-3.11 8.174c-.073.191.019.336.276.434.258.098.423.051.496-.141l.837-2.201-.533-.203.687-1.807 2.875 1.094-2.219 5.832zm4.723-3.168l-1.651 4.337-2.522-.96 4.483-11.779 2.719 1.034c1.078.411 1.826.852 2.242 1.324.421.474.472 1.132.151 1.975l-1.244 3.27c-.294.772-.716 1.238-1.266 1.399-.548.155-1.519-.045-2.912-.6zm1.74-1.98l1.076-2.826c.158-.416-.05-.734-.625-.953l-1.551 4.075c.575.218.942.12 1.1-.296zm1.203 5.761l2.885-7.582c.581-1.528 1.863-1.915 3.846-1.161 1.955.744 2.644 1.875 2.066 3.392l-2.884 7.582c-.261.684-.736 1.109-1.425 1.273-.682.16-1.461.074-2.337-.26-1.972-.75-2.689-1.831-2.151-3.244zm3.329 1.408l3.054-8.026c.09-.235-.005-.406-.285-.513-.29-.11-.48-.047-.569.188l-3.054 8.026c-.09.235.011.408.301.518.279.107.464.042.553-.193z"/>
    <path fill="#FFFF38" stroke="#FFFF38" d="M712.802 173.528l3.549 1.351 1.183.45.24 1.149.24 1.149-.527 1.386-.528 1.386-.591-.225-5.324-2.026.528-1.386 1.23-3.234z"/>
    <path fill="#ED542B" stroke="#ED542B" d="M639.073 118.148l-.733 1.925 5.915 2.25.733-1.925-.34-3.214-3.185-1.212-2.39 2.176z"/>
  </g>
  <defs>
    <filter id="filter0_f_510_254" width="91" height="91" x="519" y="59" color-interpolation-filters="sRGB" filterUnits="userSpaceOnUse">
      <feFlood flood-opacity="0" result="BackgroundImageFix"/>
      <feBlend in="SourceGraphic" in2="BackgroundImageFix" result="shape"/>
      <feGaussianBlur result="effect1_foregroundBlur_510_254" stdDeviation="12.5"/>
    </filter>
    <filter id="filter1_f_510_254" width="91" height="91" x="813" y="90" color-interpolation-filters="sRGB" filterUnits="userSpaceOnUse">
      <feFlood flood-opacity="0" result="BackgroundImageFix"/>
      <feBlend in="SourceGraphic" in2="BackgroundImageFix" result="shape"/>
      <feGaussianBlur result="effect1_foregroundBlur_510_254" stdDeviation="12.5"/>
    </filter>
    <filter id="filter2_f_510_254" width="179.464" height="112.904" x="1044.27" y="53.386" color-interpolation-filters="sRGB" filterUnits="userSpaceOnUse">
      <feFlood flood-opacity="0" result="BackgroundImageFix"/>
      <feBlend in="SourceGraphic" in2="BackgroundImageFix" result="shape"/>
      <feGaussianBlur result="effect1_foregroundBlur_510_254" stdDeviation="12.5"/>
    </filter>
    <filter id="filter3_f_510_254" width="91" height="91" x="229" y="82" color-interpolation-filters="sRGB" filterUnits="userSpaceOnUse">
      <feFlood flood-opacity="0" result="BackgroundImageFix"/>
      <feBlend in="SourceGraphic" in2="BackgroundImageFix" result="shape"/>
      <feGaussianBlur result="effect1_foregroundBlur_510_254" stdDeviation="12.5"/>
    </filter>
    <filter id="filter4_d_510_254" width="83.232" height="25.7" x="233.518" y="23.495" color-interpolation-filters="sRGB" filterUnits="userSpaceOnUse">
      <feFlood flood-opacity="0" result="BackgroundImageFix"/>
      <feColorMatrix in="SourceAlpha" result="hardAlpha" values="0 0 0 0 0 0 0 0 0 0 0 0 0 0 0 0 0 0 127 0"/>
      <feOffset dy="4"/>
      <feGaussianBlur stdDeviation="2"/>
      <feColorMatrix values="0 0 0 0 0 0 0 0 0 0 0 0 0 0 0 0 0 0 0.25 0"/>
      <feBlend in2="BackgroundImageFix" result="effect1_dropShadow_510_254"/>
      <feBlend in="SourceGraphic" in2="effect1_dropShadow_510_254" result="shape"/>
    </filter>
    <filter id="filter5_d_510_254" width="121.721" height="55.666" x="503.115" y=".336" color-interpolation-filters="sRGB" filterUnits="userSpaceOnUse">
      <feFlood flood-opacity="0" result="BackgroundImageFix"/>
      <feColorMatrix in="SourceAlpha" result="hardAlpha" values="0 0 0 0 0 0 0 0 0 0 0 0 0 0 0 0 0 0 127 0"/>
      <feOffset dy="4"/>
      <feGaussianBlur stdDeviation="2"/>
      <feColorMatrix values="0 0 0 0 0 0 0 0 0 0 0 0 0 0 0 0 0 0 0.25 0"/>
      <feBlend in2="BackgroundImageFix" result="effect1_dropShadow_510_254"/>
      <feBlend in="SourceGraphic" in2="effect1_dropShadow_510_254" result="shape"/>
    </filter>
    <filter id="filter6_d_510_254" width="141.606" height="55.666" x="787.578" y="17.222" color-interpolation-filters="sRGB" filterUnits="userSpaceOnUse">
      <feFlood flood-opacity="0" result="BackgroundImageFix"/>
      <feColorMatrix in="SourceAlpha" result="hardAlpha" values="0 0 0 0 0 0 0 0 0 0 0 0 0 0 0 0 0 0 127 0"/>
      <feOffset dy="4"/>
      <feGaussianBlur stdDeviation="2"/>
      <feColorMatrix values="0 0 0 0 0 0 0 0 0 0 0 0 0 0 0 0 0 0 0.25 0"/>
      <feBlend in2="BackgroundImageFix" result="effect1_dropShadow_510_254"/>
      <feBlend in="SourceGraphic" in2="effect1_dropShadow_510_254" result="shape"/>
    </filter>
    <filter id="filter7_d_510_254" width="133.291" height="77.941" x="1072.51" y="71.336" color-interpolation-filters="sRGB" filterUnits="userSpaceOnUse">
      <feFlood flood-opacity="0" result="BackgroundImageFix"/>
      <feColorMatrix in="SourceAlpha" result="hardAlpha" values="0 0 0 0 0 0 0 0 0 0 0 0 0 0 0 0 0 0 127 0"/>
      <feOffset dy="4"/>
      <feGaussianBlur stdDeviation="2"/>
      <feColorMatrix values="0 0 0 0 0 0 0 0 0 0 0 0 0 0 0 0 0 0 0.25 0"/>
      <feBlend in2="BackgroundImageFix" result="effect1_dropShadow_510_254"/>
      <feBlend in="SourceGraphic" in2="effect1_dropShadow_510_254" result="shape"/>
    </filter>
    <pattern id="pattern0" width="1" height="1" patternContentUnits="objectBoundingBox">
      <use transform="matrix(.00095 0 0 .0017 0 -.064)" xlink:href="#image0_510_254"/>
    </pattern>
  </defs>
</svg>
