<svg xmlns="http://www.w3.org/2000/svg" width="348" height="76" fill="none" viewBox="0 0 348 76">
  <g filter="url(#filter0_d)">
    <path fill="#FFFF38" d="M212.592 58h-4.16V44.406c0-.517-.24-.776-.718-.776-.488 0-.733.249-.733.747V58h-4.16V44.377c0-.518-.239-.776-.717-.776-.489 0-.733.249-.733.747V58h-4.16V40.993h4.16v.6c.576-.478 1.441-.717 2.593-.717.967 0 1.846.386 2.637 1.157.732-.771 1.733-1.157 3.003-1.157.722 0 1.401.22 2.036.66.634.429.952 1.03.952 1.8V58zm10.81 0h-3.691v-.66c-.313.596-1.206.894-2.681.894-2.275 0-3.413-.888-3.413-2.666v-3.413c0-.761.274-1.425.821-1.992.556-.566 1.669-1.274 3.339-2.124.967-.488 1.451-.879 1.451-1.172v-2.52c0-.556-.24-.834-.718-.834-.547 0-.821.678-.821 2.036 0 .244.015.605.044 1.084.039.478.059.84.059 1.084h-4.028v-3.399c0-2.295 1.66-3.442 4.98-3.442 3.106 0 4.658 1.196 4.658 3.589V58zm-4.174-3.179v-4.38c-.957.235-1.436.664-1.436 1.29v3.09c0 .518.249.777.747.777.459 0 .689-.26.689-.777zM235.575 58h-4.599l-1.436-4.614L228.192 58h-4.174l3.266-8.994-3.179-8.013h4.41l1.421 4.41 1.127-4.41h3.97l-2.798 8.218 3.34 8.789zm4.321 0h-3.808v-3.062h3.808V58zm16.817-18.003L250.941 58h-4.98l5.771-18.062h-5.434v-2.944h10.415v3.003zm.674 14.414v-13.52c0-2.725 1.811-4.087 5.434-4.087 3.555 0 5.332 1.352 5.332 4.057v13.52c0 1.212-.503 2.15-1.508 2.813-.997.664-2.281.996-3.853.996-1.621 0-2.93-.327-3.926-.981-.986-.654-1.479-1.587-1.479-2.798zm6.152.22V40.319c0-.42-.249-.63-.747-.63-.527 0-.791.21-.791.63v14.312c0 .42.264.63.791.63.498 0 .747-.21.747-.63zm5.508-.22v-13.52c0-2.725 1.811-4.087 5.434-4.087 3.555 0 5.332 1.352 5.332 4.057v13.52c0 1.212-.502 2.15-1.508 2.813-.996.664-2.281.996-3.853.996-1.621 0-2.93-.327-3.926-.981-.986-.654-1.479-1.587-1.479-2.798zm6.152.22V40.319c0-.42-.249-.63-.747-.63-.527 0-.791.21-.791.63v14.312c0 .42.264.63.791.63.498 0 .747-.21.747-.63zm5.508-.22v-13.52c0-2.725 1.812-4.087 5.435-4.087 3.554 0 5.332 1.352 5.332 4.057v13.52c0 1.212-.503 2.15-1.509 2.813-.996.664-2.28.996-3.853.996-1.621 0-2.929-.327-3.925-.981-.987-.654-1.48-1.587-1.48-2.798zm6.152.22V40.319c0-.42-.249-.63-.747-.63-.527 0-.791.21-.791.63v14.312c0 .42.264.63.791.63.498 0 .747-.21.747-.63zM309.418 58h-4.907l-2.564-6.152V58h-4.16V36.994h4.16v9.42l2.139-5.42h4.321l-3.032 7.44L309.418 58zm1.377 3.603v-2.46h3.384c.986 0 1.479-.513 1.479-1.538-.547.42-1.406.63-2.578.63-.82 0-1.533-.215-2.139-.645-.595-.44-.893-1.01-.893-1.714V43.659c0-1.855 1.108-2.783 3.325-2.783.586 0 1.357.249 2.315.747l.541-.63h3.589v16.773c0 1.103-.219 2.016-.659 2.739-.43.732-1.777 1.098-4.043 1.098h-4.321zm4.863-6.635V44.289c0-.517-.239-.776-.718-.776-.488 0-.732.259-.732.776v10.65c0 .517.244.776.732.776.479 0 .718-.25.718-.747z"/>
    <path fill="#000" d="M212.592 58v1h1v-1h-1zm-4.16 0h-1v1h1v-1zm-1.451 0v1h1v-1h-1zm-4.16 0h-1v1h1v-1zm-1.45 0v1h1v-1h-1zm-4.16 0h-1v1h1v-1zm0-17.007v-1h-1v1h1zm4.16 0h1v-1h-1v1zm0 .6h-1v2.131l1.639-1.361-.639-.77zm5.23.44l-.699.716.726.708.698-.735-.725-.689zm5.039-.498l-.57.822.009.006.561-.828zM212.592 57h-4.16v2h4.16v-2zm-3.16 1V44.406h-2V58h2zm0-13.594c0-.394-.09-.876-.446-1.26-.369-.4-.858-.516-1.272-.516v2c.032 0 .017.005-.025-.01a.441.441 0 01-.171-.117c-.116-.126-.086-.22-.086-.097h2zm-1.718-1.776c-.403 0-.889.104-1.264.487-.371.378-.469.862-.469 1.26h2c0-.1.025.01-.102.14-.131.133-.25.113-.165.113v-2zm-1.733 1.747V58h2V44.377h-2zm1 12.623h-4.16v2h4.16v-2zm-3.16 1V44.377h-2V58h2zm0-13.623c0-.394-.089-.877-.445-1.261-.369-.4-.858-.515-1.272-.515v2c.032 0 .017.004-.026-.011a.439.439 0 01-.17-.117c-.117-.125-.087-.22-.087-.096h2zm-1.717-1.776c-.404 0-.889.104-1.264.486-.371.38-.469.862-.469 1.26h2c0-.1.025.01-.103.14-.131.134-.249.114-.164.114v-2zm-1.733 1.747V58h2V44.348h-2zm1 12.652h-4.16v2h4.16v-2zm-3.16 1V40.993h-2V58h2zm-1-16.007h4.16v-2h-4.16v2zm3.16-1v.6h2v-.6h-2zm1.639 1.37c.322-.267.915-.487 1.954-.487v-2c-1.266 0-2.402.259-3.232.949l1.278 1.538zm1.954-.487c.668 0 1.305.256 1.938.873l1.397-1.432c-.949-.925-2.07-1.441-3.335-1.441v2zm3.362.846c.507-.535 1.225-.846 2.278-.846v-2c-1.487 0-2.771.46-3.729 1.469l1.451 1.377zm2.278-.846c.505 0 .987.15 1.466.481l1.139-1.644c-.79-.547-1.665-.837-2.605-.837v2zm1.475.487c.358.242.513.532.513.974h2c0-1.1-.48-2.013-1.392-2.63l-1.121 1.656zm.513.974V58h2V43.337h-2zM223.402 58v1h1v-1h-1zm-3.691 0h-1v1h1v-1zm0-.66h1l-1.886-.464.886.465zm-5.273-7.177l-.714-.7-.006.005.72.695zm3.339-2.124l-.45-.893-.003.002.453.891zm-.044-1.406l-.998.06.001.011.001.01.996-.081zm.059 1.084v1h1v-1h-1zm-4.028 0h-1v1h1v-1zm5.464 2.724h1v-1.274l-1.238.303.238.971zM223.402 57h-3.691v2h3.691v-2zm-2.691 1v-.66h-2V58h2zm-1.886-1.124c0 .001-.009.02-.053.052a1.007 1.007 0 01-.282.134c-.304.102-.776.172-1.46.172v2c.791 0 1.503-.078 2.093-.274.593-.198 1.156-.55 1.473-1.155l-1.771-.929zm-1.795.358c-1.035 0-1.627-.206-1.944-.454-.27-.211-.469-.552-.469-1.212h-2c0 1.118.37 2.11 1.238 2.788.82.64 1.935.878 3.175.878v-2zm-2.413-1.666v-3.413h-2v3.413h2zm0-3.413c0-.493.166-.91.54-1.297l-1.439-1.39c-.72.746-1.101 1.657-1.101 2.687h2zm.534-1.291c.431-.439 1.411-1.084 3.08-1.934l-.907-1.782c-1.671.85-2.918 1.62-3.6 2.314l1.427 1.402zm3.077-1.932c.508-.257.943-.514 1.266-.774.161-.13.327-.288.459-.475a1.41 1.41 0 00.275-.816h-2c0-.205.083-.325.092-.34.012-.016-.003.01-.084.075-.16.13-.45.312-.909.544l.901 1.786zm2-2.065v-2.52h-2v2.52h2zm0-2.52c0-.398-.083-.883-.422-1.278-.363-.422-.86-.556-1.296-.556v2c.025 0 .002.004-.048-.016a.438.438 0 01-.241-.24c-.001-.005.007.02.007.09h2zm-1.718-1.834c-.363 0-.709.119-.997.357-.269.223-.438.509-.546.778-.21.52-.278 1.185-.278 1.9h2c0-.64.069-.994.133-1.153.028-.07.031-.038-.034.015a.454.454 0 01-.278.103v-2zm-1.821 3.036c0 .276.017.662.046 1.145l1.997-.122c-.029-.474-.043-.81-.043-1.023h-2zm.048 1.165c.038.472.055.8.055 1.003h2c0-.286-.022-.68-.062-1.166l-1.993.163zm1.055.003h-4.028v2h4.028v-2zm-3.028 1v-3.399h-2v3.399h2zm0-3.399c0-.871.294-1.4.813-1.759.587-.405 1.591-.683 3.167-.683v-2c-1.744 0-3.23.296-4.304 1.038-1.14.788-1.676 1.98-1.676 3.404h2zm3.98-2.442c1.452 0 2.358.285 2.883.69.477.366.775.937.775 1.899h2c0-1.43-.477-2.654-1.554-3.484-1.027-.791-2.451-1.105-4.104-1.105v2zm3.658 2.589V58h2V44.465h-2zm-2.174 10.356v-4.38h-2v4.38h2zm-1.238-5.35c-.561.136-1.097.356-1.507.724a2.02 2.02 0 00-.691 1.535h2c0-.025.004-.026 0-.018-.003.007-.001-.003.027-.029.069-.061.25-.173.646-.27l-.475-1.943zm-2.198 2.26v3.09h2v-3.09h-2zm0 3.09c0 .404.097.892.466 1.276.377.391.868.5 1.281.5v-2c-.041 0-.035-.005.001.007.04.014.102.046.159.106.121.126.093.225.093.111h-2zm1.747 1.777c.417 0 .903-.123 1.265-.53.341-.386.424-.861.424-1.247h-2c0 .133-.032.045.079-.08a.475.475 0 01.181-.128c.051-.019.074-.015.051-.015v2zM235.575 58v1h1.45l-.515-1.355-.935.355zm-4.599 0l-.955.297.218.703h.737v-1zm-1.436-4.614l.955-.297-.985-3.167-.93 3.183.96.28zM228.192 58v1h.75l.21-.72-.96-.28zm-4.174 0l-.94-.341L222.59 59h1.428v-1zm3.266-8.994l.94.341.13-.357-.14-.353-.93.369zm-3.179-8.013v-1h-1.472l.543 1.369.929-.369zm4.41 0l.951-.307-.223-.693h-.728v1zm1.421 4.41l-.952.306 1.062 3.296.858-3.355-.968-.248zm1.127-4.41v-1h-.776l-.192.752.968.248zm3.97 0l.947.322.45-1.322h-1.397v1zm-2.798 8.218l-.946-.322-.116.34.128.337.934-.355zm3.34 7.789h-4.599v2h4.599v-2zm-3.645.703l-1.435-4.614-1.91.594 1.436 4.614 1.909-.594zm-3.35-4.598l-1.348 4.615 1.92.56 1.348-4.614-1.92-.56zM228.192 57h-4.174v2h4.174v-2zm-3.234 1.341l3.266-8.994-1.88-.683-3.266 8.995 1.88.682zm3.256-9.704l-3.179-8.013-1.859.738 3.179 8.013 1.859-.738zm-4.109-6.644h4.41v-2h-4.41v2zm3.458-.693l1.421 4.41 1.903-.614-1.421-4.41-1.903.614zm3.341 4.35l1.128-4.409-1.937-.496-1.128 4.41 1.937.495zm.159-3.657h3.97v-2h-3.97v2zm3.024-1.322l-2.798 8.218 1.893.644 2.798-8.218-1.893-.644zm-2.786 8.895l3.339 8.79 1.87-.711-3.34-8.79-1.869.711zM239.896 58v1h1v-1h-1zm-3.808 0h-1v1h1v-1zm0-3.062v-1h-1v1h1zm3.808 0h1v-1h-1v1zm0 2.062h-3.808v2h3.808v-2zm-2.808 1v-3.062h-2V58h2zm-1-2.062h3.808v-2h-3.808v2zm2.808-1V58h2v-3.062h-2zm17.817-14.94l.952.304.048-.149v-.156h-1zM250.941 58v1h.73l.223-.695-.953-.305zm-4.98 0l-.953-.304-.416 1.304h1.369v-1zm5.771-18.062l.953.305.417-1.305h-1.37v1zm-5.434 0h-1v1h1v-1zm0-2.944v-1h-1v1h1zm10.415 0h1v-1h-1v1zm-.952 2.698l-5.772 18.003 1.905.61 5.771-18.003-1.904-.61zM250.941 57h-4.98v2h4.98v-2zm-4.028 1.304l5.772-18.061-1.905-.609-5.772 18.062 1.905.608zm4.819-19.366h-5.434v2h5.434v-2zm-4.434 1v-2.944h-2v2.944h2zm-1-1.944h10.415v-2h-10.415v2zm9.415-1v3.003h2v-3.003h-2zm10.932 20.2l-.551-.834-.004.002.555.832zm-7.779.015l-.553.833.004.003.549-.836zm-.479-2.798v-13.52h-2v13.52h2zm0-13.52c0-1.12.357-1.813.959-2.266.657-.494 1.76-.821 3.475-.821v-2c-1.908 0-3.521.353-4.677 1.222-1.209.91-1.757 2.26-1.757 3.865h2zm4.434-3.087c1.679 0 2.755.324 3.394.81.587.447.938 1.133.938 2.247h2c0-1.59-.537-2.933-1.727-3.839-1.139-.866-2.729-1.218-4.605-1.218v2zm4.332 3.057v13.52h2v-13.52h-2zm0 13.52c0 .878-.336 1.5-1.059 1.979l1.101 1.669c1.288-.85 1.958-2.102 1.958-3.647h-2zm-1.063 1.981c-.788.525-1.862.828-3.298.828v2c1.709 0 3.203-.36 4.407-1.164l-1.109-1.664zm-3.298.828c-1.494 0-2.593-.302-3.377-.817l-1.098 1.672c1.208.793 2.727 1.145 4.475 1.145v-2zm-3.373-.814c-.699-.464-1.032-1.08-1.032-1.965h-2c0 1.537.653 2.787 1.926 3.631l1.106-1.666zm5.12-1.745V40.319h-2v14.312h2zm0-14.312c0-.413-.13-.89-.542-1.237-.379-.32-.84-.392-1.205-.392v2c.133 0 .046.031-.084-.079a.517.517 0 01-.146-.2c-.024-.062-.023-.1-.023-.092h2zm-1.747-1.63c-.37 0-.832.07-1.216.376-.428.34-.575.822-.575 1.254h2c0-.002 0 .043-.028.11a.514.514 0 01-.151.2.354.354 0 01-.12.066c-.004.002.021-.005.09-.005v-2zm-1.791 1.63v14.312h2V40.319h-2zm0 14.312c0 .432.147.914.575 1.255.384.306.846.375 1.216.375v-2c-.069 0-.094-.007-.09-.006a.354.354 0 01.12.066c.067.054.12.125.151.2.028.068.028.112.028.11h-2zm1.791 1.63c.365 0 .826-.074 1.205-.393.412-.347.542-.824.542-1.237h-2c0 .008-.001-.03.023-.092a.518.518 0 01.146-.2c.13-.11.217-.078.084-.078v2zm15.513.933l-.551-.834-.004.002.555.832zm-7.779.015l-.552.833.003.003.549-.836zm-.479-2.798v-13.52h-2v13.52h2zm0-13.52c0-1.12.357-1.813.96-2.266.656-.494 1.76-.821 3.474-.821v-2c-1.908 0-3.521.353-4.677 1.222-1.208.91-1.757 2.26-1.757 3.865h2zm4.434-3.087c1.679 0 2.755.324 3.394.81.587.447.938 1.133.938 2.247h2c0-1.59-.536-2.933-1.727-3.839-1.139-.866-2.729-1.218-4.605-1.218v2zm4.332 3.057v13.52h2v-13.52h-2zm0 13.52c0 .878-.335 1.5-1.059 1.979l1.102 1.669c1.287-.85 1.957-2.102 1.957-3.647h-2zm-1.063 1.981c-.788.525-1.862.828-3.298.828v2c1.709 0 3.203-.36 4.407-1.164l-1.109-1.664zm-3.298.828c-1.494 0-2.593-.302-3.377-.817l-1.098 1.672c1.209.793 2.727 1.145 4.475 1.145v-2zm-3.373-.814c-.699-.464-1.032-1.08-1.032-1.965h-2c0 1.537.653 2.787 1.927 3.631l1.105-1.666zm5.12-1.745V40.319h-2v14.312h2zm0-14.312c0-.413-.13-.89-.542-1.237-.379-.32-.839-.392-1.205-.392v2c.133 0 .046.031-.084-.079a.513.513 0 01-.145-.2c-.025-.062-.024-.1-.024-.092h2zm-1.747-1.63c-.37 0-.832.07-1.216.376-.428.34-.575.822-.575 1.254h2c0-.002.001.043-.028.11a.514.514 0 01-.151.2c-.063.05-.113.065-.119.066-.005.002.02-.005.089-.005v-2zm-1.791 1.63v14.312h2V40.319h-2zm0 14.312c0 .432.147.914.575 1.255.384.306.846.375 1.216.375v-2c-.069 0-.094-.007-.089-.006.006.002.056.016.119.066.067.054.12.125.151.2.029.068.028.112.028.11h-2zm1.791 1.63c.366 0 .826-.074 1.205-.393.412-.347.542-.824.542-1.237h-2c0 .008-.001-.03.024-.092a.515.515 0 01.145-.2c.13-.11.217-.078.084-.078v2zm15.513.933l-.551-.834-.004.002.555.832zm-7.778.015l-.553.833.004.003.549-.836zm-.48-2.798v-13.52h-2v13.52h2zm0-13.52c0-1.12.357-1.813.96-2.266.656-.494 1.76-.821 3.475-.821v-2c-1.909 0-3.522.353-4.677 1.222-1.209.91-1.758 2.26-1.758 3.865h2zm4.435-3.087c1.678 0 2.755.324 3.393.81.587.447.939 1.133.939 2.247h2c0-1.59-.537-2.933-1.728-3.839-1.139-.866-2.729-1.218-4.604-1.218v2zm4.332 3.057v13.52h2v-13.52h-2zm0 13.52c0 .878-.336 1.5-1.06 1.979l1.102 1.669c1.288-.85 1.958-2.102 1.958-3.647h-2zm-1.064 1.981c-.787.525-1.862.828-3.298.828v2c1.709 0 3.203-.36 4.408-1.164l-1.11-1.664zm-3.298.828c-1.494 0-2.592-.302-3.376-.817l-1.098 1.672c1.208.793 2.726 1.145 4.474 1.145v-2zm-3.373-.814c-.699-.464-1.032-1.08-1.032-1.965h-2c0 1.537.653 2.787 1.927 3.631l1.105-1.666zm5.12-1.745V40.319h-2v14.312h2zm0-14.312c0-.413-.13-.89-.542-1.237-.379-.32-.839-.392-1.205-.392v2c.133 0 .046.031-.084-.079a.513.513 0 01-.145-.2c-.025-.062-.024-.1-.024-.092h2zm-1.747-1.63c-.369 0-.832.07-1.216.376-.428.34-.575.822-.575 1.254h2c0-.002.001.043-.028.11a.514.514 0 01-.151.2c-.063.05-.113.065-.119.066-.005.002.021-.005.089-.005v-2zm-1.791 1.63v14.312h2V40.319h-2zm0 14.312c0 .432.147.914.575 1.255.384.306.847.375 1.216.375v-2c-.068 0-.094-.007-.089-.006.006.002.056.016.119.066.067.054.12.125.151.2.029.068.028.112.028.11h-2zm1.791 1.63c.366 0 .826-.074 1.205-.393.412-.347.542-.824.542-1.237h-2c0 .008-.001-.03.024-.092a.515.515 0 01.145-.2c.13-.11.217-.078.084-.078v2zM309.418 58v1h1.508l-.587-1.39-.921.39zm-4.907 0l-.923.385.256.615h.667v-1zm-2.564-6.152l.923-.385-1.923.385h1zm0 6.152v1h1v-1h-1zm-4.16 0h-1v1h1v-1zm0-21.006v-1h-1v1h1zm4.16 0h1v-1h-1v1zm0 9.42h-1l1.93.366-.93-.367zm2.139-5.42v-1h-.681l-.249.632.93.367zm4.321 0l.926.377.562-1.378h-1.488v1zm-3.032 7.44l-.926-.377-.157.385.162.382.921-.39zM309.418 57h-4.907v2h4.907v-2zm-3.984.615l-2.564-6.152-1.846.77 2.564 6.152 1.846-.77zm-4.487-5.767V58h2v-6.152h-2zm1 5.152h-4.16v2h4.16v-2zm-3.16 1V36.994h-2V58h2zm-1-20.006h4.16v-2h-4.16v2zm3.16-1v9.42h2v-9.42h-2zm1.93 9.786l2.139-5.42-1.86-.734-2.139 5.42 1.86.734zm1.209-4.787h4.321v-2h-4.321v2zm3.395-1.377l-3.032 7.441 1.852.755 3.032-7.441-1.852-.755zm-3.027 8.208l4.043 9.565 1.842-.778-4.043-9.566-1.842.779zm6.341 12.78h-1v1h1v-1zm0-2.461v-1h-1v1h1zm4.863-1.538h1v-2.03l-1.609 1.236.609.794zm-4.717-.015l-.593.805.007.005.008.005.578-.815zm4.747-15.967l-.462.887.703.366.517-.6-.758-.653zm.541-.63v-1h-.458l-.3.348.758.652zm3.589 0h1v-1h-1v1zm-.659 19.512l-.854-.52-.004.007-.004.007.862.506zm-7.364 1.098v-2.46h-2v2.46h2zm-1-1.46h3.384v-2h-3.384v2zm3.384 0c.657 0 1.331-.173 1.83-.692.492-.51.649-1.19.649-1.846h-2c0 .368-.089.458-.09.46-.004.003-.018.019-.069.037-.057.02-.157.04-.32.04v2zm.87-3.332c-.287.22-.878.423-1.969.423v2c1.253 0 2.38-.217 3.187-.836l-1.218-1.587zm-1.969.423c-.636 0-1.141-.163-1.56-.46l-1.157 1.631c.792.563 1.712.83 2.717.83v-2zm-1.545-.449c-.356-.262-.487-.543-.487-.909h-2c0 1.04.464 1.902 1.3 2.519l1.187-1.61zm-.487-.909V43.659h-2v12.217h2zm0-12.217c0-.722.207-1.098.473-1.32.3-.252.859-.463 1.852-.463v-2c-1.223 0-2.327.252-3.136.929-.842.705-1.189 1.72-1.189 2.854h2zm2.325-1.783c.341 0 .937.158 1.853.634l.923-1.774c-.998-.52-1.945-.86-2.776-.86v2zm3.073.4l.542-.63-1.517-1.305-.542.63 1.517 1.304zm-.217-.283h3.589v-2h-3.589v2zm2.589-1v16.773h2V40.993h-2zm0 16.773c0 .974-.194 1.694-.513 2.22l1.709 1.039c.559-.92.804-2.027.804-3.26h-2zm-.521 2.233c-.019.032-.157.208-.733.365-.552.15-1.356.24-2.448.24v2c1.174 0 2.177-.094 2.972-.31.772-.21 1.523-.583 1.934-1.283l-1.725-1.012zm-3.181.604h-4.321v2h4.321v-2zm1.542-5.635V44.289h-2v10.679h2zm0-10.679c0-.394-.089-.876-.445-1.261-.369-.4-.858-.515-1.273-.515v2c.033 0 .018.004-.025-.011a.448.448 0 01-.171-.116c-.116-.126-.086-.22-.086-.097h2zm-1.718-1.776c-.413 0-.903.112-1.276.508-.363.384-.456.87-.456 1.268h2c0-.119.029-.022-.089.104a.432.432 0 01-.166.111c-.039.014-.049.009-.013.009v-2zm-1.732 1.776v10.65h2v-10.65h-2zm0 10.65c0 .398.093.883.456 1.268.373.395.863.508 1.276.508v-2c-.036 0-.026-.005.013.008.045.016.108.05.166.111.118.126.089.223.089.104h-2zm1.732 1.776c.404 0 .888-.107 1.26-.494.364-.38.458-.86.458-1.253h-2c0 .104-.026-.003.1-.133.132-.138.257-.12.182-.12v2z"/>
  </g>
  <g filter="url(#filter1_d)">
    <path fill="#FFFF38" d="M105.222 66V2.982h16.303c3.897 0 7.281.894 10.152 2.681 2.871 1.758 4.306 4.585 4.306 8.482v8.745c0 4.424-2.695 7.544-8.086 9.36 5.684 1.406 8.526 4.438 8.526 9.097v12.216c0 4.16-1.362 7.28-4.087 9.36-2.695 2.052-5.918 3.077-9.668 3.077h-17.446zm17.71-40.87V14.409c0-2.197-1.289-3.296-3.868-3.296v17.359c2.579 0 3.868-1.114 3.868-3.34zm0 29.444V38.622c0-2.197-1.289-3.296-3.868-3.296v22.588c2.579 0 3.868-1.113 3.868-3.34zM166.481 66h-27.07V2.982h26.895v8.13h-13.052V28.12h11.777v7.647h-11.777v22.148h13.227V66z"/>
    <path fill="#000" d="M105.222 66h-2v2h2v-2zm0-63.018v-2h-2v2h2zm26.455 2.681l-1.057 1.698.006.004.006.004 1.045-1.706zm-3.78 26.587l-.638-1.895-6.499 2.19 6.657 1.646.48-1.941zm4.439 30.674l1.211 1.592.003-.003-1.214-1.59zm-13.272-51.812v-2h-2v2h2zm0 17.359h-2v2h2v-2zm0 6.855v-2h-2v2h2zm0 22.588h-2v2h2v-2zM107.222 66V2.982h-4V66h4zm-2-61.018h16.303v-4h-16.303v4zm16.303 0c3.581 0 6.587.818 9.095 2.379l2.114-3.396c-3.235-2.013-6.997-2.983-11.209-2.983v4zm9.107 2.387c2.175 1.331 3.351 3.446 3.351 6.776h4c0-4.464-1.695-8.003-5.262-10.188l-2.089 3.412zm3.351 6.776v8.745h4v-8.745h-4zm0 8.745c0 1.77-.525 3.181-1.535 4.35-1.041 1.206-2.71 2.28-5.189 3.115l1.277 3.79c2.911-.98 5.286-2.375 6.939-4.29 1.686-1.951 2.508-4.311 2.508-6.965h-4zm-6.566 11.301c2.614.647 4.346 1.614 5.415 2.755 1.031 1.1 1.591 2.513 1.591 4.4h4c0-2.77-.861-5.202-2.672-7.135-1.772-1.89-4.303-3.143-7.373-3.902l-.961 3.882zm7.006 7.156v12.216h4V41.347h-4zm0 12.216c0 3.686-1.179 6.151-3.301 7.771l2.428 3.18c3.327-2.54 4.873-6.316 4.873-10.95h-4zm-3.298 7.77C128.815 63.09 126.03 64 122.668 64v4c4.138 0 7.798-1.14 10.879-3.484l-2.422-3.184zM122.668 64h-17.446v4h17.446v-4zm2.264-38.87V14.409h-4v10.723h4zm0-10.722c0-1.498-.455-2.958-1.67-3.994-1.154-.983-2.671-1.302-4.198-1.302v4c1.052 0 1.468.231 1.604.346.074.063.264.25.264.95h4zm-7.868-3.296v17.359h4V11.112h-4zm2 19.359c1.532 0 3.054-.325 4.208-1.322 1.211-1.045 1.66-2.514 1.66-4.018h-4c0 .722-.196.923-.274.991-.135.116-.547.349-1.594.349v4zm5.868 24.103V38.622h-4v15.952h4zm0-15.952c0-1.498-.455-2.958-1.67-3.994-1.154-.983-2.671-1.302-4.198-1.302v4c1.052 0 1.468.231 1.604.346.074.063.264.25.264.95h4zm-7.868-3.296v22.588h4V35.326h-4zm2 24.588c1.532 0 3.054-.324 4.208-1.321 1.211-1.046 1.66-2.515 1.66-4.019h-4c0 .723-.196.924-.274.992-.135.116-.547.348-1.594.348v4zM166.481 66v2h2v-2h-2zm-27.07 0h-2v2h2v-2zm0-63.018v-2h-2v2h2zm26.895 0h2v-2h-2v2zm0 8.13v2h2v-2h-2zm-13.052 0v-2h-2v2h2zm0 17.007h-2v2h2v-2zm11.777 0h2v-2h-2v2zm0 7.647v2h2v-2h-2zm-11.777 0v-2h-2v2h2zm0 22.148h-2v2h2v-2zm13.227 0h2v-2h-2v2zm0 6.086h-27.07v4h27.07v-4zm-25.07 2V2.982h-4V66h4zm-2-61.018h26.895v-4h-26.895v4zm24.895-2v8.13h4v-8.13h-4zm2 6.13h-13.052v4h13.052v-4zm-15.052 2V28.12h4V11.112h-4zm2 19.007h11.777v-4h-11.777v4zm9.777-2v7.647h4v-7.647h-4zm2 5.647h-11.777v4h11.777v-4zm-13.777 2v22.148h4V35.766h-4zm2 24.148h13.227v-4h-13.227v4zm11.227-2V66h4v-8.086h-4z"/>
  </g>
  <defs>
    <filter id="filter0_d" width="132.607" height="34.8" x="192.211" y="35.804" color-interpolation-filters="sRGB" filterUnits="userSpaceOnUse">
      <feFlood flood-opacity="0" result="BackgroundImageFix"/>
      <feColorMatrix in="SourceAlpha" result="hardAlpha" values="0 0 0 0 0 0 0 0 0 0 0 0 0 0 0 0 0 0 127 0"/>
      <feOffset dy="4"/>
      <feGaussianBlur stdDeviation="2"/>
      <feColorMatrix values="0 0 0 0 0 0 0 0 0 0 0 0 0 0 0 0 0 0 0.25 0"/>
      <feBlend in2="BackgroundImageFix" result="effect1_dropShadow"/>
      <feBlend in="SourceGraphic" in2="effect1_dropShadow" result="shape"/>
    </filter>
    <filter id="filter1_d" width="73.26" height="75.018" x="99.222" y=".982" color-interpolation-filters="sRGB" filterUnits="userSpaceOnUse">
      <feFlood flood-opacity="0" result="BackgroundImageFix"/>
      <feColorMatrix in="SourceAlpha" result="hardAlpha" values="0 0 0 0 0 0 0 0 0 0 0 0 0 0 0 0 0 0 127 0"/>
      <feOffset dy="4"/>
      <feGaussianBlur stdDeviation="2"/>
      <feColorMatrix values="0 0 0 0 0 0 0 0 0 0 0 0 0 0 0 0 0 0 0.25 0"/>
      <feBlend in2="BackgroundImageFix" result="effect1_dropShadow"/>
      <feBlend in="SourceGraphic" in2="effect1_dropShadow" result="shape"/>
    </filter>
  </defs>
</svg>
