<svg xmlns="http://www.w3.org/2000/svg" width="270" height="55" fill="none" viewBox="0 0 270 55">
  <g clip-path="url(#clip0_611_350)">
    <path fill="#FFFF34" d="M54.64 35.7h-5.65v-5.56c0-.46-.29-.69-.87-.69-.6 0-.9.23-.9.69v19.52c0 .46.3.69.9.69.58 0 .87-.23.87-.69v-6.98h5.65v7.18c0 1.34-.66 2.42-1.98 3.23-1.31.81-2.8 1.21-4.46 1.21-4.8 0-7.2-1.69-7.2-5.07V31.06c0-3.65 2.4-5.48 7.2-5.48 4.29 0 6.44 1.66 6.44 5v5.12zM57.38 49.23V31.06c0-3.65 2.36-5.48 7.1-5.48 4.68 0 7.02 1.81 7.02 5.44v18.17c0 1.64-.66 2.9-1.96 3.79-1.3.88-3 1.32-5.09 1.32-4.71 0-7.07-1.69-7.07-5.07zm8.06.27V30.3c0-.57-.33-.85-.98-.85-.69 0-1.03.28-1.03.85v19.2c0 .57.34.85 1.03.85.65 0 .98-.28.98-.85zM74.18 54.06V25.82h7.73c1.68 0 3.18.46 4.5 1.37 1.31.91 1.97 2.31 1.97 4.2v17.1c0 1.76-.61 3.12-1.84 4.11-1.23.97-2.76 1.46-4.59 1.46h-7.77zm7.99-5.13v-18c0-.99-.6-1.48-1.78-1.48v20.98c1.18 0 1.78-.5 1.78-1.5zM91.47 33.37h10.6v12.57c0 1.08.57 1.62 1.74 1.62 1.14 0 1.72-.54 1.72-1.61V31.29c-.78.82-2.22 1.24-4.34 1.24-2.86 0-5.2-.7-7.01-2.09-1.8-1.39-2.71-3.32-2.71-5.79V13.16c0-2.88 1.13-5.08 3.39-6.63 2.27-1.54 5.23-2.32 8.89-2.32 3.69 0 6.68.77 8.95 2.31 2.27 1.54 3.42 3.73 3.42 6.58v31.82c0 6.38-4.15 9.56-12.44 9.56-8.13 0-12.21-3.17-12.21-9.52V33.37zm14.06-9.02V12.59c0-1.07-.58-1.6-1.72-1.6-1.17 0-1.74.53-1.74 1.6v11.76c0 1.07.57 1.61 1.74 1.61 1.14 0 1.72-.54 1.72-1.61zM145.31 18.76h-10.59l.21-3.97c0-2.53-.66-3.8-1.99-3.8-1.21 0-1.82.54-1.82 1.61v9.62c.8-1.09 2.53-1.63 5.16-1.63 2.63 0 4.78.66 6.48 1.97 1.7 1.3 2.55 3.09 2.55 5.36v17.62c0 2.86-1.14 5.07-3.42 6.63-2.3 1.54-5.28 2.31-8.95 2.31-8.27 0-12.41-2.96-12.41-8.88V13.81c0-6.4 4.15-9.6 12.47-9.6 8.2 0 12.31 3.18 12.31 9.55v5zm-10.59 27.19V29.87c0-1.1-.59-1.65-1.78-1.65-1.21 0-1.82.55-1.82 1.65v16.08c0 1.07.61 1.61 1.82 1.61 1.19 0 1.78-.54 1.78-1.61z"/>
    <path stroke="#000" stroke-miterlimit="22.926" stroke-width="1.25" d="M54.64 35.7h-5.65v-5.56c0-.46-.29-.69-.87-.69-.6 0-.9.23-.9.69v19.52c0 .46.3.69.9.69.58 0 .87-.23.87-.69v-6.98h5.65v7.18c0 1.34-.66 2.42-1.98 3.23-1.31.81-2.8 1.21-4.46 1.21-4.8 0-7.2-1.69-7.2-5.07V31.06c0-3.65 2.4-5.48 7.2-5.48 4.29 0 6.44 1.66 6.44 5v5.12zM57.38 49.23V31.06c0-3.65 2.36-5.48 7.1-5.48 4.68 0 7.02 1.81 7.02 5.44v18.17c0 1.64-.66 2.9-1.96 3.79-1.3.88-3 1.32-5.09 1.32-4.71 0-7.07-1.69-7.07-5.07v0zm8.06.27V30.3c0-.57-.33-.85-.98-.85-.69 0-1.03.28-1.03.85v19.2c0 .57.34.85 1.03.85.65 0 .98-.28.98-.85zM74.18 54.06V25.82h7.73c1.68 0 3.18.46 4.5 1.37 1.31.91 1.97 2.31 1.97 4.2v17.1c0 1.76-.61 3.12-1.84 4.11-1.23.97-2.76 1.46-4.59 1.46h-7.77v0zm7.99-5.13v-18c0-.99-.6-1.48-1.78-1.48v20.98c1.18 0 1.78-.5 1.78-1.5z"/>
    <path stroke="#000" stroke-miterlimit="22.926" stroke-width="2.08" d="M91.47 33.37h10.6v12.57c0 1.08.57 1.62 1.74 1.62 1.14 0 1.72-.54 1.72-1.61V31.29c-.78.82-2.22 1.24-4.34 1.24-2.86 0-5.2-.7-7.01-2.09-1.8-1.39-2.71-3.32-2.71-5.79V13.16c0-2.88 1.13-5.08 3.39-6.63 2.27-1.54 5.23-2.32 8.89-2.32 3.69 0 6.68.77 8.95 2.31 2.27 1.54 3.42 3.73 3.42 6.58v31.82c0 6.38-4.15 9.56-12.44 9.56-8.13 0-12.21-3.17-12.21-9.52V33.37v0zm14.06-9.02V12.59c0-1.07-.58-1.6-1.72-1.6-1.17 0-1.74.53-1.74 1.6v11.76c0 1.07.57 1.61 1.74 1.61 1.14 0 1.72-.54 1.72-1.61zM145.31 18.76h-10.59l.21-3.97c0-2.53-.66-3.8-1.99-3.8-1.21 0-1.82.54-1.82 1.61v9.62c.8-1.09 2.53-1.63 5.16-1.63 2.63 0 4.78.66 6.48 1.97 1.7 1.3 2.55 3.09 2.55 5.36v17.62c0 2.86-1.14 5.07-3.42 6.63-2.3 1.54-5.28 2.31-8.95 2.31-8.27 0-12.41-2.96-12.41-8.88V13.81c0-6.4 4.15-9.6 12.47-9.6 8.2 0 12.31 3.18 12.31 9.55v5zm-10.59 27.19V29.87c0-1.1-.59-1.65-1.78-1.65-1.21 0-1.82.55-1.82 1.65v16.08c0 1.07.61 1.61 1.82 1.61 1.19 0 1.78-.54 1.78-1.61z"/>
    <path fill="#FFFF34" d="M171.39 23.7h-4.8V8.07c0-.59-.27-.89-.82-.89-.55 0-.84.28-.84.85V23.7h-4.79V8c0-.59-.27-.89-.82-.89-.56 0-.84.29-.84.86V23.7h-4.79V4.14h4.79v.69c.66-.55 1.66-.83 2.98-.83 1.12 0 2.13.45 3.04 1.34.84-.89 1.99-1.34 3.45-1.34.83 0 1.61.25 2.34.75.73.5 1.1 1.2 1.1 2.08V23.7zM185.03 23.7h-4.24v-.76c-.36.69-1.39 1.04-3.08 1.04-2.62 0-3.93-1.02-3.93-3.07v-3.93c0-.87.32-1.64.96-2.29.63-.65 1.91-1.47 3.83-2.45 1.11-.56 1.66-1.01 1.66-1.34V8c0-.64-.27-.96-.82-.96-.64 0-.95.78-.95 2.34 0 .28.01.7.05 1.25s.07.96.07 1.25h-4.62V7.96c0-2.63 1.9-3.96 5.72-3.96 3.57 0 5.35 1.38 5.35 4.13V23.7zm-4.8-3.65v-5.04c-1.1.27-1.65.76-1.65 1.48v3.56c0 .59.29.89.86.89.53 0 .79-.3.79-.89zM200.23 23.7h-5.29l-1.65-5.3-1.55 5.3h-4.8l3.76-10.34-3.65-9.22h5.06l1.64 5.07 1.3-5.07h4.56l-3.22 9.45 3.84 10.11zM206.46 23.7h-4.38v-3.52h4.38v3.52zM168.21 47.51h-2.62v3.11h-5.17v-3.11h-7.18v-3.42l5.2-17.62h7.15v17.42h2.62v3.62zm-7.79-3.62v-9.51l-2.41 9.51h2.41zM182.1 50.62h-12.11v-3.21l5.96-10.94c.65-1.18.98-2.81.98-4.87 0-1.07-.36-1.61-1.07-1.61-.74 0-1.1.33-1.1 1v4.14h-4.77v-4.21c0-3.11 2-4.66 6-4.66 2.47 0 4.11.57 4.91 1.71.8 1.14 1.2 3 1.2 5.61 0 1.02-.17 1.86-.52 2.52l-5.96 11.41h6.48v3.11zM196.44 26.47l-.83 3.65h-6.01l-.23 4.97c.53-.53 1.45-.79 2.76-.79 2.78 0 4.17 1.19 4.17 3.58v8.57c0 1.39-.55 2.46-1.66 3.23-1.11.76-2.57 1.14-4.38 1.14-4.04 0-6.06-1.45-6.06-4.35v-6.02h5.17v6.2c0 .53.3.79.89.79.58 0 .87-.26.87-.78v-8.02c0-.57-.32-.86-.97-.86-.6 0-.9.5-.93 1.49l-4.97-.14.28-12.66h11.9zM198.5 46.48V30.95c0-3.13 2.06-4.69 6.2-4.69 4.05 0 6.08 1.55 6.08 4.66v15.53c0 1.39-.57 2.46-1.71 3.23-1.14.76-2.61 1.14-4.41 1.14-1.84 0-3.33-.37-4.46-1.12-1.14-.76-1.7-1.83-1.7-3.22zm6.97.24V30.3c0-.49-.27-.73-.81-.73-.56 0-.85.24-.85.73v16.42c0 .48.29.72.85.72.54 0 .81-.24.81-.72zM231.43 50.62h-5.66l-2.9-7.04v7.04h-4.8V26.47h4.8v10.84l2.43-6.25h4.95l-3.45 8.56 4.63 11zM234.25 54.76v-2.87h3.88c1.14 0 1.71-.57 1.71-1.72-.63.48-1.62.72-2.97.72-.94 0-1.76-.24-2.45-.74-.69-.51-1.04-1.16-1.04-1.97V34.12c0-2.13 1.28-3.2 3.83-3.2.67 0 1.56.29 2.66.86l.63-.72h4.13v19.28c0 1.27-.25 2.32-.75 3.16-.5.84-2.05 1.26-4.66 1.26h-4.97zm5.59-7.59V34.85c0-.6-.27-.9-.82-.9-.56 0-.84.3-.84.9v12.28c0 .6.28.9.84.9.55 0 .82-.29.82-.86z"/>
    <path stroke="#000" stroke-miterlimit="22.926" stroke-width="1.25" d="M171.39 23.7h-4.8V8.07c0-.59-.27-.89-.82-.89-.55 0-.84.28-.84.85V23.7h-4.79V8c0-.59-.27-.89-.82-.89-.56 0-.84.29-.84.86V23.7h-4.79V4.14h4.79v.69c.66-.55 1.66-.83 2.98-.83 1.12 0 2.13.45 3.04 1.34.84-.89 1.99-1.34 3.45-1.34.83 0 1.61.25 2.34.75.73.5 1.1 1.2 1.1 2.08V23.7zM185.03 23.7h-4.24v-.76c-.36.69-1.39 1.04-3.08 1.04-2.62 0-3.93-1.02-3.93-3.07v-3.93c0-.87.32-1.64.96-2.29.63-.65 1.91-1.47 3.83-2.45 1.11-.56 1.66-1.01 1.66-1.34V8c0-.64-.27-.96-.82-.96-.64 0-.95.78-.95 2.34 0 .28.01.7.05 1.25s.07.96.07 1.25h-4.62V7.96c0-2.63 1.9-3.96 5.72-3.96 3.57 0 5.35 1.38 5.35 4.13V23.7zm-4.8-3.65v-5.04c-1.1.27-1.65.76-1.65 1.48v3.56c0 .59.29.89.86.89.53 0 .79-.3.79-.89zM200.23 23.7h-5.29l-1.65-5.3-1.55 5.3h-4.8l3.76-10.34-3.65-9.22h5.06l1.64 5.07 1.3-5.07h4.56l-3.22 9.45 3.84 10.11zM206.46 23.7h-4.38v-3.52h4.38v3.52zM168.21 47.51h-2.62v3.11h-5.17v-3.11h-7.18v-3.42l5.2-17.62h7.15v17.42h2.62v3.62zm-7.79-3.62v-9.51l-2.41 9.51h2.41zM182.1 50.62h-12.11v-3.21l5.96-10.94c.65-1.18.98-2.81.98-4.87 0-1.07-.36-1.61-1.07-1.61-.74 0-1.1.33-1.1 1v4.14h-4.77v-4.21c0-3.11 2-4.66 6-4.66 2.47 0 4.11.57 4.91 1.71.8 1.14 1.2 3 1.2 5.61 0 1.02-.17 1.86-.52 2.52l-5.96 11.41h6.48v3.11zM196.44 26.47l-.83 3.65h-6.01l-.23 4.97c.53-.53 1.45-.79 2.76-.79 2.78 0 4.17 1.19 4.17 3.58v8.57c0 1.39-.55 2.46-1.66 3.23-1.11.76-2.57 1.14-4.38 1.14-4.04 0-6.06-1.45-6.06-4.35v-6.02h5.17v6.2c0 .53.3.79.89.79.58 0 .87-.26.87-.78v-8.02c0-.57-.32-.86-.97-.86-.6 0-.9.5-.93 1.49l-4.97-.14.28-12.66h11.9v0zM198.5 46.48V30.95c0-3.13 2.06-4.69 6.2-4.69 4.05 0 6.08 1.55 6.08 4.66v15.53c0 1.39-.57 2.46-1.71 3.23-1.14.76-2.61 1.14-4.41 1.14-1.84 0-3.33-.37-4.46-1.12-1.14-.76-1.7-1.83-1.7-3.22zm6.97.24V30.3c0-.49-.27-.73-.81-.73-.56 0-.85.24-.85.73v16.42c0 .48.29.72.85.72.54 0 .81-.24.81-.72zM231.43 50.62h-5.66l-2.9-7.04v7.04h-4.8V26.47h4.8v10.84l2.43-6.25h4.95l-3.45 8.56 4.63 11zM234.25 54.76v-2.87h3.88c1.14 0 1.71-.57 1.71-1.72-.63.48-1.62.72-2.97.72-.94 0-1.76-.24-2.45-.74-.69-.51-1.04-1.16-1.04-1.97V34.12c0-2.13 1.28-3.2 3.83-3.2.67 0 1.56.29 2.66.86l.63-.72h4.13v19.28c0 1.27-.25 2.32-.75 3.16-.5.84-2.05 1.26-4.66 1.26h-4.97v0zm5.59-7.59V34.85c0-.6-.27-.9-.82-.9-.56 0-.84.3-.84.9v12.28c0 .6.28.9.84.9.55 0 .82-.29.82-.86z"/>
  </g>
  <defs>
    <clipPath id="clip0_611_350">
      <path fill="#fff" d="M0 0h270v55H0z"/>
    </clipPath>
  </defs>
</svg>
