<svg xmlns="http://www.w3.org/2000/svg" width="270" height="55" fill="none" viewBox="0 0 270 55">
  <g clip-path="url(#clip0_611_308)">
    <path fill="#FFFF34" d="M42 54.86V6h12.65c3.03 0 5.66.68 7.88 2.06 2.24 1.37 3.35 3.57 3.35 6.58v6.78c0 3.44-2.09 5.85-6.27 7.25 4.41 1.1 6.61 3.45 6.61 7.06v9.49c0 3.22-1.05 5.64-3.15 7.23-2.11 1.61-4.62 2.41-7.53 2.41H42zm13.75-31.7v-8.32c0-1.71-1-2.56-3-2.56v13.47c2 0 3-.86 3-2.59zm0 22.82V33.62c0-1.71-1-2.56-3-2.56v17.52c2 0 3-.86 3-2.6z"/>
    <path stroke="#000" stroke-miterlimit="22.926" stroke-width="2.08" d="M42 54.86V6h12.65c3.03 0 5.66.68 7.88 2.06 2.24 1.37 3.35 3.57 3.35 6.58v6.78c0 3.44-2.09 5.85-6.27 7.25 4.41 1.1 6.61 3.45 6.61 7.06v9.49c0 3.22-1.05 5.64-3.15 7.23-2.11 1.61-4.62 2.41-7.53 2.41H42zm13.75-31.7v-8.32c0-1.71-1-2.56-3-2.56v13.47c2 0 3-.86 3-2.59zm0 22.82V33.62c0-1.71-1-2.56-3-2.56v17.52c2 0 3-.86 3-2.6z"/>
    <path fill="#FFFF34" d="M87.47 51.79h-6.15l-3.15-7.64v7.64h-5.22V25.54h5.22v11.78l2.64-6.79h5.38l-3.76 9.3 5.04 11.96zM100.6 51.79h-4.61v-.83c-.39.75-1.51 1.13-3.35 1.13-2.84 0-4.27-1.11-4.27-3.34v-4.27c0-.95.35-1.78 1.04-2.49.69-.71 2.07-1.59 4.16-2.66 1.21-.61 1.81-1.1 1.81-1.46v-3.15c0-.69-.3-1.04-.9-1.04-.68 0-1.02.85-1.02 2.54 0 .31.01.76.05 1.36.05.6.07 1.05.07 1.35h-5.02v-4.25c0-2.86 2.07-4.3 6.22-4.3 3.88 0 5.82 1.49 5.82 4.49v16.92zm-5.22-3.97v-5.48c-1.2.29-1.8.83-1.8 1.61v3.87c0 .64.32.97.94.97.58 0 .86-.33.86-.97zM112.14 51.79h-3.29c-2.35 0-3.77-.36-4.23-1.06-.46-.72-.69-2.08-.69-4.1V33.64h-2.33v-3.11h2.33v-4.28h5.21v4.28h2.82v3.11h-2.82v12.97c0 .62.19 1.04.56 1.26.37.21 1.18.32 2.44.32v3.6zM117.87 51.79h-4.76v-3.83h4.76v3.83z"/>
    <path stroke="#000" stroke-miterlimit="22.926" stroke-width="1.25" d="M87.47 51.79h-6.15l-3.15-7.64v7.64h-5.22V25.54h5.22v11.78l2.64-6.79h5.38l-3.76 9.3 5.04 11.96zM100.6 51.79h-4.61v-.83c-.39.75-1.51 1.13-3.35 1.13-2.84 0-4.27-1.11-4.27-3.34v-4.27c0-.95.35-1.78 1.04-2.49.69-.71 2.07-1.59 4.16-2.66 1.21-.61 1.81-1.1 1.81-1.46v-3.15c0-.69-.3-1.04-.9-1.04-.68 0-1.02.85-1.02 2.54 0 .31.01.76.05 1.36.05.6.07 1.05.07 1.35h-5.02v-4.25c0-2.86 2.07-4.3 6.22-4.3 3.88 0 5.82 1.49 5.82 4.49v16.92zm-5.22-3.97v-5.48c-1.2.29-1.8.83-1.8 1.61v3.87c0 .64.32.97.94.97.58 0 .86-.33.86-.97zM112.14 51.79h-3.29c-2.35 0-3.77-.36-4.23-1.06-.46-.72-.69-2.08-.69-4.1V33.64h-2.33v-3.11h2.33v-4.28h5.21v4.28h2.82v3.11h-2.82v12.97c0 .62.19 1.04.56 1.26.37.21 1.18.32 2.44.32v3.6zM117.87 51.79h-4.76v-3.83h4.76v3.83z"/>
  </g>
  <defs>
    <clipPath id="clip0_611_308">
      <path fill="#fff" d="M0 0h270v55H0z"/>
    </clipPath>
  </defs>
</svg>
