<svg width="42" height="41" fill="none" xmlns="http://www.w3.org/2000/svg">
  <g clip-path="url(#whatsapp__clip0)">
    <path d="M.976 41a.904.904 0 01-.636-.259.858.858 0 01-.226-.844l2.73-9.733c-1.7-3-2.596-6.395-2.595-9.841C.254 9.117 9.596 0 21.075 0c5.567.002 10.799 2.12 14.73 5.96 3.932 3.842 6.096 8.949 6.095 14.38-.005 11.206-9.347 20.323-20.825 20.323h-.01a21.278 21.278 0 01-9.636-2.31L1.203 40.971A.919.919 0 01.976 41z" fill="#000"/>
    <path d="M1.669 39.449l2.73-9.731A18.4 18.4 0 011.83 20.33C1.834 9.976 10.466 1.552 21.071 1.552c5.148.002 9.979 1.958 13.611 5.507 3.633 3.55 5.633 8.268 5.63 13.285-.004 10.354-8.636 18.779-19.24 18.779h-.008a19.61 19.61 0 01-9.195-2.285l-10.2 2.61z" fill="#FFFF38"/>
    <path d="M.976 40.128l2.827-10.08a19.061 19.061 0 01-2.66-9.725C1.147 9.598 10.088.873 21.075.873 26.405.875 31.41 2.9 35.173 6.577c3.763 3.677 5.835 8.564 5.833 13.762C41 31.064 32.059 39.791 21.075 39.791c-.001 0 0 0 0 0h-.01a20.3 20.3 0 01-9.523-2.368L.976 40.128zm11.055-6.226l.605.35a16.852 16.852 0 008.432 2.254h.007c9.13 0 16.562-7.254 16.565-16.168.002-4.32-1.72-8.383-4.847-11.439-3.128-3.055-7.287-4.74-11.712-4.741-9.138 0-16.57 7.252-16.573 16.167a15.842 15.842 0 002.533 8.604l.394.612-1.674 5.965 6.27-1.604z" fill="#000"/>
    <path fill-rule="evenodd" clip-rule="evenodd" d="M16.093 12.192c-.373-.81-.766-.826-1.12-.84-.29-.012-.623-.012-.955-.012a1.85 1.85 0 00-1.328.609c-.456.486-1.743 1.662-1.743 4.054 0 2.393 1.785 4.704 2.034 5.029.248.324 3.445 5.39 8.507 7.338 4.207 1.62 5.063 1.298 5.976 1.217.913-.081 2.946-1.176 3.361-2.311.416-1.136.416-2.108.29-2.312-.124-.202-.456-.324-.954-.567-.498-.243-2.946-1.42-3.403-1.582-.456-.162-.788-.243-1.12.244-.333.486-1.286 1.58-1.577 1.905-.29.325-.581.366-1.08.122-.497-.243-2.101-.756-4.004-2.413-1.48-1.288-2.48-2.88-2.77-3.366-.29-.486-.005-.727.218-.992.403-.479 1.079-1.338 1.245-1.663.166-.324.083-.608-.042-.851-.124-.243-1.092-2.648-1.535-3.61z" fill="#000"/>
  </g>
  <defs>
    <clipPath id="whatsapp__clip0">
      <path fill="#fff" d="M0 0h42v41H0z"/>
    </clipPath>
  </defs>
</svg>
