<svg width="99" height="45" fill="none" xmlns="http://www.w3.org/2000/svg">
  <path d="M68 20L8.5 19v-4l6-7L18 6.5h38.5L65 15l3 5z" fill="#2D6B8A" stroke="#2D6B8A"/>
  <ellipse cx="13.969" cy="35.5" rx="7.969" ry="7.5" fill="#8092A0"/>
  <ellipse cx="78.969" cy="35.5" rx="7.969" ry="7.5" fill="#8092A0"/>
  <path d="M22.4 35.907c0 .38-.031.752-.08 1.119-.55 4.388-4.288 7.784-8.825 7.784-4.662 0-8.48-3.584-8.867-8.145a9.122 9.122 0 01-.038-.76A8.903 8.903 0 0113.495 27c4.917.003 8.905 3.988 8.905 8.907zM7.968 35.15h2.559c.07-.28.182-.542.323-.784L9.033 32.55a5.546 5.546 0 00-1.065 2.6zm1.067 4.14l1.826-1.827a3.023 3.023 0 01-.331-.771H7.97a5.574 5.574 0 001.065 2.599zm3.688-.422a3.041 3.041 0 01-.772-.316l-1.811 1.813a5.499 5.499 0 002.583 1.07v-2.568zm0-8.488a5.525 5.525 0 00-2.602 1.078l1.814 1.814a3.02 3.02 0 01.787-.329V30.38zm5.232 2.169l-1.816 1.817c.142.242.252.504.32.783h2.562a5.545 5.545 0 00-1.066-2.6zm-3.69.396c.28.073.543.184.787.328l1.813-1.814a5.547 5.547 0 00-2.602-1.076l.002 2.562zm2.584 7.42l-1.811-1.812a2.98 2.98 0 01-.772.313v2.57a5.494 5.494 0 002.583-1.072zm2.182-3.672h-2.58a3.093 3.093 0 01-.32.771l1.819 1.82a5.582 5.582 0 001.08-2.591zm69.296-.786c0 .38-.03.752-.08 1.119-.55 4.388-4.288 7.784-8.824 7.784-4.662 0-8.48-3.584-8.867-8.145a9.121 9.121 0 01-.04-.76A8.903 8.903 0 0179.424 27c4.917.003 8.904 3.988 8.904 8.907zm-14.433-.756h2.56c.07-.28.183-.542.323-.784l-1.817-1.816a5.547 5.547 0 00-1.066 2.6zm1.067 4.14l1.826-1.827a3.023 3.023 0 01-.331-.771h-2.56a5.585 5.585 0 001.065 2.599zm3.689-.422a3.041 3.041 0 01-.772-.316l-1.811 1.813a5.499 5.499 0 002.583 1.07v-2.568zm0-8.488a5.522 5.522 0 00-2.601 1.078l1.813 1.814a3.02 3.02 0 01.787-.329v-2.563zm5.232 2.169l-1.817 1.817c.142.242.252.504.322.783h2.56a5.534 5.534 0 00-1.065-2.6zm-3.69.396c.28.073.543.184.787.328l1.814-1.815a5.543 5.543 0 00-2.602-1.075v2.562zm2.584 7.42l-1.81-1.812c-.238.142-.5.242-.773.313v2.57a5.49 5.49 0 002.583-1.072zm2.18-3.672h-2.578a3.056 3.056 0 01-.321.771l1.819 1.82a5.572 5.572 0 001.08-2.591z" fill="#000"/>
  <path d="M98.71 31.218l-1.013 5.479a2.62 2.62 0 01-2.573 2.142h-5.115a10.9 10.9 0 00.415-2.931c0-6.067-4.937-11.003-11.002-11.003-6.067 0-11.004 4.936-11.004 11.003 0 .316.02.627.047.938.058.686.182 1.35.36 1.993H24.08a10.798 10.798 0 00.415-2.93c0-6.066-4.936-11.003-11.002-11.003-6.066 0-11.003 4.937-11.003 11.002 0 .314.02.627.046.938.059.687.183 1.352.362 1.995H1.6S-.612 31.73.166 28.497c.607-2.518 2.16-3.544 2.16-3.544s-.146-3.692 1.845-7.512c.422-.811 3.704-5.277 8.645-9.73 2.258-2.037 4.034-2.672 7.074-2.68 8.61-.023 28.404-.065 33.08.011 3.11.051 4.899.535 7.602 2.146a.692.692 0 01.329.768.683.683 0 01-.661.511h-.176l8.734 8.55s3.45.017 4.6.064c5.716.236 15.996 1.08 22.229 5.831a3.946 3.946 0 011.524 2.64c.174 1.363.2 2.871.2 2.871a2.616 2.616 0 011.359 2.794zM26.978 8.468h-9.024c-.98 0-1.93.324-2.703.927-2.113 1.649-3.768 3.466-5 5.069-.25.325-.294.762-.114 1.13.178.37.549.606.959.612l15.88.224.002-7.963zm4.807 0h-.612v8.02l.612.01v-8.03zm32.454 8.485l-8.67-8.487H35.982v8.089l20.77.291c-.01-.102-.025-.203-.025-.308 0-1.39.994-2.518 2.22-2.518 1.228 0 2.22 1.128 2.22 2.518 0 .127-.016.248-.031.37l3.104.044z" fill="#000"/>
  <path d="M40.792 23.884l-.43 2.505h-2.506l-.448 2.628h2.479l-.449 2.496h-2.487L36.521 34h-2.497l.431-2.487h-2.628L31.397 34h-2.505l.43-2.487h-2.487l.457-2.496h2.46l.476-2.628h-2.47l.43-2.505h2.488l.43-2.488h2.505l-.44 2.488H35.8l.44-2.488h2.495l-.43 2.488h2.487zm-5.44 2.505h-2.628l-.449 2.628h2.61l.467-2.628zM47.437 34h-1.328l-.36-.694c-.61.539-1.254.808-1.934.808-.662 0-1.242-.17-1.74-.51-.492-.345-.738-.893-.738-1.643v-8.227c0-1.634 1.043-2.452 3.129-2.452 1.98 0 2.97.744 2.97 2.233v2.337h-2.504v-2.548c0-.205-.138-.308-.413-.308-.276 0-.413.103-.413.308v8.745c0 .205.137.307.413.307.275 0 .413-.102.413-.307v-2.356h-.572V27.76h3.077V34zm3.287-4.64V34h-2.699V21.396h2.91c1.154 0 2.01.147 2.566.44.563.293.844.89.844 1.793v3.498c0 .826-.229 1.412-.686 1.758-.457.34-1.435.498-2.935.474zm.923-2.47v-3.024c0-.445-.308-.668-.923-.668v4.36c.615 0 .923-.223.923-.668zm3.172 4.957v-8.113c0-1.634 1.06-2.452 3.182-2.452 2.092 0 3.138.812 3.138 2.435v8.112c0 .733-.293 1.298-.88 1.696-.58.393-1.338.59-2.276.59-2.109 0-3.164-.757-3.164-2.268zm3.613.131v-8.586c0-.252-.15-.378-.449-.378-.31 0-.465.126-.465.378v8.587c0 .252.155.377.465.377.3 0 .449-.126.449-.378z" fill="#FFFF38"/>
  <path d="M91 24h4l.5.8.5.8V28h-5v-4z" fill="#FFFF38" stroke="#FFFF38"/>
  <path d="M21 3.333V5h5V3.333L24.846 1h-2.692L21 3.333z" fill="#ED542B" stroke="#ED542B"/>
</svg>
