<svg style="enable-background:new 0 0 512 512;" version="1.1" viewBox="0 0 512 512" xml:space="preserve" xmlns="http://www.w3.org/2000/svg" xmlns:xlink="http://www.w3.org/1999/xlink"><g id="_x32_2_x2C__Flag_x2C__location_x2C__map_x2C__Destination_x2C__marker"><g><polygon points="396.56,38.8 307.95,141.28 396.56,243.73 115.44,243.73 115.44,38.8   " style="fill:#ffff38;"/><path d="M115.44,483.2c-5.523,0-10-4.478-10-10V243.73c0-5.523,4.477-10,10-10s10,4.477,10,10V473.2    C125.44,478.723,120.963,483.2,115.44,483.2z"/><path d="M396.56,253.73H115.44c-5.523,0-10-4.477-10-10V38.8c0-5.523,4.477-10,10-10h281.12c3.913,0,7.467,2.282,9.094,5.841    c1.627,3.559,1.03,7.74-1.53,10.7l-82.954,95.938l82.953,95.91c2.56,2.959,3.158,7.141,1.531,10.7    C404.027,251.447,400.473,253.73,396.56,253.73z M125.44,233.73h249.25l-74.303-85.909c-3.249-3.755-3.249-9.326-0.001-13.082    L374.694,48.8H125.44V233.73z"/></g></g><g id="Layer_1"/></svg>