<svg width="72" height="29" fill="none" xmlns="http://www.w3.org/2000/svg">
  <path d="M29.584 6.768l-.861 5.01h-5.01l-.897 5.255h4.957l-.896 4.992h-4.975L21.041 27h-4.992l.861-4.975h-5.256L10.793 27h-5.01l.862-4.975H1.67l.914-4.992h4.922l.95-5.256h-4.94l.86-5.01h4.976l.86-4.974h5.01l-.878 4.975H19.6l.878-4.975h4.993l-.862 4.975h4.975zm-10.88 5.01h-5.257l-.896 5.255h5.22l.932-5.256zM42.872 27h-2.654l-.721-1.389c-1.219 1.078-2.508 1.617-3.867 1.617-1.324 0-2.484-.34-3.48-1.019-.985-.691-1.477-1.787-1.477-3.287V6.469c0-3.27 2.086-4.905 6.258-4.905 3.96 0 5.941 1.489 5.941 4.465v4.676h-5.01V5.607c0-.41-.275-.615-.826-.615-.55 0-.826.205-.826.615v17.49c0 .41.275.616.826.616.55 0 .826-.205.826-.615v-4.711H36.72V14.52h6.152V27zm6.574-9.281V27H44.05V1.793h5.818c2.309 0 4.02.293 5.133.879 1.125.586 1.688 1.781 1.688 3.586v6.996c0 1.652-.458 2.824-1.372 3.516-.914.68-2.87.996-5.87.949zm1.846-4.94V6.732c0-.89-.615-1.336-1.846-1.336v8.72c1.23 0 1.846-.446 1.846-1.337zm6.346 9.914V6.47c0-3.27 2.12-4.905 6.363-4.905 4.184 0 6.275 1.623 6.275 4.87v16.224c0 1.465-.586 2.596-1.758 3.393-1.16.785-2.677 1.178-4.552 1.178-4.219 0-6.328-1.512-6.328-4.536zm7.224.264V5.783c0-.504-.299-.756-.896-.756-.621 0-.932.252-.932.756v17.174c0 .504.31.756.932.756.597 0 .896-.252.896-.756z" fill="#FFED00"/>
  <path d="M29.584 6.768l.986.169.2-1.17h-1.186v1zm-.861 5.01v1h.842l.143-.831-.985-.17zm-5.01 0v-1h-.844l-.142.831.986.168zm-.897 5.255l-.985-.168-.2 1.168h1.185v-1zm4.957 0l.985.177.211-1.177h-1.196v1zm-.896 4.992v1h.836l.148-.823-.984-.177zm-4.975 0v-1h-.841l-.144.83.985.17zM21.041 27v1h.842l.143-.83-.985-.17zm-4.992 0l-.986-.17-.202 1.17h1.188v-1zm.861-4.975l.985.171.203-1.17H16.91v1zm-5.256 0v-1h-.841l-.144.83.985.17zM10.793 27v1h.842l.143-.83-.985-.17zm-5.01 0l-.985-.17L4.595 28h1.188v-1zm.862-4.975l.985.171.203-1.17H6.645v1zm-4.975 0l-.984-.18-.216 1.18h1.2v-1zm.914-4.992v-1H1.75l-.15.82.984.18zm4.922 0v1h.835l.149-.822-.984-.178zm.95-5.256l.983.178.213-1.178H8.455v1zm-4.94 0l-.986-.17-.201 1.17h1.187v-1zm.86-5.01v-1h-.842l-.143.831.986.17zm4.976 0v1h.841l.144-.829-.985-.17zm.86-4.974v-1h-.84l-.144.83.985.17zm5.01 0l.985.174.208-1.174h-1.192v1zm-.878 4.975l-.985-.174-.207 1.174h1.192v-1zm5.256 0v1h.838l.146-.826-.984-.174zm.878-4.975v-1h-.838l-.146.826.985.174zm4.993 0l.985.17.203-1.17H25.47v1zm-.862 4.975l-.985-.171-.203 1.17h1.188v-1zm-5.906 5.01l.985.174.208-1.175h-1.193v1zm-5.256 0v-1h-.844l-.142.831.986.168zm-.896 5.255l-.986-.168-.2 1.168h1.186v-1zm5.22 0v1h.839l.146-.825-.985-.175zM28.599 6.598l-.86 5.01 1.97.339.862-5.01-1.972-.339zm.125 4.18h-5.01v2h5.01v-2zm-5.996.831l-.896 5.256 1.971.336.897-5.256-1.972-.336zm.09 6.424h4.956v-2h-4.957v2zm3.972-1.177l-.896 4.993 1.968.353.897-4.992-1.969-.354zm.088 4.17h-4.975v2h4.975v-2zm-5.96.829l-.861 4.974 1.97.342.862-4.975-1.971-.341zM21.041 26h-4.992v2h4.992v-2zm-4.007 1.17l.861-4.974-1.97-.341-.862 4.974 1.971.342zm-.124-6.145h-5.256v2h5.256v-2zm-6.241.83l-.861 4.974 1.97.342.862-4.975-1.971-.341zM10.793 26h-5.01v2h5.01v-2zm-4.024 1.17l.86-4.974-1.97-.341-.861 4.974 1.97.342zm-.124-6.145H1.67v2h4.975v-2zm-3.991 1.18l.914-4.992-1.968-.36-.914 4.992 1.968.36zm-.07-4.172h4.922v-2H2.584v2zm5.906-.822l.95-5.256-1.97-.355-.95 5.255 1.969.356zm-.035-6.434h-4.94v2h4.94v-2zm-3.954 1.17l.861-5.01-1.97-.339-.862 5.01 1.971.339zm-.124-4.18h4.975v-2H4.377v2zm5.96-.829l.861-4.974-1.97-.342-.862 4.975 1.97.341zm-.124-4.145h5.01v-2h-5.01v2zm4.025-1.174l-.879 4.975 1.97.348.878-4.975-1.97-.348zm.106 6.149H19.6v-2h-5.256v2zm6.24-.826l.88-4.975-1.97-.348-.88 4.975 1.97.348zm-.105-4.149h4.992v-2h-4.992v2zm4.006-1.17l-.861 4.974 1.97.341.862-4.974-1.97-.342zm.124 6.145h4.975v-2h-4.975v2zm-5.906 3.01h-5.256v2h5.256v-2zm-6.242.831l-.896 5.256 1.972.336.896-5.256-1.972-.336zm.09 6.424h5.22v-2h-5.22v2zm6.205-.825l.932-5.256-1.97-.35-.931 5.257 1.97.349zM42.873 27v1h1v-1h-1zm-2.654 0l-.888.46.28.54h.608v-1zm-.721-1.389l.888-.46-.59-1.138-.96.85.662.748zm-7.348.598l-.574.818.01.008.564-.826zm10.723-15.504v1h1v-1h-1zm-5.01 0h-1v1h1v-1zm0 7.682h1v-1h-1v1zm-1.142 0h-1v1h1v-1zm0-3.867v-1h-1v1h1zm6.152 0h1v-1h-1v1zm0 11.48h-2.654v2h2.654v-2zm-1.767.54l-.72-1.39-1.776.922.721 1.389 1.775-.922zm-2.27-1.678c-1.074.95-2.136 1.367-3.205 1.367v2c1.65 0 3.166-.662 4.53-1.869l-1.325-1.498zM35.63 26.23c-1.144 0-2.103-.29-2.917-.846l-1.127 1.652c1.178.804 2.54 1.194 4.044 1.194v-2zm-2.906-.838c-.651-.458-1.051-1.204-1.051-2.47h-2c0 1.736.584 3.181 1.902 4.106l1.15-1.636zm-1.051-2.47V6.47h-2v16.453h2zm0-16.452c0-1.407.436-2.308 1.181-2.891.791-.62 2.094-1.014 4.077-1.014v-2c-2.19 0-4.016.425-5.31 1.44-1.342 1.05-1.948 2.602-1.948 4.465h2zm5.258-3.905c1.884 0 3.114.36 3.855.916.687.516 1.086 1.304 1.086 2.55h2c0-1.732-.591-3.177-1.884-4.149C40.748.95 39.009.564 36.931.564v2zm4.941 3.465v4.676h2V6.03h-2zm1 3.676h-5.01v2h5.01v-2zm-4.01 1V5.607h-2v5.098h2zm0-5.098c0-.451-.167-.934-.609-1.263-.387-.288-.846-.352-1.217-.352v2c.079 0 .115.008.12.01.005 0-.038-.01-.097-.054a.52.52 0 01-.161-.201.363.363 0 01-.036-.14h2zm-1.826-1.615c-.37 0-.83.064-1.217.352-.442.33-.61.812-.61 1.263h2a.363.363 0 01-.035.14.517.517 0 01-.16.201c-.06.045-.103.054-.098.053a.569.569 0 01.12-.009v-2zM35.21 5.608v17.49h2V5.608h-2zm0 17.49c0 .452.167.935.61 1.264.386.288.846.352 1.216.352v-2a.571.571 0 01-.12-.01c-.005 0 .038.01.098.054.065.049.124.12.16.201a.363.363 0 01.036.14h-2zm1.826 1.616c.37 0 .83-.064 1.217-.352.442-.329.61-.812.61-1.263h-2c0-.009 0-.063.035-.14a.52.52 0 01.16-.201c.06-.045.103-.054.099-.053a.571.571 0 01-.12.009v2zm1.826-1.615v-4.711h-2v4.71h2zm-1-5.711H36.72v2h1.142v-2zm-.142 1V14.52h-2v3.867h2zm-1-2.867h6.152v-2H36.72v2zm5.152-1V27h2V14.52h-2zm7.574 3.199l.016-1-1.016-.016v1.016h1zm0 9.281v1h1v-1h-1zm-5.396 0h-1v1h1v-1zm0-25.207v-1h-1v1h1zm10.951.879l-.466.885.004.002.462-.887zm.316 14.098l.597.802.007-.005-.604-.797zm-5.87-11.374v-1h-1v1h1zm0 8.72h-1v1h1v-1zm-1 3.603V27h2v-9.281h-2zm1 8.281H44.05v2h5.396v-2zm-4.397 1V1.793h-2V27h2zm-1-24.207h5.818v-2H44.05v2zm5.818 0c2.26 0 3.773.293 4.667.764l.932-1.77c-1.332-.701-3.242-.994-5.599-.994v2zm4.671.766c.661.344 1.15 1.088 1.15 2.699h2c0-2-.637-3.646-2.226-4.473l-.924 1.774zm1.15 2.699v6.996h2V6.258h-2zm0 6.996c0 1.485-.408 2.289-.975 2.718l1.207 1.595c1.26-.954 1.768-2.493 1.768-4.313h-2zm-.968 2.713c-.266.197-.795.414-1.717.562-.899.146-2.074.213-3.542.19l-.031 2c1.532.024 2.835-.044 3.893-.215 1.035-.168 1.941-.45 2.59-.932l-1.193-1.605zm-2.429-3.188V6.732h-2v6.047h2zm0-6.047c0-.703-.26-1.367-.875-1.812-.555-.401-1.265-.524-1.97-.524v2c.524 0 .737.1.797.145.02.014.022.02.024.025a.415.415 0 01.024.166h2zm-3.846-1.336v8.72h2v-8.72h-2zm1 9.72c.706 0 1.416-.123 1.97-.525.615-.445.876-1.109.876-1.812h-2a.415.415 0 01-.024.166c-.002.006-.004.012-.024.026-.06.044-.273.144-.798.144v2zM68.52 26.05l.561.828.002-.001-.563-.827zm-9.88-3.358V6.47h-2v16.224h2zm0-16.224c0-1.401.44-2.3 1.2-2.886.81-.624 2.142-1.019 4.163-1.019v-2c-2.222 0-4.071.424-5.383 1.434-1.36 1.05-1.98 2.602-1.98 4.47h2zm5.363-3.905c1.99 0 3.299.391 4.094 1.008.746.579 1.181 1.47 1.181 2.862h2c0-1.855-.61-3.398-1.956-4.442C68.025.985 66.195.564 64.002.564v2zm5.275 3.87v16.224h2V6.434h-2zm0 16.224c0 1.147-.433 1.962-1.32 2.566l1.125 1.654c1.456-.99 2.195-2.437 2.195-4.22h-2zm-1.318 2.565c-.947.64-2.25 1.006-3.992 1.006v2c2.008 0 3.74-.42 5.113-1.35l-1.12-1.656zm-3.992 1.006c-2.02 0-3.355-.368-4.164-.947-.747-.535-1.164-1.338-1.164-2.589h-2c0 1.774.637 3.238 2 4.214 1.3.933 3.13 1.322 5.328 1.322v-2zm1.896-3.272V5.783h-2v17.174h2zm0-17.174c0-.455-.143-.963-.58-1.331-.403-.34-.9-.425-1.316-.425v2c.082 0 .118.01.121.01.001 0-.04-.011-.093-.056a.417.417 0 01-.118-.16c-.018-.048-.014-.067-.014-.038h2zm-1.896-1.756c-.42 0-.92.081-1.329.413-.448.364-.603.875-.603 1.343h2c0-.025.004-.001-.017.05a.416.416 0 01-.12.16c-.05.041-.087.05-.078.047a.617.617 0 01.147-.013v-2zm-1.932 1.756v17.174h2V5.783h-2zm0 17.174c0 .468.155.98.603 1.343.409.332.909.413 1.329.413v-2a.615.615 0 01-.147-.013c-.009-.002.027.006.078.047a.416.416 0 01.12.16c.021.051.017.075.017.05h-2zm1.932 1.756c.415 0 .913-.084 1.317-.425.436-.368.58-.876.58-1.331h-2c0 .03-.005.01.013-.037a.417.417 0 01.118-.16c.053-.046.094-.057.093-.057-.003 0-.039.01-.121.01v2z" fill="#000"/>
</svg>
