<svg xmlns="http://www.w3.org/2000/svg" width="95" height="96" fill="none" viewBox="0 0 95 96">
  <g filter="url(#filter0_f_542_308)">
    <rect width="45" height="45" x="25" y="25.8" fill="#FFFF34" rx="6"/>
  </g>
  <path fill="#000" d="M77.82 35.631c-.146-3.193-.654-5.374-1.395-7.282a14.702 14.702 0 00-3.46-5.314 14.708 14.708 0 00-5.314-3.46c-1.908-.742-4.089-1.249-7.282-1.394C57.169 18.035 56.147 18 48 18c-8.147 0-9.17.035-12.369.18-3.193.146-5.373.654-7.282 1.395a14.702 14.702 0 00-5.314 3.46 14.706 14.706 0 00-3.46 5.314c-.742 1.908-1.249 4.089-1.394 7.282-.146 3.2-.181 4.221-.181 12.368 0 8.148.035 9.17.181 12.37.146 3.193.653 5.374 1.395 7.282a14.7 14.7 0 003.46 5.313 14.698 14.698 0 005.314 3.46c1.907.742 4.088 1.25 7.282 1.395 3.2.146 4.221.18 12.369.18 8.147 0 9.169-.034 12.368-.18 3.194-.146 5.374-.653 7.282-1.395a15.337 15.337 0 008.774-8.773c.742-1.908 1.249-4.09 1.395-7.282.145-3.2.18-4.222.18-12.369 0-8.148-.035-9.17-.18-12.369zm-5.4 24.492c-.134 2.925-.623 4.514-1.033 5.57a9.935 9.935 0 01-5.694 5.694c-1.057.41-2.645.9-5.57 1.033-3.163.144-4.112.175-12.123.175s-8.96-.03-12.123-.175c-2.925-.133-4.513-.622-5.57-1.033a9.298 9.298 0 01-3.45-2.244 9.293 9.293 0 01-2.244-3.45c-.41-1.056-.9-2.645-1.033-5.57-.144-3.163-.175-4.112-.175-12.122 0-8.011.03-8.96.175-12.123.134-2.926.622-4.514 1.033-5.571a9.3 9.3 0 012.244-3.45 9.288 9.288 0 013.45-2.244c1.057-.41 2.645-.9 5.57-1.033 3.164-.144 4.113-.175 12.123-.175 8.01 0 8.959.03 12.123.176 2.925.133 4.513.622 5.57 1.032a9.302 9.302 0 013.45 2.244 9.288 9.288 0 012.243 3.45c.411 1.057.9 2.645 1.033 5.57.145 3.164.175 4.113.175 12.123 0 8.01-.03 8.96-.175 12.123z"/>
  <path fill="#000" d="M48 32.594c-8.508 0-15.406 6.898-15.406 15.406 0 8.508 6.898 15.405 15.405 15.405 8.509 0 15.406-6.897 15.406-15.405S56.508 32.594 48 32.594zM48 58c-5.523 0-10-4.477-10-10s4.477-10 10-10 10 4.477 10 10-4.477 10-10 10zM67.614 31.986a3.6 3.6 0 11-7.2 0 3.6 3.6 0 017.2 0z"/>
  <defs>
    <filter id="filter0_f_542_308" width="95" height="95" x="0" y=".8" color-interpolation-filters="sRGB" filterUnits="userSpaceOnUse">
      <feFlood flood-opacity="0" result="BackgroundImageFix"/>
      <feBlend in="SourceGraphic" in2="BackgroundImageFix" result="shape"/>
      <feGaussianBlur result="effect1_foregroundBlur_542_308" stdDeviation="12.5"/>
    </filter>
  </defs>
</svg>
