<svg xmlns="http://www.w3.org/2000/svg" width="91" height="91" fill="none" viewBox="0 0 91 91">
  <g filter="url(#filter0_f_49_71)">
    <rect width="41" height="41" x="25" y="25" fill="#FFFF34" rx="6"/>
  </g>
  <path fill="#000" d="M69.85 35.693c-.122-2.661-.545-4.479-1.163-6.069a12.252 12.252 0 00-2.883-4.428 12.254 12.254 0 00-4.428-2.884c-1.59-.618-3.408-1.04-6.069-1.16C52.641 21.028 51.79 21 45 21c-6.79 0-7.641.029-10.307.15-2.661.122-4.478.545-6.069 1.163a12.252 12.252 0 00-4.428 2.883 12.253 12.253 0 00-2.884 4.428c-.618 1.59-1.04 3.408-1.16 6.068C20.028 38.36 20 39.21 20 46s.029 7.641.151 10.307c.121 2.661.544 4.478 1.162 6.069a12.252 12.252 0 002.884 4.428 12.25 12.25 0 004.428 2.883c1.59.618 3.407 1.04 6.068 1.162 2.666.122 3.518.15 10.307.15 6.79 0 7.642-.028 10.308-.15 2.66-.121 4.478-.544 6.068-1.162a12.781 12.781 0 007.311-7.311c.619-1.59 1.041-3.408 1.163-6.069C69.97 53.641 70 52.79 70 46c0-6.79-.029-7.641-.15-10.307zm-4.5 20.41c-.111 2.437-.519 3.76-.861 4.642a8.278 8.278 0 01-4.745 4.744c-.88.343-2.204.75-4.642.86-2.635.121-3.426.147-10.102.147s-7.467-.026-10.102-.146c-2.438-.111-3.761-.518-4.643-.86a7.747 7.747 0 01-2.874-1.871 7.744 7.744 0 01-1.87-2.874c-.342-.881-.75-2.205-.86-4.642-.121-2.636-.147-3.427-.147-10.103 0-6.675.026-7.466.146-10.102.112-2.438.519-3.761.86-4.642a7.75 7.75 0 011.871-2.875 7.74 7.74 0 012.875-1.87c.88-.342 2.204-.75 4.642-.86 2.636-.121 3.427-.147 10.102-.147 6.675 0 7.466.026 10.102.146 2.438.112 3.761.519 4.642.861a7.752 7.752 0 012.875 1.87 7.74 7.74 0 011.87 2.875c.342.88.75 2.204.86 4.642.12 2.636.146 3.427.146 10.102 0 6.676-.025 7.466-.145 10.102z"/>
  <path fill="#000" d="M45 33.162c-7.09 0-12.838 5.748-12.838 12.838 0 7.09 5.748 12.838 12.838 12.838 7.09 0 12.838-5.748 12.838-12.838 0-7.09-5.748-12.838-12.838-12.838zm0 21.171a8.333 8.333 0 110-16.666 8.333 8.333 0 010 16.666zM61.345 32.655a3 3 0 11-6 0 3 3 0 016 0z"/>
  <defs>
    <filter id="filter0_f_49_71" width="91" height="91" x="0" y="0" color-interpolation-filters="sRGB" filterUnits="userSpaceOnUse">
      <feFlood flood-opacity="0" result="BackgroundImageFix"/>
      <feBlend in="SourceGraphic" in2="BackgroundImageFix" result="shape"/>
      <feGaussianBlur result="effect1_foregroundBlur_49_71" stdDeviation="12.5"/>
    </filter>
  </defs>
</svg>
